<svg xmlns="http://www.w3.org/2000/svg" xmlns:xlink="http://www.w3.org/1999/xlink" fill="none" viewBox="0 0 343 200">
  <defs>
    <path id="reuse-0" fill="#fff" d="M0 0h343v200H0z"/>
  </defs>
  <g clip-path="url(#a)">
    <use xlink:href="#reuse-0"/>
    <path fill="#498AFD" d="M0 0h343v200H0z"/>
    <g clip-path="url(#b)">
      <path fill="#000" d="M-140 913V-161h620V913z"/>
      <path fill="url(#c)" d="M-140 913H934v620H-140z" transform="rotate(-90 -140 913)"/>
      <g filter="url(#d)">
        <path fill="url(#e)" d="M646.3 679.3C471.3 680.2 5 508 3.8 274.9 2.6 41.7 279.8-490 455-490.8c175-1 251.6 353.1 145.1 677.2-77.5 236 185.5 510.2 46.3 492.9Z"/>
      </g>
      <g filter="url(#f)" style="mix-blend-mode:color-dodge">
        <path fill="url(#g)" d="M-4 413c5.6 81.8 63.3 116.4 119.6 140.1C101.4 704 120 857.2 208 1004c0 0-45.1-264.5 0-329 54.6-78-17.7-90.4-92.4-121.9C152 169 400.8-199.5 254-404 49.6-688.9-56.5-351.5-4 413Z"/>
      </g>
    </g>
    <path fill="url(#h)" d="M375 812h375v824H375z" transform="rotate(-180 375 812)"/>
    <g stroke="#fff" stroke-miterlimit="10" stroke-opacity=".2" stroke-width=".5" clip-path="url(#i)">
      <path d="M381.1 326.9c.2 3.3-207-423 90-306"/>
      <path d="M349.8 320.2c.1 3.2-179.1-403.2 117.9-296.5"/>
      <path d="M318.4 313.6c.2 3-151.2-383.4 145.8-287"/>
      <path d="M287 307c.2 3-123.3-363.7 173.7-277.5"/>
      <path d="M255.7 300.4c.1 2.8-95.5-344 201.5-268"/>
      <path d="M224.4 293.7c0 2.8-67.6-324 229.3-258.3"/>
      <path d="M193 287.1c.1 2.7-39.7-304.3 257.2-248.8"/>
      <path d="M161.7 280.5c0 2.6-11.9-284.5 285-239.3"/>
      <path d="M130.3 273.9c.1 2.4 16-264.8 313-229.9"/>
      <path d="M99 267.3c0 2.3 43.9-245 340.8-220.3"/>
      <path d="M67.6 260.6c0 2.3 71.8-225.1 368.7-210.7"/>
      <path d="M36.2 254c.1 2.1 99.7-205.4 396.6-201.2"/>
      <path d="M4.9 247.4c0 2 127.5-185.6 424.4-191.7"/>
      <path d="M-26.5 240.8C-26.4 242.7 129 74.9 426 58.6"/>
      <path d="M-57.9 234.2c.1 1.8 183.3-146 480.2-172.7"/>
      <path d="M-89.2 227.5c0 1.7 211.2-126.2 508-163.1"/>
      <path d="M-120.5 220.9c0 1.6 239-106.5 535.9-153.6"/>
      <path d="M-151.9 214.3c.1 1.5 267-86.7 563.8-144.1"/>
      <path d="M-183.3 207.7c.1 1.4 294.9-67 591.7-134.6"/>
      <path d="M-214.6 201c0 1.3 322.7-47 619.5-125"/>
      <path d="M-246 194.4c0 1.2 350.6-27.3 647.5-115.5"/>
      <path d="M-277.3 187.8c0 1.1 378.5-7.5 675.3-106"/>
      <path d="M-308.7 181.2c0 1 406.4 12.2 703.2-96.5"/>
      <path d="M-340 174.6c0 .8 434.2 32 731-87"/>
      <path d="M-371.4 168c0 .7 462.1 51.7 759-77.5"/>
      <path d="M-402.7 161.3c0 .7 490 71.6 786.7-67.9"/>
      <path d="M-434 154.7c0 .5 517.8 91.3 814.6-58.4"/>
      <path d="M-465.4 148c0 .5 545.7 111.2 842.5-48.8"/>
      <path d="M-496.8 141.5c0 .3 573.6 130.9 870.4-39.4"/>
      <path d="M-528.1 134.8c0 .3 601.4 150.7 898.2-29.8"/>
      <path d="M-559.5 128.2c0 .1 629.4 170.5 926.1-20.3"/>
      <path d="M-590.9 121.6s657.3 190.3 954-10.8"/>
    </g>
    <path fill="#856A36" d="m170 166.7 65-34v2.5l-65 34v-2.5Z"/>
    <path fill="#A49373" d="m105 131.1 65 35.6v3.5l-65-35.6v-3.5Z"/>
    <path fill="#E6C484" d="m170 95.3 65 37.3-65 34.1-65-35.6 65-35.8Z"/>
    <path fill="url(#j)" d="m170 95.3 65 37.3-65 34.1-65-35.6 65-35.8Z"/>
    <path fill="url(#k)" d="m170 119.9 49.5-27.1v40L170 159v-39.1Z"/>
    <path fill="url(#l)" d="m117.4 90.5 52.6 29.4v39l-52.6-29V90.5Z"/>
    <path fill="url(#m)" d="m170 64.2 49.5 28.6-49.5 27-52.6-29.3L170 64.2Z"/>
    <path fill="#4784EE" d="m170 91.1 65-35.6v48.4l-65 34V91.1Z" opacity=".2"/>
    <path fill="url(#n)" d="m105 54.7 65 36.4v46.8l-65-35.7V54.7Z" opacity=".6"/>
    <path fill="url(#o)" d="m170 23 65 32.5-65 35.6-65-36.4L170 23Z"/>
  </g>
  <defs>
    <linearGradient id="c" x1="-99" x2="1149.5" y1="1223" y2="691.2" gradientUnits="userSpaceOnUse">
      <stop stop-color="#D0B75E"/>
      <stop offset=".2" stop-color="#71A042"/>
      <stop offset=".4" stop-color="#06F"/>
      <stop offset=".5" stop-color="#F98B8B" stop-opacity=".9"/>
      <stop offset=".6" stop-color="#FFCF88"/>
      <stop offset=".7" stop-color="#FC6161"/>
      <stop offset=".9" stop-color="#FFD464" stop-opacity="0"/>
      <stop offset="1" stop-color="#FFCB67" stop-opacity="0"/>
    </linearGradient>
    <linearGradient id="j" x1="167.7" x2="167.7" y1="100.1" y2="166.7" gradientUnits="userSpaceOnUse">
      <stop stop-color="#fff" stop-opacity=".7"/>
      <stop offset="1" stop-color="#fff" stop-opacity="0"/>
    </linearGradient>
    <linearGradient id="k" x1="183.2" x2="199.6" y1="74.6" y2="179.9" gradientUnits="userSpaceOnUse">
      <stop stop-color="#fff"/>
      <stop offset="1" stop-color="#01348C"/>
    </linearGradient>
    <linearGradient id="l" x1="99.6" x2="183.9" y1="145.8" y2="210" gradientUnits="userSpaceOnUse">
      <stop stop-color="#fff"/>
      <stop offset="1" stop-color="#01348C"/>
    </linearGradient>
    <linearGradient id="m" x1="84" x2="191" y1="103.5" y2="230.1" gradientUnits="userSpaceOnUse">
      <stop stop-color="#fff"/>
      <stop offset="1" stop-color="#01348C"/>
    </linearGradient>
    <linearGradient id="n" x1="83.1" x2="137.3" y1="98.1" y2="470.2" gradientUnits="userSpaceOnUse">
      <stop stop-color="#9EB3D8"/>
      <stop offset="1" stop-color="#01348C"/>
    </linearGradient>
    <linearGradient id="o" x1="167.7" x2="167.7" y1="24.5" y2="91.1" gradientUnits="userSpaceOnUse">
      <stop stop-color="#fff"/>
      <stop offset="1" stop-color="#fff" stop-opacity="0"/>
    </linearGradient>
    <radialGradient id="e" cx="0" cy="0" r="1" gradientTransform="rotate(-173.2 393.2 -19.8) scale(679.883 1588.04)" gradientUnits="userSpaceOnUse">
      <stop stop-color="#BFD6EB"/>
      <stop offset=".2" stop-color="#CCEF68"/>
      <stop offset=".4" stop-color="#BBEE68" stop-opacity=".9"/>
      <stop offset=".5" stop-color="#81F0A0"/>
      <stop offset=".9" stop-color="#9DF188" stop-opacity="0"/>
    </radialGradient>
    <radialGradient id="g" cx="0" cy="0" r="1" gradientTransform="matrix(-363.16496 -943.4676 917.22185 -353.0623 260.9 926.9)" gradientUnits="userSpaceOnUse">
      <stop stop-color="#F2BE81"/>
      <stop offset=".3" stop-color="#FDAC34"/>
      <stop offset=".8" stop-color="#FFD707"/>
      <stop offset="1" stop-color="#FCDB66" stop-opacity="0"/>
    </radialGradient>
    <radialGradient id="h" cx="0" cy="0" r="1" gradientTransform="rotate(90 -125 687) scale(807.5)" gradientUnits="userSpaceOnUse">
      <stop/>
      <stop offset="1" stop-opacity="0"/>
    </radialGradient>
    <clipPath id="a">
      <use xlink:href="#reuse-0"/>
    </clipPath>
    <clipPath id="b">
      <path fill="#fff" d="M0 0h1074v620H0z" transform="rotate(-90 386.5 526.5)"/>
    </clipPath>
    <clipPath id="i">
      <path fill="#fff" d="M0 0h1062.3v327.4H0z" transform="translate(-591)"/>
    </clipPath>
    <filter id="d" width="711.9" height="1198.8" x="-10.2" y="-504.8" color-interpolation-filters="sRGB" filterUnits="userSpaceOnUse">
      <feFlood flood-opacity="0" result="BackgroundImageFix"/>
      <feBlend in="SourceGraphic" in2="BackgroundImageFix" result="shape"/>
      <feGaussianBlur result="effect1_foregroundBlur" stdDeviation="7"/>
    </filter>
    <filter id="f" width="385.2" height="1576.3" x="-51.3" y="-538.3" color-interpolation-filters="sRGB" filterUnits="userSpaceOnUse">
      <feFlood flood-opacity="0" result="BackgroundImageFix"/>
      <feBlend in="SourceGraphic" in2="BackgroundImageFix" result="shape"/>
      <feGaussianBlur result="effect1_foregroundBlur" stdDeviation="17"/>
    </filter>
  </defs>
</svg>