<svg xmlns="http://www.w3.org/2000/svg" xmlns:xlink="http://www.w3.org/1999/xlink" fill="none" viewBox="0 0 343 200">
  <defs>
    <path id="reuse-0" fill="#fff" d="M0 0h343v200H0z"/>
    <path id="reuse-1" fill="#5B6B87" d="m194.54 142.79-36.06.42-24.16-21.32 36.06-.42 24.16 21.32Z"/>
    <path id="reuse-2" fill="#fff" d="M0 0h191.27v116.13H0z"/>
    <path id="reuse-3" fill="#fff" d="M0 0h78.82v71.89H0z"/>
  </defs>
  <g clip-path="url(#a)">
    <use xlink:href="#reuse-0"/>
    <path fill="#498AFD" d="M0 0h343v200H0z"/>
    <g clip-path="url(#b)">
      <path fill="#000" d="M-140 913V-161h620V913z"/>
      <path fill="url(#c)" d="M-140 913H934v620H-140z" transform="rotate(-90 -140 913)"/>
      <g filter="url(#d)">
        <path fill="url(#e)" d="M646.28 679.26C471.22 680.19 5.08 508 3.83 274.88 2.58 41.72 279.88-489.87 454.93-490.8c175.06-.94 251.52 353.11 145.1 677.16-77.52 236.07 185.46 510.25 46.25 492.89Z"/>
      </g>
      <g filter="url(#f)" style="mix-blend-mode:color-dodge">
        <path fill="url(#g)" d="M-4 413c5.62 81.77 63.3 116.36 119.62 140.1C101.37 703.97 119.9 857.25 208 1004c0 0-45.14-264.5 0-329 54.58-78-17.7-90.41-92.38-121.9C151.92 168.94 400.76-199.44 254-404 49.62-688.87-56.5-351.5-4 413Z"/>
      </g>
    </g>
    <path fill="url(#h)" d="M375 812h375v824H375z" transform="rotate(-180 375 812)"/>
    <g stroke="#fff" stroke-miterlimit="10" stroke-opacity=".2" clip-path="url(#i)">
      <path d="M224.73 152.9c29.84-5.14 61.02 1.07 89.54 17.16 28.67 15.88 54.67 41.65 77.62 70.92"/>
      <path d="M223.64 153.13c29.27-4.73 59.79 2.3 87.5 19.22 27.88 16.72 52.97 43.33 75.25 73.17"/>
      <path d="M222.53 153.35c28.69-4.32 58.53 3.5 85.44 21.22 27.1 17.53 51.27 44.95 72.93 75.32"/>
      <path d="M221.4 153.59c28.09-3.93 57.24 4.68 83.34 23.17 26.32 18.3 49.6 46.48 70.67 77.36"/>
      <path d="M220.25 153.81c27.48-3.53 55.92 5.82 81.25 25.06 25.54 19.05 47.96 47.97 68.47 79.32"/>
      <path d="M219.09 154.04c26.86-3.15 54.58 6.95 79.11 26.89 24.76 19.77 46.34 49.38 66.33 81.19"/>
      <path d="M217.9 154.26c26.24-2.77 53.22 8.04 76.97 28.67 24 20.46 44.74 50.74 64.24 82.97"/>
      <path d="M216.71 154.48c25.58-2.4 51.83 9.1 74.8 30.4 23.23 21.12 43.17 52.03 62.19 84.67"/>
      <path d="M215.51 154.7c24.92-2.05 50.43 10.13 72.62 32.06 22.46 21.77 41.62 53.28 60.19 86.3"/>
      <path d="M214.28 154.91c24.25-1.7 49 11.13 70.42 33.67 21.7 22.39 40.1 54.48 58.22 87.87"/>
      <path d="M213.03 155.12c23.59-1.36 47.55 12.1 68.23 35.23 20.95 22.98 38.6 55.62 56.29 89.35"/>
      <path d="M211.78 155.33c22.9-1.03 46.1 13.04 66 36.73 20.23 23.54 37.14 56.71 54.41 90.79"/>
      <path d="M210.52 155.54c22.2-.71 44.61 13.93 63.78 38.17 19.47 24.1 35.68 57.76 52.53 92.15"/>
      <path d="M209.24 155.73c21.5-.4 43.13 14.83 61.56 39.57 18.72 24.62 34.24 58.75 50.68 93.45"/>
      <path d="M207.96 155.92c20.78-.09 41.63 15.68 59.31 40.92 18 25.12 32.84 59.72 48.85 94.7"/>
      <path d="M206.66 156.11c20.06.2 40.11 16.5 57.07 42.2 17.27 25.6 31.44 60.64 47.03 95.91"/>
      <path d="M205.34 156.3c19.35.48 38.6 17.27 54.83 43.44 16.55 26.06 30.08 61.5 45.24 97.03"/>
      <path d="M204.03 156.47c18.6.76 37.06 18.04 52.58 44.62 15.82 26.5 28.72 62.34 43.43 98.13"/>
      <path d="M202.7 156.65c17.86 1 35.52 18.74 50.32 45.75 15.11 26.92 27.38 63.12 41.63 99.17"/>
      <path d="M201.36 156.81c17.12 1.26 33.96 19.43 48.06 46.84 14.4 27.32 26.07 63.88 39.84 100.15"/>
      <path d="M200.02 156.97c16.35 1.5 32.4 20.09 45.8 47.87 13.7 27.7 24.75 64.6 38.04 101.1"/>
      <path d="M198.66 157.12c15.6 1.73 30.84 20.72 43.54 48.85 13 28.07 23.46 65.28 36.24 102"/>
      <path d="M197.3 157.27c14.83 1.94 29.26 21.31 41.26 49.77 12.3 28.42 22.18 65.93 34.44 102.85"/>
      <path d="M195.94 157.41c14.05 2.15 27.67 21.86 39 50.66 11.6 28.73 20.9 66.53 32.62 103.65"/>
      <path d="M194.56 157.54c13.27 2.34 26.1 22.41 36.74 51.49 10.9 29.04 19.63 67.1 30.8 104.41"/>
      <path d="M193.18 157.67c12.5 2.51 24.52 22.9 34.47 52.26 10.21 29.33 18.37 67.65 28.96 105.13"/>
      <path d="M191.8 157.79c11.7 2.69 22.9 23.36 32.19 53 9.52 29.6 17.12 68.15 27.12 105.8"/>
      <path d="M190.4 157.9c10.91 2.85 21.32 23.8 29.93 53.67 8.83 29.86 15.87 68.64 25.25 106.45"/>
      <path d="M189 158c10.12 2.99 19.71 24.19 27.65 54.3 8.15 30.08 14.63 69.08 23.38 107.04"/>
      <path d="M187.62 158.1c9.29 3.13 18.1 24.57 25.37 54.89 7.46 30.3 13.39 69.49 21.5 107.59"/>
      <path d="M186.22 158.2c8.49 3.23 16.49 24.9 23.09 55.41 6.78 30.5 12.16 69.87 19.6 108.1"/>
      <path d="M184.81 158.27c7.68 3.35 14.88 25.2 20.82 55.9 6.1 30.69 10.93 70.23 17.69 108.57"/>
      <path d="M183.4 158.35c6.87 3.44 13.28 25.48 18.54 56.34 5.42 30.86 9.7 70.54 15.77 109"/>
      <path d="M182 158.42c6.05 3.52 11.65 25.72 16.25 56.73 4.74 31 8.48 70.82 13.83 109.38"/>
      <path d="M180.59 158.48c5.23 3.6 10.03 25.93 13.97 57.06 4.06 31.14 7.25 71.08 11.88 109.74"/>
      <path d="M179.17 158.54c4.4 3.65 8.4 26.1 11.69 57.36 3.38 31.25 6.02 71.3 9.92 110.03"/>
      <path d="M177.77 158.58c7.65 7.38 11.54 90.26 17.36 167.9"/>
      <path d="M176.36 158.61c5.87 7.44 8.66 90.58 13.11 168.33"/>
      <path d="M174.95 158.64c4.1 7.49 5.79 90.8 8.83 168.66M173.54 158.66c2.3 7.5 2.92 90.97 4.55 168.9M172.13 158.68c.52 7.48.05 91.06.27 169.05M170.72 158.68c-1.26 7.45-2.82 91.08-4.01 169.13M169.33 158.68c-3.05 7.38-5.7 91.03-8.3 169.1M167.91 158.68c-4.84 7.27-8.57 90.9-12.59 168.98"/>
      <path d="M166.52 158.66c-6.64 7.15-11.46 90.72-16.9 168.79"/>
      <path d="M165.12 158.64c-3.91 3.51-7.9 26.1-11.23 57.6-3.44 31.5-6.24 71.89-9.95 110.9"/>
      <path d="M163.73 158.6c-4.74 3.44-9.53 25.94-13.54 57.37-4.12 31.42-7.46 71.78-11.93 110.76"/>
      <path d="M162.34 158.57c-5.57 3.34-11.16 25.72-15.84 57.07-4.81 31.34-8.7 71.65-13.92 110.59"/>
      <path d="M160.96 158.53c-6.4 3.22-12.8 25.48-18.15 56.73-5.5 31.23-9.93 71.47-15.9 110.37"/>
      <path d="M159.59 158.47c-7.24 3.11-14.45 25.21-20.47 56.35-6.18 31.12-11.17 71.27-17.86 110.12"/>
      <path d="M158.22 158.42c-8.07 2.97-16.1 24.9-22.78 55.9-6.87 30.99-12.42 71.05-19.83 109.82"/>
      <path d="M156.85 158.35c-8.9 2.83-17.72 24.57-25.09 55.42-7.57 30.83-13.66 70.77-21.78 109.48"/>
      <path d="M155.5 158.28c-9.72 2.68-19.37 24.2-27.41 54.88-8.27 30.66-14.92 70.5-23.73 109.1"/>
      <path d="M154.14 158.2c-10.53 2.5-21 23.78-29.72 54.3-8.96 30.47-16.17 70.16-25.66 108.67"/>
      <path d="M152.8 158.13c-11.35 2.32-22.64 23.35-32.05 53.65-9.66 30.27-17.43 69.8-27.58 108.2"/>
      <path d="M151.47 158.04c-12.17 2.12-24.29 22.88-34.38 52.97-10.36 30.04-18.7 69.4-29.49 107.7"/>
      <path d="M150.14 157.94c-12.98 1.92-25.92 22.39-36.7 52.23-11.06 29.8-19.98 68.99-31.4 107.15"/>
      <path d="M148.84 157.84c-13.79 1.7-27.56 21.87-39.03 51.45-11.78 29.53-21.26 68.52-33.29 106.57"/>
      <path d="M147.52 157.74c-14.59 1.47-29.19 21.28-41.37 50.6-12.48 29.26-22.55 68.04-35.17 105.92"/>
      <path d="M146.22 157.63c-15.38 1.23-30.82 20.68-43.7 49.71-13.2 28.97-23.85 67.5-37.04 105.24"/>
      <path d="M144.94 157.52c-16.19.98-32.45 20.05-46.04 48.77-13.92 28.64-25.17 66.93-38.91 104.5"/>
      <path d="M143.66 157.4c-16.97.72-34.06 19.38-48.37 47.78-14.64 28.3-26.5 66.32-40.78 103.73"/>
      <path d="M142.4 157.28c-17.77.44-35.69 18.68-50.71 46.73-15.38 27.94-27.84 65.69-42.63 102.92"/>
      <path d="M141.14 157.16c-18.52.15-37.3 17.95-53.05 45.63-16.1 27.57-29.2 65-44.5 102.05"/>
      <path d="M139.9 157.03c-19.3-.14-38.9 17.19-55.39 44.47-16.83 27.17-30.56 64.29-46.34 101.13"/>
      <path d="M138.68 156.9c-20.07-.45-40.5 16.4-57.73 43.27-17.59 26.75-31.97 63.53-48.22 100.16"/>
      <path d="M137.47 156.77c-20.83-.77-42.1 15.56-60.08 42-18.33 26.3-33.37 62.73-50.09 99.14"/>
      <path d="M136.27 156.63c-21.59-1.1-43.7 14.7-62.42 40.69-19.1 25.84-34.8 61.88-51.97 98.06"/>
      <path d="M135.09 156.49c-22.33-1.43-45.27 13.8-64.76 39.32-19.85 25.36-36.26 61-53.87 96.94"/>
      <path d="M133.92 156.36c-23.06-1.78-46.83 12.88-67.09 37.89C46.21 219.1 29.1 254.3 11.05 290"/>
      <path d="M132.77 156.21c-23.8-2.13-48.38 11.92-69.42 36.41-21.4 24.32-39.24 59.07-57.72 94.5"/>
      <path d="M131.62 156.08c-24.51-2.5-49.92 10.93-71.75 34.88C37.7 214.73 19.1 249 .2 284.13"/>
      <path d="M130.53 155.93c-25.23-2.87-51.45 9.9-74.08 33.28-22.95 23.18-42.32 56.96-61.66 91.81"/>
      <path d="M129.41 155.79c-25.93-3.26-52.96 8.85-76.38 31.63-23.76 22.57-43.91 55.82-63.7 90.36"/>
      <path d="M128.34 155.65c-26.62-3.64-54.45 7.77-78.7 29.92C25.1 207.5 4.13 240.2-16.11 274.4"/>
      <path d="M127.26 155.5c-27.3-4.03-55.93 6.66-80.99 28.15C20.91 204.93-.89 237.03-21.6 270.9"/>
      <path d="M126.22 155.37c-27.99-4.44-57.39 5.5-83.28 26.33-26.17 20.6-48.83 52.07-70.04 85.57"/>
      <path d="M125.19 155.23c-28.65-4.84-58.82 4.34-85.53 24.45-27 19.88-50.54 50.7-72.26 83.8"/>
      <path d="M124.18 155.1c-29.3-5.26-60.23 3.13-87.8 22.5-27.81 19.13-52.26 49.27-74.53 81.96"/>
      <path d="M123.2 154.97c-29.95-5.68-61.62 1.9-90.03 20.5-28.65 18.36-54.03 47.76-76.88 80.01"/>
      <path d="M122.23 154.85c-30.57-6.12-62.98.62-92.24 18.43-29.48 17.56-55.81 46.18-79.28 77.98"/>
      <path d="M121.29 154.72c-31.2-6.56-64.31-.67-94.43 16.31-30.31 16.72-57.62 44.54-81.75 75.83"/>
    </g>
    <g clip-path="url(#j)">
      <g clip-path="url(#k)">
        <path fill="url(#l)" d="M170.92 28.73c52.8-.67 95.9 21.59 96.26 49.71.35 28.12-42.17 51.47-94.97 52.13-52.8.67-95.9-21.58-96.26-49.7-.35-28.13 42.16-51.47 94.97-52.14Z"/>
        <path fill="url(#m)" d="m265.95 56.84.11.42.2.78.1.48c.04.16.08.3.1.45l.06.3a16.48 16.48 0 0 1 .2 1.23 18.02 18.02 0 0 1 .17 1.28c0 .13.03.27.04.4l.08 1.22.18 14.7c0-.42-.04-.83-.08-1.24a33.24 33.24 0 0 0-.13-1.22c0-.15-.04-.3-.06-.46l-.13-.76a25.36 25.36 0 0 0-.95-3.87l-.07-.2-.41-1.18-.15-.37-.32-.81-.2-.46-.33-.71-.23-.48a10.7 10.7 0 0 0-.36-.69l-.25-.47-.36-.66-.3-.53-.39-.63-.33-.52a73.91 73.91 0 0 0-.77-1.14l-.45-.63-.35-.5-.42-.55a27.2 27.2 0 0 0-.5-.62l-.43-.54c-.15-.2-.34-.4-.51-.61-.18-.2-.31-.34-.47-.54l-.54-.6-.5-.52c-.16-.19-.35-.4-.56-.6l-.45-.45a48.4 48.4 0 0 0-.85-.83l-.44-.42-1-.9-.33-.3c-.44-.4-.9-.79-1.38-1.17l-.33-.27c-.35-.3-.73-.6-1.12-.9l-.68-.5-.52-.4-.8-.58-.5-.36-.9-.63-.44-.3-1.38-.9-.03-.02a73.1 73.1 0 0 0-1.38-.86l-.48-.29-.98-.58-.58-.34-.91-.51-.64-.34c-.3-.16-.59-.34-.89-.48l-.7-.37-.88-.45-.72-.36-.9-.44-.74-.34-.92-.43-.76-.33-.94-.42-.76-.34-.97-.4-.77-.34-1-.4-.77-.3-1.05-.41-.74-.28a56.6 56.6 0 0 0-1.16-.42l-.67-.24-1.46-.5-.4-.14-1.9-.62-.5-.15-1.41-.44-.73-.21-1.23-.36-.8-.22-1.17-.33-.87-.23-1.14-.3-.9-.21-1.15-.28-.8-.19-1.22-.27-.82-.18-1.24-.26-.81-.17-1.31-.25-.75-.15-1.6-.29-.49-.08-2.1-.35-.54-.09-1.58-.23-.79-.11c-.42-.07-.85-.12-1.28-.18l-1.95-.25-.61-.07c-.86-.1-1.72-.2-2.58-.28l-.65-.06c-.65-.07-1.3-.13-1.97-.18l-.93-.08c-.57-.04-1.15-.1-1.74-.13l-1.07-.07-1.19-.07-1.2-.07-1.17-.04-1.2-.05-1.2-.04-1.22-.03-1.21-.03-1.12-.01-1.93-.01-.88.01-2.79.05c-.92 0-1.82.04-2.73.08-.55 0-1.09.04-1.63.06l-.65.01-2.3.13-.45.03-1.83.12-.8.06-1.47.12-.89.08-1.37.13-.9.1-1.35.14-.9.1-1.36.17-.85.11-1.39.2-.82.1-1.64.26-.54.08-2.17.36-.52.1-1.62.28-.97.2-1.21.23-.98.2-1.18.24-.98.22-1.15.26-.98.23-1.1.27-1.39.36-.84.22-1.56.42-.64.17-2.16.63-.4.12-1.73.53-.49.16c-.66.21-1.32.42-1.96.64l-.73.25c-.63.22-1.26.43-1.88.66l-.5.18-2.3.86-.54.22c-.59.23-1.17.46-1.75.72l-1 .42-.27.11-1.56.68-.31.14-1.56.72-.11.05c-.5.23-.98.47-1.47.72l-.26.13-1.46.72-.3.15-1.45.76-.1.06c-.46.24-.92.5-1.38.76l-.25.14c-.46.25-.92.52-1.36.78l-.27.16-1.36.83-.08.05-1.28.8-.23.16-1.25.83-.25.17c-.42.29-.84.58-1.24.88l-.07.05c-.4.28-.79.57-1.17.86l-.22.15-1.14.89-.22.17-1.13.92-.06.05-1.06.91-.19.17-1.03.93-.2.18c-.34.32-.69.64-1 .97l-.05.04-.94.95-.17.18-.9.96-.18.2c-.3.35-.6.66-.88 1a53.87 53.87 0 0 0-.85 1.03l-.15.2-.77.99-.14.2-.75 1.05-.02.04c-.24.35-.47.7-.68 1.05l-.13.19-.63 1.05-.12.2-.6 1.08v.03c-.2.35-.38.7-.56 1.07l-.1.2-.48 1.05-.1.2c-.16.36-.31.75-.45 1.12v.02c-.15.35-.28.74-.41 1.1l-.07.2c-.12.36-.24.74-.33 1.1l-.06.21a26.06 26.06 0 0 0-.56 2.28c0 .07-.03.14-.04.2-.08.38-.14.75-.2 1.12l-.03.22a32.02 32.02 0 0 0-.25 2.54l-.04 1.1.02 1.44-.01-1.19v-.29l-.17-13.2-.02-1.18V66c-.01-.38.01-.76.03-1.13v-.22c.02-.39.05-.78.09-1.16l.14-1.17c0-.07.03-.14.04-.21.05-.38.12-.75.2-1.11-.01-.08.02-.15.03-.22a31.41 31.41 0 0 1 .56-2.27l.06-.21.34-1.1.07-.2.4-1.1v-.03c.14-.37.3-.74.46-1.1l.1-.22.48-1.05.1-.2.55-1.05v-.03l.6-1.08.13-.2.63-1.05.13-.2.68-1.03a49.56 49.56 0 0 1 .77-1.09l.14-.2c.25-.35.5-.67.77-1l.15-.18.82-1 .03-.04c.29-.35.58-.67.88-1l.18-.2.9-.96.17-.17.94-.96.04-.04 1.01-.97.2-.18 1.03-.93.2-.17c.34-.3.68-.6 1.05-.9l.06-.05 1.13-.92.22-.18 1.14-.88.22-.16c.38-.3.77-.58 1.17-.86l.07-.05c.4-.3.82-.58 1.24-.88l.25-.17 1.26-.83.22-.15 1.28-.81.08-.05 1.36-.83.27-.16 1.36-.78.25-.14 1.38-.76.1-.05 1.46-.77.29-.15c.48-.25.97-.5 1.46-.72l.26-.12 1.47-.72.1-.05 1.57-.72.3-.14c.52-.24 1.04-.46 1.57-.68l.27-.11.63-.27.37-.15 1.75-.72.54-.22c.76-.29 1.52-.58 2.3-.86l.5-.18c.62-.22 1.25-.45 1.88-.66l.73-.25 1.96-.64.37-.12.12-.04 1.74-.53.4-.12c.71-.22 1.43-.42 2.16-.62.2-.07.43-.12.64-.18l1.55-.42.85-.22 1.4-.35.27-.07.82-.19.98-.23 1.15-.26.98-.22 1.18-.24.98-.2c.4-.09.8-.16 1.22-.24l.96-.19.16-.03 1.46-.26.52-.1 2.16-.35.56-.09 1.63-.24.82-.12 1.1-.15.3-.04.84-.1c.45-.07.91-.12 1.37-.17l.9-.1 1.34-.16.9-.09 1.4-.13.88-.08.35-.03 1.1-.09c.27 0 .54-.04.81-.06l1.83-.13.45-.03 2.3-.12.65-.01 1.4-.06h.18c.91-.04 1.82-.06 2.74-.08l2.78-.04.88-.02 1.94.01h.47l.63.01c.41 0 .82 0 1.22.02l1.21.03 1.2.04 1.21.05 1.2.06 1.2.06 1.18.08.56.03.52.04 1.74.13.93.07 1.96.18.65.07c.87.08 1.73.18 2.59.28l.6.07 1.96.25.3.03.98.14.79.11 1.56.24.56.08 2.1.36.48.08 1.6.29.75.14 1.3.26.83.17 1.23.25.83.19 1.2.27.81.19.4.1.76.17.9.23 1.13.29.87.23 1.16.33.82.22 1.21.36.74.21 1.4.44.51.15 1.9.62.43.15 1.43.49.68.24 1.15.42.74.28 1.06.4.76.31 1 .4.78.34.96.4.77.34.94.42.76.34.91.42.75.36.89.43.73.37.87.45.7.37.3.16.6.34.63.33.9.51.6.34.96.58.49.29 1.36.85.05.03 1.38.9.44.3.9.62.51.37.79.57.53.4.49.37.19.15 1.12.9.32.25c.48.4.94.78 1.38 1.18l.34.3c.35.3.67.6 1 .9l.43.42.85.83.26.25.2.2.56.6.5.52.53.6c.18.2.32.35.47.54.15.19.35.4.51.61l.44.54.49.62.31.4.1.15.36.5c.16.2.3.42.45.63.15.21.23.34.36.5l.41.64c.14.2.22.34.33.52l.38.63.3.53.2.34.17.32.25.48.36.69.23.48c.12.23.22.48.33.71.06.16.13.3.2.45l.32.81.15.37.02.06.4 1.12.06.2c.13.2.22.55.32.87Z"/>
        <path fill="url(#n)" d="m265.95 56.84.11.42.2.78.1.48c.04.16.08.3.1.45l.06.3a16.48 16.48 0 0 1 .2 1.23 18.02 18.02 0 0 1 .17 1.28c0 .13.03.27.04.4l.08 1.22.18 14.7c0-.42-.04-.83-.08-1.24a33.24 33.24 0 0 0-.13-1.22c0-.15-.04-.3-.06-.46l-.13-.76a25.36 25.36 0 0 0-.95-3.87l-.07-.2-.41-1.18-.15-.37-.32-.81-.2-.46-.33-.71-.23-.48a10.7 10.7 0 0 0-.36-.69l-.25-.47-.36-.66-.3-.53-.39-.63-.33-.52a73.91 73.91 0 0 0-.77-1.14l-.45-.63-.35-.5-.42-.55a27.2 27.2 0 0 0-.5-.62l-.43-.54c-.15-.2-.34-.4-.51-.61-.18-.2-.31-.34-.47-.54l-.54-.6-.5-.52c-.16-.19-.35-.4-.56-.6l-.45-.45a48.4 48.4 0 0 0-.85-.83l-.44-.42-1-.9-.33-.3c-.44-.4-.9-.79-1.38-1.17l-.33-.27c-.35-.3-.73-.6-1.12-.9l-.68-.5-.52-.4-.8-.58-.5-.36-.9-.63-.44-.3-1.38-.9-.03-.02a73.1 73.1 0 0 0-1.38-.86l-.48-.29-.98-.58-.58-.34-.91-.51-.64-.34c-.3-.16-.59-.34-.89-.48l-.7-.37-.88-.45-.72-.36-.9-.44-.74-.34-.92-.43-.76-.33-.94-.42-.76-.34-.97-.4-.77-.34-1-.4-.77-.3-1.05-.41-.74-.28a56.6 56.6 0 0 0-1.16-.42l-.67-.24-1.46-.5-.4-.14-1.9-.62-.5-.15-1.41-.44-.73-.21-1.23-.36-.8-.22-1.17-.33-.87-.23-1.14-.3-.9-.21-1.15-.28-.8-.19-1.22-.27-.82-.18-1.24-.26-.81-.17-1.31-.25-.75-.15-1.6-.29-.49-.08-2.1-.35-.54-.09-1.58-.23-.79-.11c-.42-.07-.85-.12-1.28-.18l-1.95-.25-.61-.07c-.86-.1-1.72-.2-2.58-.28l-.65-.06c-.65-.07-1.3-.13-1.97-.18l-.93-.08c-.57-.04-1.15-.1-1.74-.13l-1.07-.07-1.19-.07-1.2-.07-1.17-.04-1.2-.05-1.2-.04-1.22-.03-1.21-.03-1.12-.01-1.93-.01-.88.01-2.79.05c-.92 0-1.82.04-2.73.08-.55 0-1.09.04-1.63.06l-.65.01-2.3.13-.45.03-1.83.12-.8.06-1.47.12-.89.08-1.37.13-.9.1-1.35.14-.9.1-1.36.17-.85.11-1.39.2-.82.1-1.64.26-.54.08-2.17.36-.52.1-1.62.28-.97.2-1.21.23-.98.2-1.18.24-.98.22-1.15.26-.98.23-1.1.27-1.39.36-.84.22-1.56.42-.64.17-2.16.63-.4.12-1.73.53-.49.16c-.66.21-1.32.42-1.96.64l-.73.25c-.63.22-1.26.43-1.88.66l-.5.18-2.3.86-.54.22c-.59.23-1.17.46-1.75.72l-1 .42-.27.11-1.56.68-.31.14-1.56.72-.11.05c-.5.23-.98.47-1.47.72l-.26.13-1.46.72-.3.15-1.45.76-.1.06c-.46.24-.92.5-1.38.76l-.25.14c-.46.25-.92.52-1.36.78l-.27.16-1.36.83-.08.05-1.28.8-.23.16-1.25.83-.25.17c-.42.29-.84.58-1.24.88l-.07.05c-.4.28-.79.57-1.17.86l-.22.15-1.14.89-.22.17-1.13.92-.06.05-1.06.91-.19.17-1.03.93-.2.18c-.34.32-.69.64-1 .97l-.05.04-.94.95-.17.18-.9.96-.18.2c-.3.35-.6.66-.88 1a53.87 53.87 0 0 0-.85 1.03l-.15.2-.77.99-.14.2-.75 1.05-.02.04c-.24.35-.47.7-.68 1.05l-.13.19-.63 1.05-.12.2-.6 1.08v.03c-.2.35-.38.7-.56 1.07l-.1.2-.48 1.05-.1.2c-.16.36-.31.75-.45 1.12v.02c-.15.35-.28.74-.41 1.1l-.07.2c-.12.36-.24.74-.33 1.1l-.06.21a26.06 26.06 0 0 0-.56 2.28c0 .07-.03.14-.04.2-.08.38-.14.75-.2 1.12l-.03.22a32.02 32.02 0 0 0-.25 2.54l-.04 1.1.02 1.44-.01-1.19v-.29l-.17-13.2-.02-1.18V66c-.01-.38.01-.76.03-1.13v-.22c.02-.39.05-.78.09-1.16l.14-1.17c0-.07.03-.14.04-.21.05-.38.12-.75.2-1.11-.01-.08.02-.15.03-.22a31.41 31.41 0 0 1 .56-2.27l.06-.21.34-1.1.07-.2.4-1.1v-.03c.14-.37.3-.74.46-1.1l.1-.22.48-1.05.1-.2.55-1.05v-.03l.6-1.08.13-.2.63-1.05.13-.2.68-1.03a49.56 49.56 0 0 1 .77-1.09l.14-.2c.25-.35.5-.67.77-1l.15-.18.82-1 .03-.04c.29-.35.58-.67.88-1l.18-.2.9-.96.17-.17.94-.96.04-.04 1.01-.97.2-.18 1.03-.93.2-.17c.34-.3.68-.6 1.05-.9l.06-.05 1.13-.92.22-.18 1.14-.88.22-.16c.38-.3.77-.58 1.17-.86l.07-.05c.4-.3.82-.58 1.24-.88l.25-.17 1.26-.83.22-.15 1.28-.81.08-.05 1.36-.83.27-.16 1.36-.78.25-.14 1.38-.76.1-.05 1.46-.77.29-.15c.48-.25.97-.5 1.46-.72l.26-.12 1.47-.72.1-.05 1.57-.72.3-.14c.52-.24 1.04-.46 1.57-.68l.27-.11.63-.27.37-.15 1.75-.72.54-.22c.76-.29 1.52-.58 2.3-.86l.5-.18c.62-.22 1.25-.45 1.88-.66l.73-.25 1.96-.64.37-.12.12-.04 1.74-.53.4-.12c.71-.22 1.43-.42 2.16-.62.2-.07.43-.12.64-.18l1.55-.42.85-.22 1.4-.35.27-.07.82-.19.98-.23 1.15-.26.98-.22 1.18-.24.98-.2c.4-.09.8-.16 1.22-.24l.96-.19.16-.03 1.46-.26.52-.1 2.16-.35.56-.09 1.63-.24.82-.12 1.1-.15.3-.04.84-.1c.45-.07.91-.12 1.37-.17l.9-.1 1.34-.16.9-.09 1.4-.13.88-.08.35-.03 1.1-.09c.27 0 .54-.04.81-.06l1.83-.13.45-.03 2.3-.12.65-.01 1.4-.06h.18c.91-.04 1.82-.06 2.74-.08l2.78-.04.88-.02 1.94.01h.47l.63.01c.41 0 .82 0 1.22.02l1.21.03 1.2.04 1.21.05 1.2.06 1.2.06 1.18.08.56.03.52.04 1.74.13.93.07 1.96.18.65.07c.87.08 1.73.18 2.59.28l.6.07 1.96.25.3.03.98.14.79.11 1.56.24.56.08 2.1.36.48.08 1.6.29.75.14 1.3.26.83.17 1.23.25.83.19 1.2.27.81.19.4.1.76.17.9.23 1.13.29.87.23 1.16.33.82.22 1.21.36.74.21 1.4.44.51.15 1.9.62.43.15 1.43.49.68.24 1.15.42.74.28 1.06.4.76.31 1 .4.78.34.96.4.77.34.94.42.76.34.91.42.75.36.89.43.73.37.87.45.7.37.3.16.6.34.63.33.9.51.6.34.96.58.49.29 1.36.85.05.03 1.38.9.44.3.9.62.51.37.79.57.53.4.49.37.19.15 1.12.9.32.25c.48.4.94.78 1.38 1.18l.34.3c.35.3.67.6 1 .9l.43.42.85.83.26.25.2.2.56.6.5.52.53.6c.18.2.32.35.47.54.15.19.35.4.51.61l.44.54.49.62.31.4.1.15.36.5c.16.2.3.42.45.63.15.21.23.34.36.5l.41.64c.14.2.22.34.33.52l.38.63.3.53.2.34.17.32.25.48.36.69.23.48c.12.23.22.48.33.71.06.16.13.3.2.45l.32.81.15.37.02.06.4 1.12.06.2c.13.2.22.55.32.87Z"/>
        <path fill="url(#o)" d="m265.95 56.84.11.42.2.78.1.48c.04.16.08.3.1.45l.06.3a16.48 16.48 0 0 1 .2 1.23 18.02 18.02 0 0 1 .17 1.28c0 .13.03.27.04.4l.08 1.22.18 14.7c0-.42-.04-.83-.08-1.24a33.24 33.24 0 0 0-.13-1.22c0-.15-.04-.3-.06-.46l-.13-.76a25.36 25.36 0 0 0-.95-3.87l-.07-.2-.41-1.18-.15-.37-.32-.81-.2-.46-.33-.71-.23-.48a10.7 10.7 0 0 0-.36-.69l-.25-.47-.36-.66-.3-.53-.39-.63-.33-.52a73.91 73.91 0 0 0-.77-1.14l-.45-.63-.35-.5-.42-.55a27.2 27.2 0 0 0-.5-.62l-.43-.54c-.15-.2-.34-.4-.51-.61-.18-.2-.31-.34-.47-.54l-.54-.6-.5-.52c-.16-.19-.35-.4-.56-.6l-.45-.45a48.4 48.4 0 0 0-.85-.83l-.44-.42-1-.9-.33-.3c-.44-.4-.9-.79-1.38-1.17l-.33-.27c-.35-.3-.73-.6-1.12-.9l-.68-.5-.52-.4-.8-.58-.5-.36-.9-.63-.44-.3-1.38-.9-.03-.02a73.1 73.1 0 0 0-1.38-.86l-.48-.29-.98-.58-.58-.34-.91-.51-.64-.34c-.3-.16-.59-.34-.89-.48l-.7-.37-.88-.45-.72-.36-.9-.44-.74-.34-.92-.43-.76-.33-.94-.42-.76-.34-.97-.4-.77-.34-1-.4-.77-.3-1.05-.41-.74-.28a56.6 56.6 0 0 0-1.16-.42l-.67-.24-1.46-.5-.4-.14-1.9-.62-.5-.15-1.41-.44-.73-.21-1.23-.36-.8-.22-1.17-.33-.87-.23-1.14-.3-.9-.21-1.15-.28-.8-.19-1.22-.27-.82-.18-1.24-.26-.81-.17-1.31-.25-.75-.15-1.6-.29-.49-.08-2.1-.35-.54-.09-1.58-.23-.79-.11c-.42-.07-.85-.12-1.28-.18l-1.95-.25-.61-.07c-.86-.1-1.72-.2-2.58-.28l-.65-.06c-.65-.07-1.3-.13-1.97-.18l-.93-.08c-.57-.04-1.15-.1-1.74-.13l-1.07-.07-1.19-.07-1.2-.07-1.17-.04-1.2-.05-1.2-.04-1.22-.03-1.21-.03-1.12-.01-1.93-.01-.88.01-2.79.05c-.92 0-1.82.04-2.73.08-.55 0-1.09.04-1.63.06l-.65.01-2.3.13-.45.03-1.83.12-.8.06-1.47.12-.89.08-1.37.13-.9.1-1.35.14-.9.1-1.36.17-.85.11-1.39.2-.82.1-1.64.26-.54.08-2.17.36-.52.1-1.62.28-.97.2-1.21.23-.98.2-1.18.24-.98.22-1.15.26-.98.23-1.1.27-1.39.36-.84.22-1.56.42-.64.17-2.16.63-.4.12-1.73.53-.49.16c-.66.21-1.32.42-1.96.64l-.73.25c-.63.22-1.26.43-1.88.66l-.5.18-2.3.86-.54.22c-.59.23-1.17.46-1.75.72l-1 .42-.27.11-1.56.68-.31.14-1.56.72-.11.05c-.5.23-.98.47-1.47.72l-.26.13-1.46.72-.3.15-1.45.76-.1.06c-.46.24-.92.5-1.38.76l-.25.14c-.46.25-.92.52-1.36.78l-.27.16-1.36.83-.08.05-1.28.8-.23.16-1.25.83-.25.17c-.42.29-.84.58-1.24.88l-.07.05c-.4.28-.79.57-1.17.86l-.22.15-1.14.89-.22.17-1.13.92-.06.05-1.06.91-.19.17-1.03.93-.2.18c-.34.32-.69.64-1 .97l-.05.04-.94.95-.17.18-.9.96-.18.2c-.3.35-.6.66-.88 1a53.87 53.87 0 0 0-.85 1.03l-.15.2-.77.99-.14.2-.75 1.05-.02.04c-.24.35-.47.7-.68 1.05l-.13.19-.63 1.05-.12.2-.6 1.08v.03c-.2.35-.38.7-.56 1.07l-.1.2-.48 1.05-.1.2c-.16.36-.31.75-.45 1.12v.02c-.15.35-.28.74-.41 1.1l-.07.2c-.12.36-.24.74-.33 1.1l-.06.21a26.06 26.06 0 0 0-.56 2.28c0 .07-.03.14-.04.2-.08.38-.14.75-.2 1.12l-.03.22a32.02 32.02 0 0 0-.25 2.54l-.04 1.1.02 1.44-.01-1.19v-.29l-.17-13.2-.02-1.18V66c-.01-.38.01-.76.03-1.13v-.22c.02-.39.05-.78.09-1.16l.14-1.17c0-.07.03-.14.04-.21.05-.38.12-.75.2-1.11-.01-.08.02-.15.03-.22a31.41 31.41 0 0 1 .56-2.27l.06-.21.34-1.1.07-.2.4-1.1v-.03c.14-.37.3-.74.46-1.1l.1-.22.48-1.05.1-.2.55-1.05v-.03l.6-1.08.13-.2.63-1.05.13-.2.68-1.03a49.56 49.56 0 0 1 .77-1.09l.14-.2c.25-.35.5-.67.77-1l.15-.18.82-1 .03-.04c.29-.35.58-.67.88-1l.18-.2.9-.96.17-.17.94-.96.04-.04 1.01-.97.2-.18 1.03-.93.2-.17c.34-.3.68-.6 1.05-.9l.06-.05 1.13-.92.22-.18 1.14-.88.22-.16c.38-.3.77-.58 1.17-.86l.07-.05c.4-.3.82-.58 1.24-.88l.25-.17 1.26-.83.22-.15 1.28-.81.08-.05 1.36-.83.27-.16 1.36-.78.25-.14 1.38-.76.1-.05 1.46-.77.29-.15c.48-.25.97-.5 1.46-.72l.26-.12 1.47-.72.1-.05 1.57-.72.3-.14c.52-.24 1.04-.46 1.57-.68l.27-.11.63-.27.37-.15 1.75-.72.54-.22c.76-.29 1.52-.58 2.3-.86l.5-.18c.62-.22 1.25-.45 1.88-.66l.73-.25 1.96-.64.37-.12.12-.04 1.74-.53.4-.12c.71-.22 1.43-.42 2.16-.62.2-.07.43-.12.64-.18l1.55-.42.85-.22 1.4-.35.27-.07.82-.19.98-.23 1.15-.26.98-.22 1.18-.24.98-.2c.4-.09.8-.16 1.22-.24l.96-.19.16-.03 1.46-.26.52-.1 2.16-.35.56-.09 1.63-.24.82-.12 1.1-.15.3-.04.84-.1c.45-.07.91-.12 1.37-.17l.9-.1 1.34-.16.9-.09 1.4-.13.88-.08.35-.03 1.1-.09c.27 0 .54-.04.81-.06l1.83-.13.45-.03 2.3-.12.65-.01 1.4-.06h.18c.91-.04 1.82-.06 2.74-.08l2.78-.04.88-.02 1.94.01h.47l.63.01c.41 0 .82 0 1.22.02l1.21.03 1.2.04 1.21.05 1.2.06 1.2.06 1.18.08.56.03.52.04 1.74.13.93.07 1.96.18.65.07c.87.08 1.73.18 2.59.28l.6.07 1.96.25.3.03.98.14.79.11 1.56.24.56.08 2.1.36.48.08 1.6.29.75.14 1.3.26.83.17 1.23.25.83.19 1.2.27.81.19.4.1.76.17.9.23 1.13.29.87.23 1.16.33.82.22 1.21.36.74.21 1.4.44.51.15 1.9.62.43.15 1.43.49.68.24 1.15.42.74.28 1.06.4.76.31 1 .4.78.34.96.4.77.34.94.42.76.34.91.42.75.36.89.43.73.37.87.45.7.37.3.16.6.34.63.33.9.51.6.34.96.58.49.29 1.36.85.05.03 1.38.9.44.3.9.62.51.37.79.57.53.4.49.37.19.15 1.12.9.32.25c.48.4.94.78 1.38 1.18l.34.3c.35.3.67.6 1 .9l.43.42.85.83.26.25.2.2.56.6.5.52.53.6c.18.2.32.35.47.54.15.19.35.4.51.61l.44.54.49.62.31.4.1.15.36.5c.16.2.3.42.45.63.15.21.23.34.36.5l.41.64c.14.2.22.34.33.52l.38.63.3.53.2.34.17.32.25.48.36.69.23.48c.12.23.22.48.33.71.06.16.13.3.2.45l.32.81.15.37.02.06.4 1.12.06.2c.13.2.22.55.32.87Z"/>
      </g>
      <path fill="url(#p)" d="m117.65 90.16-.06-.21a12.96 12.96 0 0 1-.17-.64l-.06-.22-.03-.16a8.37 8.37 0 0 1-.15-.85l-.05-.42-.02-.2-.05-.61-.09-7.43c0 .21.03.42.05.62a14.92 14.92 0 0 0 .07.62c0 .08.02.16.03.23l.07.39.05.23.09.38.06.24a10.87 10.87 0 0 0 .17.6c.05.18.11.34.17.5l.04.1.23.6.08.19.18.4.12.24.18.36.13.24.2.34.14.25.2.33.18.26.21.32.19.27.23.31.2.26.25.32.2.25.24.28.28.31.24.27.3.31.25.27.3.3.28.27.32.3.26.23.48.42.25.2c.18.16.36.31.56.46l.18.15.78.6.19.13.63.45.38.26.3.2.44.29.3.18.5.32.25.15.77.45.02.01.78.44.27.14.55.3c.1.05.22.1.33.17l.51.25.36.17a22.67 22.67 0 0 0 .9.43l.5.23.4.18.5.22.43.17.51.22.43.17.53.2.43.18.55.2.43.17.57.2.43.16.6.2.4.14.66.21.38.12.82.25.23.07 1.07.31.28.08.8.22.41.1.7.19.45.1.66.17.48.12.65.15.5.1.66.15.45.1.69.13.46.09.7.13.45.08.75.13.42.07.9.15.27.04 1.19.17.3.05.9.11.44.06.72.09 1.1.12.35.04 1.45.14.37.03 1.1.09.53.03.99.07.6.03.67.04.67.03.67.02.68.02.68.02.69.02.68.01h2.22l1.57-.02 1.54-.05.91-.03h.37l1.3-.07.26-.02 1.03-.06.45-.03.83-.07.5-.04.78-.06.5-.05.76-.08.51-.05.77-.08.48-.06.78-.1.47-.06.93-.13.3-.04 1.22-.18.3-.05.91-.15.55-.1.68-.11.56-.1.66-.13.56-.11.64-.13.56-.12.62-.14.78-.18.47-.11.88-.22.37-.08 1.22-.32.22-.06.98-.27.28-.08 1.1-.33.41-.12 1.07-.34.28-.1 1.3-.43.3-.11 1-.37.56-.2.15-.07.88-.34.18-.07.88-.37.06-.02.83-.37.14-.06.83-.37.16-.07.83-.39.05-.03.79-.38.13-.07.77-.4.15-.08.77-.42.05-.03.72-.4.13-.08.7-.43.15-.08.7-.44.04-.03.66-.44.12-.08.64-.44.13-.1.64-.46.03-.02.6-.46.1-.09c.2-.15.4-.3.6-.47l.1-.09.58-.49.02-.02.53-.48.1-.1.5-.48.1-.1.5-.5.02-.03.46-.5.09-.1c.15-.16.3-.33.43-.5l.09-.1.42-.53v-.02l.4-.53.06-.1c.13-.18.25-.35.36-.53l.07-.1.34-.55v-.01l.32-.55.05-.1.28-.53.05-.1c.1-.18.18-.38.26-.56v-.01l.23-.56.04-.1.19-.56.03-.1a11.96 11.96 0 0 0 .32-1.15l.02-.11.12-.56.01-.11a16.42 16.42 0 0 0 .14-1.18v-.11c.02-.19.03-.37.03-.56l-.01-.72v.74l.09 6.68v.6l.01.1c0 .2 0 .39-.02.58v.1l-.05.6-.08.58-.02.11-.11.56c0 .04-.02.07-.03.1a14.32 14.32 0 0 1-.31 1.16l-.04.1-.19.56-.04.1-.23.56v.01l-.26.56-.05.1a12.32 12.32 0 0 1-.65 1.17v.02c-.1.18-.22.36-.34.54l-.06.1-.36.54-.07.1a162.32 162.32 0 0 0-.4.54l-.43.53-.08.1c-.14.18-.28.34-.43.5l-.09.1-.46.5-.02.02c-.16.18-.33.34-.5.51l-.1.1a25 25 0 0 1-.5.49l-.1.09-.53.48-.03.02-.57.49-.1.1-.6.46-.1.09-.6.46-.03.02c-.2.16-.42.31-.64.47l-.13.09c-.2.15-.42.3-.64.44l-.12.08-.66.44-.04.03-.7.44-.14.08-.71.43-.13.07-.72.41-.05.03-.76.42-.16.08-.77.4-.13.07-.79.38-.05.03-.83.39-.16.08c-.27.12-.55.25-.83.36l-.14.06-.83.37-.06.02-.89.37-.17.07-.88.34-.16.06-.35.14-.2.07-1 .37-.3.1c-.43.16-.86.3-1.3.44l-.28.1a78 78 0 0 1-1.07.33l-.4.13-1.11.32-.21.06-.07.02c-.33.1-.65.19-.98.27l-.22.07-1.23.31-.36.1-.88.2-.48.12-.78.17-.16.04-.46.1-.55.11-.65.14-.56.1c-.22.05-.44.1-.66.13l-.55.1-.7.13-.54.1h-.09l-.82.14-.3.05-1.21.18-.32.04-.92.13-.46.06-.62.08-.17.02-.48.05-.77.09-.5.05-.76.08-.51.04-.79.07-.5.04-.2.02-.62.04c-.15 0-.3.03-.45.04l-1.03.06-.26.02-1.3.06h-.36l-.8.04h-.1l-1.54.04-1.57.03h-2.21l-.69-.01-.68-.02-.69-.02-.68-.02-.67-.03-.68-.03-.66-.03-.32-.02-.29-.02-.98-.06-.53-.04-1.1-.09-.37-.03-1.46-.14-.34-.04-1.1-.12-.18-.02-.55-.07-.44-.05-.89-.12-.31-.04-1.19-.18-.27-.04-.9-.14-.42-.08-.74-.13-.46-.08-.7-.13-.46-.09-.69-.14-.45-.1-.23-.04-.42-.09-.5-.11-.65-.15-.5-.11-.64-.17-.47-.11-.68-.18-.42-.1-.78-.23-.3-.08-1.06-.3-.25-.08-.8-.25-.39-.12-.65-.2-.42-.15-.59-.2-.43-.16-.57-.2-.43-.17-.55-.2-.43-.17-.53-.21-.43-.17-.51-.22-.42-.17-.5-.22-.42-.19-.49-.22-.4-.2-.16-.07-.33-.17-.36-.17-.51-.26-.34-.17-.54-.29-.28-.14-.77-.44-.02-.01-.78-.45-.25-.16-.5-.3-.3-.2-.44-.28-.3-.2-.27-.19-.1-.07a32 32 0 0 1-.64-.45l-.18-.14-.78-.59-.19-.15-.56-.45-.25-.22-.47-.41-.15-.13-.11-.1-.32-.3-.28-.27-.3-.3-.26-.27-.3-.31-.24-.27-.28-.32-.17-.2-.06-.07-.2-.25-.25-.32-.2-.26c-.08-.08-.16-.21-.24-.32a8.29 8.29 0 0 1-.4-.58l-.17-.27-.1-.17-.1-.16-.14-.24-.2-.35a7.07 7.07 0 0 1-.14-.24l-.18-.36-.11-.23-.19-.4-.08-.2-.01-.02-.22-.57-.04-.1c-.07-.1-.12-.28-.18-.44Z"/>
      <path fill="url(#q)" d="M171.25 104.28c-29.8.38-54.1-10.82-54.27-25.03-.18-14.21 23.84-26.04 53.63-26.43 29.8-.38 54.1 10.82 54.27 25.03.18 14.21-23.83 26.04-53.63 26.43Z"/>
    </g>
    <g clip-path="url(#r)">
      <path fill="url(#s)" d="m208.89 101.8-13.66 41.67-24.85-22 13.3-41.97 25.2 22.3Z"/>
      <use xlink:href="#reuse-1"/>
      <path fill="url(#t)" d="m170.38 121.47-36.06.42 13.3-41.97 36.06-.42-13.3 41.97Z"/>
    </g>
    <g style="mix-blend-mode:overlay">
      <g clip-path="url(#u)">
        <g clip-path="url(#v)">
          <path fill="url(#w)" d="M170.92 28.73c52.8-.67 95.9 21.59 96.26 49.71.35 28.12-42.17 51.47-94.97 52.13-52.8.67-95.9-21.58-96.26-49.7-.35-28.13 42.16-51.47 94.97-52.14Z"/>
          <path fill="url(#x)" d="m265.95 56.84.11.42a32.42 32.42 0 0 1 .3 1.26c.04.16.08.3.1.45l.06.3a20.99 20.99 0 0 1 .21 1.23l.07.46.09.82c0 .13.03.27.04.4l.08 1.22.18 14.7c0-.42-.04-.83-.08-1.24l-.03-.39-.1-.83c0-.15-.04-.3-.06-.46l-.13-.76a25.36 25.36 0 0 0-.24-1.21l-.1-.48a23.15 23.15 0 0 0-.61-2.18l-.07-.2-.41-1.18-.15-.37-.32-.81-.2-.46-.33-.71-.23-.48-.36-.69-.25-.47-.36-.66-.3-.53-.39-.63-.33-.52-.41-.63a7.64 7.64 0 0 0-.36-.51l-.45-.63-.35-.5-.42-.55-.5-.62-.43-.54c-.15-.2-.34-.4-.51-.61-.18-.2-.31-.34-.47-.54l-.54-.6-.5-.52c-.16-.19-.35-.4-.55-.6-.21-.19-.3-.3-.46-.45l-.85-.83-.44-.42-1-.9-.33-.3c-.44-.4-.9-.79-1.38-1.17l-.33-.27c-.35-.3-.73-.6-1.12-.9l-.68-.5-.52-.4-.8-.58-.5-.36-.9-.63-.44-.3-1.38-.9-.03-.02-1.38-.86-.48-.29-.98-.58-.58-.34-.91-.51-.63-.34c-.3-.16-.6-.34-.9-.48l-.7-.37-.88-.45-.72-.36-.9-.44-.74-.34-.92-.43-.76-.33-.94-.42-.76-.34-.97-.4-.77-.34-1-.4-.77-.3-1.05-.41-.74-.28-1.16-.42-.67-.24-1.46-.5-.4-.14-1.9-.62-.5-.15-1.41-.44-.73-.21-1.23-.36-.8-.22-1.17-.33-.87-.23-1.14-.3-.9-.21-1.15-.28-.8-.19-1.22-.27-.82-.18-1.24-.26-.81-.17-1.31-.25-.75-.15-1.6-.29-.49-.08-2.1-.35-.54-.09-1.58-.23-.79-.11c-.42-.07-.85-.12-1.28-.18l-1.95-.25-.61-.07c-.86-.1-1.72-.2-2.58-.28l-.65-.06c-.65-.07-1.3-.13-1.97-.18l-.92-.08c-.58-.04-1.16-.1-1.75-.13l-1.07-.07-1.19-.07-1.19-.07-1.18-.04-1.2-.05-1.2-.04-1.22-.03-1.21-.03-1.11-.01-1.94-.01-.88.01-2.79.05c-.92 0-1.82.04-2.73.08-.55 0-1.09.04-1.63.06l-.65.01-2.3.13-.45.03-1.83.12-.8.06-1.47.12-.89.08-1.37.13-.9.1-1.35.14-.9.1-1.36.17-.85.11-1.39.2-.82.1-1.64.26-.54.08-2.17.36-.52.1-1.62.28-.97.2-1.21.23-.98.2-1.18.24-.98.22-1.15.26-.98.23-1.1.27-1.39.36-.84.22-1.56.42-.63.17c-.73.2-1.45.42-2.17.63l-.4.12-1.73.53-.49.16-1.96.64-.72.25c-.64.22-1.27.43-1.89.66l-.5.18-2.3.86-.54.22c-.59.23-1.17.46-1.75.72l-1 .42-.27.11-1.56.68-.31.14-1.56.72-.11.05c-.5.23-.98.47-1.47.72l-.26.13-1.46.72-.3.15-1.45.76-.1.06c-.46.24-.92.5-1.38.76l-.25.14c-.46.25-.92.52-1.36.78l-.27.16-1.36.83-.08.05-1.28.8-.23.16-1.25.83-.25.17c-.42.29-.84.58-1.24.88l-.07.05c-.4.28-.79.57-1.17.86l-.22.15-1.14.89-.22.17-1.13.92-.06.05-1.06.91-.19.17-1.03.93-.2.18c-.34.32-.69.64-1 .97l-.05.04-.94.95-.17.18-.9.96-.18.2-.88 1c0 .02-.02.03-.03.04l-.82 1-.15.18-.77 1-.14.2-.75 1.05-.02.04c-.24.35-.47.7-.68 1.05l-.13.19-.63 1.05-.12.2-.6 1.08v.03c-.2.35-.38.7-.56 1.07l-.1.2-.48 1.05-.1.2c-.16.36-.31.75-.45 1.12v.02c-.15.35-.28.74-.4 1.1l-.08.2c-.12.36-.24.74-.33 1.1l-.06.21a26.06 26.06 0 0 0-.56 2.28c0 .07-.03.14-.04.2-.08.38-.14.75-.2 1.12l-.03.22-.15 1.16a25.59 25.59 0 0 0-.14 2.49l.02 1.43-.01-1.19v-.29l-.17-13.2-.02-1.18V66c-.01-.38.01-.76.03-1.13v-.22a26.13 26.13 0 0 1 .23-2.33c0-.07.03-.14.04-.21.05-.38.12-.75.2-1.11-.01-.08.02-.15.03-.22a31.4 31.4 0 0 1 .56-2.27l.06-.21.34-1.1.07-.2a32 32 0 0 1 .4-1.1v-.03c.14-.37.3-.74.46-1.1l.1-.22.48-1.05.1-.2.55-1.05v-.03l.6-1.08.13-.2.63-1.05.13-.2.68-1.03.02-.03.75-1.06.14-.2c.25-.35.51-.67.77-1l.15-.18.82-1 .03-.04c.29-.35.58-.67.88-1l.18-.2.9-.96.17-.17.94-.96.04-.04 1.01-.97.2-.18 1.03-.93.2-.17c.34-.3.68-.6 1.05-.9l.06-.05 1.13-.92.22-.18a76 76 0 0 1 1.14-.88l.22-.16c.38-.3.77-.58 1.17-.86l.07-.05c.4-.3.82-.58 1.24-.88l.25-.17 1.26-.83.22-.15 1.28-.81.08-.05 1.36-.83.27-.16 1.36-.78.25-.14 1.38-.76.1-.05 1.46-.77.29-.15c.48-.25.97-.5 1.46-.72l.26-.12 1.47-.72.1-.05 1.57-.72.3-.14c.52-.24 1.04-.46 1.57-.68l.27-.11.63-.27.37-.15 1.75-.72.54-.22c.76-.29 1.52-.58 2.3-.86l.5-.18c.62-.22 1.25-.45 1.88-.66l.73-.25 1.96-.64.37-.12.12-.04 1.74-.53.4-.12c.71-.22 1.43-.42 2.16-.62.2-.07.43-.12.64-.18l1.55-.42.85-.22 1.4-.35.27-.07.82-.19.98-.23 1.15-.26.98-.22 1.18-.24.98-.2c.4-.09.81-.16 1.22-.24l.96-.19.16-.03 1.46-.26.52-.1 2.16-.35.56-.09 1.63-.24.82-.12 1.1-.15.3-.04.84-.1c.46-.07.91-.12 1.37-.17l.9-.1 1.34-.16.9-.09 1.4-.13.88-.08.35-.03 1.1-.09c.27 0 .54-.04.81-.06l1.83-.13.45-.03 2.3-.12.65-.01 1.4-.06h.18c.91-.04 1.82-.06 2.74-.08l2.78-.04.88-.02 1.94.01h.47l.64.01c.4 0 .8 0 1.2.02l1.22.03 1.2.04 1.21.05 1.2.06 1.2.06 1.18.08.56.03.52.04 1.74.13.93.07 1.96.18.65.07c.87.08 1.73.18 2.59.28l.6.07 1.96.25.3.03.98.14.79.11 1.56.24.56.08 2.1.36.48.08 1.6.29.75.14 1.3.26.83.17 1.23.25.83.19 1.2.27.81.19.4.1.76.17.9.23 1.13.29.87.23 1.16.33.82.22 1.21.36.74.21 1.4.44.51.15 1.9.62.43.15 1.43.49.68.24 1.15.42.74.28 1.06.4.76.31 1 .4.78.34.96.4.77.34.94.42.76.34.91.42.75.36.89.43.73.37.87.45.7.37.3.16.6.34.63.33.9.51.6.34.96.58.49.29 1.36.85.05.03 1.38.9.44.3.9.62.51.37.79.57.53.4.49.37.19.15 1.12.9.32.25c.48.4.94.78 1.38 1.18l.34.3c.35.3.67.6 1 .9l.43.42.85.83.26.25.2.2.56.6.5.52.53.6c.18.2.32.35.47.54.15.19.35.4.51.61l.44.54.49.62.31.4.1.15.36.5c.16.2.3.42.45.63.15.21.23.34.36.5l.41.64c.14.2.22.34.33.52l.38.63.3.53.2.34.17.32.25.48.36.69.23.48c.12.23.22.48.33.71.06.16.13.3.2.45l.32.81.15.37.03.06.38 1.12.07.2c.13.2.22.55.32.87Z"/>
          <path fill="url(#y)" d="m265.95 56.84.11.42a32.42 32.42 0 0 1 .3 1.26c.04.16.08.3.1.45l.06.3a20.99 20.99 0 0 1 .21 1.23l.07.46.09.82c0 .13.03.27.04.4l.08 1.22.18 14.7c0-.42-.04-.83-.08-1.24l-.03-.39-.1-.83c0-.15-.04-.3-.06-.46l-.13-.76a25.36 25.36 0 0 0-.24-1.21l-.1-.48a23.15 23.15 0 0 0-.61-2.18l-.07-.2-.41-1.18-.15-.37-.32-.81-.2-.46-.33-.71-.23-.48-.36-.69-.25-.47-.36-.66-.3-.53-.39-.63-.33-.52-.41-.63a7.64 7.64 0 0 0-.36-.51l-.45-.63-.35-.5-.42-.55-.5-.62-.43-.54c-.15-.2-.34-.4-.51-.61-.18-.2-.31-.34-.47-.54l-.54-.6-.5-.52c-.16-.19-.35-.4-.55-.6-.21-.19-.3-.3-.46-.45l-.85-.83-.44-.42-1-.9-.33-.3c-.44-.4-.9-.79-1.38-1.17l-.33-.27c-.35-.3-.73-.6-1.12-.9l-.68-.5-.52-.4-.8-.58-.5-.36-.9-.63-.44-.3-1.38-.9-.03-.02-1.38-.86-.48-.29-.98-.58-.58-.34-.91-.51-.63-.34c-.3-.16-.6-.34-.9-.48l-.7-.37-.88-.45-.72-.36-.9-.44-.74-.34-.92-.43-.76-.33-.94-.42-.76-.34-.97-.4-.77-.34-1-.4-.77-.3-1.05-.41-.74-.28-1.16-.42-.67-.24-1.46-.5-.4-.14-1.9-.62-.5-.15-1.41-.44-.73-.21-1.23-.36-.8-.22-1.17-.33-.87-.23-1.14-.3-.9-.21-1.15-.28-.8-.19-1.22-.27-.82-.18-1.24-.26-.81-.17-1.31-.25-.75-.15-1.6-.29-.49-.08-2.1-.35-.54-.09-1.58-.23-.79-.11c-.42-.07-.85-.12-1.28-.18l-1.95-.25-.61-.07c-.86-.1-1.72-.2-2.58-.28l-.65-.06c-.65-.07-1.3-.13-1.97-.18l-.92-.08c-.58-.04-1.16-.1-1.75-.13l-1.07-.07-1.19-.07-1.19-.07-1.18-.04-1.2-.05-1.2-.04-1.22-.03-1.21-.03-1.11-.01-1.94-.01-.88.01-2.79.05c-.92 0-1.82.04-2.73.08-.55 0-1.09.04-1.63.06l-.65.01-2.3.13-.45.03-1.83.12-.8.06-1.47.12-.89.08-1.37.13-.9.1-1.35.14-.9.1-1.36.17-.85.11-1.39.2-.82.1-1.64.26-.54.08-2.17.36-.52.1-1.62.28-.97.2-1.21.23-.98.2-1.18.24-.98.22-1.15.26-.98.23-1.1.27-1.39.36-.84.22-1.56.42-.63.17c-.73.2-1.45.42-2.17.63l-.4.12-1.73.53-.49.16-1.96.64-.72.25c-.64.22-1.27.43-1.89.66l-.5.18-2.3.86-.54.22c-.59.23-1.17.46-1.75.72l-1 .42-.27.11-1.56.68-.31.14-1.56.72-.11.05c-.5.23-.98.47-1.47.72l-.26.13-1.46.72-.3.15-1.45.76-.1.06c-.46.24-.92.5-1.38.76l-.25.14c-.46.25-.92.52-1.36.78l-.27.16-1.36.83-.08.05-1.28.8-.23.16-1.25.83-.25.17c-.42.29-.84.58-1.24.88l-.07.05c-.4.28-.79.57-1.17.86l-.22.15-1.14.89-.22.17-1.13.92-.06.05-1.06.91-.19.17-1.03.93-.2.18c-.34.32-.69.64-1 .97l-.05.04-.94.95-.17.18-.9.96-.18.2-.88 1c0 .02-.02.03-.03.04l-.82 1-.15.18-.77 1-.14.2-.75 1.05-.02.04c-.24.35-.47.7-.68 1.05l-.13.19-.63 1.05-.12.2-.6 1.08v.03c-.2.35-.38.7-.56 1.07l-.1.2-.48 1.05-.1.2c-.16.36-.31.75-.45 1.12v.02c-.15.35-.28.74-.4 1.1l-.08.2c-.12.36-.24.74-.33 1.1l-.06.21a26.06 26.06 0 0 0-.56 2.28c0 .07-.03.14-.04.2-.08.38-.14.75-.2 1.12l-.03.22-.15 1.16a25.59 25.59 0 0 0-.14 2.49l.02 1.43-.01-1.19v-.29l-.17-13.2-.02-1.18V66c-.01-.38.01-.76.03-1.13v-.22a26.13 26.13 0 0 1 .23-2.33c0-.07.03-.14.04-.21.05-.38.12-.75.2-1.11-.01-.08.02-.15.03-.22a31.4 31.4 0 0 1 .56-2.27l.06-.21.34-1.1.07-.2a32 32 0 0 1 .4-1.1v-.03c.14-.37.3-.74.46-1.1l.1-.22.48-1.05.1-.2.55-1.05v-.03l.6-1.08.13-.2.63-1.05.13-.2.68-1.03.02-.03.75-1.06.14-.2c.25-.35.51-.67.77-1l.15-.18.82-1 .03-.04c.29-.35.58-.67.88-1l.18-.2.9-.96.17-.17.94-.96.04-.04 1.01-.97.2-.18 1.03-.93.2-.17c.34-.3.68-.6 1.05-.9l.06-.05 1.13-.92.22-.18a76 76 0 0 1 1.14-.88l.22-.16c.38-.3.77-.58 1.17-.86l.07-.05c.4-.3.82-.58 1.24-.88l.25-.17 1.26-.83.22-.15 1.28-.81.08-.05 1.36-.83.27-.16 1.36-.78.25-.14 1.38-.76.1-.05 1.46-.77.29-.15c.48-.25.97-.5 1.46-.72l.26-.12 1.47-.72.1-.05 1.57-.72.3-.14c.52-.24 1.04-.46 1.57-.68l.27-.11.63-.27.37-.15 1.75-.72.54-.22c.76-.29 1.52-.58 2.3-.86l.5-.18c.62-.22 1.25-.45 1.88-.66l.73-.25 1.96-.64.37-.12.12-.04 1.74-.53.4-.12c.71-.22 1.43-.42 2.16-.62.2-.07.43-.12.64-.18l1.55-.42.85-.22 1.4-.35.27-.07.82-.19.98-.23 1.15-.26.98-.22 1.18-.24.98-.2c.4-.09.81-.16 1.22-.24l.96-.19.16-.03 1.46-.26.52-.1 2.16-.35.56-.09 1.63-.24.82-.12 1.1-.15.3-.04.84-.1c.46-.07.91-.12 1.37-.17l.9-.1 1.34-.16.9-.09 1.4-.13.88-.08.35-.03 1.1-.09c.27 0 .54-.04.81-.06l1.83-.13.45-.03 2.3-.12.65-.01 1.4-.06h.18c.91-.04 1.82-.06 2.74-.08l2.78-.04.88-.02 1.94.01h.47l.64.01c.4 0 .8 0 1.2.02l1.22.03 1.2.04 1.21.05 1.2.06 1.2.06 1.18.08.56.03.52.04 1.74.13.93.07 1.96.18.65.07c.87.08 1.73.18 2.59.28l.6.07 1.96.25.3.03.98.14.79.11 1.56.24.56.08 2.1.36.48.08 1.6.29.75.14 1.3.26.83.17 1.23.25.83.19 1.2.27.81.19.4.1.76.17.9.23 1.13.29.87.23 1.16.33.82.22 1.21.36.74.21 1.4.44.51.15 1.9.62.43.15 1.43.49.68.24 1.15.42.74.28 1.06.4.76.31 1 .4.78.34.96.4.77.34.94.42.76.34.91.42.75.36.89.43.73.37.87.45.7.37.3.16.6.34.63.33.9.51.6.34.96.58.49.29 1.36.85.05.03 1.38.9.44.3.9.62.51.37.79.57.53.4.49.37.19.15 1.12.9.32.25c.48.4.94.78 1.38 1.18l.34.3c.35.3.67.6 1 .9l.43.42.85.83.26.25.2.2.56.6.5.52.53.6c.18.2.32.35.47.54.15.19.35.4.51.61l.44.54.49.62.31.4.1.15.36.5c.16.2.3.42.45.63.15.21.23.34.36.5l.41.64c.14.2.22.34.33.52l.38.63.3.53.2.34.17.32.25.48.36.69.23.48c.12.23.22.48.33.71.06.16.13.3.2.45l.32.81.15.37.03.06.38 1.12.07.2c.13.2.22.55.32.87Z"/>
          <path fill="url(#z)" d="m265.95 56.84.11.42a32.42 32.42 0 0 1 .3 1.26c.04.16.08.3.1.45l.06.3a20.99 20.99 0 0 1 .21 1.23l.07.46.09.82c0 .13.03.27.04.4l.08 1.22.18 14.7c0-.42-.04-.83-.08-1.24l-.03-.39-.1-.83c0-.15-.04-.3-.06-.46l-.13-.76a25.36 25.36 0 0 0-.24-1.21l-.1-.48a23.15 23.15 0 0 0-.61-2.18l-.07-.2-.41-1.18-.15-.37-.32-.81-.2-.46-.33-.71-.23-.48-.36-.69-.25-.47-.36-.66-.3-.53-.39-.63-.33-.52-.41-.63a7.64 7.64 0 0 0-.36-.51l-.45-.63-.35-.5-.42-.55-.5-.62-.43-.54c-.15-.2-.34-.4-.51-.61-.18-.2-.31-.34-.47-.54l-.54-.6-.5-.52c-.16-.19-.35-.4-.55-.6-.21-.19-.3-.3-.46-.45l-.85-.83-.44-.42-1-.9-.33-.3c-.44-.4-.9-.79-1.38-1.17l-.33-.27c-.35-.3-.73-.6-1.12-.9l-.68-.5-.52-.4-.8-.58-.5-.36-.9-.63-.44-.3-1.38-.9-.03-.02-1.38-.86-.48-.29-.98-.58-.58-.34-.91-.51-.63-.34c-.3-.16-.6-.34-.9-.48l-.7-.37-.88-.45-.72-.36-.9-.44-.74-.34-.92-.43-.76-.33-.94-.42-.76-.34-.97-.4-.77-.34-1-.4-.77-.3-1.05-.41-.74-.28-1.16-.42-.67-.24-1.46-.5-.4-.14-1.9-.62-.5-.15-1.41-.44-.73-.21-1.23-.36-.8-.22-1.17-.33-.87-.23-1.14-.3-.9-.21-1.15-.28-.8-.19-1.22-.27-.82-.18-1.24-.26-.81-.17-1.31-.25-.75-.15-1.6-.29-.49-.08-2.1-.35-.54-.09-1.58-.23-.79-.11c-.42-.07-.85-.12-1.28-.18l-1.95-.25-.61-.07c-.86-.1-1.72-.2-2.58-.28l-.65-.06c-.65-.07-1.3-.13-1.97-.18l-.92-.08c-.58-.04-1.16-.1-1.75-.13l-1.07-.07-1.19-.07-1.19-.07-1.18-.04-1.2-.05-1.2-.04-1.22-.03-1.21-.03-1.11-.01-1.94-.01-.88.01-2.79.05c-.92 0-1.82.04-2.73.08-.55 0-1.09.04-1.63.06l-.65.01-2.3.13-.45.03-1.83.12-.8.06-1.47.12-.89.08-1.37.13-.9.1-1.35.14-.9.1-1.36.17-.85.11-1.39.2-.82.1-1.64.26-.54.08-2.17.36-.52.1-1.62.28-.97.2-1.21.23-.98.2-1.18.24-.98.22-1.15.26-.98.23-1.1.27-1.39.36-.84.22-1.56.42-.63.17c-.73.2-1.45.42-2.17.63l-.4.12-1.73.53-.49.16-1.96.64-.72.25c-.64.22-1.27.43-1.89.66l-.5.18-2.3.86-.54.22c-.59.23-1.17.46-1.75.72l-1 .42-.27.11-1.56.68-.31.14-1.56.72-.11.05c-.5.23-.98.47-1.47.72l-.26.13-1.46.72-.3.15-1.45.76-.1.06c-.46.24-.92.5-1.38.76l-.25.14c-.46.25-.92.52-1.36.78l-.27.16-1.36.83-.08.05-1.28.8-.23.16-1.25.83-.25.17c-.42.29-.84.58-1.24.88l-.07.05c-.4.28-.79.57-1.17.86l-.22.15-1.14.89-.22.17-1.13.92-.06.05-1.06.91-.19.17-1.03.93-.2.18c-.34.32-.69.64-1 .97l-.05.04-.94.95-.17.18-.9.96-.18.2-.88 1c0 .02-.02.03-.03.04l-.82 1-.15.18-.77 1-.14.2-.75 1.05-.02.04c-.24.35-.47.7-.68 1.05l-.13.19-.63 1.05-.12.2-.6 1.08v.03c-.2.35-.38.7-.56 1.07l-.1.2-.48 1.05-.1.2c-.16.36-.31.75-.45 1.12v.02c-.15.35-.28.74-.4 1.1l-.08.2c-.12.36-.24.74-.33 1.1l-.06.21a26.06 26.06 0 0 0-.56 2.28c0 .07-.03.14-.04.2-.08.38-.14.75-.2 1.12l-.03.22-.15 1.16a25.59 25.59 0 0 0-.14 2.49l.02 1.43-.01-1.19v-.29l-.17-13.2-.02-1.18V66c-.01-.38.01-.76.03-1.13v-.22a26.13 26.13 0 0 1 .23-2.33c0-.07.03-.14.04-.21.05-.38.12-.75.2-1.11-.01-.08.02-.15.03-.22a31.4 31.4 0 0 1 .56-2.27l.06-.21.34-1.1.07-.2a32 32 0 0 1 .4-1.1v-.03c.14-.37.3-.74.46-1.1l.1-.22.48-1.05.1-.2.55-1.05v-.03l.6-1.08.13-.2.63-1.05.13-.2.68-1.03.02-.03.75-1.06.14-.2c.25-.35.51-.67.77-1l.15-.18.82-1 .03-.04c.29-.35.58-.67.88-1l.18-.2.9-.96.17-.17.94-.96.04-.04 1.01-.97.2-.18 1.03-.93.2-.17c.34-.3.68-.6 1.05-.9l.06-.05 1.13-.92.22-.18a76 76 0 0 1 1.14-.88l.22-.16c.38-.3.77-.58 1.17-.86l.07-.05c.4-.3.82-.58 1.24-.88l.25-.17 1.26-.83.22-.15 1.28-.81.08-.05 1.36-.83.27-.16 1.36-.78.25-.14 1.38-.76.1-.05 1.46-.77.29-.15c.48-.25.97-.5 1.46-.72l.26-.12 1.47-.72.1-.05 1.57-.72.3-.14c.52-.24 1.04-.46 1.57-.68l.27-.11.63-.27.37-.15 1.75-.72.54-.22c.76-.29 1.52-.58 2.3-.86l.5-.18c.62-.22 1.25-.45 1.88-.66l.73-.25 1.96-.64.37-.12.12-.04 1.74-.53.4-.12c.71-.22 1.43-.42 2.16-.62.2-.07.43-.12.64-.18l1.55-.42.85-.22 1.4-.35.27-.07.82-.19.98-.23 1.15-.26.98-.22 1.18-.24.98-.2c.4-.09.81-.16 1.22-.24l.96-.19.16-.03 1.46-.26.52-.1 2.16-.35.56-.09 1.63-.24.82-.12 1.1-.15.3-.04.84-.1c.46-.07.91-.12 1.37-.17l.9-.1 1.34-.16.9-.09 1.4-.13.88-.08.35-.03 1.1-.09c.27 0 .54-.04.81-.06l1.83-.13.45-.03 2.3-.12.65-.01 1.4-.06h.18c.91-.04 1.82-.06 2.74-.08l2.78-.04.88-.02 1.94.01h.47l.64.01c.4 0 .8 0 1.2.02l1.22.03 1.2.04 1.21.05 1.2.06 1.2.06 1.18.08.56.03.52.04 1.74.13.93.07 1.96.18.65.07c.87.08 1.73.18 2.59.28l.6.07 1.96.25.3.03.98.14.79.11 1.56.24.56.08 2.1.36.48.08 1.6.29.75.14 1.3.26.83.17 1.23.25.83.19 1.2.27.81.19.4.1.76.17.9.23 1.13.29.87.23 1.16.33.82.22 1.21.36.74.21 1.4.44.51.15 1.9.62.43.15 1.43.49.68.24 1.15.42.74.28 1.06.4.76.31 1 .4.78.34.96.4.77.34.94.42.76.34.91.42.75.36.89.43.73.37.87.45.7.37.3.16.6.34.63.33.9.51.6.34.96.58.49.29 1.36.85.05.03 1.38.9.44.3.9.62.51.37.79.57.53.4.49.37.19.15 1.12.9.32.25c.48.4.94.78 1.38 1.18l.34.3c.35.3.67.6 1 .9l.43.42.85.83.26.25.2.2.56.6.5.52.53.6c.18.2.32.35.47.54.15.19.35.4.51.61l.44.54.49.62.31.4.1.15.36.5c.16.2.3.42.45.63.15.21.23.34.36.5l.41.64c.14.2.22.34.33.52l.38.63.3.53.2.34.17.32.25.48.36.69.23.48c.12.23.22.48.33.71.06.16.13.3.2.45l.32.81.15.37.03.06.38 1.12.07.2c.13.2.22.55.32.87Z"/>
        </g>
        <path fill="url(#A)" d="m117.65 90.16-.06-.21a16.65 16.65 0 0 1-.17-.64l-.06-.22-.03-.16a8.37 8.37 0 0 1-.15-.85l-.05-.42-.02-.2-.05-.61-.09-7.43c0 .21.03.42.05.62 0 .07 0 .14.02.2l.05.42c0 .08.02.16.03.23l.07.39.05.23.09.38.06.24.1.4.07.2c.05.18.11.34.17.5l.04.1.23.6.08.19.18.4.12.24.18.36a6.98 6.98 0 0 0 .33.58l.14.25.2.33.18.26.21.32.19.27.23.31.2.26.25.32.2.25.24.28.28.31.24.27.3.31.25.27.3.3.29.27.31.3.26.23.48.42.25.2c.18.16.36.31.56.46l.18.15.78.6.19.13.63.45.38.26.3.2.44.29.3.18.5.32.25.15.77.45.02.01.78.44.27.14.55.3c.1.05.22.1.33.17l.51.25.36.17a26.69 26.69 0 0 0 .9.43l.5.23.4.18.5.22.43.17.52.22.42.17.53.2.43.18.55.2.43.17.57.2.43.16.6.2.4.14.66.21.38.12.82.25.23.07 1.07.31.28.08.8.22.41.1.7.19.45.1.66.17.48.12.65.15.5.1.66.15.45.1.69.13.46.09.7.13.45.08.75.13.42.07.9.15.27.04 1.19.17.3.05.9.11.44.06.72.09 1.1.12.35.04 1.45.14.37.03 1.11.09.52.03.99.07.6.03.67.04.67.03.67.02.68.02.68.02.69.02.68.01h2.22l1.57-.02 1.54-.05.91-.03h.37l1.3-.07.26-.02 1.03-.06.45-.03.83-.07.5-.04.78-.06.5-.05.76-.08.51-.05.77-.08.48-.06.78-.1.47-.06.93-.13.3-.04 1.22-.18.3-.05.91-.15.55-.1.68-.11.56-.1.66-.13.56-.11.64-.13.56-.12.62-.14.78-.18.47-.11.88-.22.37-.08 1.22-.32.22-.06.98-.27.28-.08 1.1-.33.41-.12 1.07-.34.28-.1 1.3-.43.3-.11 1-.37.56-.2.15-.07a61 61 0 0 0 .88-.34l.18-.07.88-.37.06-.02.83-.37.14-.06.83-.37.16-.07.83-.39.05-.03.79-.38.13-.07.77-.4.15-.08.77-.42.05-.03.72-.4.13-.08.7-.43.15-.08.7-.44.04-.03.66-.44.12-.08.64-.44.13-.1.64-.46.03-.02.6-.46.1-.09c.2-.15.4-.3.6-.47l.1-.09.58-.49.02-.02.53-.48.1-.1.5-.48.1-.1.5-.5.02-.03.46-.5.09-.1c.15-.16.3-.33.43-.5l.09-.1.42-.53v-.02l.4-.53.06-.1c.13-.18.25-.35.36-.53l.07-.1.34-.55v-.01l.32-.55.05-.1c.1-.17.2-.35.28-.53l.05-.1c.1-.18.18-.38.26-.56v-.01l.23-.56.04-.1c.07-.18.14-.37.19-.56l.03-.1a11.96 11.96 0 0 0 .32-1.15l.02-.11.12-.56.01-.11.09-.6.05-.58v-.11c.02-.19.03-.37.03-.56l-.01-.72v.74l.09 6.68v.6l.01.1c0 .2 0 .39-.02.58v.1l-.05.6-.08.58-.02.11-.11.56c0 .04-.02.07-.03.1a16.28 16.28 0 0 1-.35 1.27l-.19.55-.04.1-.23.56v.01l-.26.56-.05.1a15.05 15.05 0 0 1-.64 1.17v.02l-.35.54-.06.1-.36.54-.07.1-.39.52-.01.02-.43.53-.08.1c-.14.18-.28.34-.43.5l-.09.1-.46.5-.02.02c-.16.18-.33.34-.5.51l-.1.1-.5.49-.1.09-.53.48-.03.02-.57.49-.1.1-.6.46-.1.09-.6.46-.03.02c-.2.16-.42.31-.64.47l-.13.09c-.2.15-.42.3-.64.44l-.12.08-.66.44-.04.03-.7.44-.14.08-.71.43-.13.07-.72.41-.05.03-.76.42-.16.08-.77.4-.13.07-.79.38-.05.03-.83.39-.16.08c-.27.12-.55.25-.83.36l-.14.06-.83.37-.06.02-.89.37-.17.07-.88.34-.16.06-.35.14-.2.07-1 .37-.3.1c-.43.16-.86.3-1.3.44l-.28.1-1.07.33-.4.13-1.11.32-.21.06-.07.02c-.33.1-.65.19-.98.27l-.22.07-1.23.31-.36.1-.88.2-.48.12-.78.17-.16.04-.46.1-.55.11-.65.14-.56.1c-.22.05-.44.1-.66.13l-.55.1-.69.13-.55.1h-.09l-.82.14-.3.05-1.21.18-.32.04-.92.13-.46.06-.62.08-.17.02-.48.05-.77.09-.5.05-.76.08-.51.04-.79.07-.5.04-.2.02-.62.04c-.15 0-.3.03-.45.04l-1.03.06-.26.02-1.3.06h-.36l-.8.04h-.1l-1.54.04-1.57.03h-2.21l-.69-.01-.68-.02-.68-.02-.69-.02-.67-.03-.67-.03-.67-.03-.32-.02-.29-.02-.98-.06-.53-.04-1.1-.09-.37-.03-1.46-.14-.34-.04-1.1-.12-.18-.02-.55-.07-.44-.05-.89-.12-.31-.04-1.19-.18-.27-.04-.9-.14-.42-.08-.74-.13-.46-.08-.7-.13-.46-.09-.69-.14-.45-.1-.23-.04-.42-.09-.5-.11-.65-.15-.5-.11-.64-.17-.47-.11-.68-.18-.42-.1-.78-.23-.3-.08-1.06-.3-.25-.08-.8-.25-.39-.12-.65-.2-.42-.15-.59-.2-.43-.16-.57-.2-.43-.17-.55-.2-.43-.17-.53-.21-.43-.17-.51-.22-.42-.17-.5-.22-.42-.19-.49-.22-.4-.2-.16-.07-.33-.17-.36-.17a40.2 40.2 0 0 1-.51-.26l-.34-.17-.54-.29-.28-.14-.77-.44-.02-.01-.78-.45-.25-.16-.5-.3-.3-.2-.44-.28-.3-.2-.27-.19-.1-.07-.64-.45-.18-.14-.78-.59-.19-.15-.56-.45-.25-.22-.47-.41-.15-.13-.11-.1-.32-.3-.28-.27-.3-.3-.26-.27-.3-.31-.24-.27-.28-.32-.17-.2-.06-.07-.2-.25-.25-.32-.2-.26-.24-.32-.18-.26-.22-.32-.17-.27-.1-.17-.1-.16-.14-.24-.2-.35-.14-.24-.18-.36-.11-.23-.19-.4-.08-.2-.01-.02-.22-.57-.04-.1c-.07-.1-.12-.28-.18-.44Z"/>
        <path fill="url(#B)" d="M171.25 104.28c-29.8.38-54.1-10.82-54.27-25.03-.17-14.21 23.84-26.04 53.63-26.43 29.8-.38 54.1 10.82 54.27 25.03.18 14.21-23.83 26.04-53.63 26.43Z"/>
      </g>
      <g clip-path="url(#C)">
        <path fill="url(#D)" d="m208.89 101.8-13.66 41.67-24.85-22 13.3-41.97 25.2 22.3Z"/>
        <use xlink:href="#reuse-1"/>
        <path fill="url(#E)" d="m170.38 121.47-36.06.42 13.3-41.97 36.06-.42-13.3 41.97Z"/>
      </g>
    </g>
  </g>
  <defs>
    <linearGradient id="c" x1="-99" x2="1149.49" y1="1223" y2="691.2" gradientUnits="userSpaceOnUse">
      <stop stop-color="#D0B75E"/>
      <stop offset=".22" stop-color="#71A042"/>
      <stop offset=".37" stop-color="#06F"/>
      <stop offset=".53" stop-color="#F98B8B" stop-opacity=".87"/>
      <stop offset=".62" stop-color="#FFCF88"/>
      <stop offset=".74" stop-color="#FC6161"/>
      <stop offset=".87" stop-color="#FFD464" stop-opacity="0"/>
      <stop offset="1" stop-color="#FFCB67" stop-opacity="0"/>
    </linearGradient>
    <linearGradient id="l" x1="11.43" x2="33.69" y1="79.48" y2="-384.39" gradientUnits="userSpaceOnUse">
      <stop stop-color="#D89E9E" stop-opacity=".77"/>
      <stop offset="1" stop-color="#8C0101"/>
    </linearGradient>
    <linearGradient id="m" x1="169.61" x2="167.03" y1="170.91" y2=".15" gradientUnits="userSpaceOnUse">
      <stop stop-color="#fff"/>
      <stop offset="1" stop-color="#fff" stop-opacity="0"/>
    </linearGradient>
    <linearGradient id="n" x1="11.08" x2="18.39" y1="48.58" y2="-253" gradientUnits="userSpaceOnUse">
      <stop stop-color="#fff" stop-opacity="0"/>
      <stop offset=".97" stop-color="#8C0101"/>
    </linearGradient>
    <linearGradient id="o" x1="129.65" x2="297.69" y1="-25.25" y2="119.56" gradientUnits="userSpaceOnUse">
      <stop stop-color="#fff" stop-opacity=".61"/>
      <stop offset="1" stop-color="#fff" stop-opacity="0"/>
    </linearGradient>
    <linearGradient id="p" x1="172.82" x2="173.31" y1="78.79" y2="111.42" gradientUnits="userSpaceOnUse">
      <stop stop-color="#fff"/>
      <stop offset="1" stop-color="#fff" stop-opacity="0"/>
    </linearGradient>
    <linearGradient id="q" x1="171.98" x2="171.2" y1="104.15" y2="52.82" gradientUnits="userSpaceOnUse">
      <stop offset=".02" stop-color="#A27D7D"/>
      <stop offset="1" stop-color="#DA9278"/>
    </linearGradient>
    <linearGradient id="s" x1="144.98" x2="146.56" y1="96.57" y2="186" gradientUnits="userSpaceOnUse">
      <stop stop-color="#fff" stop-opacity=".85"/>
      <stop offset="1" stop-color="#01348C"/>
    </linearGradient>
    <linearGradient id="t" x1="117.9" x2="140.29" y1="90.71" y2="181.13" gradientUnits="userSpaceOnUse">
      <stop stop-color="#DBC9C9"/>
      <stop offset="1" stop-color="#01348C"/>
    </linearGradient>
    <linearGradient id="w" x1="11.43" x2="33.69" y1="79.48" y2="-384.39" gradientUnits="userSpaceOnUse">
      <stop stop-color="#D89E9E" stop-opacity=".77"/>
      <stop offset="1" stop-color="#8C0101"/>
    </linearGradient>
    <linearGradient id="x" x1="169.61" x2="167.03" y1="170.91" y2=".15" gradientUnits="userSpaceOnUse">
      <stop stop-color="#fff"/>
      <stop offset="1" stop-color="#fff" stop-opacity="0"/>
    </linearGradient>
    <linearGradient id="y" x1="11.08" x2="18.39" y1="48.58" y2="-253" gradientUnits="userSpaceOnUse">
      <stop stop-color="#fff" stop-opacity="0"/>
      <stop offset=".97" stop-color="#8C0101"/>
    </linearGradient>
    <linearGradient id="z" x1="129.65" x2="297.69" y1="-25.25" y2="119.56" gradientUnits="userSpaceOnUse">
      <stop stop-color="#fff" stop-opacity=".61"/>
      <stop offset="1" stop-color="#fff" stop-opacity="0"/>
    </linearGradient>
    <linearGradient id="A" x1="172.82" x2="173.31" y1="78.79" y2="111.42" gradientUnits="userSpaceOnUse">
      <stop stop-color="#fff"/>
      <stop offset="1" stop-color="#fff" stop-opacity="0"/>
    </linearGradient>
    <linearGradient id="B" x1="171.98" x2="171.2" y1="104.15" y2="52.82" gradientUnits="userSpaceOnUse">
      <stop offset=".02" stop-color="#A27D7D"/>
      <stop offset="1" stop-color="#DA9278"/>
    </linearGradient>
    <linearGradient id="D" x1="144.98" x2="146.56" y1="96.57" y2="186" gradientUnits="userSpaceOnUse">
      <stop stop-color="#fff" stop-opacity=".85"/>
      <stop offset="1" stop-color="#01348C"/>
    </linearGradient>
    <linearGradient id="E" x1="117.9" x2="140.29" y1="90.71" y2="181.13" gradientUnits="userSpaceOnUse">
      <stop stop-color="#DBC9C9"/>
      <stop offset="1" stop-color="#01348C"/>
    </linearGradient>
    <clipPath id="a">
      <use xlink:href="#reuse-0"/>
    </clipPath>
    <clipPath id="b">
      <path fill="#fff" d="M0 0h1074v620H0z" transform="rotate(-90 386.5 526.5)"/>
    </clipPath>
    <clipPath id="i">
      <path fill="#fff" d="M0 0h447v176.81H0z" transform="translate(-55 151)"/>
    </clipPath>
    <clipPath id="j">
      <use xlink:href="#reuse-2" transform="scale(-1 1) rotate(.87 -993.17 -17607.7)"/>
    </clipPath>
    <clipPath id="k">
      <use xlink:href="#reuse-2" transform="scale(1 -1) rotate(.87 8771.54 5012)"/>
    </clipPath>
    <clipPath id="r">
      <use xlink:href="#reuse-3" transform="rotate(41.63 .62 246.24)"/>
    </clipPath>
    <clipPath id="u">
      <use xlink:href="#reuse-2" transform="scale(-1 1) rotate(.87 -993.17 -17607.7)"/>
    </clipPath>
    <clipPath id="v">
      <use xlink:href="#reuse-2" transform="scale(1 -1) rotate(.87 8771.54 5012.01)"/>
    </clipPath>
    <clipPath id="C">
      <use xlink:href="#reuse-3" transform="rotate(41.63 .62 246.24)"/>
    </clipPath>
    <radialGradient id="e" cx="0" cy="0" r="1" gradientTransform="rotate(-173.24 393.25 -19.83) scale(679.883 1588.04)" gradientUnits="userSpaceOnUse">
      <stop stop-color="#BFD6EB"/>
      <stop offset=".16" stop-color="#CCEF68"/>
      <stop offset=".36" stop-color="#BBEE68" stop-opacity=".87"/>
      <stop offset=".52" stop-color="#81F0A0"/>
      <stop offset=".87" stop-color="#9DF188" stop-opacity="0"/>
    </radialGradient>
    <radialGradient id="g" cx="0" cy="0" r="1" gradientTransform="matrix(-363.16496 -943.4676 917.22185 -353.0623 260.87 926.85)" gradientUnits="userSpaceOnUse">
      <stop stop-color="#F2BE81"/>
      <stop offset=".3" stop-color="#FDAC34"/>
      <stop offset=".77" stop-color="#FFD707"/>
      <stop offset="1" stop-color="#FCDB66" stop-opacity="0"/>
    </radialGradient>
    <radialGradient id="h" cx="0" cy="0" r="1" gradientTransform="rotate(90 -125 687) scale(807.5)" gradientUnits="userSpaceOnUse">
      <stop/>
      <stop offset="1" stop-opacity="0"/>
    </radialGradient>
    <filter id="d" width="711.86" height="1198.83" x="-10.18" y="-504.79" color-interpolation-filters="sRGB" filterUnits="userSpaceOnUse">
      <feFlood flood-opacity="0" result="BackgroundImageFix"/>
      <feBlend in="SourceGraphic" in2="BackgroundImageFix" result="shape"/>
      <feGaussianBlur result="effect1_foregroundBlur" stdDeviation="7"/>
    </filter>
    <filter id="f" width="385.23" height="1576.29" x="-51.32" y="-538.29" color-interpolation-filters="sRGB" filterUnits="userSpaceOnUse">
      <feFlood flood-opacity="0" result="BackgroundImageFix"/>
      <feBlend in="SourceGraphic" in2="BackgroundImageFix" result="shape"/>
      <feGaussianBlur result="effect1_foregroundBlur" stdDeviation="17"/>
    </filter>
  </defs>
</svg>