<svg xmlns="http://www.w3.org/2000/svg" xmlns:xlink="http://www.w3.org/1999/xlink" fill="none" viewBox="0 0 343 200">
  <defs>
    <path id="reuse-0" fill="#fff" d="M0 0h343v200H0z"/>
  </defs>
  <g clip-path="url(#a)">
    <use xlink:href="#reuse-0"/>
    <path fill="#498AFD" d="M0 0h343v200H0z"/>
    <g clip-path="url(#b)">
      <path fill="#000" d="M-140 913V-161h620V913z"/>
      <path fill="url(#c)" d="M-140 913H934v620H-140z" transform="rotate(-90 -140 913)"/>
      <g filter="url(#d)">
        <path fill="url(#e)" d="M646.3 679.3C471.3 680.2 5 508 3.8 274.9 2.6 41.7 279.8-490 455-490.8c175-1 251.6 353.1 145.1 677.2-77.5 236 185.5 510.2 46.3 492.9Z"/>
      </g>
      <g filter="url(#f)" style="mix-blend-mode:color-dodge">
        <path fill="url(#g)" d="M-4 413c5.6 81.8 63.3 116.4 119.6 140.1C101.4 704 120 857.2 208 1004c0 0-45.1-264.5 0-329 54.6-78-17.7-90.4-92.4-121.9C152 169 400.8-199.5 254-404 49.6-688.9-56.5-351.5-4 413Z"/>
      </g>
    </g>
    <path fill="url(#h)" d="M375 812h375v824H375z" transform="rotate(-180 375 812)"/>
    <path fill="url(#i)" fill-opacity=".4" d="M3 5a5 5 0 0 1 5-5h331a5 5 0 0 1 5 5v281a4 4 0 0 1-4 4H7a4 4 0 0 1-4-4V5Z" style="mix-blend-mode:soft-light"/>
    <path stroke="url(#j)" stroke-width="2" d="M124.3 108v36.5" opacity=".4"/>
    <path stroke="url(#k)" stroke-width="2" d="M112 112v32" opacity=".4"/>
    <path stroke="url(#l)" stroke-width="2" d="M136 103.5V143" opacity=".4"/>
    <path stroke="url(#m)" stroke-width="2" d="M149 95v47.5" opacity=".4"/>
    <path stroke="url(#n)" stroke-width="2" d="M161 81v59" opacity=".4"/>
    <path stroke="url(#o)" stroke-width="2" d="M173 43v97.5" opacity=".4"/>
    <path stroke="url(#p)" stroke-width="2" d="M185 82v59" opacity=".4"/>
    <path stroke="url(#q)" stroke-width="2" d="M197 94.5V141" opacity=".4"/>
    <path stroke="url(#r)" stroke-width="2" d="M209 102v39" opacity=".4"/>
    <path stroke="url(#s)" stroke-width="2" d="M221.7 109v31.5" opacity=".4"/>
    <path stroke="#F3F3F3" stroke-width="2" d="M233.9 112v28.5" opacity=".4"/>
    <path stroke="#F3F3F3" stroke-width="2.4" d="M106 113c22.3-2.4 67-20 67-72M240 113c-22.3-2.4-67-20-67-72"/>
    <g filter="url(#t)">
      <circle cx="119.5" cy="114.5" r="33.5" fill="#E2933B"/>
    </g>
    <path fill="#000" d="M131.3 106.8c-.4-4.2-4-5.7-8.6-6.1v-5.9h-3.5v5.7h-3l.1-5.8h-3.6v5.9h-7.3v3.8h2.6a1.9 1.9 0 0 1 2 1.6v6.7h.4-.4v9.4a1.3 1.3 0 0 1-1.4 1.2H106l-.8 4.2h4.7l2.5.1v6h3.6v-6l2.9.1v6h3.5v-6c6-.3 10.3-1.8 10.9-7.4.4-4.6-1.7-6.6-5.1-7.5 2-1 3.4-2.8 3.1-6Zm-5.1 12.7c0 4.5-7.7 3.9-10 3.9v-8c2.4.1 10-.6 10 4.1Zm-1.6-11.1c0 4-6.3 3.5-8.4 3.5v-7.2c2.1 0 8.4-.5 8.4 3.7Z"/>
    <path fill="#fff" d="M131.3 106.8c-.4-4.2-4-5.7-8.6-6.1v-5.9h-3.5v5.7h-3l.1-5.8h-3.6v5.9h-7.3v3.8h2.6a1.9 1.9 0 0 1 2 1.6v6.7h.4-.4v9.4a1.3 1.3 0 0 1-1.4 1.2H106l-.8 4.2h4.7l2.5.1v6h3.6v-6l2.9.1v6h3.5v-6c6-.3 10.3-1.8 10.9-7.4.4-4.6-1.7-6.6-5.1-7.5 2-1 3.4-2.8 3.1-6Zm-5.1 12.7c0 4.5-7.7 3.9-10 3.9v-8c2.4.1 10-.6 10 4.1Zm-1.6-11.1c0 4-6.3 3.5-8.4 3.5v-7.2c2.1 0 8.4-.5 8.4 3.7Z"/>
  </g>
  <defs>
    <linearGradient id="c" x1="-.2" x2="1131.7" y1="1440.8" y2="701.2" gradientUnits="userSpaceOnUse">
      <stop stop-color="#5E87D0"/>
      <stop offset=".2" stop-color="#4266A0"/>
      <stop offset=".4" stop-color="#C846AB"/>
      <stop offset=".5" stop-color="#92417B" stop-opacity=".9"/>
      <stop offset=".6" stop-color="#6354BE"/>
      <stop offset=".7" stop-color="#6170FC"/>
      <stop offset=".9" stop-color="#7B64FF" stop-opacity="0"/>
      <stop offset="1" stop-color="#7C67FF" stop-opacity="0"/>
    </linearGradient>
    <linearGradient id="j" x1="124.8" x2="124.8" y1="108" y2="165.8" gradientUnits="userSpaceOnUse">
      <stop stop-color="#fff"/>
      <stop offset="1" stop-opacity="0"/>
    </linearGradient>
    <linearGradient id="k" x1="112.6" x2="112.6" y1="112" y2="161" gradientUnits="userSpaceOnUse">
      <stop stop-color="#fff"/>
      <stop offset="1" stop-opacity="0"/>
    </linearGradient>
    <linearGradient id="l" x1="11397300" x2="11397300" y1="101.5" y2="167.3" gradientUnits="userSpaceOnUse">
      <stop stop-color="#fff"/>
      <stop offset="1" stop-opacity="0"/>
    </linearGradient>
    <linearGradient id="m" x1="149.5" x2="149.5" y1="95" y2="180.5" gradientUnits="userSpaceOnUse">
      <stop stop-color="#fff"/>
      <stop offset="1" stop-opacity="0"/>
    </linearGradient>
    <linearGradient id="n" x1="161.5" x2="161.5" y1="81" y2="192.8" gradientUnits="userSpaceOnUse">
      <stop stop-color="#fff"/>
      <stop offset="1" stop-opacity="0"/>
    </linearGradient>
    <linearGradient id="o" x1="173" x2="91.6" y1="43" y2="86.5" gradientUnits="userSpaceOnUse">
      <stop stop-color="#fff"/>
      <stop offset="1" stop-opacity="0"/>
    </linearGradient>
    <linearGradient id="p" x1="185" x2="174.8" y1="80" y2="212.9" gradientUnits="userSpaceOnUse">
      <stop stop-color="#fff"/>
      <stop offset="1" stop-opacity="0"/>
    </linearGradient>
    <linearGradient id="q" x1="197.5" x2="197.5" y1="93" y2="198.2" gradientUnits="userSpaceOnUse">
      <stop stop-color="#fff"/>
      <stop offset="1" stop-opacity="0"/>
    </linearGradient>
    <linearGradient id="r" x1="209.5" x2="209.5" y1="102" y2="187.5" gradientUnits="userSpaceOnUse">
      <stop stop-color="#fff"/>
      <stop offset="1" stop-opacity="0"/>
    </linearGradient>
    <linearGradient id="s" x1="221.7" x2="218" y1="109" y2="164.4" gradientUnits="userSpaceOnUse">
      <stop stop-color="#fff"/>
      <stop offset="1" stop-opacity="0"/>
    </linearGradient>
    <radialGradient id="e" cx="0" cy="0" r="1" gradientTransform="rotate(-170.3 393.3 -30) scale(639.247 1493.13)" gradientUnits="userSpaceOnUse">
      <stop stop-color="#BFD6EB"/>
      <stop offset=".2" stop-color="#68B0EF"/>
      <stop offset=".4" stop-color="#68AEEE" stop-opacity=".9"/>
      <stop offset=".5" stop-color="#8199F0"/>
      <stop offset=".9" stop-color="#9788F1" stop-opacity="0"/>
    </radialGradient>
    <radialGradient id="g" cx="0" cy="0" r="1" gradientTransform="matrix(-175.29564 -678.1109 659.24894 -170.41972 73 661.5)" gradientUnits="userSpaceOnUse">
      <stop stop-color="#9881F2"/>
      <stop offset=".3" stop-color="#349FFD"/>
      <stop offset=".8" stop-color="#536ECE"/>
      <stop offset="1" stop-color="#7C66FC" stop-opacity="0"/>
    </radialGradient>
    <radialGradient id="h" cx="0" cy="0" r="1" gradientTransform="rotate(90 -125 687) scale(807.5)" gradientUnits="userSpaceOnUse">
      <stop/>
      <stop offset="1" stop-opacity="0"/>
    </radialGradient>
    <filter id="d" width="711.9" height="1198.8" x="-10.2" y="-504.8" color-interpolation-filters="sRGB" filterUnits="userSpaceOnUse">
      <feFlood flood-opacity="0" result="BackgroundImageFix"/>
      <feBlend in="SourceGraphic" in2="BackgroundImageFix" result="shape"/>
      <feGaussianBlur result="effect1_foregroundBlur" stdDeviation="7"/>
    </filter>
    <filter id="f" width="385.2" height="1576.3" x="-51.3" y="-538.3" color-interpolation-filters="sRGB" filterUnits="userSpaceOnUse">
      <feFlood flood-opacity="0" result="BackgroundImageFix"/>
      <feBlend in="SourceGraphic" in2="BackgroundImageFix" result="shape"/>
      <feGaussianBlur result="effect1_foregroundBlur" stdDeviation="17"/>
    </filter>
    <filter id="t" width="75" height="75" x="82" y="81" color-interpolation-filters="sRGB" filterUnits="userSpaceOnUse">
      <feFlood flood-opacity="0" result="BackgroundImageFix"/>
      <feColorMatrix in="SourceAlpha" result="hardAlpha" values="0 0 0 0 0 0 0 0 0 0 0 0 0 0 0 0 0 0 127 0"/>
      <feOffset dy="4"/>
      <feGaussianBlur stdDeviation="2"/>
      <feColorMatrix values="0 0 0 0 0 0 0 0 0 0 0 0 0 0 0 0 0 0 0.05 0"/>
      <feBlend in2="BackgroundImageFix" result="effect1_dropShadow"/>
      <feBlend in="SourceGraphic" in2="effect1_dropShadow" result="shape"/>
    </filter>
    <clipPath id="a">
      <use xlink:href="#reuse-0"/>
    </clipPath>
    <clipPath id="b">
      <path fill="#fff" d="M0 0h1074v620H0z" transform="rotate(-90 386.5 526.5)"/>
    </clipPath>
    <pattern id="i" width="1" height="1" patternContentUnits="objectBoundingBox">
      <use xlink:href="#u" transform="matrix(.0025 0 0 .00294 -.2 0)"/>
    </pattern>
  </defs>
</svg>