<svg width="62" height="62" viewBox="0 0 62 62" fill="none" xmlns="http://www.w3.org/2000/svg">
<g filter="url(#filter0_ii)">
<rect x="1" y="1" width="60" height="60" rx="4" fill="black"/>
<rect x="1" y="1" width="60" height="60" rx="4" fill="url(#paint0_linear)" fill-opacity="0.2"/>
<rect x="1" y="1" width="60" height="60" rx="4" fill="url(#paint1_radial)" fill-opacity="0.6"/>
</g>
<rect x="0.5" y="0.5" width="61" height="61" rx="4.5" stroke="#F3F3F3"/>
<rect x="0.5" y="0.5" width="61" height="61" rx="4.5" stroke="url(#paint2_linear)"/>
<mask id="mask0" mask-type="alpha" maskUnits="userSpaceOnUse" x="1" y="1" width="60" height="60">
<rect x="1" y="1" width="60" height="60" rx="4" fill="#08162D"/>
</mask>
<g mask="url(#mask0)">
<path d="M65 45H-3V59V75H3V55C3.5 49 9 49 9 49H53C53 49 59 49 59 56V75H65V60V45Z" fill="url(#paint3_linear)"/>
<path opacity="0.4" d="M7 33L7 46" stroke="url(#paint4_linear)" stroke-width="2"/>
<path opacity="0.4" d="M1 35L1 46" stroke="url(#paint5_linear)" stroke-width="2"/>
<path opacity="0.4" d="M13 30L13 45" stroke="url(#paint6_linear)" stroke-width="2"/>
<path opacity="0.4" d="M19 26L19 46" stroke="url(#paint7_linear)" stroke-width="2"/>
<path opacity="0.4" d="M25 18L25 45" stroke="url(#paint8_linear)" stroke-width="2"/>
<path opacity="0.4" d="M31 1L31 45" stroke="url(#paint9_linear)" stroke-width="2"/>
<path opacity="0.4" d="M37 17.5L37 45" stroke="url(#paint10_linear)" stroke-width="2"/>
<path opacity="0.4" d="M43 25L43 45" stroke="url(#paint11_linear)" stroke-width="2"/>
<path opacity="0.4" d="M49 30L49 46" stroke="url(#paint12_linear)" stroke-width="2"/>
<path opacity="0.4" d="M55 33.5L55 46" stroke="url(#paint13_linear)" stroke-width="2"/>
<path opacity="0.4" d="M61 35L61 46" stroke="#F3F3F3" stroke-width="2"/>
<path d="M-2 35.5C8.33333 34.3333 29 25.6 29 0" stroke="#F3F3F3" stroke-width="2"/>
<path d="M64 35.5C53.6667 34.3333 33 25.6 33 0" stroke="#F3F3F3" stroke-width="2"/>
</g>
<g filter="url(#filter1_d)">
<circle cx="39.5" cy="22.5" r="16.5" fill="white"/>
</g>
<g clip-path="url(#clip0)">
<path d="M39.5 32.0001L46 22.9346L39.5 26.7422V32.0001Z" fill="#2F3030"/>
<path d="M39.5 18.7764V25.5252L46 21.7075L39.5 18.7764Z" fill="black"/>
<path d="M39.5 11V18.7768L46 21.7079L39.5 11Z" fill="#2F3030"/>
<path d="M39.5 32.0001L33 22.9346L39.5 26.7422V32.0001Z" fill="#828384"/>
<path d="M39.5 18.7764V25.5252L33 21.7075L39.5 18.7764Z" fill="#343535"/>
<path d="M39.5 11V18.7768L33 21.7079L39.5 11Z" fill="#828384"/>
</g>
<defs>
<filter id="filter0_ii" x="-2" y="-2" width="66" height="66" filterUnits="userSpaceOnUse" color-interpolation-filters="sRGB">
<feFlood flood-opacity="0" result="BackgroundImageFix"/>
<feBlend mode="normal" in="SourceGraphic" in2="BackgroundImageFix" result="shape"/>
<feColorMatrix in="SourceAlpha" type="matrix" values="0 0 0 0 0 0 0 0 0 0 0 0 0 0 0 0 0 0 127 0" result="hardAlpha"/>
<feOffset dx="2" dy="2"/>
<feGaussianBlur stdDeviation="1"/>
<feComposite in2="hardAlpha" operator="arithmetic" k2="-1" k3="1"/>
<feColorMatrix type="matrix" values="0 0 0 0 0 0 0 0 0 0 0 0 0 0 0 0 0 0 0.2 0"/>
<feBlend mode="normal" in2="shape" result="effect1_innerShadow"/>
<feColorMatrix in="SourceAlpha" type="matrix" values="0 0 0 0 0 0 0 0 0 0 0 0 0 0 0 0 0 0 127 0" result="hardAlpha"/>
<feOffset dx="-2" dy="-2"/>
<feGaussianBlur stdDeviation="1"/>
<feComposite in2="hardAlpha" operator="arithmetic" k2="-1" k3="1"/>
<feColorMatrix type="matrix" values="0 0 0 0 1 0 0 0 0 1 0 0 0 0 1 0 0 0 0.08 0"/>
<feBlend mode="normal" in2="effect1_innerShadow" result="effect2_innerShadow"/>
</filter>
<filter id="filter1_d" x="19" y="6" width="41" height="41" filterUnits="userSpaceOnUse" color-interpolation-filters="sRGB">
<feFlood flood-opacity="0" result="BackgroundImageFix"/>
<feColorMatrix in="SourceAlpha" type="matrix" values="0 0 0 0 0 0 0 0 0 0 0 0 0 0 0 0 0 0 127 0" result="hardAlpha"/>
<feOffset dy="4"/>
<feGaussianBlur stdDeviation="2"/>
<feColorMatrix type="matrix" values="0 0 0 0 0 0 0 0 0 0 0 0 0 0 0 0 0 0 0.25 0"/>
<feBlend mode="normal" in2="BackgroundImageFix" result="effect1_dropShadow"/>
<feBlend mode="normal" in="SourceGraphic" in2="effect1_dropShadow" result="shape"/>
</filter>
<linearGradient id="paint0_linear" x1="61" y1="61" x2="1" y2="1" gradientUnits="userSpaceOnUse">
<stop stop-color="white" stop-opacity="0.19"/>
<stop offset="0.615863" stop-color="#353535" stop-opacity="0.206697"/>
<stop offset="1" stop-opacity="0"/>
</linearGradient>
<radialGradient id="paint1_radial" cx="0" cy="0" r="1" gradientUnits="userSpaceOnUse" gradientTransform="translate(31 -21.5) rotate(88.727) scale(135.033)">
<stop offset="0.173752" stop-color="#EAEAEA"/>
<stop offset="0.475301" stop-opacity="0"/>
</radialGradient>
<linearGradient id="paint2_linear" x1="3" y1="1" x2="59.5" y2="61" gradientUnits="userSpaceOnUse">
<stop stop-color="#D2E3FF"/>
<stop offset="1" stop-opacity="0"/>
</linearGradient>
<linearGradient id="paint3_linear" x1="-1" y1="38.9423" x2="62" y2="38.9423" gradientUnits="userSpaceOnUse">
<stop stop-color="white"/>
<stop offset="0.119792" stop-color="#B7B7B7"/>
<stop offset="0.213542" stop-color="white"/>
<stop offset="0.327182" stop-color="#9C9C9C"/>
<stop offset="0.545501" stop-color="#181818" stop-opacity="0.34"/>
<stop offset="0.777051" stop-color="#9C9C9C"/>
<stop offset="0.963542" stop-color="white"/>
</linearGradient>
<linearGradient id="paint4_linear" x1="7.5" y1="33" x2="7.5" y2="61.5" gradientUnits="userSpaceOnUse">
<stop stop-color="white"/>
<stop offset="1" stop-opacity="0"/>
</linearGradient>
<linearGradient id="paint5_linear" x1="1.5" y1="35" x2="1.5" y2="59.1154" gradientUnits="userSpaceOnUse">
<stop stop-color="white"/>
<stop offset="1" stop-opacity="0"/>
</linearGradient>
<linearGradient id="paint6_linear" x1="13.5" y1="30" x2="13.5" y2="62.8846" gradientUnits="userSpaceOnUse">
<stop stop-color="white"/>
<stop offset="1" stop-opacity="0"/>
</linearGradient>
<linearGradient id="paint7_linear" x1="19.5" y1="26" x2="19.5" y2="69.8462" gradientUnits="userSpaceOnUse">
<stop stop-color="white"/>
<stop offset="1" stop-opacity="0"/>
</linearGradient>
<linearGradient id="paint8_linear" x1="25.5" y1="18" x2="25.5" y2="77.1923" gradientUnits="userSpaceOnUse">
<stop stop-color="white"/>
<stop offset="1" stop-opacity="0"/>
</linearGradient>
<linearGradient id="paint9_linear" x1="31.5" y1="1" x2="31.5" y2="97.4615" gradientUnits="userSpaceOnUse">
<stop stop-color="white"/>
<stop offset="1" stop-opacity="0"/>
</linearGradient>
<linearGradient id="paint10_linear" x1="37" y1="17.5" x2="32.6989" y2="77.48" gradientUnits="userSpaceOnUse">
<stop stop-color="white"/>
<stop offset="1" stop-opacity="0"/>
</linearGradient>
<linearGradient id="paint11_linear" x1="43.5" y1="25" x2="43.5" y2="68.8462" gradientUnits="userSpaceOnUse">
<stop stop-color="white"/>
<stop offset="1" stop-opacity="0"/>
</linearGradient>
<linearGradient id="paint12_linear" x1="49.5" y1="30" x2="49.5" y2="65.0769" gradientUnits="userSpaceOnUse">
<stop stop-color="white"/>
<stop offset="1" stop-opacity="0"/>
</linearGradient>
<linearGradient id="paint13_linear" x1="55.5" y1="33.5" x2="55.5" y2="60.9038" gradientUnits="userSpaceOnUse">
<stop stop-color="white"/>
<stop offset="1" stop-opacity="0"/>
</linearGradient>
<clipPath id="clip0">
<rect width="13" height="21" fill="white" transform="translate(33 11)"/>
</clipPath>
</defs>
</svg>
