<svg xmlns="http://www.w3.org/2000/svg" xmlns:xlink="http://www.w3.org/1999/xlink" fill="none" viewBox="0 0 343 200">
  <defs>
    <path id="reuse-0" fill="#fff" d="M0 0h343v200H0z"/>
  </defs>
  <g clip-path="url(#a)">
    <use xlink:href="#reuse-0"/>
    <path fill="#498AFD" d="M0 0h343v200H0z"/>
    <g clip-path="url(#b)">
      <path fill="#000" d="M-140 913V-161h620V913z"/>
      <path fill="url(#c)" d="M-140 913H934v620H-140z" transform="rotate(-90 -140 913)"/>
      <g filter="url(#d)">
        <path fill="url(#e)" d="M646.3 679.3C471.3 680.2 5 508 3.8 274.9 2.6 41.7 279.8-490 455-490.8c175-1 251.6 353.1 145.1 677.2-77.5 236 185.5 510.2 46.3 492.9Z"/>
      </g>
      <g filter="url(#f)" style="mix-blend-mode:color-dodge">
        <path fill="url(#g)" d="M-4 413c5.6 81.8 63.3 116.4 119.6 140.1C101.4 704 120 857.2 208 1004c0 0-45.1-264.5 0-329 54.6-78-17.7-90.4-92.4-121.9C152 169 400.8-199.5 254-404 49.6-688.9-56.5-351.5-4 413Z"/>
      </g>
    </g>
    <path fill="url(#h)" d="M375 812h375v824H375z" transform="rotate(-180 375 812)"/>
    <g fill="#fff" fill-opacity=".2" clip-path="url(#i)">
      <path d="M1058.4 7.5c-464.3-823.2-928.6 807.6-1393-292l-1.4-1.5C129.3 817.3 594.6-818.8 1059.9 7l-1.5.5Z"/>
      <path d="M1051.6 9.9C592-801 132.1 805.4-327.7-277.8l-1.5-1.5C131.6 807.5 592.3-804.2 1053 9.4l-1.5.5Z"/>
      <path d="M1044.9 12.3C589.6-786.3 134.3 795.7-321-271.1l-1.5-1.5c456.3 1070.4 912.6-517 1368.9 284.3l-1.5.6Z"/>
      <path d="M1038.1 14.6C587.3-771.6 136.6 786-314.2-264.4l-1.5-1.5c451.8 1054 903.5-509 1355.3 280l-1.5.5Z"/>
      <path d="M1031.3 17C585.1-756.9 138.8 776.2-307.4-257.6l-1.5-1.5C138.3 778.4 585.6-760 1032.8 16.5l-1.5.5Z"/>
      <path d="M1024.6 19.4C582.8-742.2 141 766.4-300.7-251l-1.4-1.4C140.6 768.7 583.3-745.4 1026 18.8l-1.4.6Z"/>
      <path d="M1017.8 21.7C580.6-727.5 143.3 756.7-294-244l-1.5-1.5C142.8 759 581.1-730.7 1019.3 21.2l-1.5.5Z"/>
      <path d="M1011 24.1C578.3-712.8 145.6 747.1-287-237.4l-1.5-1.4C145 749.2 578.8-716 1012.5 23.6l-1.5.5Z"/>
      <path d="M1004.3 26.5C576-698.1 147.9 737.3-280.3-230.6l-1.5-1.5c429.1 971.6 858.3-469.2 1287.5 258l-1.5.6Z"/>
      <path d="M997.5 28.8C573.8-683.4 150 727.6-273.5-223.9l-1.6-1.5C149.6 729.7 574.3-686.6 999 28.3l-1.4.5Z"/>
      <path d="M990.7 31.2C571.5-668.8 152.4 718-266.8-217l-1.5-1.5C152 720 572-672 992.2 30.7l-1.5.5Z"/>
      <path d="M984 33.6C569.3-654 154.6 708.2-260-210.4l-1.5-1.5c415.6 922.2 831.3-445.4 1247 245l-1.5.5Z"/>
      <path d="M977.2 36C567-639.3 156.9 698.5-253.3-203.8l-1.4-1.4c411 905.7 822.2-437.4 1233.4 240.6l-1.5.5Z"/>
      <path d="M970.4 38.3c-405.6-663-811.3 650.4-1216.9-235.2l-1.5-1.5C158.6 691 565.3-627.9 972 37.8l-1.5.5Z"/>
      <path d="M963.6 40.7C562.6-610 161.4 679-239.7-190.2l-1.5-1.5C160.9 681.1 563-613.1 965 40.3l-1.5.5Z"/>
      <path d="M956.9 43C560.3-595.2 163.6 669.3-233-183.4l-1.4-1.5C163.2 671.4 560.8-598.5 958.3 42.5l-1.4.5Z"/>
      <path d="M950 45.4c-392-626-784 614.1-1176.2-222l-1.5-1.6C165.4 661.7 558.5-583.8 951.6 45l-1.5.5Z"/>
      <path d="M943.3 47.8C555.7-565.8 168.2 649.8-219.4-170l-1.5-1.5C167.7 652 556.2-569.1 944.8 47.3l-1.5.5Z"/>
      <path d="M936.5 50.2c-383-601.4-766 589.9-1149.1-213.4l-1.5-1.5c384 807 768-389.7 1152.1 214.3l-1.5.6Z"/>
      <path d="M929.8 52.5c-378.6-589-757.1 577.9-1135.7-209l-1.5-1.4C172.2 632.5 551.7-539.8 931.3 52l-1.5.4Z"/>
      <path d="M923 54.9C549-521.8 175 620.7-199-149.7l-1.5-1.5c375 774 750-373.8 1125 205.6l-1.5.5Z"/>
      <path d="M916.2 57.3C546.7-507.1 177.2 610.9-192.3-143l-1.5-1.4C176.7 613 547.2-510.3 917.7 56.8l-1.5.5Z"/>
      <path d="M909.5 59.6c-365-552-730 541.6-1095-195.8l-1.5-1.5c366 741 732-358 1098 196.8l-1.5.5Z"/>
      <path d="M902.7 62c-360.5-539.7-721 529.5-1081.5-191.5l-1.5-1.5c361.5 724.6 723-350 1084.5 192.4l-1.5.6Z"/>
      <path d="M896 64.4C540-463 184 581.8-172-122.8l-1.5-1.4c357 708 714-342 1070.9 188l-1.4.6Z"/>
      <path d="M889.1 66.7C537.8-448.3 186.3 572-165.3-116l-1.4-1.5c352.4 691.7 704.9-334 1057.3 183.7l-1.5.5Z"/>
      <path d="M882.4 69.1c-347-502.7-694 493.2-1040.9-178.4l-1.5-1.4C188 564.5 536-436.8 884 68.6l-1.5.5Z"/>
      <path d="M875.6 71.5c-342.4-490.4-684.9 481-1027.3-174l-1.5-1.5C190.2 554.7 533.7-422.1 877.1 71l-1.5.5Z"/>
      <path d="M868.8 73.9C531-404.2 193 542.9-144.9-95.8l-1.5-1.5C192.5 545 531.4-407.4 870.3 73.3l-1.5.6Z"/>
      <path d="M862 76.2C528.8-389.5 195.3 533.2-138.1-89l-1.5-1.5C194.7 535.3 529.1-392.8 863.6 75.7l-1.4.5Z"/>
      <path d="M855.3 78.6C526.4-374.8 197.5 523.4-131.4-82.3l-1.5-1.5C197.1 525.5 527-378 856.8 78.1l-1.5.5Z"/>
      <path d="M848.5 81C524.1-360.1 199.8 513.7-124.6-75.5l-1.5-1.5C199.3 515.9 524.6-363.3 850 80.5l-1.5.5Z"/>
      <path d="M841.8 83.3C521.8-345.4 202 504-118-68.8l-1.4-1.5C201.5 506.1 522.4-348.7 843.2 82.8l-1.4.5Z"/>
      <path d="M835 85.7C519.6-330.7 204.3 494.3-111-62.1l-1.5-1.4C203.8 496.3 520.2-334 836.5 85.1l-1.5.5Z"/>
      <path d="M828.2 88C517.4-316 206.5 484.6-104.3-55.2l-1.5-1.5C206 486.7 517.9-319.3 829.7 87.5l-1.5.6Z"/>
      <path d="M821.4 90.5c-306.3-391.8-612.6 384.4-919-139L-99-50C208.3 477 515.6-304.5 823 90l-1.6.5Z"/>
      <path d="M814.7 92.8C512.9-286.7 211 465.1-90.8-41.8l-1.5-1.5C210.6 467.2 513.4-290 816.2 92.3l-1.5.5Z"/>
      <path d="M808 95.2C510.6-272 213.4 455.4-84-35.1l-1.4-1.5C212.9 457.4 511-275.2 809.4 94.6l-1.4.6Z"/>
      <path d="M801.1 97.5C508.3-257.3 215.6 445.6-77.2-28.4l-1.5-1.4C215 447.8 508.8-260.5 802.6 97l-1.5.5Z"/>
      <path d="M794.4 100C506-242.7 217.8 436-70.5-21.7l-1.5-1.5C217.3 438 506.6-245.8 796 99.4l-1.5.5Z"/>
      <path d="M787.6 102.3C503.8-228 220 426.2-63.7-15l-1.5-1.5C219.6 428.3 504.3-231 789.1 101.8l-1.5.5Z"/>
      <path d="M780.8 104.6C501.6-213.2 222.3 416.5-56.9-8l-1.5-1.5C221.8 418.6 502-216.4 782.3 104l-1.5.5Z"/>
      <path d="M774 107C499.3-198.5 224.6 406.7-50.2-1.4l-1.4-1.5C224 409 499.8-201.7 775.5 106.5l-1.5.5Z"/>
      <path d="M767.3 109.4C497-183.8 226.8 397-43.4 5.4l-1.5-1.5c271.2 395.3 542.5-191 813.7 105l-1.5.5Z"/>
      <path d="M760.5 111.8C494.8-169.3 229.1 387.3-36.6 12l-1.5-1.5c266.7 378.8 533.4-183 800.1 100.6l-1.5.5Z"/>
      <path d="M753.7 114.1C492.5-154.4 231.3 377.6-29.8 18.8l-1.5-1.4c262.2 362.3 524.3-175 786.5 96.2l-1.5.5Z"/>
      <path d="M747 116.5c-256.7-256.2-513.4 251.3-770-91l-1.5-1.4C233 370 490.8-143 748.5 116l-1.5.5Z"/>
      <path d="M740.2 118.9C488-125.1 235.9 358-16.3 32.3l-1.5-1.5c253.2 329.5 506.3-159 759.5 87.5l-1.5.6Z"/>
      <path d="M733.4 121.2C485.8-110.3 238.1 348.4-9.6 39.1l-1.4-1.5c248.6 313 497.3-151.1 746 83.1l-1.6.5Z"/>
      <path d="M726.7 123.6C483.5-95.6 240.4 338.6-2.8 45.8l-1.4-1.5C239.8 340.8 484-98.9 728 123.1l-1.4.5Z"/>
      <path d="M719.9 126C481.3-81 242.6 329 4 52.5l-1.5-1.4c239.6 280 479.3-135.3 718.9 74.3l-1.5.6Z"/>
      <path d="M713.1 128.3c-234-194.5-468.2 191-702.3-69L9.3 58c235.1 263.5 470.2-127.3 705.3 70l-1.5.4Z"/>
      <path d="M706.4 130.7C476.8-51.5 247 309.5 17.5 66l-1.4-1.4c230.6 247 461.1-119.4 691.7 65.6l-1.4.5Z"/>
      <path d="M699.6 133C474.5-36.8 249.4 299.9 24.3 72.9l-1.5-1.5C249 301.9 475-40.1 701.1 132.6l-1.5.5Z"/>
      <path d="M692.8 135.5C472.2-22.1 251.7 290 31.1 79.5l-1.5-1.4C251.2 292.2 472.7-25.4 694.3 135l-1.5.5Z"/>
      <path d="M686 137.8C470-7.5 254 280.3 38 86.3l-1.5-1.5c217 197.7 434-95.5 651.1 52.5l-1.5.5Z"/>
      <path d="M679.3 140.2C467.7 7.2 256.2 270.6 44.6 93l-1.5-1.5C255.7 272.8 468.2 4 680.7 139.7l-1.4.5Z"/>
      <path d="M672.5 142.6c-207-120.7-414 118.3-621-42.8l-1.6-1.5C258 263 466 18.7 674 142l-1.4.6Z"/>
      <path d="M665.7 145c-202.5-108.4-405 106.2-607.5-38.5l-1.5-1.5c203.5 148.3 407-71.6 610.5 39.4l-1.5.5Z"/>
      <path d="M659 147.3c-198-96-396 94.1-594-34l-1.5-1.5c199 131.8 398-63.7 597 35l-1.5.5Z"/>
      <path d="M652.2 149.7c-193.5-83.7-387 82-580.5-29.7l-1.5-1.5c194.5 115.3 389-55.7 583.5 30.6l-1.5.6Z"/>
      <path d="M645.4 152c-189-71.3-378 70-567-25.3l-1.4-1.5c190 99 380-47.7 570 26.3l-1.6.5Z"/>
      <path d="M638.6 154.4c-184.4-59-368.9 57.9-553.3-21l-1.5-1.4c185.4 82.4 370.9-39.8 556.3 21.9l-1.5.5Z"/>
      <path d="M631.9 156.8c-180-46.7-360 45.8-539.9-16.6l-1.5-1.5c181 66 362-31.8 542.9 17.5l-1.5.6Z"/>
      <path d="M625.1 159.1C449.7 124.8 274.2 192.8 98.8 147l-1.5-1.4c176.4 49.5 352.9-24 529.3 13.1l-1.5.5Z"/>
      <path d="M618.3 161.5c-170.9-22-341.8 21.6-512.7-7.8l-1.5-1.5c171.9 33 343.8-16 515.7 8.8l-1.5.5Z"/>
      <path d="M611.6 163.9c-166.5-9.7-332.9 9.5-499.3-3.5L111 159c167.3 16.6 334.7-8 502.1 4.4l-1.4.6Z"/>
      <path d="M604.8 166.2c-161.9 2.7-323.8-2.5-485.7 1l-1.5-1.5h488.7l-1.5.5Z"/>
      <path d="M598 168.6c-157.4 15-314.7-14.7-472.1 5.3l-1.5-1.5c158.4-16.3 316.7 8 475.1-4.3l-1.5.5Z"/>
      <path d="M591.3 171c-153 27.3-305.8-26.8-458.6 9.7l-1.5-1.5c153.8-32.9 307.7 15.8 461.5-8.8l-1.5.6Z"/>
      <path d="M584.5 173.3c-148.4 39.6-296.7-38.8-445 14.1l-1.6-1.5c149.4-49.3 298.7 23.8 448-13l-1.4.4Z"/>
      <path d="M577.7 175.7c-143.8 52-287.7-51-431.5 18.4l-1.5-1.4c144.8-65.8 289.7 31.7 434.5-17.5l-1.5.5Z"/>
      <path d="M571 178c-139.4 64.3-278.7-63-418 22.9l-1.5-1.5c140.3-82.2 280.6 39.7 420.9-21.8l-1.4.5Z"/>
      <path d="M564.2 180.5c-134.9 76.6-269.7-75.2-404.5 27.2l-1.4-1.5C294 107.5 429.9 253.8 565.5 180l-1.4.5Z"/>
      <path d="M557.4 182.8c-130.3 89-260.6-87.2-390.9 31.6l-1.5-1.5C296.3 97.7 427.6 268.5 559 182.3l-1.5.5Z"/>
      <path d="M550.6 185.2c-125.8 101.2-251.5-99.3-377.3 36l-1.5-1.6C298.6 88 425.3 283.2 552 184.6l-1.5.6Z"/>
      <path d="M543.9 187.6C422.6 301 301.3 76.2 180 227.9l-1.5-1.5C300.8 78.3 423 297.9 545.3 187l-1.4.6Z"/>
      <path d="M537 190C420.4 315.7 303.7 66.3 186.9 234.5l-1.5-1.5c117.8-164.5 235.5 79.5 353.3-43.7l-1.5.5Z"/>
      <path d="M530.3 192.3c-112.2 138.2-224.5-135.6-336.7 49l-1.5-1.5c113.2-181 226.5 87.4 339.7-48l-1.5.5Z"/>
      <path d="M523.5 194.7C415.8 345.2 308.1 47 200.4 248l-1.5-1.5C307.6 49.1 416.3 342 525 194.1l-1.5.6Z"/>
      <path d="M516.8 197C413.6 360 310.3 37.3 207 254.8l-1.5-1.5c104.3-214 208.5 103.4 312.7-56.8l-1.5.5Z"/>
      <path d="M510 199.4c-98.7 175.2-197.4-171.9-296.1 62.2l-1.5-1.5c99.7-230.4 199.4 111.3 299-61.2l-1.4.5Z"/>
    </g>
    <g clip-path="url(#j)">
      <path fill="#444" d="M159.5 82.5v-2.3l-.1-.6-.1-.6-.2-.6a7.6 7.6 0 0 0-.3-1v-.1l-.2-.5a11.3 11.3 0 0 0-.2-.6l-.3-.5-.3-.5-3-5 .3.6.3.5.2.5.2.5v.1l.2.5.2.5v.6h.1v.6h.1v.6l.1.7V78.7l-.1.2v.3l-.1.4v.1l-.1.4v.1l-.1.4-.2.5v.5h-.1l-.2.6-.2.6v.1l-.2.6v.1l-.3.6-.2.5v.1l-.3.5-.3.5v.1l-.2.4-.1.1c0 .2-.2.4-.3.5v.2l-.3.4-.3.6h-.1c0 .2-.2.4-.3.5v.1a45.6 45.6 0 0 1-.7 1l-.1.2-.3.4h-.1l-.4.6v.1l-.4.4v.1l-.5.5v.1l-.4.5-.1.1a19.2 19.2 0 0 1-1 1.2l-.3.2-.4.4-.2.2-.3.4-.3.2-.4.4-.2.2-.4.4-.2.1-.9.9-1 .8-.2.2-.7.6-.9.7-.2.1-.6.5h-.2l-.7.6-.2.2-.6.3-.2.2-.6.4-.2.1-.7.5h-.1l-.7.4-.3.2-.5.3-.2.1-.6.3-.2.2c-.3 0-.5.2-.8.4l-.7.3-.3.2-.5.2-.3.2-.6.2-.2.1-.8.4h-.1l-.7.3-.2.1-.7.3h-.2l-.8.4c-.4 0-.6.2-.9.3h-.2l-.8.3h-.1l-1 .3h-.2l-.8.3H124l-.5.2h-.2l-.4.1-.3.1h-.4l-.2.1-.4.1h-.4l-.3.1-.4.1h-.3l-.4.1h-.3l-.5.1h-.2l-.5.1h-.2a31.8 31.8 0 0 1-.8 0l-.6.1H112.6l-.3-.1h-.7l-.2-.1h-.4l-.3-.1-.3-.1h-.3l-.3-.1h-.3l-.3-.2h-.2l-.6-.2-.7-.2a17 17 0 0 1-4-2 12.1 12.1 0 0 1-3-3.4l3 5a13 13 0 0 0 8.2 5.7h.2l.4.2h.6l.3.1.3.1h.3l.3.1h.3l.4.1H115.9l.3.1h5.2l.5-.1h.7l.3-.1h.4l.3-.1.4-.1h.3l.4-.1h.2l.2-.1h.2l.4-.1.3-.1h.4l.2-.1.5-.2h.2l1-.3h.1l1-.3h.1l.7-.3h.3l.8-.4.9-.3h.2l.6-.3h.2v-.1l.8-.3h.1l.8-.4.2-.1.6-.3.3-.1.5-.3h.2l.7-.4h.1l.8-.5.2-.1.5-.3.3-.2c.2 0 .4-.1.5-.3h.2v-.1l.8-.4.8-.5.2-.2.6-.3.2-.2.6-.4h.1v-.1l.8-.5.2-.2.6-.4.1-.1h.1l.8-.7h.1l.7-.6.1-.1.1-.1.9-.7.1-.2a56.6 56.6 0 0 0 1-.8l.5-.5.2-.3.4-.3.2-.3c.2 0 .3-.2.4-.3l.2-.3.4-.3.1-.2.7-.7.4-.5.2-.2.3-.4.5-.6v-.1l.4-.4.1-.1.4-.5v-.1l.3-.4.1-.2.4-.5a45.6 45.6 0 0 0 .7-1V93l.3-.5.1-.2.2-.4h.1l.3-.6.3-.5v-.1l.3-.5.2-.5v-.2l.2-.4.3-.6v-.1a28.4 28.4 0 0 0 .7-1.8v-.1l.1-.5.1-.4v-.2a12.5 12.5 0 0 0 .2-.8l.1-.5v-.5l.1-.3V82.5Z"/>
      <path fill="url(#k)" d="M159.5 82.5v-2.3l-.1-.6-.1-.6-.2-.6a7.6 7.6 0 0 0-.3-1v-.1l-.2-.5a11.3 11.3 0 0 0-.2-.6l-.3-.5-.3-.5-3-5 .3.6.3.5.2.5.2.5v.1l.2.5.2.5v.6h.1v.6h.1v.6l.1.7V78.7l-.1.2v.3l-.1.4v.1l-.1.4v.1l-.1.4-.2.5v.5h-.1l-.2.6-.2.6v.1l-.2.6v.1l-.3.6-.2.5v.1l-.3.5-.3.5v.1l-.2.4-.1.1c0 .2-.2.4-.3.5v.2l-.3.4-.3.6h-.1c0 .2-.2.4-.3.5v.1a45.6 45.6 0 0 1-.7 1l-.1.2-.3.4h-.1l-.4.6v.1l-.4.4v.1l-.5.5v.1l-.4.5-.1.1a19.2 19.2 0 0 1-1 1.2l-.3.2-.4.4-.2.2-.3.4-.3.2-.4.4-.2.2-.4.4-.2.1-.9.9-1 .8-.2.2-.7.6-.9.7-.2.1-.6.5h-.2l-.7.6-.2.2-.6.3-.2.2-.6.4-.2.1-.7.5h-.1l-.7.4-.3.2-.5.3-.2.1-.6.3-.2.2c-.3 0-.5.2-.8.4l-.7.3-.3.2-.5.2-.3.2-.6.2-.2.1-.8.4h-.1l-.7.3-.2.1-.7.3h-.2l-.8.4c-.4 0-.6.2-.9.3h-.2l-.8.3h-.1l-1 .3h-.2l-.8.3H124l-.5.2h-.2l-.4.1-.3.1h-.4l-.2.1-.4.1h-.4l-.3.1-.4.1h-.3l-.4.1h-.3l-.5.1h-.2l-.5.1h-.2a31.8 31.8 0 0 1-.8 0l-.6.1H112.6l-.3-.1h-.7l-.2-.1h-.4l-.3-.1-.3-.1h-.3l-.3-.1h-.3l-.3-.2h-.2l-.6-.2-.7-.2a17 17 0 0 1-4-2 12.1 12.1 0 0 1-3-3.4l3 5a13 13 0 0 0 8.2 5.7h.2l.4.2h.6l.3.1.3.1h.3l.3.1h.3l.4.1H115.9l.3.1h5.2l.5-.1h.7l.3-.1h.4l.3-.1.4-.1h.3l.4-.1h.2l.2-.1h.2l.4-.1.3-.1h.4l.2-.1.5-.2h.2l1-.3h.1l1-.3h.1l.7-.3h.3l.8-.4.9-.3h.2l.6-.3h.2v-.1l.8-.3h.1l.8-.4.2-.1.6-.3.3-.1.5-.3h.2l.7-.4h.1l.8-.5.2-.1.5-.3.3-.2c.2 0 .4-.1.5-.3h.2v-.1l.8-.4.8-.5.2-.2.6-.3.2-.2.6-.4h.1v-.1l.8-.5.2-.2.6-.4.1-.1h.1l.8-.7h.1l.7-.6.1-.1.1-.1.9-.7.1-.2a56.6 56.6 0 0 0 1-.8l.5-.5.2-.3.4-.3.2-.3c.2 0 .3-.2.4-.3l.2-.3.4-.3.1-.2.7-.7.4-.5.2-.2.3-.4.5-.6v-.1l.4-.4.1-.1.4-.5v-.1l.3-.4.1-.2.4-.5a45.6 45.6 0 0 0 .7-1V93l.3-.5.1-.2.2-.4h.1l.3-.6.3-.5v-.1l.3-.5.2-.5v-.2l.2-.4.3-.6v-.1a28.4 28.4 0 0 0 .7-1.8v-.1l.1-.5.1-.4v-.2a12.5 12.5 0 0 0 .2-.8l.1-.5v-.5l.1-.3V82.5Z"/>
      <path fill="#444" d="m233.4 154.4-.1.1-.1.2-.1.2-.2.2-.2.3-.3.3-.3.4-.3.2-.1.1-.2.2-.3.3h-.1l-.3.3-.4.2a9.1 9.1 0 0 1-.4.3l-.4.2a10 10 0 0 1-.7.3l-.1.1a12.5 12.5 0 0 1-1 .4h-.1l-.3.1h-.2l-.3.2h-.2l-.6.2h-.2l-.7.2-.7.1h-.2a21.3 21.3 0 0 1-1.2.2H222l-.3.1h-4l-.3-.1H216.8l-.4-.1h-.2l-.4-.1h-.3l-.3-.1h-.3l-.4-.1h-.2l-.6-.2h-.7l-.2-.1-.4-.1h-.3l-.4-.2h-.2l-.4-.1h-.3l-.4-.2h-.2l-.4-.1-.4-.2h-.3l-.4-.2h-.3l-.4-.2-.3-.1-.5-.1-.3-.1-1-.4h-.2l-1-.5h-.2l-1-.4h-.1l-1.1-.5-.2-.1-1-.5h-.2a93 93 0 0 1-1-.6h-.2l-1-.6h-.1l-1-.6h-.3c-.3-.3-.7-.4-1-.6l-.2-.1-1-.7h-.1l-1-.7h-.1l-1-.7-.2-.1-.9-.6h-.1l-.7-.6-.2-.1-.9-.6v-.1a77 77 0 0 1-.8-.6l-.2-.1-.5-.4-.2-.2a56 56 0 0 1-.6-.5l-.5-.4-.1-.1-.3-.3-.2-.2-.3-.2-.1-.2-.3-.2-.2-.2-.2-.2-.2-.1-.2-.2-.2-.2-.1-.2-.2-.2-.2-.2-.2-.2-.2-.2-.1-.1-.2-.2-.2-.2-.2-.2-.1-.2-.2-.2-.1-.1-.3-.3-.1-.2-.2-.2-.2-.2-.2-.3-.1-.1-.3-.4-.1-.1-.2-.3-.2-.2-.2-.3v-.1l-.3-.3v-.1l-.3-.3v-.1a10 10 0 0 1-.3-.5h-.1l-.2-.4v-.2c-.2 0-.2-.2-.3-.3v-.1l-.3-.4v-.1a18.4 18.4 0 0 1-.3-.5l-.2-.3v-.2l-.2-.4-.2-.4v-.2l-.2-.3-.2-.5-.2-.4v-.2a13.3 13.3 0 0 1-.4-1.2v-.4l-.1-.1v-.4l-.1-.4v-.4l-.1-.1V127l.1-.3v-.1l.1-.3v-.1l.1-.3.2-.4v-.3l.1-.1.1-.2v-.1l.2-.3-2.9 5.4-.1.3v.1l-.2.2v.1l-.1.3-.1.4-.1.3v.1l-.1.3v.1l-.1.3v.5l-.1.3v2.6l.1.4.1.4v.1l.1.3v.2l.1.4.2.4v.4l.1.1.2.4.1.5h.1l.1.4v.1l.2.4.3.5v.1l.2.3v.2l.3.3v.1c0 .2.2.3.3.4v.1l.2.4.1.1.2.4.4.5v.1l.2.3.2.2.1.2.2.2s0 .2.2.3v.1l.3.3v.1l.4.4v.1l.3.4.2.1.2.3.1.1.3.3v.1h.1l.2.3.1.1.2.2.2.2.2.2.1.2.2.2.2.2.2.2.2.2.2.1.2.2.2.2.1.2.2.2.2.1.3.3.2.2.2.2.2.2.3.2.1.1.5.4.7.6.2.2.4.3.1.1.1.1.7.5.2.1.8.6.2.2.7.5h.1l.9.7h.2l1 .7v.1l1 .6.2.1 1 .6.2.1 1 .6h.2l1 .6.2.1 1 .5h.1l1 .6h.3l1 .5.2.1 1 .5h.2l1 .4h.2l1 .5h.2l1 .4h.1l.3.1.4.2h.3l.4.2h.3l.4.2h.3l.4.2h.3l.3.2h.4l.3.1.4.1h.2l.4.2h.3l.4.1h.2l.6.2.7.1h.2l.4.1h.3l.4.1h.2l.4.1H213.9l.3.1h1l.2.1H220.7l.7-.2h.2l.7-.1.7-.2h.2l.6-.2h.2l.3-.2h.2l.3-.1h.1a25.1 25.1 0 0 0 1-.5h.2l.3-.2h.1l.1-.1h.1l.4-.3.4-.2.3-.2h.1l.3-.3.3-.3h.1v-.1l.2-.1.1-.1.2-.2h.1l.3-.4.2-.3h.1l.2-.3v-.1l.2-.2v-.1l.2-.2v-.1l.1-.1.1-.2 3-5.5-.2.3Z"/>
      <path fill="url(#l)" d="m233.4 154.4-.1.1-.1.2-.1.2-.2.2-.2.3-.3.3-.3.4-.3.2-.1.1-.2.2-.3.3h-.1l-.3.3-.4.2a9.1 9.1 0 0 1-.4.3l-.4.2a10 10 0 0 1-.7.3l-.1.1a12.5 12.5 0 0 1-1 .4h-.1l-.3.1h-.2l-.3.2h-.2l-.6.2h-.2l-.7.2-.7.1h-.2a21.3 21.3 0 0 1-1.2.2H222l-.3.1h-4l-.3-.1H216.8l-.4-.1h-.2l-.4-.1h-.3l-.3-.1h-.3l-.4-.1h-.2l-.6-.2h-.7l-.2-.1-.4-.1h-.3l-.4-.2h-.2l-.4-.1h-.3l-.4-.2h-.2l-.4-.1-.4-.2h-.3l-.4-.2h-.3l-.4-.2-.3-.1-.5-.1-.3-.1-1-.4h-.2l-1-.5h-.2l-1-.4h-.1l-1.1-.5-.2-.1-1-.5h-.2a93 93 0 0 1-1-.6h-.2l-1-.6h-.1l-1-.6h-.3c-.3-.3-.7-.4-1-.6l-.2-.1-1-.7h-.1l-1-.7h-.1l-1-.7-.2-.1-.9-.6h-.1l-.7-.6-.2-.1-.9-.6v-.1a77 77 0 0 1-.8-.6l-.2-.1-.5-.4-.2-.2a56 56 0 0 1-.6-.5l-.5-.4-.1-.1-.3-.3-.2-.2-.3-.2-.1-.2-.3-.2-.2-.2-.2-.2-.2-.1-.2-.2-.2-.2-.1-.2-.2-.2-.2-.2-.2-.2-.2-.2-.1-.1-.2-.2-.2-.2-.2-.2-.1-.2-.2-.2-.1-.1-.3-.3-.1-.2-.2-.2-.2-.2-.2-.3-.1-.1-.3-.4-.1-.1-.2-.3-.2-.2-.2-.3v-.1l-.3-.3v-.1l-.3-.3v-.1a10 10 0 0 1-.3-.5h-.1l-.2-.4v-.2c-.2 0-.2-.2-.3-.3v-.1l-.3-.4v-.1a18.4 18.4 0 0 1-.3-.5l-.2-.3v-.2l-.2-.4-.2-.4v-.2l-.2-.3-.2-.5-.2-.4v-.2a13.3 13.3 0 0 1-.4-1.2v-.4l-.1-.1v-.4l-.1-.4v-.4l-.1-.1V127l.1-.3v-.1l.1-.3v-.1l.1-.3.2-.4v-.3l.1-.1.1-.2v-.1l.2-.3-2.9 5.4-.1.3v.1l-.2.2v.1l-.1.3-.1.4-.1.3v.1l-.1.3v.1l-.1.3v.5l-.1.3v2.6l.1.4.1.4v.1l.1.3v.2l.1.4.2.4v.4l.1.1.2.4.1.5h.1l.1.4v.1l.2.4.3.5v.1l.2.3v.2l.3.3v.1c0 .2.2.3.3.4v.1l.2.4.1.1.2.4.4.5v.1l.2.3.2.2.1.2.2.2s0 .2.2.3v.1l.3.3v.1l.4.4v.1l.3.4.2.1.2.3.1.1.3.3v.1h.1l.2.3.1.1.2.2.2.2.2.2.1.2.2.2.2.2.2.2.2.2.2.1.2.2.2.2.1.2.2.2.2.1.3.3.2.2.2.2.2.2.3.2.1.1.5.4.7.6.2.2.4.3.1.1.1.1.7.5.2.1.8.6.2.2.7.5h.1l.9.7h.2l1 .7v.1l1 .6.2.1 1 .6.2.1 1 .6h.2l1 .6.2.1 1 .5h.1l1 .6h.3l1 .5.2.1 1 .5h.2l1 .4h.2l1 .5h.2l1 .4h.1l.3.1.4.2h.3l.4.2h.3l.4.2h.3l.4.2h.3l.3.2h.4l.3.1.4.1h.2l.4.2h.3l.4.1h.2l.6.2.7.1h.2l.4.1h.3l.4.1h.2l.4.1H213.9l.3.1h1l.2.1H220.7l.7-.2h.2l.7-.1.7-.2h.2l.6-.2h.2l.3-.2h.2l.3-.1h.1a25.1 25.1 0 0 0 1-.5h.2l.3-.2h.1l.1-.1h.1l.4-.3.4-.2.3-.2h.1l.3-.3.3-.3h.1v-.1l.2-.1.1-.1.2-.2h.1l.3-.4.2-.3h.1l.2-.3v-.1l.2-.2v-.1l.2-.2v-.1l.1-.1.1-.2 3-5.5-.2.3Z"/>
      <path fill="#444" d="m243.8 63.9.1-.4.9-5.2v.4l-.1.2v.2l-.1.2v.3l-.1.1-.1.3v.1l-.2.4-.1.5-.2.4v.1l-.2.3v.1a17.6 17.6 0 0 1-.2.4l-.2.3v.1l-.3.5-.2.4-.1.1c0 .2-.2.3-.3.5l-.3.4v.1l-.3.3v.1l-.4.4v.1l-.3.3-.1.1a37.3 37.3 0 0 1-.7.8l-.1.1-.3.3-.4.3v.1l-.4.4h-.1l-.3.3-.2.1-.3.2v.1l-.5.3-.4.4h-.2l-.3.3h-.1l-.4.3h-.1l-.5.4-.4.2-.2.1-.3.2-.2.1-.4.2h-.1l-.5.3h-.2l-.3.3h-.2l-.4.2h-.2c-.1.2-.3.2-.5.3l-.6.2h-.1l-.4.2-.2.1-.5.2h-.1l-.6.2h-.1l-.5.2h-.2l-.4.1h-.2l-.6.2-.6.2h-.2l-.5.1h-.2l-.5.2h-.2l-.6.1h-.2l-.5.1h-.2l-.5.1h-.2l-.7.1h-.8l-.2.1h-1l-.4.1h-5.4l-.7-.1H212.9l-.2-.1h-.5l-.3-.1h-.4l-.3-.1h-.4l-.3-.1h-.5l-.3-.1-.4-.1h-.3l-.7-.2-.7-.2h-.2l-.5-.1h-.3l-.4-.2h-.3l-.4-.2h-.3l-.4-.2h-.3l-.4-.2h-.3l-.3-.2-.4-.1-.3-.1-.4-.2h-.4l-.3-.2-.4-.2-.3-.1-.4-.1-.3-.2-.4-.1-.3-.2-.3-.1-.4-.2-.3-.1-.4-.2-.3-.2-.3-.1-.3-.2-.4-.1-.3-.2-.3-.2-.3-.2-.3-.1-.3-.2-.3-.2-.3-.2-.3-.1-.3-.2-.3-.2-.3-.2-.3-.2-.3-.2-.2-.2-.3-.2-.3-.2-.3-.2-.3-.2-.2-.2-.3-.2-.3-.2-.2-.2-.3-.3-.2-.2-.3-.2-.2-.2-.3-.3-.2-.2-.2-.2-.3-.2-.2-.3-.2-.2-.2-.2-.3-.3-.2-.2-.2-.2-.2-.3-.2-.2-.2-.3-.2-.2-.2-.3-.2-.2-.2-.3-.1-.2-.2-.3-.2-.2-.2-.3-.1-.3-.2-.3-.1-.2-.2-.3-.1-.2-.2-.3-.1-.3-.2-.3v-.2l-.3-.4v-.2l-.3-.5c-1.1-3-1.4-5.9-1-8.6l-.9 5.2c-.4 2.7-.1 5.6 1 8.5l.3.6v.2l.2.3.1.3.2.3.1.2.2.3.1.3.2.3.1.2.2.3.1.2.2.3.2.3.2.2.1.3.2.2.2.3.2.2.2.3.2.2.2.3.2.2.2.2.3.3.2.2.2.3.2.2.3.2.2.3.2.2.3.2.2.2.2.3.3.2.2.2.3.2.3.2.2.2.3.2.3.3.2.2.3.2.3.2.3.2.2.2.3.2.3.1.3.2.3.2.3.2.3.2.3.2.3.2.3.1.3.2.3.2.3.2.3.1.4.2.3.2.3.1.2.1h.1l.4.2.3.2.4.1.3.2.3.1.4.2.3.1.4.2.3.1.4.1.3.2h.4l.4.2.3.1.4.2H202.9l.3.2h.4l.3.2.4.1h.3l.4.2h.3l.4.2h.3l.5.2h.2l.7.2.7.1h.3l.4.1h.3l.5.2h.7l.3.1h.4l.3.1h.7l.7.2H215l.4.1h4.3l.6-.1h.2a73.3 73.3 0 0 0 1.5-.2h.7l.2-.1.5-.1h.2l.6-.1h.2l.5-.2h.2l.5-.1h.2l.5-.2.7-.1.2-.1.4-.1h.2l.5-.2h.1l.6-.2h.1l.5-.2.2-.1.4-.1.1-.1.5-.2h.1l.5-.3h.2l.4-.2h.2l.3-.3h.2l.5-.3.5-.2.2-.1.3-.2.2-.1.3-.2h.1l.5-.4h.1l.4-.3h.1l.3-.3h.2l.4-.4.4-.3.1-.1.3-.2.2-.1.3-.3.4-.4.1-.1.3-.3h.1l.3-.3.1-.1a15.2 15.2 0 0 0 .7-.8v-.1l.3-.3.1-.1.3-.4.1-.1.3-.3v-.2l.3-.4.3-.4v-.1a12.6 12.6 0 0 0 .3-.5l.3-.4v-.1l.2-.3v-.1l.2-.3V67l.1-.3.1-.1.1-.4.2-.5.1-.4v-.1l.2-.3v-.4l.1-.1a12.4 12.4 0 0 0 .1-.5Z"/>
      <path fill="url(#m)" d="m243.8 63.9.1-.4.9-5.2v.4l-.1.2v.2l-.1.2v.3l-.1.1-.1.3v.1l-.2.4-.1.5-.2.4v.1l-.2.3v.1a17.6 17.6 0 0 1-.2.4l-.2.3v.1l-.3.5-.2.4-.1.1c0 .2-.2.3-.3.5l-.3.4v.1l-.3.3v.1l-.4.4v.1l-.3.3-.1.1a37.3 37.3 0 0 1-.7.8l-.1.1-.3.3-.4.3v.1l-.4.4h-.1l-.3.3-.2.1-.3.2v.1l-.5.3-.4.4h-.2l-.3.3h-.1l-.4.3h-.1l-.5.4-.4.2-.2.1-.3.2-.2.1-.4.2h-.1l-.5.3h-.2l-.3.3h-.2l-.4.2h-.2c-.1.2-.3.2-.5.3l-.6.2h-.1l-.4.2-.2.1-.5.2h-.1l-.6.2h-.1l-.5.2h-.2l-.4.1h-.2l-.6.2-.6.2h-.2l-.5.1h-.2l-.5.2h-.2l-.6.1h-.2l-.5.1h-.2l-.5.1h-.2l-.7.1h-.8l-.2.1h-1l-.4.1h-5.4l-.7-.1H212.9l-.2-.1h-.5l-.3-.1h-.4l-.3-.1h-.4l-.3-.1h-.5l-.3-.1-.4-.1h-.3l-.7-.2-.7-.2h-.2l-.5-.1h-.3l-.4-.2h-.3l-.4-.2h-.3l-.4-.2h-.3l-.4-.2h-.3l-.3-.2-.4-.1-.3-.1-.4-.2h-.4l-.3-.2-.4-.2-.3-.1-.4-.1-.3-.2-.4-.1-.3-.2-.3-.1-.4-.2-.3-.1-.4-.2-.3-.2-.3-.1-.3-.2-.4-.1-.3-.2-.3-.2-.3-.2-.3-.1-.3-.2-.3-.2-.3-.2-.3-.1-.3-.2-.3-.2-.3-.2-.3-.2-.3-.2-.2-.2-.3-.2-.3-.2-.3-.2-.3-.2-.2-.2-.3-.2-.3-.2-.2-.2-.3-.3-.2-.2-.3-.2-.2-.2-.3-.3-.2-.2-.2-.2-.3-.2-.2-.3-.2-.2-.2-.2-.3-.3-.2-.2-.2-.2-.2-.3-.2-.2-.2-.3-.2-.2-.2-.3-.2-.2-.2-.3-.1-.2-.2-.3-.2-.2-.2-.3-.1-.3-.2-.3-.1-.2-.2-.3-.1-.2-.2-.3-.1-.3-.2-.3v-.2l-.3-.4v-.2l-.3-.5c-1.1-3-1.4-5.9-1-8.6l-.9 5.2c-.4 2.7-.1 5.6 1 8.5l.3.6v.2l.2.3.1.3.2.3.1.2.2.3.1.3.2.3.1.2.2.3.1.2.2.3.2.3.2.2.1.3.2.2.2.3.2.2.2.3.2.2.2.3.2.2.2.2.3.3.2.2.2.3.2.2.3.2.2.3.2.2.3.2.2.2.2.3.3.2.2.2.3.2.3.2.2.2.3.2.3.3.2.2.3.2.3.2.3.2.2.2.3.2.3.1.3.2.3.2.3.2.3.2.3.2.3.2.3.1.3.2.3.2.3.2.3.1.4.2.3.2.3.1.2.1h.1l.4.2.3.2.4.1.3.2.3.1.4.2.3.1.4.2.3.1.4.1.3.2h.4l.4.2.3.1.4.2H202.9l.3.2h.4l.3.2.4.1h.3l.4.2h.3l.4.2h.3l.5.2h.2l.7.2.7.1h.3l.4.1h.3l.5.2h.7l.3.1h.4l.3.1h.7l.7.2H215l.4.1h4.3l.6-.1h.2a73.3 73.3 0 0 0 1.5-.2h.7l.2-.1.5-.1h.2l.6-.1h.2l.5-.2h.2l.5-.1h.2l.5-.2.7-.1.2-.1.4-.1h.2l.5-.2h.1l.6-.2h.1l.5-.2.2-.1.4-.1.1-.1.5-.2h.1l.5-.3h.2l.4-.2h.2l.3-.3h.2l.5-.3.5-.2.2-.1.3-.2.2-.1.3-.2h.1l.5-.4h.1l.4-.3h.1l.3-.3h.2l.4-.4.4-.3.1-.1.3-.2.2-.1.3-.3.4-.4.1-.1.3-.3h.1l.3-.3.1-.1a15.2 15.2 0 0 0 .7-.8v-.1l.3-.3.1-.1.3-.4.1-.1.3-.3v-.2l.3-.4.3-.4v-.1a12.6 12.6 0 0 0 .3-.5l.3-.4v-.1l.2-.3v-.1l.2-.3V67l.1-.3.1-.1.1-.4.2-.5.1-.4v-.1l.2-.3v-.4l.1-.1a12.4 12.4 0 0 0 .1-.5Z"/>
      <path fill="#BBB" d="M154.4 70.6c2.5 4.2 2 9.8-1 15.6a44.1 44.1 0 0 1-16.2 16 44.1 44.1 0 0 1-21.8 6.9c-6.5 0-11.8-2.2-14.3-6.4-2.6-4.2-2-9.8 1-15.6a44.1 44.1 0 0 1 16.2-16 44.1 44.1 0 0 1 21.8-6.9c6.5 0 11.8 2.2 14.3 6.4Z"/>
      <path fill="url(#n)" fill-opacity=".4" d="M154.4 70.6c2.5 4.2 2 9.8-1 15.6a44.1 44.1 0 0 1-16.2 16 44.1 44.1 0 0 1-21.8 6.9c-6.5 0-11.8-2.2-14.3-6.4-2.6-4.2-2-9.8 1-15.6a44.1 44.1 0 0 1 16.2-16 44.1 44.1 0 0 1 21.8-6.9c6.5 0 11.8 2.2 14.3 6.4Z"/>
      <path stroke="url(#o)" d="M154.4 70.6c2.5 4.2 2 9.8-1 15.6a44.1 44.1 0 0 1-16.2 16 44.1 44.1 0 0 1-21.8 6.9c-6.5 0-11.8-2.2-14.3-6.4-2.6-4.2-2-9.8 1-15.6a44.1 44.1 0 0 1 16.2-16 44.1 44.1 0 0 1 21.8-6.9c6.5 0 11.8 2.2 14.3 6.4Z"/>
      <path fill="#EDEDED" d="M217.2 32.2a39.6 39.6 0 0 1 20.7 9.9c4.9 4.7 7.4 10.5 6.4 16.2-1 5.6-5.2 10.2-11.4 13a39.6 39.6 0 0 1-22.8 2.5 39.6 39.6 0 0 1-20.8-10c-4.9-4.7-7.3-10.4-6.4-16 1-5.8 5.3-10.4 11.5-13.2a39.6 39.6 0 0 1 22.8-2.4Z"/>
      <path fill="url(#p)" fill-opacity=".4" d="M217.2 32.2a39.6 39.6 0 0 1 20.7 9.9c4.9 4.7 7.4 10.5 6.4 16.2-1 5.6-5.2 10.2-11.4 13a39.6 39.6 0 0 1-22.8 2.5 39.6 39.6 0 0 1-20.8-10c-4.9-4.7-7.3-10.4-6.4-16 1-5.8 5.3-10.4 11.5-13.2a39.6 39.6 0 0 1 22.8-2.4Z"/>
      <path stroke="url(#q)" d="M217.2 32.2a39.6 39.6 0 0 1 20.7 9.9c4.9 4.7 7.4 10.5 6.4 16.2-1 5.6-5.2 10.2-11.4 13a39.6 39.6 0 0 1-22.8 2.5 39.6 39.6 0 0 1-20.8-10c-4.9-4.7-7.3-10.4-6.4-16 1-5.8 5.3-10.4 11.5-13.2a39.6 39.6 0 0 1 22.8-2.4Z"/>
      <path fill="#ECECEC" d="M212.9 125.5a50 50 0 0 1 17.4 14.5c3.6 5.2 4.7 10.2 2.8 13.9-2 3.7-6.7 5.6-13 5.4a50 50 0 0 1-21.8-6.2 50 50 0 0 1-17.4-14.5c-3.7-5.2-4.8-10.2-2.8-13.9 2-3.6 6.7-5.5 13-5.4a50 50 0 0 1 21.8 6.2Z"/>
      <path fill="url(#r)" d="M212.9 125.5a50 50 0 0 1 17.4 14.5c3.6 5.2 4.7 10.2 2.8 13.9-2 3.7-6.7 5.6-13 5.4a50 50 0 0 1-21.8-6.2 50 50 0 0 1-17.4-14.5c-3.7-5.2-4.8-10.2-2.8-13.9 2-3.6 6.7-5.5 13-5.4a50 50 0 0 1 21.8 6.2Z"/>
      <path stroke="url(#s)" d="M212.9 125.5a50 50 0 0 1 17.4 14.5c3.6 5.2 4.7 10.2 2.8 13.9-2 3.7-6.7 5.6-13 5.4a50 50 0 0 1-21.8-6.2 50 50 0 0 1-17.4-14.5c-3.7-5.2-4.8-10.2-2.8-13.9 2-3.6 6.7-5.5 13-5.4a50 50 0 0 1 21.8 6.2Z"/>
    </g>
  </g>
  <defs>
    <linearGradient id="c" x1="-.2" x2="1131.7" y1="1440.8" y2="701.2" gradientUnits="userSpaceOnUse">
      <stop stop-color="#5E87D0"/>
      <stop offset=".2" stop-color="#4266A0"/>
      <stop offset=".4" stop-color="#C846AB"/>
      <stop offset=".5" stop-color="#92417B" stop-opacity=".9"/>
      <stop offset=".6" stop-color="#6354BE"/>
      <stop offset=".7" stop-color="#6170FC"/>
      <stop offset=".9" stop-color="#7B64FF" stop-opacity="0"/>
      <stop offset="1" stop-color="#7C67FF" stop-opacity="0"/>
    </linearGradient>
    <linearGradient id="k" x1="159" x2="110" y1="70" y2="122" gradientUnits="userSpaceOnUse">
      <stop stop-color="#fff"/>
      <stop offset="1" stop-color="#fff" stop-opacity="0"/>
    </linearGradient>
    <linearGradient id="l" x1="233" x2="188.3" y1="124.2" y2="176.5" gradientUnits="userSpaceOnUse">
      <stop stop-color="#fff"/>
      <stop offset="1" stop-color="#fff" stop-opacity="0"/>
    </linearGradient>
    <linearGradient id="m" x1="244.3" x2="205.5" y1="47.4" y2="124.4" gradientUnits="userSpaceOnUse">
      <stop stop-color="#fff"/>
      <stop offset="1" stop-color="#fff" stop-opacity="0"/>
    </linearGradient>
    <linearGradient id="o" x1="117.5" x2="142.8" y1="76.3" y2="106.9" gradientUnits="userSpaceOnUse">
      <stop stop-color="#CDAE5F"/>
      <stop offset="1" stop-color="#fff" stop-opacity="0"/>
    </linearGradient>
    <linearGradient id="q" x1="189.6" x2="252.2" y1="51.2" y2="39.5" gradientUnits="userSpaceOnUse">
      <stop stop-color="#CDAE5F"/>
      <stop offset="1" stop-color="#fff" stop-opacity="0"/>
    </linearGradient>
    <linearGradient id="s" x1="183.6" x2="244.3" y1="129.6" y2="131.2" gradientUnits="userSpaceOnUse">
      <stop stop-color="#CDAE5F"/>
      <stop offset="1" stop-color="#fff" stop-opacity="0"/>
    </linearGradient>
    <radialGradient id="e" cx="0" cy="0" r="1" gradientTransform="rotate(-170.3 393.3 -30) scale(639.247 1493.13)" gradientUnits="userSpaceOnUse">
      <stop stop-color="#BFD6EB"/>
      <stop offset=".2" stop-color="#68B0EF"/>
      <stop offset=".4" stop-color="#68AEEE" stop-opacity=".9"/>
      <stop offset=".5" stop-color="#8199F0"/>
      <stop offset=".9" stop-color="#9788F1" stop-opacity="0"/>
    </radialGradient>
    <radialGradient id="g" cx="0" cy="0" r="1" gradientTransform="matrix(-175.29564 -678.1109 659.24894 -170.41972 73 661.5)" gradientUnits="userSpaceOnUse">
      <stop stop-color="#9881F2"/>
      <stop offset=".3" stop-color="#349FFD"/>
      <stop offset=".8" stop-color="#536ECE"/>
      <stop offset="1" stop-color="#7C66FC" stop-opacity="0"/>
    </radialGradient>
    <radialGradient id="h" cx="0" cy="0" r="1" gradientTransform="rotate(90 -125 687) scale(807.5)" gradientUnits="userSpaceOnUse">
      <stop/>
      <stop offset="1" stop-opacity="0"/>
    </radialGradient>
    <radialGradient id="n" cx="0" cy="0" r="1" gradientTransform="rotate(49.1 -13.7 126.7) scale(99.9525 168.614)" gradientUnits="userSpaceOnUse">
      <stop stop-color="#AF33DB"/>
      <stop offset="1" stop-color="#fff" stop-opacity="0"/>
    </radialGradient>
    <radialGradient id="p" cx="0" cy="0" r="1" gradientTransform="matrix(-53.00064 80.99963 -147.7952 -96.7071 248 15)" gradientUnits="userSpaceOnUse">
      <stop stop-color="#AF33DB"/>
      <stop offset="1" stop-color="#fff" stop-opacity="0"/>
    </radialGradient>
    <radialGradient id="r" cx="0" cy="0" r="1" gradientTransform="rotate(149.2 129.7 99.3) scale(156.064 81.6056)" gradientUnits="userSpaceOnUse">
      <stop stop-color="#AF33DB"/>
      <stop offset="1" stop-color="#fff" stop-opacity="0"/>
    </radialGradient>
    <clipPath id="a">
      <use xlink:href="#reuse-0"/>
    </clipPath>
    <clipPath id="b">
      <path fill="#fff" d="M0 0h1074v620H0z" transform="rotate(-90 386.5 526.5)"/>
    </clipPath>
    <clipPath id="i">
      <path fill="#fff" d="M0 0h1395.9v547.6H0z" transform="translate(-306 -286)"/>
    </clipPath>
    <clipPath id="j">
      <path fill="#fff" d="M0 0h146v134.3H0z" transform="translate(99 31)"/>
    </clipPath>
    <filter id="d" width="711.9" height="1198.8" x="-10.2" y="-504.8" color-interpolation-filters="sRGB" filterUnits="userSpaceOnUse">
      <feFlood flood-opacity="0" result="BackgroundImageFix"/>
      <feBlend in="SourceGraphic" in2="BackgroundImageFix" result="shape"/>
      <feGaussianBlur result="effect1_foregroundBlur" stdDeviation="7"/>
    </filter>
    <filter id="f" width="385.2" height="1576.3" x="-51.3" y="-538.3" color-interpolation-filters="sRGB" filterUnits="userSpaceOnUse">
      <feFlood flood-opacity="0" result="BackgroundImageFix"/>
      <feBlend in="SourceGraphic" in2="BackgroundImageFix" result="shape"/>
      <feGaussianBlur result="effect1_foregroundBlur" stdDeviation="17"/>
    </filter>
  </defs>
</svg> 