<svg xmlns="http://www.w3.org/2000/svg" xmlns:xlink="http://www.w3.org/1999/xlink" fill="none" viewBox="0 0 343 200">
  <defs>
    <path id="reuse-0" fill="#fff" d="M0 0h343v200H0z"/>
  </defs>
  <g clip-path="url(#a)">
    <use xlink:href="#reuse-0"/>
    <path fill="#498AFD" d="M0 0h343v200H0z"/>
    <g clip-path="url(#b)">
      <path fill="#000" d="M-140 913V-161h620V913z"/>
      <path fill="url(#c)" d="M-140 913H934v620H-140z" transform="rotate(-90 -140 913)"/>
      <g filter="url(#d)">
        <path fill="url(#e)" d="M646.3 679.3C471.3 680.2 5 508 3.8 274.9 2.6 41.7 279.8-490 455-490.8c175-1 251.6 353.1 145.1 677.2-77.5 236 185.5 510.2 46.3 492.9Z"/>
      </g>
      <g filter="url(#f)" style="mix-blend-mode:color-dodge">
        <path fill="url(#g)" d="M-4 413c5.6 81.8 63.3 116.4 119.6 140.1C101.4 704 120 857.2 208 1004c0 0-45.1-264.5 0-329 54.6-78-17.7-90.4-92.4-121.9C152 169 400.8-199.5 254-404 49.6-688.9-56.5-351.5-4 413Z"/>
      </g>
    </g>
    <path fill="url(#h)" d="M375 812h375v824H375z" transform="rotate(-180 375 812)"/>
    <g fill="#fff" fill-opacity=".2" clip-path="url(#i)">
      <path d="M1052.4 7.5c-464.3-823.2-928.6 807.6-1393-292l-1.4-1.5C123.3 817.3 588.6-818.8 1053.9 7l-1.5.5Z"/>
      <path d="M1045.6 9.9C586-801 126.1 805.4-333.7-277.8l-1.5-1.5C125.6 807.5 586.3-804.2 1047 9.4l-1.5.5Z"/>
      <path d="M1038.9 12.3C583.6-786.3 128.3 795.7-327-271.1l-1.5-1.5c456.3 1070.4 912.6-517 1368.9 284.3l-1.5.6Z"/>
      <path d="M1032.1 14.6C581.3-771.6 130.6 786-320.2-264.4l-1.5-1.5c451.8 1054 903.5-509 1355.3 280l-1.5.5Z"/>
      <path d="M1025.3 17C579.1-756.9 132.8 776.2-313.4-257.6l-1.5-1.5C132.3 778.4 579.6-760 1026.8 16.5l-1.5.5Z"/>
      <path d="M1018.6 19.4C576.8-742.2 135 766.4-306.7-251l-1.4-1.4C134.6 768.7 577.3-745.4 1020 18.8l-1.4.6Z"/>
      <path d="M1011.8 21.7C574.6-727.5 137.3 756.7-300-244l-1.5-1.5C136.8 759 575.1-730.7 1013.3 21.2l-1.5.5Z"/>
      <path d="M1005 24.1C572.3-712.8 139.6 747.1-293-237.4l-1.5-1.4C139 749.2 572.8-716 1006.5 23.6l-1.5.5Z"/>
      <path d="M998.3 26.5C570-698.1 141.9 737.3-286.3-230.6l-1.5-1.5c429.1 971.6 858.3-469.2 1287.5 258l-1.5.6Z"/>
      <path d="M991.5 28.8C567.8-683.4 144 727.6-279.5-223.9l-1.6-1.5C143.6 729.7 568.3-686.6 993 28.3l-1.4.5Z"/>
      <path d="M984.7 31.2C565.5-668.8 146.4 718-272.8-217l-1.5-1.5C146 720 566-672 986.2 30.7l-1.5.5Z"/>
      <path d="M978 33.6C563.3-654 148.6 708.2-266-210.4l-1.5-1.5c415.6 922.2 831.3-445.4 1247 245l-1.5.5Z"/>
      <path d="M971.2 36C561-639.3 150.9 698.5-259.3-203.8l-1.4-1.4c411 905.7 822.2-437.4 1233.4 240.6l-1.5.5Z"/>
      <path d="M964.4 38.3c-405.6-663-811.3 650.4-1216.9-235.2l-1.5-1.5C152.6 691 559.3-627.9 966 37.8l-1.5.5Z"/>
      <path d="M957.6 40.7C556.6-610 155.4 679-245.7-190.2l-1.5-1.5C154.9 681.1 557-613.1 959 40.3l-1.5.5Z"/>
      <path d="M950.9 43C554.3-595.2 157.6 669.3-239-183.4l-1.4-1.5C157.2 671.4 554.8-598.5 952.3 42.5l-1.4.5Z"/>
      <path d="M944 45.4c-392-626-784 614.1-1176.2-222l-1.5-1.6C159.4 661.7 552.5-583.8 945.6 45l-1.5.5Z"/>
      <path d="M937.3 47.8C549.7-565.8 162.2 649.8-225.4-170l-1.5-1.5C161.7 652 550.2-569.1 938.8 47.3l-1.5.5Z"/>
      <path d="M930.5 50.2c-383-601.4-766 589.9-1149.1-213.4l-1.5-1.5c384 807 768-389.7 1152.1 214.3l-1.5.6Z"/>
      <path d="M923.8 52.5c-378.6-589-757.1 577.9-1135.7-209l-1.5-1.4C166.2 632.5 545.7-539.8 925.3 52l-1.5.4Z"/>
      <path d="M917 54.9C543-521.8 169 620.7-205-149.7l-1.5-1.5c375 774 750-373.8 1125 205.6l-1.5.5Z"/>
      <path d="M910.2 57.3C540.7-507.1 171.2 610.9-198.3-143l-1.5-1.4C170.7 613 541.2-510.3 911.7 56.8l-1.5.5Z"/>
      <path d="M903.5 59.6c-365-552-730 541.6-1095-195.8l-1.5-1.5c366 741 732-358 1098 196.8l-1.5.5Z"/>
      <path d="M896.7 62c-360.5-539.7-721 529.5-1081.5-191.5l-1.5-1.5c361.5 724.6 723-350 1084.5 192.4l-1.5.6Z"/>
      <path d="M890 64.4C534-463 178 581.8-178-122.8l-1.5-1.4c357 708 714-342 1070.9 188l-1.4.6Z"/>
      <path d="M883.1 66.7C531.8-448.3 180.3 572-171.3-116l-1.4-1.5c352.4 691.7 704.9-334 1057.3 183.7l-1.5.5Z"/>
      <path d="M876.4 69.1c-347-502.7-694 493.2-1040.9-178.4l-1.5-1.4C182 564.5 530-436.8 878 68.6l-1.5.5Z"/>
      <path d="M869.6 71.5c-342.4-490.4-684.9 481-1027.3-174l-1.5-1.5C184.2 554.7 527.7-422.1 871.1 71l-1.5.5Z"/>
      <path d="M862.8 73.9C525-404.2 187 542.9-150.9-95.8l-1.5-1.5C186.5 545 525.4-407.4 864.3 73.3l-1.5.6Z"/>
      <path d="M856 76.2C522.8-389.5 189.3 533.2-144.1-89l-1.5-1.5C188.7 535.3 523.1-392.8 857.6 75.7l-1.4.5Z"/>
      <path d="M849.3 78.6C520.4-374.8 191.5 523.4-137.4-82.3l-1.5-1.5C191.1 525.5 521-378 850.8 78.1l-1.5.5Z"/>
      <path d="M842.5 81C518.1-360.1 193.8 513.7-130.6-75.5l-1.5-1.5C193.3 515.9 518.6-363.3 844 80.5l-1.5.5Z"/>
      <path d="M835.8 83.3C515.8-345.4 196 504-124-68.8l-1.4-1.5C195.5 506.1 516.4-348.7 837.2 82.8l-1.4.5Z"/>
      <path d="M829 85.7C513.6-330.7 198.3 494.3-117-62.1l-1.5-1.4C197.8 496.3 514.2-334 830.5 85.1l-1.5.5Z"/>
      <path d="M822.2 88C511.4-316 200.5 484.6-110.3-55.2l-1.5-1.5C200 486.7 511.9-319.3 823.7 87.5l-1.5.6Z"/>
      <path d="M815.4 90.5c-306.3-391.8-612.6 384.4-919-139L-105-50C202.3 477 509.7-304.5 817 90l-1.5.5Z"/>
      <path d="M808.7 92.8C506.9-286.7 205 465.1-96.8-41.8l-1.5-1.5C204.6 467.2 507.4-290 810.2 92.3l-1.5.5Z"/>
      <path d="M802 95.2C504.6-272 207.4 455.4-90-35.1l-1.4-1.5C206.9 457.4 505-275.2 803.4 94.6l-1.4.6Z"/>
      <path d="M795.1 97.5C502.3-257.3 209.6 445.6-83.2-28.4l-1.5-1.4C209 447.8 502.8-260.5 796.6 97l-1.5.5Z"/>
      <path d="M788.4 100C500-242.7 211.8 436-76.5-21.7l-1.5-1.5C211.3 438 500.6-245.8 790 99.4l-1.5.5Z"/>
      <path d="M781.6 102.3C497.8-228 214 426.2-69.7-15l-1.5-1.5C213.6 428.3 498.3-231 783.1 101.8l-1.5.5Z"/>
      <path d="M774.8 104.6C495.6-213.2 216.3 416.5-62.9-8l-1.5-1.5C215.8 418.6 496-216.4 776.3 104l-1.5.5Z"/>
      <path d="M768 107C493.3-198.5 218.6 406.7-56.2-1.4l-1.4-1.5C218 409 493.8-201.7 769.5 106.5l-1.5.5Z"/>
      <path d="M761.3 109.4C491-183.8 220.8 397-49.4 5.4l-1.5-1.5c271.2 395.3 542.5-191 813.7 105l-1.5.5Z"/>
      <path d="M754.5 111.8C488.8-169.3 223.1 387.3-42.6 12l-1.5-1.5c266.7 378.8 533.4-183 800.1 100.6l-1.5.5Z"/>
      <path d="M747.7 114.1C486.5-154.4 225.3 377.6-35.8 18.8l-1.5-1.4c262.2 362.3 524.3-175 786.5 96.2l-1.5.5Z"/>
      <path d="M741 116.5c-256.7-256.2-513.4 251.3-770-91l-1.5-1.4C227 370 484.8-143 742.5 116l-1.5.5Z"/>
      <path d="M734.2 118.9C482-125.1 229.9 358-22.3 32.3l-1.5-1.5c253.2 329.5 506.3-159 759.5 87.5l-1.5.6Z"/>
      <path d="M727.4 121.2c-247.6-231.5-495.3 227.2-743-82.1l-1.4-1.5c248.6 313 497.3-151.1 746 83.1l-1.6.5Z"/>
      <path d="M720.7 123.6C477.5-95.6 234.4 338.6-8.8 45.8l-1.4-1.5C233.8 340.8 478-98.9 722 123.1l-1.4.5Z"/>
      <path d="M713.9 126C475.3-81 236.6 329-2 52.5l-1.5-1.4c239.6 280 479.3-135.3 718.9 74.3l-1.5.6Z"/>
      <path d="M707.1 128.3c-234-194.5-468.2 191-702.3-69L3.3 58c235.1 263.5 470.2-127.3 705.3 70l-1.5.4Z"/>
      <path d="M700.4 130.7C470.8-51.5 241 309.5 11.5 66l-1.4-1.4c230.6 247 461.1-119.4 691.7 65.6l-1.4.5Z"/>
      <path d="M693.6 133C468.5-36.8 243.4 299.9 18.3 72.9l-1.5-1.5C243 301.9 469-40.1 695.1 132.6l-1.5.5Z"/>
      <path d="M686.8 135.5C466.2-22.1 245.7 290 25.1 79.5l-1.5-1.4C245.2 292.2 466.7-25.4 688.3 135l-1.5.5Z"/>
      <path d="M680 137.8C464-7.5 248 280.3 32 86.3l-1.5-1.5c217 197.7 434-95.5 651.1 52.5l-1.5.5Z"/>
      <path d="M673.3 140.2C461.7 7.2 250.2 270.6 38.6 93l-1.5-1.5C249.7 272.8 462.2 4 674.7 139.7l-1.4.5Z"/>
      <path d="M666.5 142.6c-207-120.7-414 118.3-621-42.8l-1.6-1.5C252 263 460 18.7 668 142l-1.4.6Z"/>
      <path d="M659.7 145c-202.5-108.4-405 106.2-607.5-38.5l-1.5-1.5c203.5 148.3 407-71.6 610.5 39.4l-1.5.5Z"/>
      <path d="M653 147.3c-198-96-396 94.1-594-34l-1.5-1.5c199 131.8 398-63.7 597 35l-1.5.5Z"/>
      <path d="M646.2 149.7c-193.5-83.7-387 82-580.5-29.7l-1.5-1.5c194.5 115.3 389-55.7 583.5 30.6l-1.5.6Z"/>
      <path d="M639.4 152c-189-71.3-378 70-567-25.3l-1.4-1.5c190 99 380-47.7 570 26.3l-1.6.5Z"/>
      <path d="M632.6 154.4c-184.4-59-368.9 57.9-553.3-21l-1.5-1.4c185.4 82.4 370.9-39.8 556.3 21.9l-1.5.5Z"/>
      <path d="M625.9 156.8c-180-46.7-360 45.8-539.9-16.6l-1.5-1.5c181 66 362-31.8 542.9 17.5l-1.5.6Z"/>
      <path d="M619.1 159.1C443.7 124.8 268.2 192.8 92.8 147l-1.5-1.4c176.4 49.5 352.9-24 529.3 13.1l-1.5.5Z"/>
      <path d="M612.3 161.5c-170.9-22-341.8 21.6-512.7-7.8l-1.5-1.5c171.9 33 343.8-16 515.7 8.8l-1.5.5Z"/>
      <path d="M605.6 163.9c-166.5-9.7-332.9 9.5-499.3-3.5L105 159c167.3 16.6 334.7-8 502.1 4.4l-1.4.6Z"/>
      <path d="M598.8 166.2c-161.9 2.7-323.8-2.5-485.7 1l-1.5-1.5h488.7l-1.5.5Z"/>
      <path d="M592 168.6c-157.4 15-314.7-14.7-472.1 5.3l-1.5-1.5c158.4-16.3 316.7 8 475.1-4.3l-1.5.5Z"/>
      <path d="M585.3 171c-153 27.3-305.8-26.8-458.6 9.7l-1.5-1.5c153.8-32.9 307.7 15.8 461.5-8.8l-1.5.6Z"/>
      <path d="M578.5 173.3c-148.4 39.6-296.7-38.8-445 14.1l-1.6-1.5c149.4-49.3 298.7 23.8 448-13l-1.4.4Z"/>
      <path d="M571.7 175.7c-143.8 52-287.7-51-431.5 18.4l-1.5-1.4c144.8-65.8 289.7 31.7 434.5-17.5l-1.5.5Z"/>
      <path d="M565 178c-139.4 64.3-278.7-63-418 22.9l-1.5-1.5c140.3-82.2 280.6 39.7 420.9-21.8l-1.4.5Z"/>
      <path d="M558.2 180.5c-134.9 76.6-269.7-75.2-404.5 27.2l-1.4-1.5C288 107.5 423.9 253.8 559.5 180l-1.4.5Z"/>
      <path d="M551.4 182.8c-130.3 89-260.6-87.2-390.9 31.6l-1.5-1.5C290.3 97.7 421.6 268.5 553 182.3l-1.5.5Z"/>
      <path d="M544.6 185.2c-125.8 101.2-251.5-99.3-377.3 36l-1.5-1.6C292.6 88 419.3 283.2 546 184.6l-1.5.6Z"/>
      <path d="M537.9 187.6C416.6 301 295.3 76.2 174 227.9l-1.5-1.5C294.8 78.3 417 297.9 539.3 187l-1.4.6Z"/>
      <path d="M531 190C414.4 315.7 297.7 66.3 180.9 234.5l-1.5-1.5c117.8-164.5 235.5 79.5 353.3-43.7l-1.5.5Z"/>
      <path d="M524.3 192.3c-112.2 138.2-224.5-135.6-336.7 49l-1.5-1.5c113.2-181 226.5 87.4 339.7-48l-1.5.5Z"/>
      <path d="M517.5 194.7C409.8 345.2 302.1 47 194.4 248l-1.5-1.5C301.6 49.1 410.3 342 519 194.1l-1.5.6Z"/>
      <path d="M510.8 197C407.6 360 304.3 37.3 201 254.8l-1.5-1.5c104.3-214 208.5 103.4 312.7-56.8l-1.5.5Z"/>
      <path d="M504 199.4c-98.7 175.2-197.4-171.9-296.1 62.2l-1.5-1.5c99.7-230.4 199.4 111.3 299-61.2l-1.4.5Z"/>
    </g>
    <circle cx="172" cy="100" r="61" fill="#C4C4C4"/>
    <circle cx="172" cy="100" r="61" fill="url(#j)"/>
    <circle cx="172" cy="100" r="61" fill="#F1D3A5"/>
    <circle cx="172" cy="100" r="61" fill="#fff"/>
    <circle cx="172" cy="100" r="61" fill="url(#k)"/>
    <g fill-rule="evenodd" clip-rule="evenodd" filter="url(#l)">
      <path fill="#4185FF" d="M160.8 86.1 172 74.9 183.2 86l-23.4 23.4 2.7 2.7 9.5-9.5 11.2 11.2-11.2 11.2-25.1-25.1L158 88.8l8.2 8.2 2.7-2.7-8.2-8.2Zm13.9 13.9 11.2 11.2 11.2-11.2L186 88.8 174.7 100Zm13.9-13.9 11.2 11.2 2.7 2.7-2.7 2.7-11.2 11.2-2.7 2.7-11.2 11.2-2.7 2.7-2.7-2.7-25.1-25.1-2.7-2.7 2.7-2.7 25.1-25.1 2.7-2.7 2.7 2.7 11.2 11.2 2.7 2.7Z"/>
      <path fill="#fff" fill-opacity=".1" d="M160.8 86.1 172 74.9 183.2 86l-23.4 23.4 2.7 2.7 9.5-9.5 11.2 11.2-11.2 11.2-25.1-25.1L158 88.8l8.2 8.2 2.7-2.7-8.2-8.2Zm13.9 13.9 11.2 11.2 11.2-11.2L186 88.8 174.7 100Zm13.9-13.9 11.2 11.2 2.7 2.7-2.7 2.7-11.2 11.2-2.7 2.7-11.2 11.2-2.7 2.7-2.7-2.7-25.1-25.1-2.7-2.7 2.7-2.7 25.1-25.1 2.7-2.7 2.7 2.7 11.2 11.2 2.7 2.7Z"/>
      <path fill="url(#m)" fill-opacity=".5" d="M160.8 86.1 172 74.9 183.2 86l-23.4 23.4 2.7 2.7 9.5-9.5 11.2 11.2-11.2 11.2-25.1-25.1L158 88.8l8.2 8.2 2.7-2.7-8.2-8.2Zm13.9 13.9 11.2 11.2 11.2-11.2L186 88.8 174.7 100Zm13.9-13.9 11.2 11.2 2.7 2.7-2.7 2.7-11.2 11.2-2.7 2.7-11.2 11.2-2.7 2.7-2.7-2.7-25.1-25.1-2.7-2.7 2.7-2.7 25.1-25.1 2.7-2.7 2.7 2.7 11.2 11.2 2.7 2.7Z"/>
    </g>
    <g filter="url(#n)">
      <circle cx="172" cy="100" r="51.5" stroke="url(#o)" stroke-width="3.8"/>
    </g>
  </g>
  <defs>
    <radialGradient id="e" cx="0" cy="0" r="1" gradientTransform="rotate(-173.2 393.2 -19.8) scale(679.883 1588.04)" gradientUnits="userSpaceOnUse">
      <stop stop-color="#BFD6EB"/>
      <stop offset=".2" stop-color="#68B0EF"/>
      <stop offset=".4" stop-color="#68AEEE" stop-opacity=".9"/>
      <stop offset=".5" stop-color="#818CF0"/>
      <stop offset=".9" stop-color="#9788F1" stop-opacity="0"/>
    </radialGradient>
    <radialGradient id="g" cx="0" cy="0" r="1" gradientTransform="matrix(-363.16496 -943.4676 917.22185 -353.0623 260.9 926.9)" gradientUnits="userSpaceOnUse">
      <stop stop-color="#9881F2"/>
      <stop offset=".3" stop-color="#349FFD"/>
      <stop offset=".8" stop-color="#5360CE"/>
      <stop offset="1" stop-color="#7C66FC" stop-opacity="0"/>
    </radialGradient>
    <radialGradient id="h" cx="0" cy="0" r="1" gradientTransform="rotate(90 -125 687) scale(807.5)" gradientUnits="userSpaceOnUse">
      <stop/>
      <stop offset="1" stop-opacity="0"/>
    </radialGradient>
    <radialGradient id="j" cx="0" cy="0" r="1" gradientTransform="matrix(0 61 -61 0 172 100)" gradientUnits="userSpaceOnUse">
      <stop stop-color="#C2FF86"/>
      <stop offset=".4" stop-color="#D1FFA3" stop-opacity=".6"/>
      <stop offset="1" stop-color="#E6FFCC" stop-opacity="0"/>
    </radialGradient>
    <linearGradient id="c" x1="-.2" x2="1131.7" y1="1440.8" y2="701.2" gradientUnits="userSpaceOnUse">
      <stop stop-color="#5E87D0"/>
      <stop offset=".2" stop-color="#4266A0"/>
      <stop offset=".4" stop-color="#4669C8"/>
      <stop offset=".5" stop-color="#3E79AF" stop-opacity=".9"/>
      <stop offset=".6" stop-color="#5472BE"/>
      <stop offset=".7" stop-color="#6170FC"/>
      <stop offset=".9" stop-color="#7B64FF" stop-opacity="0"/>
      <stop offset="1" stop-color="#7C67FF" stop-opacity="0"/>
    </linearGradient>
    <linearGradient id="k" x1="142.4" x2="173.9" y1="53.8" y2="98.2" gradientUnits="userSpaceOnUse">
      <stop stop-color="#fff"/>
      <stop offset="1" stop-opacity="0"/>
    </linearGradient>
    <linearGradient id="m" x1="172" x2="172" y1="70" y2="147" gradientUnits="userSpaceOnUse">
      <stop/>
      <stop offset="1" stop-opacity="0"/>
    </linearGradient>
    <linearGradient id="o" x1="172" x2="213.9" y1="46.6" y2="153.4" gradientUnits="userSpaceOnUse">
      <stop stop-color="#fff"/>
      <stop offset="1" stop-opacity="0"/>
    </linearGradient>
    <filter id="d" width="711.9" height="1198.8" x="-10.2" y="-504.8" color-interpolation-filters="sRGB" filterUnits="userSpaceOnUse">
      <feFlood flood-opacity="0" result="BackgroundImageFix"/>
      <feBlend in="SourceGraphic" in2="BackgroundImageFix" result="shape"/>
      <feGaussianBlur result="effect1_foregroundBlur" stdDeviation="7"/>
    </filter>
    <filter id="f" width="385.2" height="1576.3" x="-51.3" y="-538.3" color-interpolation-filters="sRGB" filterUnits="userSpaceOnUse">
      <feFlood flood-opacity="0" result="BackgroundImageFix"/>
      <feBlend in="SourceGraphic" in2="BackgroundImageFix" result="shape"/>
      <feGaussianBlur result="effect1_foregroundBlur" stdDeviation="17"/>
    </filter>
    <filter id="l" width="61" height="62" x="141.5" y="69.5" color-interpolation-filters="sRGB" filterUnits="userSpaceOnUse">
      <feFlood flood-opacity="0" result="BackgroundImageFix"/>
      <feBlend in="SourceGraphic" in2="BackgroundImageFix" result="shape"/>
      <feColorMatrix in="SourceAlpha" result="hardAlpha" values="0 0 0 0 0 0 0 0 0 0 0 0 0 0 0 0 0 0 127 0"/>
      <feOffset dy="1"/>
      <feGaussianBlur stdDeviation=".5"/>
      <feComposite in2="hardAlpha" k2="-1" k3="1" operator="arithmetic"/>
      <feColorMatrix values="0 0 0 0 0 0 0 0 0 0 0 0 0 0 0 0 0 0 0.15 0"/>
      <feBlend in2="shape" result="effect1_innerShadow"/>
    </filter>
    <filter id="n" width="106.8" height="108.8" x="118.6" y="46.6" color-interpolation-filters="sRGB" filterUnits="userSpaceOnUse">
      <feFlood flood-opacity="0" result="BackgroundImageFix"/>
      <feBlend in="SourceGraphic" in2="BackgroundImageFix" result="shape"/>
      <feColorMatrix in="SourceAlpha" result="hardAlpha" values="0 0 0 0 0 0 0 0 0 0 0 0 0 0 0 0 0 0 127 0"/>
      <feOffset dy="4"/>
      <feGaussianBlur stdDeviation="1"/>
      <feComposite in2="hardAlpha" k2="-1" k3="1" operator="arithmetic"/>
      <feColorMatrix values="0 0 0 0 0 0 0 0 0 0 0 0 0 0 0 0 0 0 0.25 0"/>
      <feBlend in2="shape" result="effect1_innerShadow"/>
    </filter>
    <clipPath id="a">
      <use xlink:href="#reuse-0"/>
    </clipPath>
    <clipPath id="b">
      <path fill="#fff" d="M0 0h1074v620H0z" transform="rotate(-90 386.5 526.5)"/>
    </clipPath>
    <clipPath id="i">
      <path fill="#fff" d="M0 0h1395.9v547.6H0z" transform="translate(-312 -286)"/>
    </clipPath>
  </defs>
</svg>