<svg width="62" height="62" viewBox="0 0 62 62" fill="none" xmlns="http://www.w3.org/2000/svg">
<g filter="url(#filter0_ii)">
<rect x="1" y="1" width="60" height="60" rx="4" fill="#08162D"/>
<rect x="1" y="1" width="60" height="60" rx="4" fill="url(#paint0_linear)" fill-opacity="0.2"/>
<rect x="1" y="1" width="60" height="60" rx="4" fill="url(#paint1_radial)" fill-opacity="0.6"/>
</g>
<rect x="0.5" y="0.5" width="61" height="61" rx="4.5" stroke="#3F83F3"/>
<rect x="0.5" y="0.5" width="61" height="61" rx="4.5" stroke="url(#paint2_linear)"/>
<path d="M12.5 60.0011C23.5 57.6597 31 46.7328 31 38.1475" stroke="url(#paint3_linear)" stroke-opacity="0.2"/>
<path d="M1 36.5855C7.15789 36.5855 11.4211 35.4928 19 31.1221" stroke="url(#paint4_linear)" stroke-opacity="0.2"/>
<path d="M1 39.708C7.84211 39.708 12.5789 38.3031 21 32.6836" stroke="url(#paint5_linear)" stroke-opacity="0.2"/>
<path d="M1 43.6103C7.84211 43.6103 12.5789 42.2054 21 36.5859" stroke="url(#paint6_linear)" stroke-opacity="0.2"/>
<path d="M1 46.7324C8.18421 46.7324 13.1579 45.3275 22 39.708" stroke="url(#paint7_linear)" stroke-opacity="0.2"/>
<path d="M1 50.6353C10.2368 50.6353 16.6316 48.1377 28 38.1475" stroke="url(#paint8_linear)" stroke-opacity="0.2"/>
<path d="M1 56.0982C9.89474 56.0982 16.0526 53.6006 27 43.6104" stroke="url(#paint9_linear)" stroke-opacity="0.2"/>
<path d="M49.5 60.0011C38.5 57.6597 31 46.7328 31 38.1475" stroke="url(#paint10_linear)" stroke-opacity="0.2"/>
<path d="M61 36.5855C54.8421 36.5855 50.5789 35.4928 43 31.1221" stroke="url(#paint11_linear)" stroke-opacity="0.2"/>
<path d="M61 39.708C54.1579 39.708 49.4211 38.3031 41 32.6836" stroke="url(#paint12_linear)" stroke-opacity="0.2"/>
<path d="M61 43.6103C54.1579 43.6103 49.4211 42.2054 41 36.5859" stroke="url(#paint13_linear)" stroke-opacity="0.2"/>
<path d="M61 46.7324C53.8158 46.7324 48.8421 45.3275 40 39.708" stroke="url(#paint14_linear)" stroke-opacity="0.2"/>
<path d="M61 50.6353C51.7632 50.6353 45.3684 48.1377 34 38.1475" stroke="url(#paint15_linear)" stroke-opacity="0.2"/>
<path d="M61 56.0982C52.1053 56.0982 45.9474 53.6006 35 43.6104" stroke="url(#paint16_linear)" stroke-opacity="0.2"/>
<g filter="url(#filter1_d)">
<ellipse cx="31" cy="36.9756" rx="17" ry="8.97561" fill="#1B1F27"/>
</g>
<path d="M48 36.9756C48 41.9327 40.3888 45.9512 31 45.9512C21.6112 45.9512 14 41.9327 14 36.9756C14 32.0185 21.6112 28 31 28C40.3888 28 48 32.0185 48 36.9756Z" fill="url(#paint17_radial)"/>
<path d="M46 38.5367C46 42.6317 39.2843 45.9513 31 45.9513C22.7157 45.9513 16 42.6317 16 38.5367C16 34.4417 22.7157 31.1221 31 31.1221C39.2843 31.1221 46 34.4417 46 38.5367Z" fill="#191D25"/>
<path d="M20.4361 36.3557C23.9712 39.8908 31.9954 37.5982 38.3587 31.235C44.7219 24.8717 47.0145 16.8475 43.4794 13.3124L42.1992 12.0322L19.1559 35.0755L20.4361 36.3557Z" fill="url(#paint18_linear)"/>
<path d="M37.081 29.9544C30.7177 36.3176 22.6935 38.6102 19.1584 35.0751C15.6233 31.54 17.9159 23.5157 24.2791 17.1525C30.6424 10.7893 38.6666 8.49665 42.2017 12.0318C45.7368 15.5669 43.4442 23.5911 37.081 29.9544Z" fill="#C4C4C4"/>
<path d="M37.081 29.9544C30.7177 36.3176 22.6935 38.6102 19.1584 35.0751C15.6233 31.54 17.9159 23.5157 24.2791 17.1525C30.6424 10.7893 38.6666 8.49665 42.2017 12.0318C45.7368 15.5669 43.4442 23.5911 37.081 29.9544Z" fill="url(#paint19_linear)"/>
<path d="M35.2776 28.1531C32.5408 30.8899 29.5204 32.814 26.8554 33.7169C24.1799 34.6234 21.9143 34.4865 20.6211 33.1933C19.3279 31.9002 19.1911 29.6345 20.0975 26.959C21.0004 24.294 22.9246 21.2736 25.6614 18.5368C28.3982 15.8001 31.4185 13.8759 34.0836 12.973C36.7591 12.0666 39.0247 12.2034 40.3179 13.4966C41.611 14.7897 41.7479 17.0554 40.8415 19.7309C39.9386 22.3959 38.0144 25.4163 35.2776 28.1531Z" stroke="url(#paint20_linear)" stroke-opacity="0.7" stroke-width="0.312102"/>
<g filter="url(#filter2_i)">
<path fill-rule="evenodd" clip-rule="evenodd" d="M31.9308 19.1456L35.4687 17.9413L34.2557 21.4868L27.0917 23.9255L26.8559 24.6146L29.7802 23.6191L28.5686 27.1602L25.0286 28.3653L27.689 20.5896L31.2414 19.3803L30.3584 21.9614L31.0477 21.7267L31.9308 19.1456ZM30.4696 23.3844L29.258 26.9255L32.8084 25.7169L34.0199 22.1758L30.4696 23.3844ZM32.5726 26.4059L29.0223 27.6145L29.022 27.6153L28.3326 27.8499L28.3329 27.8492L24.7929 29.0543L24.1035 29.289L24.3393 28.6L26.9996 20.8243L27.2354 20.1353L27.9247 19.9006L35.7045 17.2523L36.3939 17.0176L36.1581 17.7066L33.4978 25.4822L33.262 26.1713L32.5726 26.4059Z" fill="url(#paint21_linear)"/>
</g>
<defs>
<filter id="filter0_ii" x="-2" y="-2" width="66" height="66" filterUnits="userSpaceOnUse" color-interpolation-filters="sRGB">
<feFlood flood-opacity="0" result="BackgroundImageFix"/>
<feBlend mode="normal" in="SourceGraphic" in2="BackgroundImageFix" result="shape"/>
<feColorMatrix in="SourceAlpha" type="matrix" values="0 0 0 0 0 0 0 0 0 0 0 0 0 0 0 0 0 0 127 0" result="hardAlpha"/>
<feOffset dx="2" dy="2"/>
<feGaussianBlur stdDeviation="1"/>
<feComposite in2="hardAlpha" operator="arithmetic" k2="-1" k3="1"/>
<feColorMatrix type="matrix" values="0 0 0 0 0 0 0 0 0 0 0 0 0 0 0 0 0 0 0.2 0"/>
<feBlend mode="normal" in2="shape" result="effect1_innerShadow"/>
<feColorMatrix in="SourceAlpha" type="matrix" values="0 0 0 0 0 0 0 0 0 0 0 0 0 0 0 0 0 0 127 0" result="hardAlpha"/>
<feOffset dx="-2" dy="-2"/>
<feGaussianBlur stdDeviation="1"/>
<feComposite in2="hardAlpha" operator="arithmetic" k2="-1" k3="1"/>
<feColorMatrix type="matrix" values="0 0 0 0 1 0 0 0 0 1 0 0 0 0 1 0 0 0 0.08 0"/>
<feBlend mode="normal" in2="effect1_innerShadow" result="effect2_innerShadow"/>
</filter>
<filter id="filter1_d" x="10" y="26" width="42" height="25.9512" filterUnits="userSpaceOnUse" color-interpolation-filters="sRGB">
<feFlood flood-opacity="0" result="BackgroundImageFix"/>
<feColorMatrix in="SourceAlpha" type="matrix" values="0 0 0 0 0 0 0 0 0 0 0 0 0 0 0 0 0 0 127 0" result="hardAlpha"/>
<feOffset dy="2"/>
<feGaussianBlur stdDeviation="2"/>
<feColorMatrix type="matrix" values="0 0 0 0 0.247059 0 0 0 0 0.513726 0 0 0 0 0.952941 0 0 0 1 0"/>
<feBlend mode="normal" in2="BackgroundImageFix" result="effect1_dropShadow"/>
<feBlend mode="normal" in="SourceGraphic" in2="effect1_dropShadow" result="shape"/>
</filter>
<filter id="filter2_i" x="24.1035" y="17.0176" width="13.2903" height="13.2714" filterUnits="userSpaceOnUse" color-interpolation-filters="sRGB">
<feFlood flood-opacity="0" result="BackgroundImageFix"/>
<feBlend mode="normal" in="SourceGraphic" in2="BackgroundImageFix" result="shape"/>
<feColorMatrix in="SourceAlpha" type="matrix" values="0 0 0 0 0 0 0 0 0 0 0 0 0 0 0 0 0 0 127 0" result="hardAlpha"/>
<feOffset dx="1" dy="1"/>
<feGaussianBlur stdDeviation="0.5"/>
<feComposite in2="hardAlpha" operator="arithmetic" k2="-1" k3="1"/>
<feColorMatrix type="matrix" values="0 0 0 0 0 0 0 0 0 0 0 0 0 0 0 0 0 0 0.15 0"/>
<feBlend mode="normal" in2="shape" result="effect1_innerShadow"/>
</filter>
<linearGradient id="paint0_linear" x1="61" y1="61" x2="1" y2="1" gradientUnits="userSpaceOnUse">
<stop stop-color="white" stop-opacity="0.19"/>
<stop offset="0.615863" stop-color="#353535" stop-opacity="0.206697"/>
<stop offset="1" stop-opacity="0"/>
</linearGradient>
<radialGradient id="paint1_radial" cx="0" cy="0" r="1" gradientUnits="userSpaceOnUse" gradientTransform="translate(31 -21.5) rotate(88.727) scale(135.033)">
<stop offset="0.173752" stop-color="#2A70EA"/>
<stop offset="0.475301" stop-opacity="0"/>
</radialGradient>
<linearGradient id="paint2_linear" x1="3" y1="1" x2="59.5" y2="61" gradientUnits="userSpaceOnUse">
<stop stop-color="#D2E3FF"/>
<stop offset="1" stop-opacity="0"/>
</linearGradient>
<linearGradient id="paint3_linear" x1="15.1176" y1="57.4871" x2="27.7667" y2="56.5577" gradientUnits="userSpaceOnUse">
<stop stop-color="#13171E"/>
<stop offset="1" stop-color="#3261AE"/>
</linearGradient>
<linearGradient id="paint4_linear" x1="1" y1="35.857" x2="12.8998" y2="32.2857" gradientUnits="userSpaceOnUse">
<stop stop-color="#13171E"/>
<stop offset="1" stop-color="#3261AE"/>
</linearGradient>
<linearGradient id="paint5_linear" x1="1" y1="38.7714" x2="14.5045" y2="35.2688" gradientUnits="userSpaceOnUse">
<stop stop-color="#13171E"/>
<stop offset="1" stop-color="#3261AE"/>
</linearGradient>
<linearGradient id="paint6_linear" x1="1" y1="42.6737" x2="14.5045" y2="39.1712" gradientUnits="userSpaceOnUse">
<stop stop-color="#13171E"/>
<stop offset="1" stop-color="#3261AE"/>
</linearGradient>
<linearGradient id="paint7_linear" x1="1" y1="45.7958" x2="15.0887" y2="41.959" gradientUnits="userSpaceOnUse">
<stop stop-color="#13171E"/>
<stop offset="1" stop-color="#3261AE"/>
</linearGradient>
<linearGradient id="paint8_linear" x1="1" y1="48.9702" x2="19.7309" y2="45.2811" gradientUnits="userSpaceOnUse">
<stop stop-color="#13171E"/>
<stop offset="1" stop-color="#3261AE"/>
</linearGradient>
<linearGradient id="paint9_linear" x1="1" y1="54.4331" x2="19.0863" y2="51.0029" gradientUnits="userSpaceOnUse">
<stop stop-color="#13171E"/>
<stop offset="1" stop-color="#3261AE"/>
</linearGradient>
<linearGradient id="paint10_linear" x1="46.8824" y1="57.4871" x2="34.2333" y2="56.5577" gradientUnits="userSpaceOnUse">
<stop stop-color="#13171E"/>
<stop offset="1" stop-color="#3261AE"/>
</linearGradient>
<linearGradient id="paint11_linear" x1="61" y1="35.857" x2="49.1002" y2="32.2857" gradientUnits="userSpaceOnUse">
<stop stop-color="#13171E"/>
<stop offset="1" stop-color="#3261AE"/>
</linearGradient>
<linearGradient id="paint12_linear" x1="61" y1="38.7714" x2="47.4955" y2="35.2688" gradientUnits="userSpaceOnUse">
<stop stop-color="#13171E"/>
<stop offset="1" stop-color="#3261AE"/>
</linearGradient>
<linearGradient id="paint13_linear" x1="61" y1="42.6737" x2="47.4955" y2="39.1712" gradientUnits="userSpaceOnUse">
<stop stop-color="#13171E"/>
<stop offset="1" stop-color="#3261AE"/>
</linearGradient>
<linearGradient id="paint14_linear" x1="61" y1="45.7958" x2="46.9113" y2="41.959" gradientUnits="userSpaceOnUse">
<stop stop-color="#13171E"/>
<stop offset="1" stop-color="#3261AE"/>
</linearGradient>
<linearGradient id="paint15_linear" x1="61" y1="48.9702" x2="42.2691" y2="45.2811" gradientUnits="userSpaceOnUse">
<stop stop-color="#13171E"/>
<stop offset="1" stop-color="#3261AE"/>
</linearGradient>
<linearGradient id="paint16_linear" x1="61" y1="54.4331" x2="42.9137" y2="51.0029" gradientUnits="userSpaceOnUse">
<stop stop-color="#13171E"/>
<stop offset="1" stop-color="#3261AE"/>
</linearGradient>
<radialGradient id="paint17_radial" cx="0" cy="0" r="1" gradientUnits="userSpaceOnUse" gradientTransform="translate(31 36.9756) rotate(-90) scale(15.2195 28.8261)">
<stop stop-color="#0060FF"/>
<stop offset="1" stop-opacity="0"/>
</radialGradient>
<linearGradient id="paint18_linear" x1="66" y1="0.499023" x2="57.24" y2="35.2675" gradientUnits="userSpaceOnUse">
<stop stop-color="white"/>
<stop offset="0.119792" stop-color="#B7B7B7"/>
<stop offset="0.213542" stop-color="white"/>
<stop offset="0.327182" stop-color="#9C9C9C"/>
<stop offset="0.545501" stop-color="#181818"/>
<stop offset="0.693709" stop-color="#9C9C9C"/>
<stop offset="0.864857" stop-color="white"/>
<stop offset="1" stop-color="#4F4F4F"/>
</linearGradient>
<linearGradient id="paint19_linear" x1="24" y1="6" x2="41.6252" y2="33.5402" gradientUnits="userSpaceOnUse">
<stop stop-color="white"/>
<stop offset="0.119792" stop-color="#B7B7B7"/>
<stop offset="0.213542" stop-color="white"/>
<stop offset="0.327182" stop-color="#9C9C9C"/>
<stop offset="0.545501" stop-color="#181818"/>
<stop offset="0.777051" stop-color="#9C9C9C"/>
<stop offset="0.963542" stop-color="white"/>
</linearGradient>
<linearGradient id="paint20_linear" x1="32.6739" y1="30.0695" x2="26.3373" y2="11.9649" gradientUnits="userSpaceOnUse">
<stop stop-color="white"/>
<stop offset="1" stop-opacity="0"/>
</linearGradient>
<linearGradient id="paint21_linear" x1="13.5" y1="10" x2="78.1519" y2="56.7901" gradientUnits="userSpaceOnUse">
<stop stop-color="white"/>
<stop stop-color="#FFF7E1"/>
<stop offset="0.109315" stop-color="#674A00"/>
<stop offset="0.213542" stop-color="#FFE39E"/>
<stop offset="0.327182" stop-color="#BEA973"/>
<stop offset="0.545501" stop-color="#554009"/>
<stop offset="0.777051" stop-color="#9C9C9C"/>
<stop offset="0.963542" stop-color="white"/>
</linearGradient>
</defs>
</svg>
