<svg width="62" height="62" viewBox="0 0 62 62" fill="none" xmlns="http://www.w3.org/2000/svg">
<rect width="62" height="62" fill="#141821"/>
<g filter="url(#filter0_ii)">
<rect x="1" y="1" width="60" height="60" rx="4" fill="url(#paint0_linear)" fill-opacity="0.2"/>
<rect x="1" y="1" width="60" height="60" rx="4" fill="url(#paint1_radial)" fill-opacity="0.6"/>
</g>
<rect x="0.5" y="0.5" width="61" height="61" rx="4.5" stroke="#514B39"/>
<rect x="0.5" y="0.5" width="61" height="61" rx="4.5" stroke="url(#paint2_linear)"/>
<rect x="0.5" y="0.5" width="61" height="61" rx="4.5" stroke="#3F83F3"/>
<rect x="0.5" y="0.5" width="61" height="61" rx="4.5" stroke="url(#paint3_linear)"/>
<mask id="mask0" mask-type="alpha" maskUnits="userSpaceOnUse" x="5" y="8" width="56" height="40">
<rect x="5" y="8" width="56" height="40" fill="#C4C4C4"/>
</mask>
<g mask="url(#mask0)">
<path d="M28 24.5L50.5 24.5L63 12" stroke="url(#paint4_linear)"/>
<path d="M29 36.5L51 36.5L61.5 48" stroke="url(#paint5_linear)"/>
<path d="M29.5 27.5L52.5 27.5L63 17" stroke="url(#paint6_linear)"/>
<path d="M30 33.5L53 33.5L62 43" stroke="url(#paint7_linear)"/>
<path d="M18 30.5L54.5 30.5" stroke="url(#paint8_linear)"/>
<path d="M61.5 24L54.5 30.5L61.5 37.5" stroke="white"/>
</g>
<path d="M39.5 24.5H50.5L57 18" stroke="url(#paint9_linear)"/>
<path d="M61.501 42.501L53.0009 33.5009L44 33.5019" stroke="url(#paint10_linear)" stroke-opacity="0.4"/>
<circle cx="22" cy="30" r="16" fill="#C4C4C4"/>
<circle cx="22" cy="30" r="16" fill="url(#paint11_radial)"/>
<circle cx="22" cy="30" r="16" fill="#F1D3A5"/>
<circle cx="22" cy="30" r="16" fill="white"/>
<circle cx="22" cy="30" r="16" fill="url(#paint12_linear)"/>
<circle cx="22" cy="30" r="16" fill="url(#paint13_linear)"/>
<circle cx="22" cy="30" r="16" fill="url(#paint14_linear)"/>
<circle cx="22" cy="30" r="16" fill="url(#paint15_linear)"/>
<path fill-rule="evenodd" clip-rule="evenodd" d="M19.0602 26.354L22 23.4142L24.9389 26.3531L18.789 32.5029L19.4961 33.21L21.9995 30.7066L24.9393 33.6464L22 36.5858L15.4142 30L18.3531 27.0611L20.5036 29.2117L21.2107 28.5046L19.0602 26.354ZM22.7066 29.9995L25.6464 32.9393L28.5858 30L25.646 27.0602L22.7066 29.9995ZM26.3531 26.3531L29.2929 29.2929L30 30L29.2929 30.7071L26.3536 33.6464L25.6464 34.3536L22.7071 37.2929L22 38L21.2929 37.2929L14.7071 30.7071L14 30L14.7071 29.2929L21.2929 22.7071L22 22L22.7071 22.7071L25.646 25.646L25.6462 25.6457L26.3533 26.3529L26.3531 26.3531Z" fill="#DAC185"/>
<path fill-rule="evenodd" clip-rule="evenodd" d="M19.0602 26.354L22 23.4142L24.9389 26.3531L18.789 32.5029L19.4961 33.21L21.9995 30.7066L24.9393 33.6464L22 36.5858L15.4142 30L18.3531 27.0611L20.5036 29.2117L21.2107 28.5046L19.0602 26.354ZM22.7066 29.9995L25.6464 32.9393L28.5858 30L25.646 27.0602L22.7066 29.9995ZM26.3531 26.3531L29.2929 29.2929L30 30L29.2929 30.7071L26.3536 33.6464L25.6464 34.3536L22.7071 37.2929L22 38L21.2929 37.2929L14.7071 30.7071L14 30L14.7071 29.2929L21.2929 22.7071L22 22L22.7071 22.7071L25.646 25.646L25.6462 25.6457L26.3533 26.3529L26.3531 26.3531Z" fill="url(#paint16_linear)"/>
<path fill-rule="evenodd" clip-rule="evenodd" d="M19.0602 26.354L22 23.4142L24.9389 26.3531L18.789 32.5029L19.4961 33.21L21.9995 30.7066L24.9393 33.6464L22 36.5858L15.4142 30L18.3531 27.0611L20.5036 29.2117L21.2107 28.5046L19.0602 26.354ZM22.7066 29.9995L25.6464 32.9393L28.5858 30L25.646 27.0602L22.7066 29.9995ZM26.3531 26.3531L29.2929 29.2929L30 30L29.2929 30.7071L26.3536 33.6464L25.6464 34.3536L22.7071 37.2929L22 38L21.2929 37.2929L14.7071 30.7071L14 30L14.7071 29.2929L21.2929 22.7071L22 22L22.7071 22.7071L25.646 25.646L25.6462 25.6457L26.3533 26.3529L26.3531 26.3531Z" fill="white" fill-opacity="0.14"/>
<circle cx="22" cy="30" r="13.5" stroke="url(#paint17_linear)"/>
<defs>
<filter id="filter0_ii" x="-2" y="-2" width="66" height="66" filterUnits="userSpaceOnUse" color-interpolation-filters="sRGB">
<feFlood flood-opacity="0" result="BackgroundImageFix"/>
<feBlend mode="normal" in="SourceGraphic" in2="BackgroundImageFix" result="shape"/>
<feColorMatrix in="SourceAlpha" type="matrix" values="0 0 0 0 0 0 0 0 0 0 0 0 0 0 0 0 0 0 127 0" result="hardAlpha"/>
<feOffset dx="2" dy="2"/>
<feGaussianBlur stdDeviation="1"/>
<feComposite in2="hardAlpha" operator="arithmetic" k2="-1" k3="1"/>
<feColorMatrix type="matrix" values="0 0 0 0 0 0 0 0 0 0 0 0 0 0 0 0 0 0 0.2 0"/>
<feBlend mode="normal" in2="shape" result="effect1_innerShadow"/>
<feColorMatrix in="SourceAlpha" type="matrix" values="0 0 0 0 0 0 0 0 0 0 0 0 0 0 0 0 0 0 127 0" result="hardAlpha"/>
<feOffset dx="-2" dy="-2"/>
<feGaussianBlur stdDeviation="1"/>
<feComposite in2="hardAlpha" operator="arithmetic" k2="-1" k3="1"/>
<feColorMatrix type="matrix" values="0 0 0 0 1 0 0 0 0 1 0 0 0 0 1 0 0 0 0.08 0"/>
<feBlend mode="normal" in2="effect1_innerShadow" result="effect2_innerShadow"/>
</filter>
<linearGradient id="paint0_linear" x1="61" y1="61" x2="1" y2="1" gradientUnits="userSpaceOnUse">
<stop stop-color="white" stop-opacity="0.19"/>
<stop offset="0.615863" stop-color="#353535" stop-opacity="0.206697"/>
<stop offset="1" stop-opacity="0"/>
</linearGradient>
<radialGradient id="paint1_radial" cx="0" cy="0" r="1" gradientUnits="userSpaceOnUse" gradientTransform="translate(55.5 56) rotate(142.806) scale(88.5014)">
<stop offset="0.173752" stop-color="#2A70EA"/>
<stop offset="1" stop-opacity="0"/>
</radialGradient>
<linearGradient id="paint2_linear" x1="3" y1="1" x2="59.5" y2="61" gradientUnits="userSpaceOnUse">
<stop stop-color="white"/>
<stop offset="1" stop-opacity="0"/>
</linearGradient>
<linearGradient id="paint3_linear" x1="3" y1="1" x2="59.5" y2="61" gradientUnits="userSpaceOnUse">
<stop stop-color="#D2E3FF"/>
<stop offset="1" stop-opacity="0"/>
</linearGradient>
<linearGradient id="paint4_linear" x1="44" y1="25.5" x2="41.2944" y2="21.2125" gradientUnits="userSpaceOnUse">
<stop stop-color="white"/>
<stop offset="1" stop-color="white" stop-opacity="0"/>
</linearGradient>
<linearGradient id="paint5_linear" x1="45" y1="37" x2="42.4368" y2="41.0619" gradientUnits="userSpaceOnUse">
<stop stop-color="white"/>
<stop offset="1" stop-color="white" stop-opacity="0"/>
</linearGradient>
<linearGradient id="paint6_linear" x1="44.5" y1="27.5" x2="42.364" y2="24.1151" gradientUnits="userSpaceOnUse">
<stop stop-color="white"/>
<stop offset="1" stop-color="white" stop-opacity="0"/>
</linearGradient>
<linearGradient id="paint7_linear" x1="42" y1="34.5" x2="40.7184" y2="36.5309" gradientUnits="userSpaceOnUse">
<stop stop-color="white"/>
<stop offset="1" stop-color="white" stop-opacity="0"/>
</linearGradient>
<linearGradient id="paint8_linear" x1="45.5" y1="31.2813" x2="42.652" y2="26.7681" gradientUnits="userSpaceOnUse">
<stop stop-color="white"/>
<stop offset="1" stop-color="white" stop-opacity="0"/>
</linearGradient>
<linearGradient id="paint9_linear" x1="56" y1="17" x2="47.8436" y2="28.6065" gradientUnits="userSpaceOnUse">
<stop stop-color="white" stop-opacity="0.562016"/>
<stop offset="0.637655" stop-color="#4DC5D6"/>
<stop offset="1" stop-color="white" stop-opacity="0"/>
</linearGradient>
<linearGradient id="paint10_linear" x1="43.7077" y1="35.0105" x2="57.6822" y2="32.5709" gradientUnits="userSpaceOnUse">
<stop stop-color="white"/>
<stop offset="0.552083" stop-color="#48E4E0"/>
<stop offset="0.817708" stop-color="#03DAD5"/>
<stop offset="1" stop-color="white" stop-opacity="0"/>
</linearGradient>
<radialGradient id="paint11_radial" cx="0" cy="0" r="1" gradientUnits="userSpaceOnUse" gradientTransform="translate(22 30) rotate(90) scale(16)">
<stop stop-color="#C2FF86"/>
<stop offset="0.410734" stop-color="#D1FFA3" stop-opacity="0.589266"/>
<stop offset="1" stop-color="#E6FFCC" stop-opacity="0"/>
</radialGradient>
<linearGradient id="paint12_linear" x1="15.697" y1="5.27385" x2="38.0032" y2="49.3974" gradientUnits="userSpaceOnUse">
<stop stop-color="white"/>
<stop offset="0.119792" stop-color="#B7B7B7"/>
<stop offset="0.213542" stop-color="white"/>
<stop offset="0.333333" stop-color="#9C9C9C"/>
<stop offset="0.520833" stop-color="#4C4D46"/>
<stop offset="0.963542" stop-color="white"/>
</linearGradient>
<linearGradient id="paint13_linear" x1="34.6061" y1="85.2809" x2="-10.4912" y2="-1.51136" gradientUnits="userSpaceOnUse">
<stop stop-color="white"/>
<stop offset="0.119792" stop-color="#B7B7B7"/>
<stop offset="0.213542" stop-color="white"/>
<stop offset="0.333333" stop-color="#9C9C9C"/>
<stop offset="0.520833" stop-color="#4C4D46"/>
<stop offset="0.963542" stop-color="white"/>
</linearGradient>
<linearGradient id="paint14_linear" x1="-6" y1="10.5" x2="38.7331" y2="58.1138" gradientUnits="userSpaceOnUse">
<stop stop-color="white"/>
<stop offset="0.119792" stop-color="#B7B7B7"/>
<stop offset="0.213542" stop-color="white"/>
<stop offset="0.327182" stop-color="#9C9C9C"/>
<stop offset="0.545501" stop-color="#181818"/>
<stop offset="0.777051" stop-color="#9C9C9C"/>
<stop offset="0.963542" stop-color="white"/>
</linearGradient>
<linearGradient id="paint15_linear" x1="14.2424" y1="17.881" x2="22.4858" y2="29.5177" gradientUnits="userSpaceOnUse">
<stop stop-color="white"/>
<stop offset="1" stop-opacity="0"/>
</linearGradient>
<linearGradient id="paint16_linear" x1="6.85625" y1="26.2251" x2="34.9205" y2="50.5119" gradientUnits="userSpaceOnUse">
<stop stop-color="white"/>
<stop stop-color="#FFF7E1"/>
<stop offset="0.0932076" stop-color="#674A00"/>
<stop offset="0.213542" stop-color="#FFE39E"/>
<stop offset="0.327182" stop-color="#BEA973"/>
<stop offset="0.545501" stop-color="#554009"/>
<stop offset="0.777051" stop-color="#9C9C9C"/>
<stop offset="0.963542" stop-color="white"/>
</linearGradient>
<linearGradient id="paint17_linear" x1="22" y1="16" x2="33" y2="44" gradientUnits="userSpaceOnUse">
<stop stop-color="white"/>
<stop offset="1" stop-opacity="0"/>
</linearGradient>
</defs>
</svg>
