<svg width="62" height="62" viewBox="0 0 62 62" fill="none" xmlns="http://www.w3.org/2000/svg">
<g clip-path="url(#clip0)">
<rect width="62" height="62" fill="#141821"/>
<g filter="url(#filter0_ii)">
<rect x="1" y="1.00195" width="60" height="60" rx="4" fill="black"/>
<rect x="1" y="1.00195" width="60" height="60" rx="4" fill="url(#paint0_linear)" fill-opacity="0.2"/>
<rect x="1" y="1.00195" width="60" height="60" rx="4" fill="url(#paint1_radial)" fill-opacity="0.6"/>
</g>
<rect x="0.5" y="0.501953" width="61" height="61" rx="4.5" stroke="#33F5EA"/>
<rect x="0.5" y="0.501953" width="61" height="61" rx="4.5" stroke="url(#paint2_linear)"/>
<path d="M20 27.5L9.5 17.5L1 17.5" stroke="url(#paint3_linear)"/>
<path d="M20 23.502L10.5 14.502L1 14.502" stroke="url(#paint4_linear)"/>
<path d="M18 29.502L8.5 20.5039L0.999999 20.502" stroke="url(#paint5_linear)"/>
<path d="M25.4961 21.001L15.4961 10.501L15.4961 1.00098" stroke="url(#paint6_linear)"/>
<path d="M21.5 21.001L12.5 11.501L12.5 1.00098" stroke="url(#paint7_linear)"/>
<path d="M27.5 19.001L18.502 9.50098L18.502 1.00098" stroke="url(#paint8_linear)"/>
<g filter="url(#filter1_d)">
<path d="M13 19.002C13 17.8974 13.8954 17.002 15 17.002H49C50.1046 17.002 51 17.8974 51 19.002V43.002C51 44.1065 50.1046 45.002 49 45.002H15C13.8954 45.002 13 44.1065 13 43.002V19.002Z" fill="url(#paint9_linear)"/>
<path d="M13 19.002C13 17.8974 13.8954 17.002 15 17.002H49C50.1046 17.002 51 17.8974 51 19.002V43.002C51 44.1065 50.1046 45.002 49 45.002H15C13.8954 45.002 13 44.1065 13 43.002V19.002Z" fill="url(#paint10_linear)"/>
</g>
<path d="M15 22.002C15 20.8974 15.8954 20.002 17 20.002H47C48.1046 20.002 49 20.8974 49 22.002V23.002H15L15 22.002Z" fill="#184A4E"/>
<path d="M15 22.002C15 20.8974 15.8954 20.002 17 20.002H47C48.1046 20.002 49 20.8974 49 22.002V23.002H15L15 22.002Z" fill="url(#paint11_linear)"/>
<path d="M15 27.002C15 25.8974 15.8954 25.002 17 25.002H47C48.1046 25.002 49 25.8974 49 27.002V28.002H15L15 27.002Z" fill="#184A4E"/>
<path d="M15 27.002C15 25.8974 15.8954 25.002 17 25.002H47C48.1046 25.002 49 25.8974 49 27.002V28.002H15L15 27.002Z" fill="url(#paint12_linear)"/>
</g>
<defs>
<filter id="filter0_ii" x="-2" y="-1.99805" width="66" height="66" filterUnits="userSpaceOnUse" color-interpolation-filters="sRGB">
<feFlood flood-opacity="0" result="BackgroundImageFix"/>
<feBlend mode="normal" in="SourceGraphic" in2="BackgroundImageFix" result="shape"/>
<feColorMatrix in="SourceAlpha" type="matrix" values="0 0 0 0 0 0 0 0 0 0 0 0 0 0 0 0 0 0 127 0" result="hardAlpha"/>
<feOffset dx="2" dy="2"/>
<feGaussianBlur stdDeviation="1"/>
<feComposite in2="hardAlpha" operator="arithmetic" k2="-1" k3="1"/>
<feColorMatrix type="matrix" values="0 0 0 0 0 0 0 0 0 0 0 0 0 0 0 0 0 0 0.2 0"/>
<feBlend mode="normal" in2="shape" result="effect1_innerShadow"/>
<feColorMatrix in="SourceAlpha" type="matrix" values="0 0 0 0 0 0 0 0 0 0 0 0 0 0 0 0 0 0 127 0" result="hardAlpha"/>
<feOffset dx="-2" dy="-2"/>
<feGaussianBlur stdDeviation="1"/>
<feComposite in2="hardAlpha" operator="arithmetic" k2="-1" k3="1"/>
<feColorMatrix type="matrix" values="0 0 0 0 1 0 0 0 0 1 0 0 0 0 1 0 0 0 0.08 0"/>
<feBlend mode="normal" in2="effect1_innerShadow" result="effect2_innerShadow"/>
</filter>
<filter id="filter1_d" x="9" y="17.002" width="46" height="36" filterUnits="userSpaceOnUse" color-interpolation-filters="sRGB">
<feFlood flood-opacity="0" result="BackgroundImageFix"/>
<feColorMatrix in="SourceAlpha" type="matrix" values="0 0 0 0 0 0 0 0 0 0 0 0 0 0 0 0 0 0 127 0" result="hardAlpha"/>
<feOffset dy="4"/>
<feGaussianBlur stdDeviation="2"/>
<feColorMatrix type="matrix" values="0 0 0 0 0 0 0 0 0 0 0 0 0 0 0 0 0 0 0.25 0"/>
<feBlend mode="normal" in2="BackgroundImageFix" result="effect1_dropShadow"/>
<feBlend mode="normal" in="SourceGraphic" in2="effect1_dropShadow" result="shape"/>
</filter>
<linearGradient id="paint0_linear" x1="61" y1="61.002" x2="1" y2="1.00195" gradientUnits="userSpaceOnUse">
<stop stop-color="white" stop-opacity="0.19"/>
<stop offset="0.615863" stop-color="#353535" stop-opacity="0.206697"/>
<stop offset="1" stop-opacity="0"/>
</linearGradient>
<radialGradient id="paint1_radial" cx="0" cy="0" r="1" gradientUnits="userSpaceOnUse" gradientTransform="translate(55.5 56.002) rotate(142.806) scale(88.5014)">
<stop offset="0.173752" stop-color="#4DC5D6"/>
<stop offset="1" stop-opacity="0"/>
</radialGradient>
<linearGradient id="paint2_linear" x1="3" y1="1.00195" x2="59.5" y2="61.002" gradientUnits="userSpaceOnUse">
<stop stop-color="#D2E3FF"/>
<stop offset="1" stop-opacity="0"/>
</linearGradient>
<linearGradient id="paint3_linear" x1="-0.111494" y1="23.4565" x2="18.2733" y2="29.8205" gradientUnits="userSpaceOnUse">
<stop stop-color="white"/>
<stop offset="1" stop-color="white" stop-opacity="0"/>
</linearGradient>
<linearGradient id="paint4_linear" x1="-0.111532" y1="19.9214" x2="18.2732" y2="26.2854" gradientUnits="userSpaceOnUse">
<stop stop-color="white"/>
<stop offset="1" stop-color="white" stop-opacity="0"/>
</linearGradient>
<linearGradient id="paint5_linear" x1="-2.31509" y1="24.0829" x2="15.6815" y2="30.4898" gradientUnits="userSpaceOnUse">
<stop stop-color="white"/>
<stop offset="1" stop-color="white" stop-opacity="0"/>
</linearGradient>
<linearGradient id="paint6_linear" x1="21.4526" y1="0.889482" x2="27.8166" y2="19.2743" gradientUnits="userSpaceOnUse">
<stop stop-color="white"/>
<stop offset="1" stop-color="white" stop-opacity="0"/>
</linearGradient>
<linearGradient id="paint7_linear" x1="17.9195" y1="0.889444" x2="24.2834" y2="19.2742" gradientUnits="userSpaceOnUse">
<stop stop-color="white"/>
<stop offset="1" stop-color="white" stop-opacity="0"/>
</linearGradient>
<linearGradient id="paint8_linear" x1="22.0809" y1="-1.31411" x2="28.4878" y2="16.6825" gradientUnits="userSpaceOnUse">
<stop stop-color="white"/>
<stop offset="1" stop-color="white" stop-opacity="0"/>
</linearGradient>
<linearGradient id="paint9_linear" x1="9.2" y1="14.202" x2="38.3097" y2="55.1446" gradientUnits="userSpaceOnUse">
<stop stop-color="white"/>
<stop offset="0.119792" stop-color="#B7B7B7"/>
<stop offset="0.213542" stop-color="white"/>
<stop offset="0.327182" stop-color="#9C9C9C"/>
<stop offset="0.545501" stop-color="#403F3A"/>
<stop offset="0.777051" stop-color="#9C9C9C"/>
<stop offset="0.963542" stop-color="white"/>
</linearGradient>
<linearGradient id="paint10_linear" x1="39.125" y1="28.8145" x2="20.0945" y2="59.5773" gradientUnits="userSpaceOnUse">
<stop stop-color="white"/>
<stop offset="1" stop-opacity="0"/>
</linearGradient>
<linearGradient id="paint11_linear" x1="45.5" y1="12" x2="32" y2="23.002" gradientUnits="userSpaceOnUse">
<stop stop-color="white"/>
<stop offset="1" stop-opacity="0"/>
</linearGradient>
<linearGradient id="paint12_linear" x1="45.5" y1="17" x2="32" y2="28.002" gradientUnits="userSpaceOnUse">
<stop stop-color="white"/>
<stop offset="1" stop-opacity="0"/>
</linearGradient>
<clipPath id="clip0">
<rect width="62" height="62" fill="white"/>
</clipPath>
</defs>
</svg>
