<svg width="62" height="62" viewBox="0 0 62 62" fill="none" xmlns="http://www.w3.org/2000/svg">
<g clip-path="url(#clip0)">
<g filter="url(#filter0_ii)">
<rect x="1" y="1" width="60" height="60" rx="4" fill="#08162D"/>
<rect x="1" y="1" width="60" height="60" rx="4" fill="url(#paint0_linear)" fill-opacity="0.2"/>
<rect x="1" y="1" width="60" height="60" rx="4" fill="url(#paint1_radial)" fill-opacity="0.6"/>
</g>
<rect x="0.5" y="0.5" width="61" height="61" rx="4.5" stroke="#3F83F3"/>
<rect x="0.5" y="0.5" width="61" height="61" rx="4.5" stroke="url(#paint2_linear)"/>
<path d="M18.282 19.2343L30.632 11.589L42.9821 19.2343L30.632 26.8796L18.282 19.2343Z" stroke="black"/>
<path d="M18.282 19.2343L30.632 11.589L42.9821 19.2343L30.632 26.8796L18.282 19.2343Z" stroke="url(#paint3_linear)"/>
<path d="M6.56445 74.3339C20.4978 70.5339 29.9978 52.8005 29.9978 38.8672" stroke="url(#paint4_linear)" stroke-opacity="0.2"/>
<path d="M-8 41.401C0.666666 41.401 6.66667 39.121 17.3333 30.001" stroke="url(#paint5_linear)" stroke-opacity="0.2"/>
<path d="M-8 47.734C0.666666 47.734 6.66667 45.454 17.3333 36.334" stroke="url(#paint6_linear)" stroke-opacity="0.2"/>
<path d="M-8 52.8004C1.1 52.8004 7.4 50.5204 18.6 41.4004" stroke="url(#paint7_linear)" stroke-opacity="0.2"/>
<path d="M-8 59.1339C3.7 59.1339 11.8 55.0805 26.2 38.8672" stroke="url(#paint8_linear)" stroke-opacity="0.2"/>
<path d="M-8 68.0001C3.26667 68.0001 11.0667 63.9467 24.9333 47.7334" stroke="url(#paint9_linear)" stroke-opacity="0.2"/>
<path d="M53.4336 74.3348C39.5003 70.5348 30.0003 52.8015 30.0003 38.8682" stroke="url(#paint10_linear)" stroke-opacity="0.2"/>
<path d="M68 36.3344C60.2 36.3344 54.8 34.5611 45.2 27.4678" stroke="url(#paint11_linear)" stroke-opacity="0.2"/>
<path d="M-8 36.3344C-0.2 36.3344 5.2 34.5611 14.8 27.4678" stroke="url(#paint12_linear)" stroke-opacity="0.2"/>
<path d="M68 41.402C59.3333 41.402 53.3333 39.122 42.6667 30.002" stroke="url(#paint13_linear)" stroke-opacity="0.2"/>
<path d="M68 47.734C59.3333 47.734 53.3333 45.454 42.6667 36.334" stroke="url(#paint14_linear)" stroke-opacity="0.2"/>
<path d="M68 52.8014C58.9 52.8014 52.6 50.5214 41.4 41.4014" stroke="url(#paint15_linear)" stroke-opacity="0.2"/>
<path d="M68 59.1348C56.3 59.1348 48.2 55.0815 33.8 38.8682" stroke="url(#paint16_linear)" stroke-opacity="0.2"/>
<path d="M68 68.001C56.7333 68.001 48.9333 63.9477 35.0667 47.7344" stroke="url(#paint17_linear)" stroke-opacity="0.2"/>
<g filter="url(#filter1_d)">
<ellipse cx="30.0001" cy="36.9671" rx="21.5333" ry="14.5667" fill="#1B1F27"/>
</g>
<path d="M51.5335 36.9671C51.5335 45.012 41.8927 51.5337 30.0001 51.5337C18.1076 51.5337 8.4668 45.012 8.4668 36.9671C8.4668 28.9221 18.1076 22.4004 30.0001 22.4004C41.8927 22.4004 51.5335 28.9221 51.5335 36.9671Z" fill="url(#paint18_radial)"/>
<path d="M49 39.5011C49 46.1469 40.4934 51.5344 30 51.5344C19.5066 51.5344 11 46.1469 11 39.5011C11 32.8553 19.5066 27.4678 30 27.4678C40.4934 27.4678 49 32.8553 49 39.5011Z" fill="#191D25"/>
<path d="M16.0645 19.8672L29.9978 28.7339V45.2005L16.0645 36.3339V19.8672Z" fill="white"/>
<path d="M44.6973 36.0594V20.778L31.7639 29.0083V44.2897L44.6973 36.0594Z" stroke="url(#paint19_linear)"/>
</g>
<defs>
<filter id="filter0_ii" x="-2" y="-2" width="66" height="66" filterUnits="userSpaceOnUse" color-interpolation-filters="sRGB">
<feFlood flood-opacity="0" result="BackgroundImageFix"/>
<feBlend mode="normal" in="SourceGraphic" in2="BackgroundImageFix" result="shape"/>
<feColorMatrix in="SourceAlpha" type="matrix" values="0 0 0 0 0 0 0 0 0 0 0 0 0 0 0 0 0 0 127 0" result="hardAlpha"/>
<feOffset dx="2" dy="2"/>
<feGaussianBlur stdDeviation="1"/>
<feComposite in2="hardAlpha" operator="arithmetic" k2="-1" k3="1"/>
<feColorMatrix type="matrix" values="0 0 0 0 0 0 0 0 0 0 0 0 0 0 0 0 0 0 0.2 0"/>
<feBlend mode="normal" in2="shape" result="effect1_innerShadow"/>
<feColorMatrix in="SourceAlpha" type="matrix" values="0 0 0 0 0 0 0 0 0 0 0 0 0 0 0 0 0 0 127 0" result="hardAlpha"/>
<feOffset dx="-2" dy="-2"/>
<feGaussianBlur stdDeviation="1"/>
<feComposite in2="hardAlpha" operator="arithmetic" k2="-1" k3="1"/>
<feColorMatrix type="matrix" values="0 0 0 0 1 0 0 0 0 1 0 0 0 0 1 0 0 0 0.08 0"/>
<feBlend mode="normal" in2="effect1_innerShadow" result="effect2_innerShadow"/>
</filter>
<filter id="filter1_d" x="4.4668" y="20.4004" width="51.0667" height="37.1333" filterUnits="userSpaceOnUse" color-interpolation-filters="sRGB">
<feFlood flood-opacity="0" result="BackgroundImageFix"/>
<feColorMatrix in="SourceAlpha" type="matrix" values="0 0 0 0 0 0 0 0 0 0 0 0 0 0 0 0 0 0 127 0" result="hardAlpha"/>
<feOffset dy="2"/>
<feGaussianBlur stdDeviation="2"/>
<feColorMatrix type="matrix" values="0 0 0 0 0.247059 0 0 0 0 0.513726 0 0 0 0 0.952941 0 0 0 1 0"/>
<feBlend mode="normal" in2="BackgroundImageFix" result="effect1_dropShadow"/>
<feBlend mode="normal" in="SourceGraphic" in2="effect1_dropShadow" result="shape"/>
</filter>
<linearGradient id="paint0_linear" x1="61" y1="61" x2="1" y2="1" gradientUnits="userSpaceOnUse">
<stop stop-color="white" stop-opacity="0.19"/>
<stop offset="0.615863" stop-color="#353535" stop-opacity="0.206697"/>
<stop offset="1" stop-opacity="0"/>
</linearGradient>
<radialGradient id="paint1_radial" cx="0" cy="0" r="1" gradientUnits="userSpaceOnUse" gradientTransform="translate(31 -21.5) rotate(88.727) scale(135.033)">
<stop offset="0.173752" stop-color="#2A70EA"/>
<stop offset="0.475301" stop-opacity="0"/>
</radialGradient>
<linearGradient id="paint2_linear" x1="3" y1="1" x2="59.5" y2="61" gradientUnits="userSpaceOnUse">
<stop stop-color="#D2E3FF"/>
<stop offset="1" stop-opacity="0"/>
</linearGradient>
<linearGradient id="paint3_linear" x1="29.3654" y1="11.6343" x2="30.632" y2="28.101" gradientUnits="userSpaceOnUse">
<stop stop-color="white"/>
<stop offset="1" stop-color="white" stop-opacity="0"/>
</linearGradient>
<linearGradient id="paint4_linear" x1="9.88014" y1="70.2538" x2="25.9359" y2="69.3331" gradientUnits="userSpaceOnUse">
<stop stop-color="#13171E"/>
<stop offset="1" stop-color="#3261AE"/>
</linearGradient>
<linearGradient id="paint5_linear" x1="-8" y1="39.881" x2="9.53775" y2="36.3308" gradientUnits="userSpaceOnUse">
<stop stop-color="#13171E"/>
<stop offset="1" stop-color="#3261AE"/>
</linearGradient>
<linearGradient id="paint6_linear" x1="-8" y1="46.214" x2="9.53775" y2="42.6638" gradientUnits="userSpaceOnUse">
<stop stop-color="#13171E"/>
<stop offset="1" stop-color="#3261AE"/>
</linearGradient>
<linearGradient id="paint7_linear" x1="-8" y1="51.2804" x2="10.3406" y2="47.3821" gradientUnits="userSpaceOnUse">
<stop stop-color="#13171E"/>
<stop offset="1" stop-color="#3261AE"/>
</linearGradient>
<linearGradient id="paint8_linear" x1="-8" y1="56.4316" x2="16.0772" y2="52.7305" gradientUnits="userSpaceOnUse">
<stop stop-color="#13171E"/>
<stop offset="1" stop-color="#3261AE"/>
</linearGradient>
<linearGradient id="paint9_linear" x1="-8" y1="65.2978" x2="15.2244" y2="61.86" gradientUnits="userSpaceOnUse">
<stop stop-color="#13171E"/>
<stop offset="1" stop-color="#3261AE"/>
</linearGradient>
<linearGradient id="paint10_linear" x1="50.1179" y1="70.2548" x2="34.0621" y2="69.3341" gradientUnits="userSpaceOnUse">
<stop stop-color="#13171E"/>
<stop offset="1" stop-color="#3261AE"/>
</linearGradient>
<linearGradient id="paint11_linear" x1="68" y1="35.1522" x2="52.4239" y2="31.5037" gradientUnits="userSpaceOnUse">
<stop stop-color="#13171E"/>
<stop offset="1" stop-color="#3261AE"/>
</linearGradient>
<linearGradient id="paint12_linear" x1="-8" y1="35.1522" x2="7.57613" y2="31.5037" gradientUnits="userSpaceOnUse">
<stop stop-color="#13171E"/>
<stop offset="1" stop-color="#3261AE"/>
</linearGradient>
<linearGradient id="paint13_linear" x1="68" y1="39.882" x2="50.4622" y2="36.3318" gradientUnits="userSpaceOnUse">
<stop stop-color="#13171E"/>
<stop offset="1" stop-color="#3261AE"/>
</linearGradient>
<linearGradient id="paint14_linear" x1="68" y1="46.214" x2="50.4622" y2="42.6638" gradientUnits="userSpaceOnUse">
<stop stop-color="#13171E"/>
<stop offset="1" stop-color="#3261AE"/>
</linearGradient>
<linearGradient id="paint15_linear" x1="68" y1="51.2814" x2="49.6594" y2="47.3831" gradientUnits="userSpaceOnUse">
<stop stop-color="#13171E"/>
<stop offset="1" stop-color="#3261AE"/>
</linearGradient>
<linearGradient id="paint16_linear" x1="68" y1="56.4326" x2="43.9228" y2="52.7315" gradientUnits="userSpaceOnUse">
<stop stop-color="#13171E"/>
<stop offset="1" stop-color="#3261AE"/>
</linearGradient>
<linearGradient id="paint17_linear" x1="68" y1="65.2988" x2="44.7756" y2="61.861" gradientUnits="userSpaceOnUse">
<stop stop-color="#13171E"/>
<stop offset="1" stop-color="#3261AE"/>
</linearGradient>
<radialGradient id="paint18_radial" cx="0" cy="0" r="1" gradientUnits="userSpaceOnUse" gradientTransform="translate(30.0001 36.9671) rotate(-90) scale(24.7 36.513)">
<stop stop-color="#0060FF"/>
<stop offset="1" stop-opacity="0"/>
</radialGradient>
<linearGradient id="paint19_linear" x1="40.1306" y1="30.0005" x2="29.6371" y2="29.2746" gradientUnits="userSpaceOnUse">
<stop stop-color="white"/>
<stop offset="1" stop-color="white" stop-opacity="0"/>
</linearGradient>
<clipPath id="clip0">
<rect width="62" height="62" fill="white"/>
</clipPath>
</defs>
</svg>
