<svg width="62" height="62" viewBox="0 0 62 62" fill="none" xmlns="http://www.w3.org/2000/svg">
<g clip-path="url(#clip0)">
<g filter="url(#filter0_ii)">
<rect x="1" y="1.00195" width="60" height="60" rx="4" fill="black"/>
<rect x="1" y="1.00195" width="60" height="60" rx="4" fill="url(#paint0_linear)" fill-opacity="0.2"/>
<rect x="1" y="1.00195" width="60" height="60" rx="4" fill="url(#paint1_radial)" fill-opacity="0.6"/>
</g>
<rect x="0.5" y="0.501953" width="61" height="61" rx="4.5" stroke="#876CF4"/>
<rect x="0.5" y="0.501953" width="61" height="61" rx="4.5" stroke="url(#paint2_linear)"/>
<g filter="url(#filter1_d)">
<path d="M17.5 19L8 13V22L17.5 28.0001V19Z" fill="#3D3B4C"/>
<path d="M17.5 19L8 13V22L17.5 28.0001V19Z" fill="url(#paint3_linear)" fill-opacity="0.3"/>
<path d="M17.5 19L27 13V22L17.5 28.0001V19Z" fill="#14112A"/>
<path d="M17.5 19L27 13V22L17.5 28.0001V19Z" fill="url(#paint4_linear)" fill-opacity="0.3"/>
<path d="M17.5 18.4087L8.93634 13L17.5 7.59137L26.0637 13L17.5 18.4087Z" fill="#3C375C"/>
<path d="M17.5 18.4087L8.93634 13L17.5 7.59137L26.0637 13L17.5 18.4087Z" fill="url(#paint5_linear)"/>
<path d="M17.5 18.4087L8.93634 13L17.5 7.59137L26.0637 13L17.5 18.4087Z" fill="black" fill-opacity="0.2"/>
<path d="M17.5 18.4087L8.93634 13L17.5 7.59137L26.0637 13L17.5 18.4087Z" stroke="url(#paint6_radial)"/>
</g>
<g opacity="0.9">
<path fill-rule="evenodd" clip-rule="evenodd" d="M54 14H47V54H50C52.2091 54 54 52.2091 54 50V14ZM38 25H45V54H38V25ZM36 32H29V54H36V32ZM27 40H20V50C20 52.2091 21.7909 54 24 54H27V40Z" fill="white"/>
<path fill-rule="evenodd" clip-rule="evenodd" d="M54 14H47V54H50C52.2091 54 54 52.2091 54 50V14ZM38 25H45V54H38V25ZM36 32H29V54H36V32ZM27 40H20V50C20 52.2091 21.7909 54 24 54H27V40Z" fill="url(#paint7_linear)"/>
<path fill-rule="evenodd" clip-rule="evenodd" d="M54 14H47V54H50C52.2091 54 54 52.2091 54 50V14ZM38 25H45V54H38V25ZM36 32H29V54H36V32ZM27 40H20V50C20 52.2091 21.7909 54 24 54H27V40Z" fill="url(#paint8_linear)" fill-opacity="0.7"/>
<path fill-rule="evenodd" clip-rule="evenodd" d="M54 14H47V54H50C52.2091 54 54 52.2091 54 50V14ZM38 25H45V54H38V25ZM36 32H29V54H36V32ZM27 40H20V50C20 52.2091 21.7909 54 24 54H27V40Z" fill="url(#paint9_radial)"/>
</g>
</g>
<defs>
<filter id="filter0_ii" x="-2" y="-1.99805" width="66" height="66" filterUnits="userSpaceOnUse" color-interpolation-filters="sRGB">
<feFlood flood-opacity="0" result="BackgroundImageFix"/>
<feBlend mode="normal" in="SourceGraphic" in2="BackgroundImageFix" result="shape"/>
<feColorMatrix in="SourceAlpha" type="matrix" values="0 0 0 0 0 0 0 0 0 0 0 0 0 0 0 0 0 0 127 0" result="hardAlpha"/>
<feOffset dx="2" dy="2"/>
<feGaussianBlur stdDeviation="1"/>
<feComposite in2="hardAlpha" operator="arithmetic" k2="-1" k3="1"/>
<feColorMatrix type="matrix" values="0 0 0 0 0 0 0 0 0 0 0 0 0 0 0 0 0 0 0.2 0"/>
<feBlend mode="normal" in2="shape" result="effect1_innerShadow"/>
<feColorMatrix in="SourceAlpha" type="matrix" values="0 0 0 0 0 0 0 0 0 0 0 0 0 0 0 0 0 0 127 0" result="hardAlpha"/>
<feOffset dx="-2" dy="-2"/>
<feGaussianBlur stdDeviation="1"/>
<feComposite in2="hardAlpha" operator="arithmetic" k2="-1" k3="1"/>
<feColorMatrix type="matrix" values="0 0 0 0 1 0 0 0 0 1 0 0 0 0 1 0 0 0 0.08 0"/>
<feBlend mode="normal" in2="effect1_innerShadow" result="effect2_innerShadow"/>
</filter>
<filter id="filter1_d" x="-12" y="-13" width="59" height="61.0001" filterUnits="userSpaceOnUse" color-interpolation-filters="sRGB">
<feFlood flood-opacity="0" result="BackgroundImageFix"/>
<feColorMatrix in="SourceAlpha" type="matrix" values="0 0 0 0 0 0 0 0 0 0 0 0 0 0 0 0 0 0 127 0" result="hardAlpha"/>
<feOffset/>
<feGaussianBlur stdDeviation="10"/>
<feColorMatrix type="matrix" values="0 0 0 0 0.121569 0 0 0 0 0.133333 0 0 0 0 0.180392 0 0 0 1 0"/>
<feBlend mode="normal" in2="BackgroundImageFix" result="effect1_dropShadow"/>
<feBlend mode="normal" in="SourceGraphic" in2="effect1_dropShadow" result="shape"/>
</filter>
<linearGradient id="paint0_linear" x1="61" y1="61.002" x2="1" y2="1.00195" gradientUnits="userSpaceOnUse">
<stop stop-color="white" stop-opacity="0.19"/>
<stop offset="0.615863" stop-color="#353535" stop-opacity="0.206697"/>
<stop offset="1" stop-opacity="0"/>
</linearGradient>
<radialGradient id="paint1_radial" cx="0" cy="0" r="1" gradientUnits="userSpaceOnUse" gradientTransform="translate(55.5 56.002) rotate(142.806) scale(88.5014)">
<stop offset="0.173752" stop-color="#604DD6"/>
<stop offset="1" stop-opacity="0"/>
</radialGradient>
<linearGradient id="paint2_linear" x1="3" y1="1.00195" x2="59.5" y2="61.002" gradientUnits="userSpaceOnUse">
<stop stop-color="#D2E3FF"/>
<stop offset="1" stop-opacity="0"/>
</linearGradient>
<linearGradient id="paint3_linear" x1="16.2333" y1="10.7055" x2="-3.14573" y2="35.9215" gradientUnits="userSpaceOnUse">
<stop stop-color="white"/>
<stop offset="0.119792" stop-color="#B7B7B7"/>
<stop offset="0.213542" stop-color="white"/>
<stop offset="0.327182" stop-color="#9C9C9C"/>
<stop offset="0.545501" stop-color="#181818"/>
<stop offset="0.777051" stop-color="#9C9C9C"/>
<stop offset="0.963542" stop-color="white"/>
</linearGradient>
<linearGradient id="paint4_linear" x1="28.9" y1="27.9997" x2="-2.73856" y2="28.2648" gradientUnits="userSpaceOnUse">
<stop stop-color="white"/>
<stop offset="0.0254508" stop-color="#B7B7B7"/>
<stop offset="0.213542" stop-color="white"/>
<stop offset="0.327182" stop-color="#9C9C9C"/>
<stop offset="0.545501" stop-color="#181818"/>
<stop offset="0.777051" stop-color="#9C9C9C"/>
<stop offset="0.963542" stop-color="white"/>
</linearGradient>
<linearGradient id="paint5_linear" x1="20.0333" y1="5.14706" x2="1.02095" y2="33.9428" gradientUnits="userSpaceOnUse">
<stop stop-color="white"/>
<stop offset="0.119792" stop-color="#B7B7B7"/>
<stop offset="0.213542" stop-color="white"/>
<stop offset="0.327182" stop-color="#9C9C9C"/>
<stop offset="0.545501" stop-color="#181818"/>
<stop offset="0.777051" stop-color="#9C9C9C"/>
<stop offset="0.963542" stop-color="white"/>
</linearGradient>
<radialGradient id="paint6_radial" cx="0" cy="0" r="1" gradientUnits="userSpaceOnUse" gradientTransform="translate(13.5417 3.99999) rotate(96.3402) scale(14.3378 22.673)">
<stop/>
<stop offset="1" stop-opacity="0"/>
</radialGradient>
<linearGradient id="paint7_linear" x1="46.75" y1="27.4127" x2="15.7982" y2="59.9425" gradientUnits="userSpaceOnUse">
<stop stop-color="white"/>
<stop offset="1" stop-opacity="0"/>
</linearGradient>
<linearGradient id="paint8_linear" x1="40" y1="10.2002" x2="60.7702" y2="60.9954" gradientUnits="userSpaceOnUse">
<stop stop-color="white"/>
<stop offset="0.119792" stop-color="#B7B7B7"/>
<stop offset="0.213542" stop-color="white"/>
<stop offset="0.327182" stop-color="#9C9C9C"/>
<stop offset="0.545501" stop-color="#403F3A"/>
<stop offset="0.777051" stop-color="#9C9C9C"/>
<stop offset="0.963542" stop-color="white"/>
</linearGradient>
<radialGradient id="paint9_radial" cx="0" cy="0" r="1" gradientUnits="userSpaceOnUse" gradientTransform="translate(37 32.5) rotate(83.8298) scale(18.6078 16.7157)">
<stop stop-color="white"/>
<stop offset="1" stop-color="white" stop-opacity="0"/>
</radialGradient>
<clipPath id="clip0">
<rect width="62" height="62" fill="white"/>
</clipPath>
</defs>
</svg>
