<svg width="62" height="62" viewBox="0 0 62 62" fill="none" xmlns="http://www.w3.org/2000/svg">
<g clip-path="url(#clip0)">
<rect width="62" height="62" fill="#141821"/>
<g filter="url(#filter0_ii)">
<rect x="1" y="1.00195" width="60" height="60" rx="4" fill="black"/>
<rect x="1" y="1.00195" width="60" height="60" rx="4" fill="url(#paint0_linear)" fill-opacity="0.2"/>
<rect x="1" y="1.00195" width="60" height="60" rx="4" fill="url(#paint1_radial)" fill-opacity="0.6"/>
</g>
<rect x="0.5" y="0.501953" width="61" height="61" rx="4.5" stroke="#33F5EA"/>
<rect x="0.5" y="0.501953" width="61" height="61" rx="4.5" stroke="url(#paint2_linear)"/>
<path d="M20 27.5L9.5 17.5L1 17.5" stroke="url(#paint3_linear)"/>
<path d="M20 23.502L10.5 14.502L1 14.502" stroke="url(#paint4_linear)"/>
<path d="M18 29.502L8.5 20.5039L0.999999 20.502" stroke="url(#paint5_linear)"/>
<path d="M25.4961 21.001L15.4961 10.501L15.4961 1.00098" stroke="url(#paint6_linear)"/>
<path d="M21.5 21.001L12.5 11.501L12.5 1.00098" stroke="url(#paint7_linear)"/>
<path d="M27.5 19.001L18.502 9.50098L18.502 1.00098" stroke="url(#paint8_linear)"/>
<path d="M18.4909 20.5922L33.0329 11.59L47.5748 20.5922L33.0329 29.5943L18.4909 20.5922Z" stroke="black"/>
<path d="M18.4909 20.5922L33.0329 11.59L47.5748 20.5922L33.0329 29.5943L18.4909 20.5922Z" stroke="url(#paint9_linear)"/>
<path d="M16.0645 21.3301L32.294 31.658V50.8384L16.0645 40.5105V21.3301Z" fill="white"/>
<path d="M49.5 40.236V22.2409L34.2704 31.9325V49.9276L49.5 40.236Z" stroke="url(#paint10_linear)"/>
</g>
<defs>
<filter id="filter0_ii" x="-2" y="-1.99805" width="66" height="66" filterUnits="userSpaceOnUse" color-interpolation-filters="sRGB">
<feFlood flood-opacity="0" result="BackgroundImageFix"/>
<feBlend mode="normal" in="SourceGraphic" in2="BackgroundImageFix" result="shape"/>
<feColorMatrix in="SourceAlpha" type="matrix" values="0 0 0 0 0 0 0 0 0 0 0 0 0 0 0 0 0 0 127 0" result="hardAlpha"/>
<feOffset dx="2" dy="2"/>
<feGaussianBlur stdDeviation="1"/>
<feComposite in2="hardAlpha" operator="arithmetic" k2="-1" k3="1"/>
<feColorMatrix type="matrix" values="0 0 0 0 0 0 0 0 0 0 0 0 0 0 0 0 0 0 0.2 0"/>
<feBlend mode="normal" in2="shape" result="effect1_innerShadow"/>
<feColorMatrix in="SourceAlpha" type="matrix" values="0 0 0 0 0 0 0 0 0 0 0 0 0 0 0 0 0 0 127 0" result="hardAlpha"/>
<feOffset dx="-2" dy="-2"/>
<feGaussianBlur stdDeviation="1"/>
<feComposite in2="hardAlpha" operator="arithmetic" k2="-1" k3="1"/>
<feColorMatrix type="matrix" values="0 0 0 0 1 0 0 0 0 1 0 0 0 0 1 0 0 0 0.08 0"/>
<feBlend mode="normal" in2="effect1_innerShadow" result="effect2_innerShadow"/>
</filter>
<linearGradient id="paint0_linear" x1="61" y1="61.002" x2="1" y2="1.00195" gradientUnits="userSpaceOnUse">
<stop stop-color="white" stop-opacity="0.19"/>
<stop offset="0.615863" stop-color="#353535" stop-opacity="0.206697"/>
<stop offset="1" stop-opacity="0"/>
</linearGradient>
<radialGradient id="paint1_radial" cx="0" cy="0" r="1" gradientUnits="userSpaceOnUse" gradientTransform="translate(55.5 56.002) rotate(142.806) scale(88.5014)">
<stop offset="0.173752" stop-color="#4DC5D6"/>
<stop offset="1" stop-opacity="0"/>
</radialGradient>
<linearGradient id="paint2_linear" x1="3" y1="1.00195" x2="59.5" y2="61.002" gradientUnits="userSpaceOnUse">
<stop stop-color="#D2E3FF"/>
<stop offset="1" stop-opacity="0"/>
</linearGradient>
<linearGradient id="paint3_linear" x1="-0.111494" y1="23.4565" x2="18.2733" y2="29.8205" gradientUnits="userSpaceOnUse">
<stop stop-color="white"/>
<stop offset="1" stop-color="white" stop-opacity="0"/>
</linearGradient>
<linearGradient id="paint4_linear" x1="-0.111532" y1="19.9214" x2="18.2732" y2="26.2854" gradientUnits="userSpaceOnUse">
<stop stop-color="white"/>
<stop offset="1" stop-color="white" stop-opacity="0"/>
</linearGradient>
<linearGradient id="paint5_linear" x1="-2.31509" y1="24.0829" x2="15.6815" y2="30.4898" gradientUnits="userSpaceOnUse">
<stop stop-color="white"/>
<stop offset="1" stop-color="white" stop-opacity="0"/>
</linearGradient>
<linearGradient id="paint6_linear" x1="21.4526" y1="0.889482" x2="27.8166" y2="19.2743" gradientUnits="userSpaceOnUse">
<stop stop-color="white"/>
<stop offset="1" stop-color="white" stop-opacity="0"/>
</linearGradient>
<linearGradient id="paint7_linear" x1="17.9195" y1="0.889444" x2="24.2834" y2="19.2742" gradientUnits="userSpaceOnUse">
<stop stop-color="white"/>
<stop offset="1" stop-color="white" stop-opacity="0"/>
</linearGradient>
<linearGradient id="paint8_linear" x1="22.0809" y1="-1.31411" x2="28.4878" y2="16.6825" gradientUnits="userSpaceOnUse">
<stop stop-color="white"/>
<stop offset="1" stop-color="white" stop-opacity="0"/>
</linearGradient>
<linearGradient id="paint9_linear" x1="31.5575" y1="11.7397" x2="33.0329" y2="30.9201" gradientUnits="userSpaceOnUse">
<stop stop-color="white"/>
<stop offset="1" stop-color="white" stop-opacity="0"/>
</linearGradient>
<linearGradient id="paint10_linear" x1="44.0983" y1="33.1334" x2="31.8755" y2="32.2879" gradientUnits="userSpaceOnUse">
<stop stop-color="white"/>
<stop offset="1" stop-color="white" stop-opacity="0"/>
</linearGradient>
<clipPath id="clip0">
<rect width="62" height="62" fill="white"/>
</clipPath>
</defs>
</svg>
