<svg width="62" height="62" viewBox="0 0 62 62" fill="none" xmlns="http://www.w3.org/2000/svg">
<g clip-path="url(#clip0)">
<g filter="url(#filter0_ii)">
<rect x="1" y="1.00195" width="60" height="60" rx="4" fill="black"/>
<rect x="1" y="1.00195" width="60" height="60" rx="4" fill="url(#paint0_linear)" fill-opacity="0.2"/>
<rect x="1" y="1.00195" width="60" height="60" rx="4" fill="url(#paint1_radial)" fill-opacity="0.6"/>
</g>
<rect x="0.5" y="0.501953" width="61" height="61" rx="4.5" stroke="#876CF4"/>
<rect x="0.5" y="0.501953" width="61" height="61" rx="4.5" stroke="url(#paint2_linear)"/>
<mask id="mask0" mask-type="alpha" maskUnits="userSpaceOnUse" x="1" y="1" width="60" height="60">
<rect x="1" y="1" width="60" height="60" fill="url(#paint3_linear)"/>
</mask>
<g mask="url(#mask0)">
<path d="M47.8246 28.6272L24.8124 51.6313C23.1064 49.9681 23.4903 46.923 25.58 44.8077L41.0266 29.3608C41.0266 29.3608 44.8222 25.6077 47.8246 28.6272Z" fill="url(#paint4_linear)"/>
<path d="M33.0851 31.3141C28.1123 30.265 23.3443 35.0245 23.3443 35.0245L12 46.3688L15.0195 49.3798L33.0851 31.3141Z" fill="url(#paint5_linear)"/>
<path opacity="0.5" d="M33.0851 31.3135L15.0195 49.3791L18.0304 52.3986L36.9405 33.4885C35.899 32.3978 34.5572 31.6408 33.0851 31.3135Z" fill="url(#paint6_linear)"/>
<path d="M66 28.55L56.8731 37.6685C56.8731 37.6685 52.1137 42.428 47.1324 41.3789C45.6628 41.0514 44.3238 40.2943 43.2856 39.2038L43.0129 39.545C43.0129 39.545 49.0433 45.5754 41.4861 53.1411L30.1418 64.4855L24.1113 58.4551L31.6685 50.8893C29.5788 52.9791 26.5508 53.3203 24.8449 51.657L47.9001 28.5502C50.9111 31.5612 47.1324 35.3739 47.1324 35.3739L59.9525 22.5537L66 28.55Z" fill="url(#paint7_linear)"/>
<path d="M50.3834 14.0109L47.3639 11L37.1321 21.232C33.3535 25.0106 32.9697 28.4139 33.5326 30.8619L50.3834 14.0109Z" fill="url(#paint8_linear)"/>
<path d="M50.6418 13.751L33.5312 30.8613C33.8718 32.3388 34.5854 33.7043 35.6039 34.8275L53.6613 16.7705L50.6418 13.751Z" fill="url(#paint9_linear)"/>
</g>
<g filter="url(#filter1_d)">
<path d="M17.5 19L8 13V22L17.5 28.0001V19Z" fill="#3D3B4C"/>
<path d="M17.5 19L8 13V22L17.5 28.0001V19Z" fill="url(#paint10_linear)" fill-opacity="0.3"/>
<path d="M17.5 19L27 13V22L17.5 28.0001V19Z" fill="#14112A"/>
<path d="M17.5 19L27 13V22L17.5 28.0001V19Z" fill="url(#paint11_linear)" fill-opacity="0.3"/>
<path d="M17.5 18.4087L8.93634 13L17.5 7.59137L26.0637 13L17.5 18.4087Z" fill="#3C375C"/>
<path d="M17.5 18.4087L8.93634 13L17.5 7.59137L26.0637 13L17.5 18.4087Z" fill="url(#paint12_linear)"/>
<path d="M17.5 18.4087L8.93634 13L17.5 7.59137L26.0637 13L17.5 18.4087Z" fill="black" fill-opacity="0.2"/>
<path d="M17.5 18.4087L8.93634 13L17.5 7.59137L26.0637 13L17.5 18.4087Z" stroke="url(#paint13_radial)"/>
</g>
</g>
<defs>
<filter id="filter0_ii" x="-2" y="-1.99805" width="66" height="66" filterUnits="userSpaceOnUse" color-interpolation-filters="sRGB">
<feFlood flood-opacity="0" result="BackgroundImageFix"/>
<feBlend mode="normal" in="SourceGraphic" in2="BackgroundImageFix" result="shape"/>
<feColorMatrix in="SourceAlpha" type="matrix" values="0 0 0 0 0 0 0 0 0 0 0 0 0 0 0 0 0 0 127 0" result="hardAlpha"/>
<feOffset dx="2" dy="2"/>
<feGaussianBlur stdDeviation="1"/>
<feComposite in2="hardAlpha" operator="arithmetic" k2="-1" k3="1"/>
<feColorMatrix type="matrix" values="0 0 0 0 0 0 0 0 0 0 0 0 0 0 0 0 0 0 0.2 0"/>
<feBlend mode="normal" in2="shape" result="effect1_innerShadow"/>
<feColorMatrix in="SourceAlpha" type="matrix" values="0 0 0 0 0 0 0 0 0 0 0 0 0 0 0 0 0 0 127 0" result="hardAlpha"/>
<feOffset dx="-2" dy="-2"/>
<feGaussianBlur stdDeviation="1"/>
<feComposite in2="hardAlpha" operator="arithmetic" k2="-1" k3="1"/>
<feColorMatrix type="matrix" values="0 0 0 0 1 0 0 0 0 1 0 0 0 0 1 0 0 0 0.08 0"/>
<feBlend mode="normal" in2="effect1_innerShadow" result="effect2_innerShadow"/>
</filter>
<filter id="filter1_d" x="-12" y="-13" width="59" height="61.0001" filterUnits="userSpaceOnUse" color-interpolation-filters="sRGB">
<feFlood flood-opacity="0" result="BackgroundImageFix"/>
<feColorMatrix in="SourceAlpha" type="matrix" values="0 0 0 0 0 0 0 0 0 0 0 0 0 0 0 0 0 0 127 0" result="hardAlpha"/>
<feOffset/>
<feGaussianBlur stdDeviation="10"/>
<feColorMatrix type="matrix" values="0 0 0 0 0.121569 0 0 0 0 0.133333 0 0 0 0 0.180392 0 0 0 1 0"/>
<feBlend mode="normal" in2="BackgroundImageFix" result="effect1_dropShadow"/>
<feBlend mode="normal" in="SourceGraphic" in2="effect1_dropShadow" result="shape"/>
</filter>
<linearGradient id="paint0_linear" x1="61" y1="61.002" x2="1" y2="1.00195" gradientUnits="userSpaceOnUse">
<stop stop-color="white" stop-opacity="0.19"/>
<stop offset="0.615863" stop-color="#353535" stop-opacity="0.206697"/>
<stop offset="1" stop-opacity="0"/>
</linearGradient>
<radialGradient id="paint1_radial" cx="0" cy="0" r="1" gradientUnits="userSpaceOnUse" gradientTransform="translate(55.5 56.002) rotate(142.806) scale(88.5014)">
<stop offset="0.173752" stop-color="#604DD6"/>
<stop offset="1" stop-opacity="0"/>
</radialGradient>
<linearGradient id="paint2_linear" x1="3" y1="1.00195" x2="59.5" y2="61.002" gradientUnits="userSpaceOnUse">
<stop stop-color="#D2E3FF"/>
<stop offset="1" stop-opacity="0"/>
</linearGradient>
<linearGradient id="paint3_linear" x1="48.5" y1="13" x2="13" y2="49" gradientUnits="userSpaceOnUse">
<stop stop-opacity="0"/>
<stop offset="0.230189" stop-opacity="0.31"/>
<stop offset="0.560767"/>
<stop offset="1" stop-opacity="0"/>
</linearGradient>
<linearGradient id="paint4_linear" x1="9.15562" y1="8.38039" x2="-4.59131" y2="78.1662" gradientUnits="userSpaceOnUse">
<stop stop-color="white"/>
<stop offset="0.119792" stop-color="#B7B7B7"/>
<stop offset="0.213542" stop-color="white"/>
<stop offset="0.327182" stop-color="#9C9C9C"/>
<stop offset="0.545501" stop-color="#181818"/>
<stop offset="0.777051" stop-color="#9C9C9C"/>
<stop offset="0.963542" stop-color="white"/>
</linearGradient>
<linearGradient id="paint5_linear" x1="4.09309" y1="29.1706" x2="-1.49668" y2="62.0947" gradientUnits="userSpaceOnUse">
<stop stop-color="white"/>
<stop offset="0.119792" stop-color="#B7B7B7"/>
<stop offset="0.213542" stop-color="white"/>
<stop offset="0.327182" stop-color="#9C9C9C"/>
<stop offset="0.545501" stop-color="#181818"/>
<stop offset="0.777051" stop-color="#9C9C9C"/>
<stop offset="0.963542" stop-color="white"/>
</linearGradient>
<linearGradient id="paint6_linear" x1="24.5934" y1="37.7261" x2="18.7889" y2="49.8053" gradientUnits="userSpaceOnUse">
<stop/>
<stop offset="1" stop-opacity="0"/>
</linearGradient>
<linearGradient id="paint7_linear" x1="46.5448" y1="28.7126" x2="32.0446" y2="57.7131" gradientUnits="userSpaceOnUse">
<stop/>
<stop offset="1" stop-opacity="0"/>
</linearGradient>
<linearGradient id="paint8_linear" x1="25.0929" y1="3.40148" x2="15.3707" y2="47.2739" gradientUnits="userSpaceOnUse">
<stop stop-color="white"/>
<stop offset="0.119792" stop-color="#B7B7B7"/>
<stop offset="0.213542" stop-color="white"/>
<stop offset="0.327182" stop-color="#9C9C9C"/>
<stop offset="0.545501" stop-color="#181818"/>
<stop offset="0.777051" stop-color="#9C9C9C"/>
<stop offset="0.963542" stop-color="white"/>
</linearGradient>
<linearGradient id="paint9_linear" x1="44.3456" y1="16.9384" x2="36.9361" y2="31.2235" gradientUnits="userSpaceOnUse">
<stop/>
<stop offset="1" stop-opacity="0"/>
</linearGradient>
<linearGradient id="paint10_linear" x1="16.2333" y1="10.7055" x2="-3.14573" y2="35.9215" gradientUnits="userSpaceOnUse">
<stop stop-color="white"/>
<stop offset="0.119792" stop-color="#B7B7B7"/>
<stop offset="0.213542" stop-color="white"/>
<stop offset="0.327182" stop-color="#9C9C9C"/>
<stop offset="0.545501" stop-color="#181818"/>
<stop offset="0.777051" stop-color="#9C9C9C"/>
<stop offset="0.963542" stop-color="white"/>
</linearGradient>
<linearGradient id="paint11_linear" x1="28.9" y1="27.9997" x2="-2.73856" y2="28.2648" gradientUnits="userSpaceOnUse">
<stop stop-color="white"/>
<stop offset="0.0254508" stop-color="#B7B7B7"/>
<stop offset="0.213542" stop-color="white"/>
<stop offset="0.327182" stop-color="#9C9C9C"/>
<stop offset="0.545501" stop-color="#181818"/>
<stop offset="0.777051" stop-color="#9C9C9C"/>
<stop offset="0.963542" stop-color="white"/>
</linearGradient>
<linearGradient id="paint12_linear" x1="20.0333" y1="5.14706" x2="1.02095" y2="33.9428" gradientUnits="userSpaceOnUse">
<stop stop-color="white"/>
<stop offset="0.119792" stop-color="#B7B7B7"/>
<stop offset="0.213542" stop-color="white"/>
<stop offset="0.327182" stop-color="#9C9C9C"/>
<stop offset="0.545501" stop-color="#181818"/>
<stop offset="0.777051" stop-color="#9C9C9C"/>
<stop offset="0.963542" stop-color="white"/>
</linearGradient>
<radialGradient id="paint13_radial" cx="0" cy="0" r="1" gradientUnits="userSpaceOnUse" gradientTransform="translate(13.5417 3.99999) rotate(96.3402) scale(14.3378 22.673)">
<stop/>
<stop offset="1" stop-opacity="0"/>
</radialGradient>
<clipPath id="clip0">
<rect width="62" height="62" fill="white"/>
</clipPath>
</defs>
</svg>
