<svg width="62" height="62" viewBox="0 0 62 62" fill="none" xmlns="http://www.w3.org/2000/svg">
<g clip-path="url(#clip0)">
<g filter="url(#filter0_ii)">
<rect x="1" y="1.00195" width="60" height="60" rx="4" fill="black"/>
<rect x="1" y="1.00195" width="60" height="60" rx="4" fill="url(#paint0_linear)" fill-opacity="0.2"/>
<rect x="1" y="1.00195" width="60" height="60" rx="4" fill="url(#paint1_radial)" fill-opacity="0.6"/>
</g>
<rect x="0.5" y="0.501953" width="61" height="61" rx="4.5" stroke="#876CF4"/>
<rect x="0.5" y="0.501953" width="61" height="61" rx="4.5" stroke="url(#paint2_linear)"/>
<path d="M19.875 27.5L9.375 17.5L0.875001 17.5" stroke="url(#paint3_linear)"/>
<path d="M19.875 23.502L10.375 14.502L0.875001 14.502" stroke="url(#paint4_linear)"/>
<path d="M17.875 29.502L8.375 20.5039L0.874999 20.502" stroke="url(#paint5_linear)"/>
<path d="M25.3711 21.001L15.3711 10.501L15.3711 1.00098" stroke="url(#paint6_linear)"/>
<path d="M21.375 21.001L12.375 11.501L12.375 1.00098" stroke="url(#paint7_linear)"/>
<path d="M27.375 19.001L18.377 9.50098L18.377 1.00098" stroke="url(#paint8_linear)"/>
<path d="M41.875 27.5L52.375 17.5L60.875 17.5" stroke="url(#paint9_linear)"/>
<path d="M41.875 23.502L51.375 14.502L60.875 14.502" stroke="url(#paint10_linear)"/>
<path d="M43.875 29.502L53.375 20.5039L60.875 20.502" stroke="url(#paint11_linear)"/>
<path d="M36.3789 21.001L46.3789 10.501L46.3789 1.00098" stroke="url(#paint12_linear)"/>
<path d="M40.375 21.001L49.375 11.501L49.375 1.00098" stroke="url(#paint13_linear)"/>
<path d="M34.375 19.001L43.373 9.50098L43.373 1.00098" stroke="url(#paint14_linear)"/>
<path d="M41.875 34.5029L52.375 44.5029L60.875 44.5029" stroke="url(#paint15_linear)"/>
<path d="M41.875 38.501L51.375 47.501L60.875 47.501" stroke="url(#paint16_linear)"/>
<path d="M43.875 32.501L53.375 41.499L60.875 41.501" stroke="url(#paint17_linear)"/>
<path d="M36.3809 41L46.3809 51.5L46.3809 61" stroke="url(#paint18_linear)"/>
<path d="M40.377 41.002L49.377 50.502L49.377 61.002" stroke="url(#paint19_linear)"/>
<path d="M34.3789 43L43.377 52.5L43.377 61" stroke="url(#paint20_linear)"/>
<path d="M19.875 34.502L9.375 44.502L0.875 44.502" stroke="url(#paint21_linear)"/>
<path d="M19.875 38.5L10.375 47.5L0.875 47.5" stroke="url(#paint22_linear)"/>
<path d="M17.875 32.5L8.375 41.498L0.874998 41.5" stroke="url(#paint23_linear)"/>
<path d="M25.373 41L15.373 51.5L15.373 61" stroke="url(#paint24_linear)"/>
<path d="M21.375 41.002L12.375 50.502L12.375 61.002" stroke="url(#paint25_linear)"/>
<path d="M27.375 43L18.377 52.5L18.377 61" stroke="url(#paint26_linear)"/>
<path fill-rule="evenodd" clip-rule="evenodd" d="M24 9H20V17.5L24 22H38L42 17V9H38V12H36V9H32V12H30V9H26V12H24V9ZM24 23H38V27H24V23ZM38 28H24L21 49V54H41V49L38 28Z" fill="#C4C4C4"/>
<path fill-rule="evenodd" clip-rule="evenodd" d="M24 9H20V17.5L24 22H38L42 17V9H38V12H36V9H32V12H30V9H26V12H24V9ZM24 23H38V27H24V23ZM38 28H24L21 49V54H41V49L38 28Z" fill="url(#paint27_linear)" fill-opacity="0.6"/>
</g>
<defs>
<filter id="filter0_ii" x="-2" y="-1.99805" width="66" height="66" filterUnits="userSpaceOnUse" color-interpolation-filters="sRGB">
<feFlood flood-opacity="0" result="BackgroundImageFix"/>
<feBlend mode="normal" in="SourceGraphic" in2="BackgroundImageFix" result="shape"/>
<feColorMatrix in="SourceAlpha" type="matrix" values="0 0 0 0 0 0 0 0 0 0 0 0 0 0 0 0 0 0 127 0" result="hardAlpha"/>
<feOffset dx="2" dy="2"/>
<feGaussianBlur stdDeviation="1"/>
<feComposite in2="hardAlpha" operator="arithmetic" k2="-1" k3="1"/>
<feColorMatrix type="matrix" values="0 0 0 0 0 0 0 0 0 0 0 0 0 0 0 0 0 0 0.2 0"/>
<feBlend mode="normal" in2="shape" result="effect1_innerShadow"/>
<feColorMatrix in="SourceAlpha" type="matrix" values="0 0 0 0 0 0 0 0 0 0 0 0 0 0 0 0 0 0 127 0" result="hardAlpha"/>
<feOffset dx="-2" dy="-2"/>
<feGaussianBlur stdDeviation="1"/>
<feComposite in2="hardAlpha" operator="arithmetic" k2="-1" k3="1"/>
<feColorMatrix type="matrix" values="0 0 0 0 1 0 0 0 0 1 0 0 0 0 1 0 0 0 0.08 0"/>
<feBlend mode="normal" in2="effect1_innerShadow" result="effect2_innerShadow"/>
</filter>
<linearGradient id="paint0_linear" x1="61" y1="61.002" x2="1" y2="1.00195" gradientUnits="userSpaceOnUse">
<stop stop-color="white" stop-opacity="0.19"/>
<stop offset="0.615863" stop-color="#353535" stop-opacity="0.206697"/>
<stop offset="1" stop-opacity="0"/>
</linearGradient>
<radialGradient id="paint1_radial" cx="0" cy="0" r="1" gradientUnits="userSpaceOnUse" gradientTransform="translate(55.5 56.002) rotate(142.806) scale(88.5014)">
<stop offset="0.173752" stop-color="#604DD6"/>
<stop offset="1" stop-opacity="0"/>
</radialGradient>
<linearGradient id="paint2_linear" x1="3" y1="1.00195" x2="59.5" y2="61.002" gradientUnits="userSpaceOnUse">
<stop stop-color="#D2E3FF"/>
<stop offset="1" stop-opacity="0"/>
</linearGradient>
<linearGradient id="paint3_linear" x1="-0.236494" y1="23.4565" x2="18.1483" y2="29.8205" gradientUnits="userSpaceOnUse">
<stop stop-color="white"/>
<stop offset="1" stop-color="white" stop-opacity="0"/>
</linearGradient>
<linearGradient id="paint4_linear" x1="-0.236532" y1="19.9214" x2="18.1482" y2="26.2854" gradientUnits="userSpaceOnUse">
<stop stop-color="white"/>
<stop offset="1" stop-color="white" stop-opacity="0"/>
</linearGradient>
<linearGradient id="paint5_linear" x1="-2.44009" y1="24.0829" x2="15.5565" y2="30.4898" gradientUnits="userSpaceOnUse">
<stop stop-color="white"/>
<stop offset="1" stop-color="white" stop-opacity="0"/>
</linearGradient>
<linearGradient id="paint6_linear" x1="21.3276" y1="0.889482" x2="27.6916" y2="19.2743" gradientUnits="userSpaceOnUse">
<stop stop-color="white"/>
<stop offset="1" stop-color="white" stop-opacity="0"/>
</linearGradient>
<linearGradient id="paint7_linear" x1="17.7945" y1="0.889444" x2="24.1584" y2="19.2742" gradientUnits="userSpaceOnUse">
<stop stop-color="white"/>
<stop offset="1" stop-color="white" stop-opacity="0"/>
</linearGradient>
<linearGradient id="paint8_linear" x1="21.9559" y1="-1.31411" x2="28.3628" y2="16.6825" gradientUnits="userSpaceOnUse">
<stop stop-color="white"/>
<stop offset="1" stop-color="white" stop-opacity="0"/>
</linearGradient>
<linearGradient id="paint9_linear" x1="61.9865" y1="23.4565" x2="43.6017" y2="29.8205" gradientUnits="userSpaceOnUse">
<stop stop-color="white"/>
<stop offset="1" stop-color="white" stop-opacity="0"/>
</linearGradient>
<linearGradient id="paint10_linear" x1="61.9865" y1="19.9214" x2="43.6018" y2="26.2854" gradientUnits="userSpaceOnUse">
<stop stop-color="white"/>
<stop offset="1" stop-color="white" stop-opacity="0"/>
</linearGradient>
<linearGradient id="paint11_linear" x1="64.1901" y1="24.0829" x2="46.1935" y2="30.4898" gradientUnits="userSpaceOnUse">
<stop stop-color="white"/>
<stop offset="1" stop-color="white" stop-opacity="0"/>
</linearGradient>
<linearGradient id="paint12_linear" x1="40.4224" y1="0.889482" x2="34.0584" y2="19.2743" gradientUnits="userSpaceOnUse">
<stop stop-color="white"/>
<stop offset="1" stop-color="white" stop-opacity="0"/>
</linearGradient>
<linearGradient id="paint13_linear" x1="43.9555" y1="0.889444" x2="37.5916" y2="19.2742" gradientUnits="userSpaceOnUse">
<stop stop-color="white"/>
<stop offset="1" stop-color="white" stop-opacity="0"/>
</linearGradient>
<linearGradient id="paint14_linear" x1="39.7941" y1="-1.31411" x2="33.3872" y2="16.6825" gradientUnits="userSpaceOnUse">
<stop stop-color="white"/>
<stop offset="1" stop-color="white" stop-opacity="0"/>
</linearGradient>
<linearGradient id="paint15_linear" x1="61.9865" y1="38.5464" x2="43.6017" y2="32.1824" gradientUnits="userSpaceOnUse">
<stop stop-color="white"/>
<stop offset="1" stop-color="white" stop-opacity="0"/>
</linearGradient>
<linearGradient id="paint16_linear" x1="61.9865" y1="42.0815" x2="43.6018" y2="35.7175" gradientUnits="userSpaceOnUse">
<stop stop-color="white"/>
<stop offset="1" stop-color="white" stop-opacity="0"/>
</linearGradient>
<linearGradient id="paint17_linear" x1="64.1901" y1="37.9201" x2="46.1935" y2="31.5132" gradientUnits="userSpaceOnUse">
<stop stop-color="white"/>
<stop offset="1" stop-color="white" stop-opacity="0"/>
</linearGradient>
<linearGradient id="paint18_linear" x1="40.4243" y1="61.1115" x2="34.0604" y2="42.7267" gradientUnits="userSpaceOnUse">
<stop stop-color="white"/>
<stop offset="1" stop-color="white" stop-opacity="0"/>
</linearGradient>
<linearGradient id="paint19_linear" x1="43.9575" y1="61.1135" x2="37.5935" y2="42.7287" gradientUnits="userSpaceOnUse">
<stop stop-color="white"/>
<stop offset="1" stop-color="white" stop-opacity="0"/>
</linearGradient>
<linearGradient id="paint20_linear" x1="39.798" y1="63.3151" x2="33.3911" y2="45.3185" gradientUnits="userSpaceOnUse">
<stop stop-color="white"/>
<stop offset="1" stop-color="white" stop-opacity="0"/>
</linearGradient>
<linearGradient id="paint21_linear" x1="-0.236495" y1="38.5454" x2="18.1483" y2="32.1815" gradientUnits="userSpaceOnUse">
<stop stop-color="white"/>
<stop offset="1" stop-color="white" stop-opacity="0"/>
</linearGradient>
<linearGradient id="paint22_linear" x1="-0.236532" y1="42.0805" x2="18.1482" y2="35.7166" gradientUnits="userSpaceOnUse">
<stop stop-color="white"/>
<stop offset="1" stop-color="white" stop-opacity="0"/>
</linearGradient>
<linearGradient id="paint23_linear" x1="-2.44009" y1="37.9191" x2="15.5565" y2="31.5122" gradientUnits="userSpaceOnUse">
<stop stop-color="white"/>
<stop offset="1" stop-color="white" stop-opacity="0"/>
</linearGradient>
<linearGradient id="paint24_linear" x1="21.3296" y1="61.1115" x2="27.6935" y2="42.7267" gradientUnits="userSpaceOnUse">
<stop stop-color="white"/>
<stop offset="1" stop-color="white" stop-opacity="0"/>
</linearGradient>
<linearGradient id="paint25_linear" x1="17.7945" y1="61.1135" x2="24.1584" y2="42.7287" gradientUnits="userSpaceOnUse">
<stop stop-color="white"/>
<stop offset="1" stop-color="white" stop-opacity="0"/>
</linearGradient>
<linearGradient id="paint26_linear" x1="21.9559" y1="63.3151" x2="28.3628" y2="45.3185" gradientUnits="userSpaceOnUse">
<stop stop-color="white"/>
<stop offset="1" stop-color="white" stop-opacity="0"/>
</linearGradient>
<linearGradient id="paint27_linear" x1="17.8" y1="4.5" x2="51" y2="4.5" gradientUnits="userSpaceOnUse">
<stop stop-color="white"/>
<stop offset="0.119792" stop-color="#B7B7B7"/>
<stop offset="0.213542" stop-color="white"/>
<stop offset="0.327182" stop-color="#9C9C9C"/>
<stop offset="0.545501" stop-color="#403F3A"/>
<stop offset="0.777051" stop-color="#9C9C9C"/>
<stop offset="0.963542" stop-color="white"/>
</linearGradient>
<clipPath id="clip0">
<rect width="62" height="62" fill="white"/>
</clipPath>
</defs>
</svg>
