<svg width="62" height="62" viewBox="0 0 62 62" fill="none" xmlns="http://www.w3.org/2000/svg">
<g clip-path="url(#clip0)">
<rect width="62" height="62" fill="#141821"/>
<g filter="url(#filter0_ii)">
<rect x="1" y="1.00195" width="60" height="60" rx="4" fill="url(#paint0_radial)" fill-opacity="0.6"/>
<rect x="1" y="1.00195" width="60" height="60" rx="4" fill="url(#paint1_radial)" fill-opacity="0.6"/>
</g>
<rect x="0.5" y="0.501953" width="61" height="61" rx="4.5" stroke="#B4B4B4"/>
<rect x="0.5" y="0.501953" width="61" height="61" rx="4.5" stroke="#33F5EA"/>
<rect x="0.5" y="0.501953" width="61" height="61" rx="4.5" stroke="url(#paint2_linear)"/>
<path d="M20 27.5L9.5 17.5L1 17.5" stroke="url(#paint3_linear)"/>
<path d="M20 23.502L10.5 14.502L1 14.502" stroke="url(#paint4_linear)"/>
<path d="M18 29.502L8.5 20.5039L0.999999 20.502" stroke="url(#paint5_linear)"/>
<path d="M25.4961 21.001L15.4961 10.501L15.4961 1.00098" stroke="url(#paint6_linear)"/>
<path d="M21.5 21.001L12.5 11.501L12.5 1.00098" stroke="url(#paint7_linear)"/>
<path d="M27.5 19.001L18.502 9.50098L18.502 1.00098" stroke="url(#paint8_linear)"/>
<path d="M42 27.5L52.5 17.5L61 17.5" stroke="url(#paint9_linear)"/>
<path d="M42 23.502L51.5 14.502L61 14.502" stroke="url(#paint10_linear)"/>
<path d="M44 29.502L53.5 20.5039L61 20.502" stroke="url(#paint11_linear)"/>
<path d="M36.5039 21.001L46.5039 10.501L46.5039 1.00098" stroke="url(#paint12_linear)"/>
<path d="M40.5 21.001L49.5 11.501L49.5 1.00098" stroke="url(#paint13_linear)"/>
<path d="M34.5 19.001L43.498 9.50098L43.498 1.00098" stroke="url(#paint14_linear)"/>
<path d="M42 34.5029L52.5 44.5029L61 44.5029" stroke="url(#paint15_linear)"/>
<path d="M42 38.501L51.5 47.501L61 47.501" stroke="url(#paint16_linear)"/>
<path d="M44 32.501L53.5 41.499L61 41.501" stroke="url(#paint17_linear)"/>
<path d="M36.5059 41L46.5059 51.5L46.5059 61" stroke="url(#paint18_linear)"/>
<path d="M40.502 41.002L49.502 50.502L49.502 61.002" stroke="url(#paint19_linear)"/>
<path d="M34.5039 43L43.502 52.5L43.502 61" stroke="url(#paint20_linear)"/>
<path d="M20 34.502L9.5 44.502L1 44.502" stroke="url(#paint21_linear)"/>
<path d="M20 38.5L10.5 47.5L1 47.5" stroke="url(#paint22_linear)"/>
<path d="M18 32.5L8.5 41.498L0.999998 41.5" stroke="url(#paint23_linear)"/>
<path d="M25.498 41L15.498 51.5L15.498 61" stroke="url(#paint24_linear)"/>
<path d="M21.5 41.002L12.5 50.502L12.5 61.002" stroke="url(#paint25_linear)"/>
<path d="M27.5 43L18.502 52.5L18.502 61" stroke="url(#paint26_linear)"/>
<g filter="url(#filter1_d)">
<rect x="18" y="15.002" width="25" height="31" rx="1" fill="#C4C4C4"/>
<rect x="18" y="15.002" width="25" height="31" rx="1" fill="url(#paint27_linear)"/>
</g>
<mask id="path-28-inside-1" fill="white">
<rect x="19" y="16.002" width="23" height="29" rx="0.5"/>
</mask>
<rect x="19" y="16.002" width="23" height="29" rx="0.5" stroke="#191D26" stroke-width="2" mask="url(#path-28-inside-1)"/>
<rect x="19" y="16.002" width="23" height="29" rx="0.5" stroke="black" stroke-opacity="0.2" stroke-width="2" mask="url(#path-28-inside-1)"/>
</g>
<defs>
<filter id="filter0_ii" x="-2" y="-1.99805" width="66" height="66" filterUnits="userSpaceOnUse" color-interpolation-filters="sRGB">
<feFlood flood-opacity="0" result="BackgroundImageFix"/>
<feBlend mode="normal" in="SourceGraphic" in2="BackgroundImageFix" result="shape"/>
<feColorMatrix in="SourceAlpha" type="matrix" values="0 0 0 0 0 0 0 0 0 0 0 0 0 0 0 0 0 0 127 0" result="hardAlpha"/>
<feOffset dx="2" dy="2"/>
<feGaussianBlur stdDeviation="1"/>
<feComposite in2="hardAlpha" operator="arithmetic" k2="-1" k3="1"/>
<feColorMatrix type="matrix" values="0 0 0 0 0 0 0 0 0 0 0 0 0 0 0 0 0 0 0.2 0"/>
<feBlend mode="normal" in2="shape" result="effect1_innerShadow"/>
<feColorMatrix in="SourceAlpha" type="matrix" values="0 0 0 0 0 0 0 0 0 0 0 0 0 0 0 0 0 0 127 0" result="hardAlpha"/>
<feOffset dx="-2" dy="-2"/>
<feGaussianBlur stdDeviation="1"/>
<feComposite in2="hardAlpha" operator="arithmetic" k2="-1" k3="1"/>
<feColorMatrix type="matrix" values="0 0 0 0 1 0 0 0 0 1 0 0 0 0 1 0 0 0 0.08 0"/>
<feBlend mode="normal" in2="effect1_innerShadow" result="effect2_innerShadow"/>
</filter>
<filter id="filter1_d" x="14" y="15.002" width="33" height="39" filterUnits="userSpaceOnUse" color-interpolation-filters="sRGB">
<feFlood flood-opacity="0" result="BackgroundImageFix"/>
<feColorMatrix in="SourceAlpha" type="matrix" values="0 0 0 0 0 0 0 0 0 0 0 0 0 0 0 0 0 0 127 0" result="hardAlpha"/>
<feOffset dy="4"/>
<feGaussianBlur stdDeviation="2"/>
<feColorMatrix type="matrix" values="0 0 0 0 0 0 0 0 0 0 0 0 0 0 0 0 0 0 0.25 0"/>
<feBlend mode="normal" in2="BackgroundImageFix" result="effect1_dropShadow"/>
<feBlend mode="normal" in="SourceGraphic" in2="effect1_dropShadow" result="shape"/>
</filter>
<radialGradient id="paint0_radial" cx="0" cy="0" r="1" gradientUnits="userSpaceOnUse" gradientTransform="translate(31 31.002) rotate(120.37) scale(90.9849)">
<stop offset="0.173752" stop-color="#29411B"/>
<stop offset="1" stop-opacity="0"/>
</radialGradient>
<radialGradient id="paint1_radial" cx="0" cy="0" r="1" gradientUnits="userSpaceOnUse" gradientTransform="translate(31 -22.5) rotate(90) scale(83.5)">
<stop offset="0.173752" stop-color="#4DC5D6"/>
<stop offset="1" stop-opacity="0"/>
</radialGradient>
<linearGradient id="paint2_linear" x1="3" y1="1.00195" x2="59.5" y2="61.002" gradientUnits="userSpaceOnUse">
<stop stop-color="#D2E3FF"/>
<stop offset="1" stop-opacity="0"/>
</linearGradient>
<linearGradient id="paint3_linear" x1="-0.111494" y1="23.4565" x2="18.2733" y2="29.8205" gradientUnits="userSpaceOnUse">
<stop stop-color="white"/>
<stop offset="1" stop-color="white" stop-opacity="0"/>
</linearGradient>
<linearGradient id="paint4_linear" x1="-0.111532" y1="19.9214" x2="18.2732" y2="26.2854" gradientUnits="userSpaceOnUse">
<stop stop-color="white"/>
<stop offset="1" stop-color="white" stop-opacity="0"/>
</linearGradient>
<linearGradient id="paint5_linear" x1="-2.31509" y1="24.0829" x2="15.6815" y2="30.4898" gradientUnits="userSpaceOnUse">
<stop stop-color="white"/>
<stop offset="1" stop-color="white" stop-opacity="0"/>
</linearGradient>
<linearGradient id="paint6_linear" x1="21.4526" y1="0.889482" x2="27.8166" y2="19.2743" gradientUnits="userSpaceOnUse">
<stop stop-color="white"/>
<stop offset="1" stop-color="white" stop-opacity="0"/>
</linearGradient>
<linearGradient id="paint7_linear" x1="17.9195" y1="0.889444" x2="24.2834" y2="19.2742" gradientUnits="userSpaceOnUse">
<stop stop-color="white"/>
<stop offset="1" stop-color="white" stop-opacity="0"/>
</linearGradient>
<linearGradient id="paint8_linear" x1="22.0809" y1="-1.31411" x2="28.4878" y2="16.6825" gradientUnits="userSpaceOnUse">
<stop stop-color="white"/>
<stop offset="1" stop-color="white" stop-opacity="0"/>
</linearGradient>
<linearGradient id="paint9_linear" x1="62.1115" y1="23.4565" x2="43.7267" y2="29.8205" gradientUnits="userSpaceOnUse">
<stop stop-color="white"/>
<stop offset="1" stop-color="white" stop-opacity="0"/>
</linearGradient>
<linearGradient id="paint10_linear" x1="62.1115" y1="19.9214" x2="43.7268" y2="26.2854" gradientUnits="userSpaceOnUse">
<stop stop-color="white"/>
<stop offset="1" stop-color="white" stop-opacity="0"/>
</linearGradient>
<linearGradient id="paint11_linear" x1="64.3151" y1="24.0829" x2="46.3185" y2="30.4898" gradientUnits="userSpaceOnUse">
<stop stop-color="white"/>
<stop offset="1" stop-color="white" stop-opacity="0"/>
</linearGradient>
<linearGradient id="paint12_linear" x1="40.5474" y1="0.889482" x2="34.1834" y2="19.2743" gradientUnits="userSpaceOnUse">
<stop stop-color="white"/>
<stop offset="1" stop-color="white" stop-opacity="0"/>
</linearGradient>
<linearGradient id="paint13_linear" x1="44.0805" y1="0.889444" x2="37.7166" y2="19.2742" gradientUnits="userSpaceOnUse">
<stop stop-color="white"/>
<stop offset="1" stop-color="white" stop-opacity="0"/>
</linearGradient>
<linearGradient id="paint14_linear" x1="39.9191" y1="-1.31411" x2="33.5122" y2="16.6825" gradientUnits="userSpaceOnUse">
<stop stop-color="white"/>
<stop offset="1" stop-color="white" stop-opacity="0"/>
</linearGradient>
<linearGradient id="paint15_linear" x1="62.1115" y1="38.5464" x2="43.7267" y2="32.1824" gradientUnits="userSpaceOnUse">
<stop stop-color="white"/>
<stop offset="1" stop-color="white" stop-opacity="0"/>
</linearGradient>
<linearGradient id="paint16_linear" x1="62.1115" y1="42.0815" x2="43.7268" y2="35.7175" gradientUnits="userSpaceOnUse">
<stop stop-color="white"/>
<stop offset="1" stop-color="white" stop-opacity="0"/>
</linearGradient>
<linearGradient id="paint17_linear" x1="64.3151" y1="37.9201" x2="46.3185" y2="31.5132" gradientUnits="userSpaceOnUse">
<stop stop-color="white"/>
<stop offset="1" stop-color="white" stop-opacity="0"/>
</linearGradient>
<linearGradient id="paint18_linear" x1="40.5493" y1="61.1115" x2="34.1854" y2="42.7267" gradientUnits="userSpaceOnUse">
<stop stop-color="white"/>
<stop offset="1" stop-color="white" stop-opacity="0"/>
</linearGradient>
<linearGradient id="paint19_linear" x1="44.0825" y1="61.1135" x2="37.7185" y2="42.7287" gradientUnits="userSpaceOnUse">
<stop stop-color="white"/>
<stop offset="1" stop-color="white" stop-opacity="0"/>
</linearGradient>
<linearGradient id="paint20_linear" x1="39.923" y1="63.3151" x2="33.5161" y2="45.3185" gradientUnits="userSpaceOnUse">
<stop stop-color="white"/>
<stop offset="1" stop-color="white" stop-opacity="0"/>
</linearGradient>
<linearGradient id="paint21_linear" x1="-0.111495" y1="38.5454" x2="18.2733" y2="32.1815" gradientUnits="userSpaceOnUse">
<stop stop-color="white"/>
<stop offset="1" stop-color="white" stop-opacity="0"/>
</linearGradient>
<linearGradient id="paint22_linear" x1="-0.111532" y1="42.0805" x2="18.2732" y2="35.7166" gradientUnits="userSpaceOnUse">
<stop stop-color="white"/>
<stop offset="1" stop-color="white" stop-opacity="0"/>
</linearGradient>
<linearGradient id="paint23_linear" x1="-2.31509" y1="37.9191" x2="15.6815" y2="31.5122" gradientUnits="userSpaceOnUse">
<stop stop-color="white"/>
<stop offset="1" stop-color="white" stop-opacity="0"/>
</linearGradient>
<linearGradient id="paint24_linear" x1="21.4546" y1="61.1115" x2="27.8185" y2="42.7267" gradientUnits="userSpaceOnUse">
<stop stop-color="white"/>
<stop offset="1" stop-color="white" stop-opacity="0"/>
</linearGradient>
<linearGradient id="paint25_linear" x1="17.9195" y1="61.1135" x2="24.2834" y2="42.7287" gradientUnits="userSpaceOnUse">
<stop stop-color="white"/>
<stop offset="1" stop-color="white" stop-opacity="0"/>
</linearGradient>
<linearGradient id="paint26_linear" x1="22.0809" y1="63.3151" x2="28.4878" y2="45.3185" gradientUnits="userSpaceOnUse">
<stop stop-color="white"/>
<stop offset="1" stop-color="white" stop-opacity="0"/>
</linearGradient>
<linearGradient id="paint27_linear" x1="15.5" y1="11.902" x2="49.08" y2="39.9673" gradientUnits="userSpaceOnUse">
<stop stop-color="white"/>
<stop offset="0.119792" stop-color="#B7B7B7"/>
<stop offset="0.213542" stop-color="white"/>
<stop offset="0.327182" stop-color="#9C9C9C"/>
<stop offset="0.545501" stop-color="#403F3A"/>
<stop offset="0.777051" stop-color="#9C9C9C"/>
<stop offset="0.963542" stop-color="white"/>
</linearGradient>
<clipPath id="clip0">
<rect width="62" height="62" fill="white"/>
</clipPath>
</defs>
</svg>
