<svg width="62" height="62" viewBox="0 0 62 62" fill="none" xmlns="http://www.w3.org/2000/svg">
<g clip-path="url(#clip0)">
<g filter="url(#filter0_ii)">
<rect x="1" y="1" width="60" height="60" rx="4" fill="black"/>
<rect x="1" y="1" width="60" height="60" rx="4" fill="url(#paint0_radial)" fill-opacity="0.6"/>
</g>
<rect x="0.5" y="0.5" width="61" height="61" rx="4.5" stroke="#A49570"/>
<rect x="0.5" y="0.5" width="61" height="61" rx="4.5" stroke="url(#paint1_linear)"/>
<mask id="mask0" mask-type="alpha" maskUnits="userSpaceOnUse" x="1" y="1" width="60" height="60">
<rect x="1" y="1" width="60" height="60" fill="#C4C4C4"/>
</mask>
<g mask="url(#mask0)">
<path d="M24.6152 43.6836L44.735 -15.1334" stroke="url(#paint2_linear)" stroke-opacity="0.2"/>
<path d="M27.6152 19.6836L47.735 -39.1334" stroke="url(#paint3_linear)" stroke-opacity="0.2"/>
<path d="M31.6152 36.6836L51.735 -22.1334" stroke="url(#paint4_linear)" stroke-opacity="0.2"/>
<path d="M39.6152 31.8174L59.735 -26.9997" stroke="url(#paint5_linear)" stroke-opacity="0.2"/>
<path d="M30.1777 19.8174L50.2975 -38.9997" stroke="url(#paint6_linear)" stroke-opacity="0.2"/>
<path d="M37.1777 25.8174L57.2975 -32.9997" stroke="url(#paint7_linear)" stroke-opacity="0.2"/>
</g>
<path d="M57 37L30 45L4.99932 32.9991L31.876 24.912L57 37Z" fill="url(#paint8_linear)" fill-opacity="0.5"/>
<path d="M57 37L30 45L4.99932 32.9991L31.876 24.912L57 37Z" fill="url(#paint9_linear)"/>
<g filter="url(#filter1_f)">
<path d="M40 38.5L29.5474 45.0734L3.9994 33.0282L26 32L40 38.5Z" fill="url(#paint10_linear)" fill-opacity="0.5"/>
<path d="M40 38.5L29.5474 45.0734L3.9994 33.0282L26 32L40 38.5Z" fill="url(#paint11_linear)"/>
<path d="M40 38.5L29.5474 45.0734L3.9994 33.0282L26 32L40 38.5Z" fill="url(#paint12_radial)"/>
</g>
<path d="M30 46L30 45L56.9999 37L57 38L30 46Z" fill="url(#paint13_linear)"/>
<path d="M4.99751 33.9996L4.99789 32.9998L29.998 45L29.998 46L4.99751 33.9996Z" fill="url(#paint14_linear)"/>
<mask id="mask1" mask-type="alpha" maskUnits="userSpaceOnUse" x="16" y="8" width="50" height="32">
<path d="M65.9497 30.6674L37.2635 39.189L16.9223 30.2431L27.2875 8.63658L47.6966 10.353L65.9497 30.6674Z" fill="#C4C4C4"/>
</mask>
<g mask="url(#mask1)">
<path d="M30.7848 50.6641C35.7351 50.6641 39.7481 43.4408 39.7481 34.5303C39.7481 25.6198 35.7351 18.3965 30.7848 18.3965L28.9922 18.3965L28.9922 50.6641L30.7848 50.6641Z" fill="url(#paint15_linear)"/>
<ellipse cx="28.9945" cy="34.5283" rx="8.96323" ry="16.1338" fill="url(#paint16_linear)"/>
<path d="M35.4311 34.5302C35.4311 38.3624 34.6636 41.824 33.43 44.3219C32.1915 46.8296 30.5098 48.3194 28.6998 48.3194C26.8899 48.3194 25.2082 46.8296 23.9697 44.3219C22.736 41.824 21.9686 38.3624 21.9686 34.5302C21.9686 30.698 22.736 27.2364 23.9697 24.7385C25.2082 22.2308 26.8899 20.741 28.6998 20.741C30.5098 20.741 32.1915 22.2308 33.43 24.7385C34.6636 27.2364 35.4311 30.698 35.4311 34.5302Z" stroke="url(#paint17_linear)" stroke-opacity="0.7" stroke-width="0.312102"/>
</g>
</g>
<defs>
<filter id="filter0_ii" x="-2" y="-2" width="66" height="66" filterUnits="userSpaceOnUse" color-interpolation-filters="sRGB">
<feFlood flood-opacity="0" result="BackgroundImageFix"/>
<feBlend mode="normal" in="SourceGraphic" in2="BackgroundImageFix" result="shape"/>
<feColorMatrix in="SourceAlpha" type="matrix" values="0 0 0 0 0 0 0 0 0 0 0 0 0 0 0 0 0 0 127 0" result="hardAlpha"/>
<feOffset dx="2" dy="2"/>
<feGaussianBlur stdDeviation="1"/>
<feComposite in2="hardAlpha" operator="arithmetic" k2="-1" k3="1"/>
<feColorMatrix type="matrix" values="0 0 0 0 0 0 0 0 0 0 0 0 0 0 0 0 0 0 0.2 0"/>
<feBlend mode="normal" in2="shape" result="effect1_innerShadow"/>
<feColorMatrix in="SourceAlpha" type="matrix" values="0 0 0 0 0 0 0 0 0 0 0 0 0 0 0 0 0 0 127 0" result="hardAlpha"/>
<feOffset dx="-2" dy="-2"/>
<feGaussianBlur stdDeviation="1"/>
<feComposite in2="hardAlpha" operator="arithmetic" k2="-1" k3="1"/>
<feColorMatrix type="matrix" values="0 0 0 0 1 0 0 0 0 1 0 0 0 0 1 0 0 0 0.08 0"/>
<feBlend mode="normal" in2="effect1_innerShadow" result="effect2_innerShadow"/>
</filter>
<filter id="filter1_f" x="0" y="28" width="44.0006" height="21.0734" filterUnits="userSpaceOnUse" color-interpolation-filters="sRGB">
<feFlood flood-opacity="0" result="BackgroundImageFix"/>
<feBlend mode="normal" in="SourceGraphic" in2="BackgroundImageFix" result="shape"/>
<feGaussianBlur stdDeviation="2" result="effect1_foregroundBlur"/>
</filter>
<radialGradient id="paint0_radial" cx="0" cy="0" r="1" gradientUnits="userSpaceOnUse" gradientTransform="translate(42 -12) rotate(115.133) scale(134.206)">
<stop offset="0.173752" stop-color="#8B6F0D"/>
<stop offset="1" stop-opacity="0"/>
</radialGradient>
<linearGradient id="paint1_linear" x1="3" y1="1" x2="59.5" y2="61" gradientUnits="userSpaceOnUse">
<stop stop-color="#D2E3FF"/>
<stop offset="1" stop-opacity="0"/>
</linearGradient>
<linearGradient id="paint2_linear" x1="24.2722" y1="41.2072" x2="18.0976" y2="-3.36715" gradientUnits="userSpaceOnUse">
<stop stop-opacity="0"/>
<stop offset="0.19734" stop-color="#E7E7E7" stop-opacity="0.395062"/>
<stop offset="0.499518" stop-color="white"/>
<stop offset="0.807028" stop-color="#EDEDED" stop-opacity="0.3909"/>
<stop offset="1" stop-opacity="0"/>
</linearGradient>
<linearGradient id="paint3_linear" x1="27.2722" y1="17.2072" x2="21.0976" y2="-27.3672" gradientUnits="userSpaceOnUse">
<stop stop-opacity="0"/>
<stop offset="0.19734" stop-color="#E7E7E7" stop-opacity="0.395062"/>
<stop offset="0.499518" stop-color="white"/>
<stop offset="0.807028" stop-color="#EDEDED" stop-opacity="0.3909"/>
<stop offset="1" stop-opacity="0"/>
</linearGradient>
<linearGradient id="paint4_linear" x1="31.2722" y1="34.2072" x2="25.0976" y2="-10.3672" gradientUnits="userSpaceOnUse">
<stop stop-opacity="0"/>
<stop offset="0.19734" stop-color="#E7E7E7" stop-opacity="0.395062"/>
<stop offset="0.499518" stop-color="white"/>
<stop offset="0.807028" stop-color="#EDEDED" stop-opacity="0.3909"/>
<stop offset="1" stop-opacity="0"/>
</linearGradient>
<linearGradient id="paint5_linear" x1="39.2722" y1="29.341" x2="33.0976" y2="-15.2334" gradientUnits="userSpaceOnUse">
<stop stop-opacity="0"/>
<stop offset="0.19734" stop-color="#E7E7E7" stop-opacity="0.395062"/>
<stop offset="0.499518" stop-color="white"/>
<stop offset="0.807028" stop-color="#EDEDED" stop-opacity="0.3909"/>
<stop offset="1" stop-opacity="0"/>
</linearGradient>
<linearGradient id="paint6_linear" x1="29.8347" y1="17.341" x2="23.6601" y2="-27.2334" gradientUnits="userSpaceOnUse">
<stop stop-opacity="0"/>
<stop offset="0.19734" stop-color="#E7E7E7" stop-opacity="0.395062"/>
<stop offset="0.499518" stop-color="white"/>
<stop offset="0.807028" stop-color="#EDEDED" stop-opacity="0.3909"/>
<stop offset="1" stop-opacity="0"/>
</linearGradient>
<linearGradient id="paint7_linear" x1="36.8347" y1="23.341" x2="30.6601" y2="-21.2334" gradientUnits="userSpaceOnUse">
<stop stop-opacity="0"/>
<stop offset="0.19734" stop-color="#E7E7E7" stop-opacity="0.395062"/>
<stop offset="0.499518" stop-color="white"/>
<stop offset="0.807028" stop-color="#EDEDED" stop-opacity="0.3909"/>
<stop offset="1" stop-opacity="0"/>
</linearGradient>
<linearGradient id="paint8_linear" x1="21.1701" y1="62.4489" x2="41.6133" y2="22.2564" gradientUnits="userSpaceOnUse">
<stop stop-color="white"/>
<stop offset="0.119792" stop-color="#B7B7B7"/>
<stop offset="0.213542" stop-color="white"/>
<stop offset="0.327182" stop-color="#9C9C9C"/>
<stop offset="0.545501" stop-color="#181818"/>
<stop offset="0.777051" stop-color="#9C9C9C"/>
<stop offset="0.963542" stop-color="white"/>
</linearGradient>
<linearGradient id="paint9_linear" x1="-11.2778" y1="34.4413" x2="49.4726" y2="63.6467" gradientUnits="userSpaceOnUse">
<stop stop-color="white"/>
<stop offset="1" stop-color="white" stop-opacity="0"/>
</linearGradient>
<linearGradient id="paint10_linear" x1="21.219" y1="62.5221" x2="41.6621" y2="22.3297" gradientUnits="userSpaceOnUse">
<stop stop-color="white"/>
<stop offset="0.119792" stop-color="#B7B7B7"/>
<stop offset="0.213542" stop-color="white"/>
<stop offset="0.327182" stop-color="#9C9C9C"/>
<stop offset="0.545501" stop-color="#181818"/>
<stop offset="0.777051" stop-color="#9C9C9C"/>
<stop offset="0.963542" stop-color="white"/>
</linearGradient>
<linearGradient id="paint11_linear" x1="-11.229" y1="34.5146" x2="49.5214" y2="63.72" gradientUnits="userSpaceOnUse">
<stop stop-color="white"/>
<stop offset="1" stop-color="white" stop-opacity="0"/>
</linearGradient>
<radialGradient id="paint12_radial" cx="0" cy="0" r="1" gradientUnits="userSpaceOnUse" gradientTransform="translate(30.5 31) rotate(-15.6422) scale(25.9615 21.7881)">
<stop offset="0.0830793"/>
<stop offset="1" stop-opacity="0"/>
</radialGradient>
<linearGradient id="paint13_linear" x1="19.4332" y1="53.7159" x2="52.5336" y2="22.2025" gradientUnits="userSpaceOnUse">
<stop stop-color="white"/>
<stop offset="1" stop-color="#030303"/>
</linearGradient>
<linearGradient id="paint14_linear" x1="6.79029" y1="42.5106" x2="31.4079" y2="63.421" gradientUnits="userSpaceOnUse">
<stop stop-color="white"/>
<stop offset="1" stop-color="white" stop-opacity="0"/>
</linearGradient>
<linearGradient id="paint15_linear" x1="37.5814" y1="-6.34266" x2="55.7912" y2="24.1338" gradientUnits="userSpaceOnUse">
<stop stop-color="#814916"/>
<stop offset="0.119792" stop-color="#705D2F"/>
<stop offset="0.213542" stop-color="#F3E0CE"/>
<stop offset="0.327182" stop-color="#896747"/>
<stop offset="0.545501" stop-color="#FFF4D9"/>
<stop offset="0.693709" stop-color="#A8935C"/>
<stop offset="0.864857" stop-color="#8C7640"/>
<stop offset="0.999939" stop-color="#423619"/>
</linearGradient>
<linearGradient id="paint16_linear" x1="12.0274" y1="26.9153" x2="56.6944" y2="48.3903" gradientUnits="userSpaceOnUse">
<stop stop-color="white"/>
<stop stop-color="#FFF7E1"/>
<stop offset="0.0932076" stop-color="#674A00"/>
<stop offset="0.213542" stop-color="#FFE39E"/>
<stop offset="0.327182" stop-color="#BEA973"/>
<stop offset="0.545501" stop-color="#554009"/>
<stop offset="0.777051" stop-color="#9C9C9C"/>
<stop offset="0.963542" stop-color="white"/>
</linearGradient>
<linearGradient id="paint17_linear" x1="34.9514" y1="37.695" x2="17.8389" y2="29.4556" gradientUnits="userSpaceOnUse">
<stop stop-color="white"/>
<stop offset="1" stop-opacity="0"/>
</linearGradient>
<clipPath id="clip0">
<rect width="62" height="62" fill="white"/>
</clipPath>
</defs>
</svg>
