<svg xmlns="http://www.w3.org/2000/svg" fill="none" viewBox="0 0 124 111">
  <path stroke="#000" d="M35 19 64 1l28 18-28 19-29-19Z"/>
  <path stroke="url(#a)" d="M35 19 64 1l28 18-28 19-29-19Z"/>
  <path stroke="url(#b)" stroke-opacity=".2" d="M24 110c23-5 38-27 38-44"/>
  <path stroke="url(#c)" stroke-opacity=".2" d="M1 69c14 0 24-3 41-14"/>
  <path stroke="url(#d)" stroke-opacity=".2" d="M1 77c14 0 24-3 41-15"/>
  <path stroke="url(#e)" stroke-opacity=".2" d="M1 83c15 0 25-3 43-14"/>
  <path stroke="url(#f)" stroke-opacity=".2" d="M1 91c19 0 32-5 55-25"/>
  <path stroke="url(#g)" stroke-opacity=".2" d="M1 102c18 0 31-5 53-25"/>
  <path stroke="url(#h)" stroke-opacity=".2" d="M100 108c-23-5-38-30-38-50"/>
  <path stroke="url(#i)" stroke-opacity=".2" d="M124 53c-13 0-21-3-37-14"/>
  <path stroke="url(#j)" stroke-opacity=".2" d="M1 59c12 0 21-4 37-20"/>
  <path stroke="url(#k)" stroke-opacity=".2" d="M124 61c-14 0-24-3-41-18"/>
  <path stroke="url(#l)" stroke-opacity=".2" d="M124 72c-14 0-24-4-41-19"/>
  <path stroke="url(#m)" stroke-opacity=".2" d="M124 98c-15 0-25-5-43-27"/>
  <path stroke="url(#n)" stroke-opacity=".2" d="M124 91c-19 0-32-7-56-33"/>
  <path stroke="url(#o)" stroke-opacity=".2" d="M124 105c-18 0-31-6-53-33"/>
  <ellipse cx="62.2" cy="60.9" fill="#5B5B5B" rx="47.1" ry="34.2"/>
  <path fill="#fff" d="m32 21 30 21v38L32 59V21Z"/>
  <path stroke="url(#p)" d="M95 59V22L65 42v37l30-20Z"/>
  <defs>
    <linearGradient id="a" x1="60.8" x2="64" y1="1.5" y2="40.1" gradientUnits="userSpaceOnUse">
      <stop stop-color="#fff"/>
      <stop offset="1" stop-color="#fff" stop-opacity="0"/>
    </linearGradient>
    <linearGradient id="b" x1="29.8" x2="55.6" y1="104.9" y2="103" gradientUnits="userSpaceOnUse">
      <stop/>
      <stop offset="1" stop-color="#3261AE"/>
    </linearGradient>
    <linearGradient id="c" x1="1" x2="28.5" y1="66.9" y2="59.7" gradientUnits="userSpaceOnUse">
      <stop stop-color="#fff"/>
      <stop offset="1" stop-color="#3261AE"/>
    </linearGradient>
    <linearGradient id="d" x1="1" x2="28.5" y1="74.8" y2="67.7" gradientUnits="userSpaceOnUse">
      <stop stop-color="#fff"/>
      <stop offset="1" stop-color="#3261AE"/>
    </linearGradient>
    <linearGradient id="e" x1="1" x2="29.7" y1="81.2" y2="73.3" gradientUnits="userSpaceOnUse">
      <stop stop-color="#fff"/>
      <stop offset="1" stop-color="#3261AE"/>
    </linearGradient>
    <linearGradient id="f" x1="1" x2="39.2" y1="87.6" y2="80.1" gradientUnits="userSpaceOnUse">
      <stop stop-color="#fff"/>
      <stop offset="1" stop-color="#3261AE"/>
    </linearGradient>
    <linearGradient id="g" x1="1" x2="37.9" y1="98.7" y2="91.7" gradientUnits="userSpaceOnUse">
      <stop stop-color="#fff"/>
      <stop offset="1" stop-color="#3261AE"/>
    </linearGradient>
    <linearGradient id="h" x1="94.6" x2="68.6" y1="102.2" y2="100.5" gradientUnits="userSpaceOnUse">
      <stop/>
      <stop offset="1" stop-color="#3261AE"/>
    </linearGradient>
    <linearGradient id="i" x1="124" x2="98.8" y1="50.9" y2="44.5" gradientUnits="userSpaceOnUse">
      <stop stop-color="#fff"/>
      <stop offset="1" stop-color="#3261AE"/>
    </linearGradient>
    <linearGradient id="j" x1=".9" x2="26.7" y1="56.7" y2="52.5" gradientUnits="userSpaceOnUse">
      <stop stop-color="#fff"/>
      <stop offset="1" stop-color="#3261AE"/>
    </linearGradient>
    <linearGradient id="k" x1="124" x2="95.4" y1="58.8" y2="52.9" gradientUnits="userSpaceOnUse">
      <stop stop-color="#fff"/>
      <stop offset="1" stop-color="#3261AE"/>
    </linearGradient>
    <linearGradient id="l" x1="124" x2="95.3" y1="69.6" y2="64.1" gradientUnits="userSpaceOnUse">
      <stop stop-color="#fff"/>
      <stop offset="1" stop-color="#3261AE"/>
    </linearGradient>
    <linearGradient id="m" x1="123.7" x2="93.3" y1="94.5" y2="90.1" gradientUnits="userSpaceOnUse">
      <stop stop-color="#fff"/>
      <stop offset="1" stop-color="#3261AE"/>
    </linearGradient>
    <linearGradient id="n" x1="124" x2="84.8" y1="86.2" y2="80.2" gradientUnits="userSpaceOnUse">
      <stop stop-color="#fff"/>
      <stop offset="1" stop-color="#3261AE"/>
    </linearGradient>
    <linearGradient id="o" x1="124" x2="86.5" y1="100.9" y2="95.4" gradientUnits="userSpaceOnUse">
      <stop stop-color="#fff"/>
      <stop offset="1" stop-color="#3261AE"/>
    </linearGradient>
    <linearGradient id="p" x1="84.4" x2="61.4" y1="44.6" y2="43.1" gradientUnits="userSpaceOnUse">
      <stop stop-color="#fff"/>
      <stop offset="1" stop-color="#fff" stop-opacity="0"/>
    </linearGradient>
  </defs>
</svg>