<svg xmlns="http://www.w3.org/2000/svg" fill="none" viewBox="0 0 148 151">
  <g filter="url(#a)">
    <path fill="#3D3B4C" d="M46.4 53.4 20 36.7v25l26.4 16.7v-25Z"/>
    <path fill="url(#b)" fill-opacity=".3" d="M46.4 53.4 20 36.7v25l26.4 16.7v-25Z"/>
    <path fill="#14112A" d="M46.4 53.4 73 36.7v25L46.4 78.4v-25Z"/>
    <path fill="url(#c)" fill-opacity=".3" d="M46.4 53.4 73 36.7v25L46.4 78.4v-25Z"/>
    <path fill="#3C375C" d="M72 36.7 46.3 52.8 21 36.7l25.5-16.1L72 36.7Z"/>
    <path fill="url(#d)" d="M72 36.7 46.3 52.8 21 36.7l25.5-16.1L72 36.7Z"/>
    <path fill="#000" fill-opacity=".2" d="M72 36.7 46.3 52.8 21 36.7l25.5-16.1L72 36.7Z"/>
    <path stroke="url(#e)" d="M72 36.7 46.3 52.8 21 36.7l25.5-16.1L72 36.7Z"/>
  </g>
  <g fill-rule="evenodd" clip-rule="evenodd" opacity=".9">
    <path fill="#fff" d="M148 39.5h-19.5v111.3H144a4 4 0 0 0 4-4V39.5ZM103.5 70H123v80.7h-19.5V70Zm-5.6 19.5H78.4v61.2H98V89.6Zm-25 22.2H53.4v35a4 4 0 0 0 4 4h15.5v-39Z"/>
    <path fill="url(#f)" d="M148 39.5h-19.5v111.3H144a4 4 0 0 0 4-4V39.5ZM103.5 70H123v80.7h-19.5V70Zm-5.6 19.5H78.4v61.2H98V89.6Zm-25 22.2H53.4v35a4 4 0 0 0 4 4h15.5v-39Z"/>
    <path fill="url(#g)" fill-opacity=".7" d="M148 39.5h-19.5v111.3H144a4 4 0 0 0 4-4V39.5ZM103.5 70H123v80.7h-19.5V70Zm-5.6 19.5H78.4v61.2H98V89.6Zm-25 22.2H53.4v35a4 4 0 0 0 4 4h15.5v-39Z"/>
    <path fill="url(#h)" d="M148 39.5h-19.5v111.3H144a4 4 0 0 0 4-4V39.5ZM103.5 70H123v80.7h-19.5V70Zm-5.6 19.5H78.4v61.2H98V89.6Zm-25 22.2H53.4v35a4 4 0 0 0 4 4h15.5v-39Z"/>
  </g>
  <defs>
    <linearGradient id="b" x1="42.9" x2="-11" y1="30.3" y2="100.5" gradientUnits="userSpaceOnUse">
      <stop stop-color="#fff"/>
      <stop offset=".1" stop-color="#B7B7B7"/>
      <stop offset=".2" stop-color="#fff"/>
      <stop offset=".3" stop-color="#9C9C9C"/>
      <stop offset=".5" stop-color="#181818"/>
      <stop offset=".8" stop-color="#9C9C9C"/>
      <stop offset="1" stop-color="#fff"/>
    </linearGradient>
    <linearGradient id="c" x1="78.2" x2="-9.9" y1="78.4" y2="79.2" gradientUnits="userSpaceOnUse">
      <stop stop-color="#fff"/>
      <stop offset="0" stop-color="#B7B7B7"/>
      <stop offset=".2" stop-color="#fff"/>
      <stop offset=".3" stop-color="#9C9C9C"/>
      <stop offset=".5" stop-color="#181818"/>
      <stop offset=".8" stop-color="#9C9C9C"/>
      <stop offset="1" stop-color="#fff"/>
    </linearGradient>
    <linearGradient id="d" x1="53.5" x2=".6" y1="14.8" y2="95" gradientUnits="userSpaceOnUse">
      <stop stop-color="#fff"/>
      <stop offset=".1" stop-color="#B7B7B7"/>
      <stop offset=".2" stop-color="#fff"/>
      <stop offset=".3" stop-color="#9C9C9C"/>
      <stop offset=".5" stop-color="#181818"/>
      <stop offset=".8" stop-color="#9C9C9C"/>
      <stop offset="1" stop-color="#fff"/>
    </linearGradient>
    <linearGradient id="f" x1="127.8" x2="41.7" y1="76.8" y2="167.3" gradientUnits="userSpaceOnUse">
      <stop stop-color="#fff"/>
      <stop offset="1" stop-opacity="0"/>
    </linearGradient>
    <linearGradient id="g" x1="109" x2="166.8" y1="28.9" y2="170.2" gradientUnits="userSpaceOnUse">
      <stop stop-color="#fff"/>
      <stop offset=".1" stop-color="#B7B7B7"/>
      <stop offset=".2" stop-color="#fff"/>
      <stop offset=".3" stop-color="#9C9C9C"/>
      <stop offset=".5" stop-color="#403F3A"/>
      <stop offset=".8" stop-color="#9C9C9C"/>
      <stop offset="1" stop-color="#fff"/>
    </linearGradient>
    <radialGradient id="e" cx="0" cy="0" r="1" gradientTransform="matrix(-4.40583 39.65238 -62.70412 -6.96713 35.4 11.7)" gradientUnits="userSpaceOnUse">
      <stop/>
      <stop offset="1" stop-opacity="0"/>
    </radialGradient>
    <radialGradient id="h" cx="0" cy="0" r="1" gradientTransform="rotate(83.8 -.3 101.6) scale(51.7782 46.5131)" gradientUnits="userSpaceOnUse">
      <stop stop-color="#fff"/>
      <stop offset="1" stop-color="#fff" stop-opacity="0"/>
    </radialGradient>
    <filter id="a" width="92.9" height="98.4" x="0" y="0" color-interpolation-filters="sRGB" filterUnits="userSpaceOnUse">
      <feFlood flood-opacity="0" result="BackgroundImageFix"/>
      <feColorMatrix in="SourceAlpha" result="hardAlpha" values="0 0 0 0 0 0 0 0 0 0 0 0 0 0 0 0 0 0 127 0"/>
      <feOffset/>
      <feGaussianBlur stdDeviation="10"/>
      <feColorMatrix values="0 0 0 0 0.121569 0 0 0 0 0.133333 0 0 0 0 0.180392 0 0 0 1 0"/>
      <feBlend in2="BackgroundImageFix" result="effect1_dropShadow"/>
      <feBlend in="SourceGraphic" in2="effect1_dropShadow" result="shape"/>
    </filter>
  </defs>
</svg>