<svg xmlns="http://www.w3.org/2000/svg" fill="none" viewBox="0 0 135 138">
  <path stroke="url(#a)" d="M57 77 30 51H8"/>
  <path stroke="url(#b)" d="M57 66 32 43H8"/>
  <path stroke="url(#c)" d="M52 82 27 58H8"/>
  <path stroke="url(#d)" d="M71 60 45 32V8"/>
  <path stroke="url(#e)" d="M61 60 38 35V8"/>
  <path stroke="url(#f)" d="M77 55 53 30V8"/>
  <path stroke="#000" d="m52 59 39-25 39 25-39 24-39-24Z"/>
  <path stroke="url(#g)" d="m52 59 39-25 39 25-39 24-39-24Z"/>
  <path fill="#fff" d="m47 61 42 26v50l-42-27V61Z"/>
  <path stroke="url(#h)" d="M135 110V61L93 88v48l42-26Z"/>
  <defs>
    <linearGradient id="a" x1="4.9" x2="52.6" y1="66.1" y2="82.6" gradientUnits="userSpaceOnUse">
      <stop stop-color="#fff"/>
      <stop offset="1" stop-color="#fff" stop-opacity="0"/>
    </linearGradient>
    <linearGradient id="b" x1="4.9" x2="52.6" y1="56.9" y2="73.4" gradientUnits="userSpaceOnUse">
      <stop stop-color="#fff"/>
      <stop offset="1" stop-color="#fff" stop-opacity="0"/>
    </linearGradient>
    <linearGradient id="c" x1="-.8" x2="45.9" y1="67.7" y2="84.3" gradientUnits="userSpaceOnUse">
      <stop stop-color="#fff"/>
      <stop offset="1" stop-color="#fff" stop-opacity="0"/>
    </linearGradient>
    <linearGradient id="d" x1="60.9" x2="77.4" y1="7.5" y2="55.2" gradientUnits="userSpaceOnUse">
      <stop stop-color="#fff"/>
      <stop offset="1" stop-color="#fff" stop-opacity="0"/>
    </linearGradient>
    <linearGradient id="e" x1="51.7" x2="68.2" y1="7.5" y2="55.2" gradientUnits="userSpaceOnUse">
      <stop stop-color="#fff"/>
      <stop offset="1" stop-color="#fff" stop-opacity="0"/>
    </linearGradient>
    <linearGradient id="f" x1="62.5" x2="79.1" y1="1.8" y2="48.5" gradientUnits="userSpaceOnUse">
      <stop stop-color="#fff"/>
      <stop offset="1" stop-color="#fff" stop-opacity="0"/>
    </linearGradient>
    <linearGradient id="g" x1="87.1" x2="90.9" y1="35.7" y2="85.5" gradientUnits="userSpaceOnUse">
      <stop stop-color="#fff"/>
      <stop offset="1" stop-color="#fff" stop-opacity="0"/>
    </linearGradient>
    <linearGradient id="h" x1="119.7" x2="87.9" y1="91.2" y2="89" gradientUnits="userSpaceOnUse">
      <stop stop-color="#fff"/>
      <stop offset="1" stop-color="#fff" stop-opacity="0"/>
    </linearGradient>
  </defs>
</svg>