<svg xmlns="http://www.w3.org/2000/svg" fill="none" viewBox="0 0 175 174">
  <path fill="url(#a)" d="m126 78-61 61c-5-4-4-12 2-18l41-41s10-10 18-2Z"/>
  <path fill="url(#b)" d="M87 85c-13-3-26 10-26 10l-30 30 8 8 48-48Z"/>
  <path fill="url(#c)" d="m87 85-48 48 8 8 50-50c-2-3-6-5-10-6Z" opacity=".5"/>
  <path fill="url(#d)" fill-opacity=".6" d="m175 78-24 24s-13 13-26 10c-4-1-8-3-11-6v1s16 16-5 36l-30 31-16-16 20-21c-5 6-13 7-18 2l62-61c8 8-2 18-2 18l34-34 16 16Z"/>
  <path fill="url(#e)" d="m133 39-8-8-27 27C88 68 87 77 88 84l45-45Z"/>
  <path fill="url(#f)" d="M134 38 88 84c1 4 3 7 6 10l48-48-8-8Z"/>
  <g filter="url(#g)">
    <path fill="#B4B4B4" d="M45 52 20 36v24l25 16V52Z"/>
    <path fill="url(#h)" fill-opacity=".3" d="M45 52 20 36v24l25 16V52Z"/>
    <path fill="#fff" d="m45 52 26-16v24L45 76V52Z"/>
    <path fill="url(#i)" fill-opacity=".3" d="m45 52 26-16v24L45 76V52Z"/>
    <path fill="#fff" d="M70 36 45 51 21 36l24-15 25 15Z"/>
    <path fill="url(#j)" d="M70 36 45 51 21 36l24-15 25 15Z"/>
    <path fill="#000" fill-opacity=".2" d="M70 36 45 51 21 36l24-15 25 15Z"/>
    <path stroke="url(#k)" d="M70 36 45 51 21 36l24-15 25 15Z"/>
  </g>
  <defs>
    <linearGradient id="a" x1="23.1" x2="-13.6" y1="23.7" y2="210.2" gradientUnits="userSpaceOnUse">
      <stop stop-color="#fff"/>
      <stop offset=".1" stop-color="#B7B7B7"/>
      <stop offset=".2" stop-color="#fff"/>
      <stop offset=".3" stop-color="#9C9C9C"/>
      <stop offset=".5" stop-color="#181818"/>
      <stop offset=".8" stop-color="#9C9C9C"/>
      <stop offset="1" stop-color="#fff"/>
    </linearGradient>
    <linearGradient id="b" x1="9.6" x2="-5.4" y1="79.2" y2="167.2" gradientUnits="userSpaceOnUse">
      <stop stop-color="#fff"/>
      <stop offset=".1" stop-color="#B7B7B7"/>
      <stop offset=".2" stop-color="#fff"/>
      <stop offset=".3" stop-color="#9C9C9C"/>
      <stop offset=".5" stop-color="#181818"/>
      <stop offset=".8" stop-color="#9C9C9C"/>
      <stop offset="1" stop-color="#fff"/>
    </linearGradient>
    <linearGradient id="c" x1="64.3" x2="48.8" y1="102.1" y2="134.4" gradientUnits="userSpaceOnUse">
      <stop stop-opacity=".2"/>
      <stop offset="1" stop-opacity="0"/>
    </linearGradient>
    <linearGradient id="d" x1="123" x2="84.3" y1="78" y2="155.5" gradientUnits="userSpaceOnUse">
      <stop stop-opacity=".5"/>
      <stop offset="1" stop-opacity="0"/>
    </linearGradient>
    <linearGradient id="e" x1="65.7" x2="39.7" y1="10.4" y2="127.6" gradientUnits="userSpaceOnUse">
      <stop stop-color="#fff"/>
      <stop offset=".1" stop-color="#B7B7B7"/>
      <stop offset=".2" stop-color="#fff"/>
      <stop offset=".3" stop-color="#9C9C9C"/>
      <stop offset=".5" stop-color="#181818"/>
      <stop offset=".8" stop-color="#9C9C9C"/>
      <stop offset="1" stop-color="#fff"/>
    </linearGradient>
    <linearGradient id="f" x1="117.1" x2="97.3" y1="46.6" y2="84.7" gradientUnits="userSpaceOnUse">
      <stop stop-opacity=".3"/>
      <stop offset="1" stop-opacity="0"/>
    </linearGradient>
    <linearGradient id="h" x1="42" x2="-9.8" y1="29.9" y2="97.3" gradientUnits="userSpaceOnUse">
      <stop stop-color="#fff"/>
      <stop offset=".1" stop-color="#B7B7B7"/>
      <stop offset=".2" stop-color="#fff"/>
      <stop offset=".3" stop-color="#9C9C9C"/>
      <stop offset=".5" stop-color="#181818"/>
      <stop offset=".8" stop-color="#9C9C9C"/>
      <stop offset="1" stop-color="#fff"/>
    </linearGradient>
    <linearGradient id="i" x1="75.9" x2="-8.7" y1="76.1" y2="76.8" gradientUnits="userSpaceOnUse">
      <stop stop-color="#fff"/>
      <stop offset="0" stop-color="#B7B7B7"/>
      <stop offset=".2" stop-color="#fff"/>
      <stop offset=".3" stop-color="#9C9C9C"/>
      <stop offset=".5" stop-color="#181818"/>
      <stop offset=".8" stop-color="#9C9C9C"/>
      <stop offset="1" stop-color="#fff"/>
    </linearGradient>
    <linearGradient id="j" x1="52.2" x2="1.3" y1="15" y2="92" gradientUnits="userSpaceOnUse">
      <stop stop-color="#fff"/>
      <stop offset=".1" stop-color="#B7B7B7"/>
      <stop offset=".2" stop-color="#fff"/>
      <stop offset=".3" stop-color="#9C9C9C"/>
      <stop offset=".5" stop-color="#181818"/>
      <stop offset=".8" stop-color="#9C9C9C"/>
      <stop offset="1" stop-color="#fff"/>
    </linearGradient>
    <radialGradient id="k" cx="0" cy="0" r="1" gradientTransform="matrix(-4.23134 38.08205 -60.221 -6.69123 35 12)" gradientUnits="userSpaceOnUse">
      <stop stop-opacity=".2"/>
      <stop offset="1" stop-opacity="0"/>
    </radialGradient>
    <filter id="g" width="90.8" height="96.1" x="0" y="0" color-interpolation-filters="sRGB" filterUnits="userSpaceOnUse">
      <feFlood flood-opacity="0" result="BackgroundImageFix"/>
      <feColorMatrix in="SourceAlpha" result="hardAlpha" values="0 0 0 0 0 0 0 0 0 0 0 0 0 0 0 0 0 0 127 0"/>
      <feOffset/>
      <feGaussianBlur stdDeviation="10"/>
      <feColorMatrix values="0 0 0 0 0.121569 0 0 0 0 0.133333 0 0 0 0 0.180392 0 0 0 1 0"/>
      <feBlend in2="BackgroundImageFix" result="effect1_dropShadow"/>
      <feBlend in="SourceGraphic" in2="effect1_dropShadow" result="shape"/>
    </filter>
  </defs>
</svg>