<svg xmlns="http://www.w3.org/2000/svg" fill="none" viewBox="0 0 138 153">
  <path fill="url(#a)" d="M138 91.3H0v60.9h12.2v-40.6c1-12.2 12.2-12.2 12.2-12.2h89.2s12.2 0 12.2 14.2v38.6H138V91.3Z"/>
  <path stroke="url(#b)" stroke-width="2" d="M20.3 67v26.4" opacity=".4"/>
  <path stroke="url(#c)" stroke-width="2" d="M8.1 71v22.4" opacity=".4"/>
  <path stroke="url(#d)" stroke-width="2" d="M32.5 60.9v30.4" opacity=".4"/>
  <path stroke="url(#e)" stroke-width="2" d="M44.6 52.8v40.6" opacity=".4"/>
  <path stroke="url(#f)" stroke-width="2" d="M56.8 36.5v54.8" opacity=".4"/>
  <path stroke="url(#g)" stroke-width="2" d="M69 2v89.3" opacity=".4"/>
  <path stroke="url(#h)" stroke-width="2" d="M81.2 35.5v55.8" opacity=".4"/>
  <path stroke="url(#i)" stroke-width="2" d="M93.4 50.7v40.6" opacity=".4"/>
  <path stroke="url(#j)" stroke-width="2" d="M105.5 60.9v32.5" opacity=".4"/>
  <path stroke="url(#k)" stroke-width="2" d="M117.7 68v25.4" opacity=".4"/>
  <path stroke="#F3F3F3" stroke-width="2" d="M129.9 71v22.4" opacity=".4"/>
  <path stroke="#F3F3F3" stroke-width="2" d="M2 72c21-2.3 63-20 63-72M136 72c-21-2.3-63-20-63-72"/>
  <g filter="url(#l)">
    <circle cx="86.2" cy="45.7" r="33.5" fill="#DECFBD"/>
  </g>
  <path fill="#000" d="M98 38c-.3-4.2-4-5.7-8.5-6.1v-6H86v5.8H83v-5.8h-3.5v5.9h-7.3v3.8h2.6a1.9 1.9 0 0 1 2 1.6v6.7h.3-.3l-.1 9.4a1.3 1.3 0 0 1-1.4 1.2h-2.6l-.7 4.2H79.2v6h3.5V59h3l-.1 5.9h3.6v-6c6-.2 10.3-1.7 10.8-7.3.5-4.6-1.6-6.6-5-7.5 2-1 3.3-2.9 3-6Zm-5 12.7c0 4.4-7.7 3.9-10.1 3.8v-7.8c2.5 0 10-.7 10 4Zm-1.6-11.1c0 4-6.4 3.5-8.4 3.4v-7c2 0 8.4-.7 8.4 3.6Z"/>
  <path fill="#fff" d="M98 38c-.3-4.2-4-5.7-8.5-6.1v-6H86v5.8H83v-5.8h-3.5v5.9h-7.3v3.8h2.6a1.9 1.9 0 0 1 2 1.6v6.7h.3-.3l-.1 9.4a1.3 1.3 0 0 1-1.4 1.2h-2.6l-.7 4.2H79.2v6h3.5V59h3l-.1 5.9h3.6v-6c6-.2 10.3-1.7 10.8-7.3.5-4.6-1.6-6.6-5-7.5 2-1 3.3-2.9 3-6Zm-5 12.7c0 4.4-7.7 3.9-10.1 3.8v-7.8c2.5 0 10-.7 10 4Zm-1.6-11.1c0 4-6.4 3.5-8.4 3.4v-7c2 0 8.4-.7 8.4 3.6Z"/>
  <defs>
    <linearGradient id="a" x1="4.1" x2="131.9" y1="79" y2="79" gradientUnits="userSpaceOnUse">
      <stop stop-color="#fff"/>
      <stop offset=".1" stop-color="#B7B7B7"/>
      <stop offset=".2" stop-color="#fff"/>
      <stop offset=".3" stop-color="#9C9C9C"/>
      <stop offset=".5" stop-color="#181818" stop-opacity=".3"/>
      <stop offset=".8" stop-color="#9C9C9C"/>
      <stop offset="1" stop-color="#fff"/>
    </linearGradient>
    <linearGradient id="b" x1="20.8" x2="20.8" y1="67" y2="124.8" gradientUnits="userSpaceOnUse">
      <stop stop-color="#fff"/>
      <stop offset="1" stop-opacity="0"/>
    </linearGradient>
    <linearGradient id="c" x1="8.6" x2="8.6" y1="71" y2="120" gradientUnits="userSpaceOnUse">
      <stop stop-color="#fff"/>
      <stop offset="1" stop-opacity="0"/>
    </linearGradient>
    <linearGradient id="d" x1="33" x2="33" y1="60.9" y2="127.6" gradientUnits="userSpaceOnUse">
      <stop stop-color="#fff"/>
      <stop offset="1" stop-opacity="0"/>
    </linearGradient>
    <linearGradient id="e" x1="45.1" x2="45.1" y1="52.8" y2="141.7" gradientUnits="userSpaceOnUse">
      <stop stop-color="#fff"/>
      <stop offset="1" stop-opacity="0"/>
    </linearGradient>
    <linearGradient id="f" x1="57.3" x2="57.3" y1="36.5" y2="156.7" gradientUnits="userSpaceOnUse">
      <stop stop-color="#fff"/>
      <stop offset="1" stop-opacity="0"/>
    </linearGradient>
    <linearGradient id="g" x1="69.5" x2="69.5" y1="2" y2="197.8" gradientUnits="userSpaceOnUse">
      <stop stop-color="#fff"/>
      <stop offset="1" stop-opacity="0"/>
    </linearGradient>
    <linearGradient id="h" x1="81.2" x2="72.4" y1="35.5" y2="157.2" gradientUnits="userSpaceOnUse">
      <stop stop-color="#fff"/>
      <stop offset="1" stop-opacity="0"/>
    </linearGradient>
    <linearGradient id="i" x1="93.9" x2="93.9" y1="50.7" y2="139.7" gradientUnits="userSpaceOnUse">
      <stop stop-color="#fff"/>
      <stop offset="1" stop-opacity="0"/>
    </linearGradient>
    <linearGradient id="j" x1="106" x2="106" y1="60.9" y2="132.1" gradientUnits="userSpaceOnUse">
      <stop stop-color="#fff"/>
      <stop offset="1" stop-opacity="0"/>
    </linearGradient>
    <linearGradient id="k" x1="117.7" x2="114" y1="68" y2="123.4" gradientUnits="userSpaceOnUse">
      <stop stop-color="#fff"/>
      <stop offset="1" stop-opacity="0"/>
    </linearGradient>
    <filter id="l" width="75" height="75" x="48.8" y="12.2" color-interpolation-filters="sRGB" filterUnits="userSpaceOnUse">
      <feFlood flood-opacity="0" result="BackgroundImageFix"/>
      <feColorMatrix in="SourceAlpha" result="hardAlpha" values="0 0 0 0 0 0 0 0 0 0 0 0 0 0 0 0 0 0 127 0"/>
      <feOffset dy="4"/>
      <feGaussianBlur stdDeviation="2"/>
      <feColorMatrix values="0 0 0 0 0 0 0 0 0 0 0 0 0 0 0 0 0 0 0.25 0"/>
      <feBlend in2="BackgroundImageFix" result="effect1_dropShadow"/>
      <feBlend in="SourceGraphic" in2="effect1_dropShadow" result="shape"/>
    </filter>
  </defs>
</svg>