<svg xmlns="http://www.w3.org/2000/svg" fill="none" viewBox="0 0 127 141">
  <path fill="url(#a)" d="M127 84H0V140.1h11.2v-37.4c1-11.2 11.2-11.2 11.2-11.2h82.2s11.2 0 11.2 13v35.6H127V84Z"/>
  <path stroke="url(#b)" stroke-width="2" d="M18.7 61.6V86" opacity=".4"/>
  <path stroke="url(#c)" stroke-width="2" d="M7.5 65.4v20.5" opacity=".4"/>
  <path stroke="url(#d)" stroke-width="2" d="M29.9 56v28" opacity=".4"/>
  <path stroke="url(#e)" stroke-width="2" d="M41 48.6v37.3" opacity=".4"/>
  <path stroke="url(#f)" stroke-width="2" d="M52.3 33.6V84" opacity=".4"/>
  <path stroke="url(#g)" stroke-width="2" d="M63.5 1.9V84" opacity=".4"/>
  <path stroke="url(#h)" stroke-width="2" d="M74.7 32.7V84" opacity=".4"/>
  <path stroke="url(#i)" stroke-width="2" d="M86 46.7V84" opacity=".4"/>
  <path stroke="url(#j)" stroke-width="2" d="M97.1 56v30" opacity=".4"/>
  <path stroke="url(#k)" stroke-width="2" d="M108.3 62.6v23.3" opacity=".4"/>
  <path stroke="#F3F3F3" stroke-width="2" d="M119.5 65.4v20.5" opacity=".4"/>
  <path stroke="#F3F3F3" stroke-width="2" d="M1.9 66.3C21.2 64.1 59.8 47.8 59.8 0M125.1 66.3C105.8 64.1 67.2 47.8 67.2 0"/>
  <g filter="url(#l)">
    <circle cx="79.4" cy="42" r="30.8" fill="#fff"/>
  </g>
  <g clip-path="url(#m)">
    <path fill="#2F3030" d="m79.4 59.8 12.1-17L79.4 50v9.9Z"/>
    <path fill="#000" d="M79.4 35v12.7l12.1-7.2-12.1-5.4Z"/>
    <path fill="#2F3030" d="M79.4 20.5v14.6l12.1 5.4-12.1-20Z"/>
    <path fill="#828384" d="m79.4 59.8-12.2-17L79.4 50v9.9Z"/>
    <path fill="#343535" d="M79.4 35v12.7l-12.2-7.2 12.2-5.4Z"/>
    <path fill="#828384" d="M79.4 20.5v14.6l-12.2 5.4 12.2-20Z"/>
  </g>
  <defs>
    <linearGradient id="a" x1="3.7" x2="121.4" y1="72.7" y2="72.7" gradientUnits="userSpaceOnUse">
      <stop stop-color="#fff"/>
      <stop offset=".1" stop-color="#B7B7B7"/>
      <stop offset=".2" stop-color="#fff"/>
      <stop offset=".3" stop-color="#9C9C9C"/>
      <stop offset=".5" stop-color="#181818" stop-opacity=".3"/>
      <stop offset=".8" stop-color="#9C9C9C"/>
      <stop offset="1" stop-color="#fff"/>
    </linearGradient>
    <linearGradient id="b" x1="19.2" x2="19.2" y1="61.6" y2="114.9" gradientUnits="userSpaceOnUse">
      <stop stop-color="#fff"/>
      <stop offset="1" stop-opacity="0"/>
    </linearGradient>
    <linearGradient id="c" x1="8" x2="8" y1="65.4" y2="110.4" gradientUnits="userSpaceOnUse">
      <stop stop-color="#fff"/>
      <stop offset="1" stop-opacity="0"/>
    </linearGradient>
    <linearGradient id="d" x1="30.4" x2="30.4" y1="56" y2="117.4" gradientUnits="userSpaceOnUse">
      <stop stop-color="#fff"/>
      <stop offset="1" stop-opacity="0"/>
    </linearGradient>
    <linearGradient id="e" x1="41.6" x2="41.6" y1="48.6" y2="130.4" gradientUnits="userSpaceOnUse">
      <stop stop-color="#fff"/>
      <stop offset="1" stop-opacity="0"/>
    </linearGradient>
    <linearGradient id="f" x1="52.8" x2="52.8" y1="33.6" y2="144.2" gradientUnits="userSpaceOnUse">
      <stop stop-color="#fff"/>
      <stop offset="1" stop-opacity="0"/>
    </linearGradient>
    <linearGradient id="g" x1="64" x2="64" y1="1.9" y2="182" gradientUnits="userSpaceOnUse">
      <stop stop-color="#fff"/>
      <stop offset="1" stop-opacity="0"/>
    </linearGradient>
    <linearGradient id="h" x1="74.7" x2="66.7" y1="32.7" y2="144.7" gradientUnits="userSpaceOnUse">
      <stop stop-color="#fff"/>
      <stop offset="1" stop-opacity="0"/>
    </linearGradient>
    <linearGradient id="i" x1="86.4" x2="86.4" y1="46.7" y2="128.6" gradientUnits="userSpaceOnUse">
      <stop stop-color="#fff"/>
      <stop offset="1" stop-opacity="0"/>
    </linearGradient>
    <linearGradient id="j" x1="97.6" x2="97.6" y1="56" y2="121.5" gradientUnits="userSpaceOnUse">
      <stop stop-color="#fff"/>
      <stop offset="1" stop-opacity="0"/>
    </linearGradient>
    <linearGradient id="k" x1="108.3" x2="104.9" y1="62.6" y2="113.5" gradientUnits="userSpaceOnUse">
      <stop stop-color="#fff"/>
      <stop offset="1" stop-opacity="0"/>
    </linearGradient>
    <clipPath id="m">
      <path fill="#fff" d="M0 0h24.3v39.2H0z" transform="translate(67.2 20.5)"/>
    </clipPath>
    <filter id="l" width="69.6" height="69.6" x="44.6" y="11.2" color-interpolation-filters="sRGB" filterUnits="userSpaceOnUse">
      <feFlood flood-opacity="0" result="BackgroundImageFix"/>
      <feColorMatrix in="SourceAlpha" result="hardAlpha" values="0 0 0 0 0 0 0 0 0 0 0 0 0 0 0 0 0 0 127 0"/>
      <feOffset dy="4"/>
      <feGaussianBlur stdDeviation="2"/>
      <feColorMatrix values="0 0 0 0 0 0 0 0 0 0 0 0 0 0 0 0 0 0 0.25 0"/>
      <feBlend in2="BackgroundImageFix" result="effect1_dropShadow"/>
      <feBlend in="SourceGraphic" in2="effect1_dropShadow" result="shape"/>
    </filter>
  </defs>
</svg>