<svg xmlns="http://www.w3.org/2000/svg" fill="none" viewBox="45 80 130 130">
  <path stroke="url(#a)" stroke-opacity=".2" d="m94.5 174.2 50.8-78.5"/>
  <path stroke="url(#b)" stroke-opacity=".2" d="m102 142.1 51-78.4"/>
  <path stroke="url(#c)" stroke-opacity=".2" d="M112.2 164.8 163 86.4"/>
  <path stroke="url(#d)" stroke-opacity=".2" d="M132.4 158.3 183.3 80"/>
  <path stroke="url(#e)" stroke-opacity=".2" d="m108.5 142.3 51-78.4"/>
  <path stroke="url(#f)" stroke-opacity=".2" d="m126.2 150.3 51-78.4"/>
  <path fill="url(#g)" fill-opacity=".5" d="M176.4 157.3 108 177.5 44.8 147l68-20.4 63.6 30.6Z"/>
  <path fill="url(#h)" d="M176.4 157.3 108 177.5 44.8 147l68-20.4 63.6 30.6Z"/>
  <g filter="url(#i)">
    <path fill="url(#j)" fill-opacity=".5" d="m133.4 161-26.5 16.7-64.6-30.5 55.7-2.6 35.4 16.5Z"/>
    <path fill="url(#k)" d="m133.4 161-26.5 16.7-64.6-30.5 55.7-2.6 35.4 16.5Z"/>
    <path fill="url(#l)" d="m133.4 161-26.5 16.7-64.6-30.5 55.7-2.6 35.4 16.5Z"/>
  </g>
  <path fill="url(#m)" d="M108 180v-2.5l68.4-20.2v2.5L108 180Z"/>
  <path fill="url(#n)" d="M44.8 149.7V147l63.3 30.4v2.5l-63.3-30.3Z"/>
  <mask id="o" width="138" height="112" x="62" y="63" maskUnits="userSpaceOnUse" style="mask-type:alpha">
    <path fill="#C4C4C4" d="m199 141.2-72.6 21.6L75 140.2l26.2-54.7 51.6 4.4 46.2 51.3Z"/>
  </mask>
  <g mask="url(#o)">
    <path fill="url(#p)" d="M110 191.8c12.6 0 22.7-18.3 22.7-40.8 0-22.5-10.1-40.8-22.6-40.8h-4.6v81.6h4.6Z"/>
    <ellipse cx="105.5" cy="151" fill="url(#q)" rx="22.7" ry="40.8"/>
    <path stroke="url(#r)" stroke-opacity=".7" stroke-width=".3" d="M122 151c0 9.7-1.9 18.5-5 24.9-3.2 6.4-7.5 10.2-12.2 10.2-4.7 0-9-3.8-12.2-10.2-3.1-6.4-5-15.2-5-24.9s1.9-18.5 5-24.9c3.1-6.3 7.5-10.2 12.2-10.2 4.7 0 9 3.9 12.2 10.2 3.1 6.4 5 15.2 5 25Z"/>
  </g>
  <defs>
    <linearGradient id="a" x1="93.6" x2="89.2" y1="170.9" y2="110.6" gradientUnits="userSpaceOnUse">
      <stop stop-opacity="0"/>
      <stop offset=".2" stop-color="#E7E7E7" stop-opacity=".4"/>
      <stop offset=".5" stop-color="#fff"/>
      <stop offset=".8" stop-color="#EDEDED" stop-opacity=".4"/>
      <stop offset="1" stop-opacity="0"/>
    </linearGradient>
    <linearGradient id="b" x1="101.2" x2="96.8" y1="138.8" y2="78.6" gradientUnits="userSpaceOnUse">
      <stop stop-opacity="0"/>
      <stop offset=".2" stop-color="#E7E7E7" stop-opacity=".4"/>
      <stop offset=".5" stop-color="#fff"/>
      <stop offset=".8" stop-color="#EDEDED" stop-opacity=".4"/>
      <stop offset="1" stop-opacity="0"/>
    </linearGradient>
    <linearGradient id="c" x1="111.3" x2="106.9" y1="161.5" y2="101.2" gradientUnits="userSpaceOnUse">
      <stop stop-opacity="0"/>
      <stop offset=".2" stop-color="#E7E7E7" stop-opacity=".4"/>
      <stop offset=".5" stop-color="#fff"/>
      <stop offset=".8" stop-color="#EDEDED" stop-opacity=".4"/>
      <stop offset="1" stop-opacity="0"/>
    </linearGradient>
    <linearGradient id="d" x1="131.5" x2="127.1" y1="155" y2="94.7" gradientUnits="userSpaceOnUse">
      <stop stop-opacity="0"/>
      <stop offset=".2" stop-color="#E7E7E7" stop-opacity=".4"/>
      <stop offset=".5" stop-color="#fff"/>
      <stop offset=".8" stop-color="#EDEDED" stop-opacity=".4"/>
      <stop offset="1" stop-opacity="0"/>
    </linearGradient>
    <linearGradient id="e" x1="107.7" x2="103.2" y1="139" y2="78.7" gradientUnits="userSpaceOnUse">
      <stop stop-opacity="0"/>
      <stop offset=".2" stop-color="#E7E7E7" stop-opacity=".4"/>
      <stop offset=".5" stop-color="#fff"/>
      <stop offset=".8" stop-color="#EDEDED" stop-opacity=".4"/>
      <stop offset="1" stop-opacity="0"/>
    </linearGradient>
    <linearGradient id="f" x1="125.4" x2="121" y1="147" y2="86.7" gradientUnits="userSpaceOnUse">
      <stop stop-opacity="0"/>
      <stop offset=".2" stop-color="#E7E7E7" stop-opacity=".4"/>
      <stop offset=".5" stop-color="#fff"/>
      <stop offset=".8" stop-color="#EDEDED" stop-opacity=".4"/>
      <stop offset="1" stop-opacity="0"/>
    </linearGradient>
    <linearGradient id="g" x1="85.7" x2="137.4" y1="221.6" y2="120" gradientUnits="userSpaceOnUse">
      <stop stop-color="#fff"/>
      <stop offset=".1" stop-color="#B7B7B7"/>
      <stop offset=".2" stop-color="#fff"/>
      <stop offset=".3" stop-color="#9C9C9C"/>
      <stop offset=".5" stop-color="#181818"/>
      <stop offset=".8" stop-color="#9C9C9C"/>
      <stop offset="1" stop-color="#fff"/>
    </linearGradient>
    <linearGradient id="h" x1="3.7" x2="157.3" y1="150.8" y2="224.7" gradientUnits="userSpaceOnUse">
      <stop stop-color="#fff"/>
      <stop offset="1" stop-color="#fff" stop-opacity="0"/>
    </linearGradient>
    <linearGradient id="j" x1="85.9" x2="137.6" y1="221.8" y2="120.2" gradientUnits="userSpaceOnUse">
      <stop stop-color="#fff"/>
      <stop offset=".1" stop-color="#B7B7B7"/>
      <stop offset=".2" stop-color="#fff"/>
      <stop offset=".3" stop-color="#9C9C9C"/>
      <stop offset=".5" stop-color="#181818"/>
      <stop offset=".8" stop-color="#9C9C9C"/>
      <stop offset="1" stop-color="#fff"/>
    </linearGradient>
    <linearGradient id="k" x1="3.8" x2="157.4" y1="151" y2="224.8" gradientUnits="userSpaceOnUse">
      <stop stop-color="#fff"/>
      <stop offset="1" stop-color="#fff" stop-opacity="0"/>
    </linearGradient>
    <linearGradient id="m" x1="81.3" x2="165.1" y1="199.5" y2="119.8" gradientUnits="userSpaceOnUse">
      <stop stop-color="#fff"/>
      <stop offset="1" stop-color="#030303"/>
    </linearGradient>
    <linearGradient id="n" x1="49.4" x2="111.6" y1="171.2" y2="224.1" gradientUnits="userSpaceOnUse">
      <stop stop-color="#fff"/>
      <stop offset="1" stop-color="#fff" stop-opacity="0"/>
    </linearGradient>
    <linearGradient id="p" x1="127.2" x2="173.3" y1="47.6" y2="124.7" gradientUnits="userSpaceOnUse">
      <stop stop-color="#814916"/>
      <stop offset=".1" stop-color="#705D2F"/>
      <stop offset=".2" stop-color="#F3E0CE"/>
      <stop offset=".3" stop-color="#896747"/>
      <stop offset=".5" stop-color="#FFF4D9"/>
      <stop offset=".7" stop-color="#A8935C"/>
      <stop offset=".9" stop-color="#8C7640"/>
      <stop offset="1" stop-color="#423619"/>
    </linearGradient>
    <linearGradient id="q" x1="62.6" x2="175.6" y1="131.8" y2="186.1" gradientUnits="userSpaceOnUse">
      <stop stop-color="#fff"/>
      <stop stop-color="#FFF7E1"/>
      <stop offset=".1" stop-color="#674A00"/>
      <stop offset=".2" stop-color="#FFE39E"/>
      <stop offset=".3" stop-color="#BEA973"/>
      <stop offset=".5" stop-color="#554009"/>
      <stop offset=".8" stop-color="#9C9C9C"/>
      <stop offset="1" stop-color="#fff"/>
    </linearGradient>
    <linearGradient id="r" x1="120.6" x2="77.3" y1="159" y2="138.2" gradientUnits="userSpaceOnUse">
      <stop stop-color="#fff"/>
      <stop offset="1" stop-opacity="0"/>
    </linearGradient>
    <radialGradient id="l" cx="0" cy="0" r="1" gradientTransform="matrix(63.23237 -17.705 14.85886 53.06751 109.3 142)" gradientUnits="userSpaceOnUse">
      <stop offset=".1"/>
      <stop offset="1" stop-opacity="0"/>
    </radialGradient>
    <filter id="i" width="101.5" height="76.8" x="38.3" y="119.9" color-interpolation-filters="sRGB" filterUnits="userSpaceOnUse">
      <feFlood flood-opacity="0" result="BackgroundImageFix"/>
      <feBlend in="SourceGraphic" in2="BackgroundImageFix" result="shape"/>
      <feGaussianBlur result="effect1_foregroundBlur" stdDeviation="2"/>
    </filter>
  </defs>
</svg>