<svg xmlns="http://www.w3.org/2000/svg" fill="none" viewBox="0 0 143 109">
  <mask id="a" width="141" height="100" x="0" y="0" maskUnits="userSpaceOnUse" style="mask-type:alpha">
    <path fill="#C4C4C4" d="M.4 0h139.7v99.8H.4z"/>
  </mask>
  <g mask="url(#a)">
    <path stroke="url(#b)" d="M57.8 41.2H114L145.1 10"/>
    <path stroke="url(#c)" d="M60.3 71h54.9l26.2 28.8"/>
    <path stroke="url(#d)" d="M61.6 48.6h57.3l26.2-26.2"/>
    <path stroke="url(#e)" d="M62.8 63.6h57.4l22.4 23.7"/>
    <path stroke="url(#f)" d="M32.9 56.1h91"/>
    <path stroke="#fff" d="M141.4 40 123.9 56l17.5 17.5"/>
  </g>
  <path stroke="url(#g)" d="M86.5 41.2h27.4l16.2-16.3"/>
  <path stroke="url(#h)" stroke-opacity=".4" d="m141.4 86-21.2-22.4H97.7"/>
  <circle cx="42.9" cy="54.9" r="39.9" fill="#C4C4C4"/>
  <circle cx="42.9" cy="54.9" r="39.9" fill="url(#i)"/>
  <circle cx="42.9" cy="54.9" r="39.9" fill="#F1D3A5"/>
  <circle cx="42.9" cy="54.9" r="39.9" fill="#fff"/>
  <circle cx="42.9" cy="54.9" r="39.9" fill="url(#j)"/>
  <circle cx="42.9" cy="54.9" r="39.9" fill="url(#k)"/>
  <circle cx="42.9" cy="54.9" r="39.9" fill="url(#l)"/>
  <circle cx="42.9" cy="54.9" r="39.9" fill="url(#m)"/>
  <path fill="#DAC185" fill-rule="evenodd" d="m34 45.3 8.9-9 8.9 9-16.4 16.3.7.8 6.7-6.8 9 8.9-9 9-18.5-18.6 9-9 6.3 6.5.8-.7-6.5-6.4Zm9.6 9.6 8.9 8.9 8.9-9-9-8.8-8.8 8.9Zm9.6-9.7 8.9 9 .7.7-.7.7-9 8.9-.6.7-9 9-.6.6-.8-.7-18.5-18.5-.7-.7.7-.7 18.5-18.6.8-.7.7.7 8.9 9 .7.6Z" clip-rule="evenodd"/>
  <path fill="url(#n)" fill-rule="evenodd" d="m34 45.3 8.9-9 8.9 9-16.4 16.3.7.8 6.7-6.8 9 8.9-9 9-18.5-18.6 9-9 6.3 6.5.8-.7-6.5-6.4Zm9.6 9.6 8.9 8.9 8.9-9-9-8.8-8.8 8.9Zm9.6-9.7 8.9 9 .7.7-.7.7-9 8.9-.6.7-9 9-.6.6-.8-.7-18.5-18.5-.7-.7.7-.7 18.5-18.6.8-.7.7.7 8.9 9 .7.6Z" clip-rule="evenodd"/>
  <path fill="#fff" fill-opacity=".1" fill-rule="evenodd" d="m34 45.3 8.9-9 8.9 9-16.4 16.3.7.8 6.7-6.8 9 8.9-9 9-18.5-18.6 9-9 6.3 6.5.8-.7-6.5-6.4Zm9.6 9.6 8.9 8.9 8.9-9-9-8.8-8.8 8.9Zm9.6-9.7 8.9 9 .7.7-.7.7-9 8.9-.6.7-9 9-.6.6-.8-.7-18.5-18.5-.7-.7.7-.7 18.5-18.6.8-.7.7.7 8.9 9 .7.6Z" clip-rule="evenodd"/>
  <circle cx="42.9" cy="54.9" r="34.4" stroke="url(#o)"/>
  <defs>
    <linearGradient id="b" x1="97.7" x2="91" y1="43.6" y2="33" gradientUnits="userSpaceOnUse">
      <stop stop-color="#fff"/>
      <stop offset="1" stop-color="#fff" stop-opacity="0"/>
    </linearGradient>
    <linearGradient id="c" x1="100.2" x2="93.8" y1="72.3" y2="82.5" gradientUnits="userSpaceOnUse">
      <stop stop-color="#fff"/>
      <stop offset="1" stop-color="#fff" stop-opacity="0"/>
    </linearGradient>
    <linearGradient id="d" x1="99" x2="93.6" y1="48.6" y2="40.2" gradientUnits="userSpaceOnUse">
      <stop stop-color="#fff"/>
      <stop offset="1" stop-color="#fff" stop-opacity="0"/>
    </linearGradient>
    <linearGradient id="e" x1="92.7" x2="89.5" y1="66.1" y2="71.2" gradientUnits="userSpaceOnUse">
      <stop stop-color="#fff"/>
      <stop offset="1" stop-color="#fff" stop-opacity="0"/>
    </linearGradient>
    <linearGradient id="f" x1="101.5" x2="100" y1="56.9" y2="51" gradientUnits="userSpaceOnUse">
      <stop stop-color="#fff"/>
      <stop offset="1" stop-color="#fff" stop-opacity="0"/>
    </linearGradient>
    <linearGradient id="j" x1="27.1" x2="82.8" y1="-6.8" y2="103.3" gradientUnits="userSpaceOnUse">
      <stop stop-color="#fff"/>
      <stop offset=".1" stop-color="#B7B7B7"/>
      <stop offset=".2" stop-color="#fff"/>
      <stop offset=".3" stop-color="#9C9C9C"/>
      <stop offset=".5" stop-color="#4C4D46"/>
      <stop offset="1" stop-color="#fff"/>
    </linearGradient>
    <linearGradient id="k" x1="74.3" x2="-38.2" y1="192.8" y2="-23.7" gradientUnits="userSpaceOnUse">
      <stop stop-color="#fff"/>
      <stop offset=".1" stop-color="#B7B7B7"/>
      <stop offset=".2" stop-color="#fff"/>
      <stop offset=".3" stop-color="#9C9C9C"/>
      <stop offset=".5" stop-color="#4C4D46"/>
      <stop offset="1" stop-color="#fff"/>
    </linearGradient>
    <linearGradient id="l" x1="-27" x2="84.6" y1="6.2" y2="125" gradientUnits="userSpaceOnUse">
      <stop stop-color="#fff"/>
      <stop offset=".1" stop-color="#B7B7B7"/>
      <stop offset=".2" stop-color="#fff"/>
      <stop offset=".3" stop-color="#9C9C9C"/>
      <stop offset=".5" stop-color="#181818"/>
      <stop offset=".8" stop-color="#9C9C9C"/>
      <stop offset="1" stop-color="#fff"/>
    </linearGradient>
    <linearGradient id="m" x1="23.5" x2="44.1" y1="24.6" y2="53.7" gradientUnits="userSpaceOnUse">
      <stop stop-color="#fff"/>
      <stop offset="1" stop-opacity="0"/>
    </linearGradient>
    <linearGradient id="n" x1="5.1" x2="75.1" y1="45.5" y2="106" gradientUnits="userSpaceOnUse">
      <stop stop-color="#fff"/>
      <stop stop-color="#FFF7E1"/>
      <stop offset=".1" stop-color="#674A00"/>
      <stop offset=".2" stop-color="#FFE39E"/>
      <stop offset=".3" stop-color="#BEA973"/>
      <stop offset=".5" stop-color="#554009"/>
      <stop offset=".8" stop-color="#9C9C9C"/>
      <stop offset="1" stop-color="#fff"/>
    </linearGradient>
    <linearGradient id="o" x1="42.9" x2="70.3" y1="20" y2="89.8" gradientUnits="userSpaceOnUse">
      <stop stop-color="#fff"/>
      <stop offset="1" stop-opacity="0"/>
    </linearGradient>
  </defs>
</svg>