<svg xmlns="http://www.w3.org/2000/svg" fill="none" viewBox="0 0 140 138">
  <path stroke="url(#a)" stroke-opacity=".2" d="M26.7 137.2c25.5-4.8 42.9-27.6 42.9-45.5"/>
  <path stroke="url(#b)" stroke-opacity=".2" d="M0 88.5c14.3 0 24.2-2.3 41.7-11.4"/>
  <path stroke="url(#c)" stroke-opacity=".2" d="M0 95c15.9 0 26.9-3 46.4-14.6"/>
  <path stroke="url(#d)" stroke-opacity=".2" d="M0 103.1c15.9 0 26.9-3 46.4-14.6"/>
  <path stroke="url(#e)" stroke-opacity=".2" d="M0 109.6c16.7 0 28.2-3 48.7-14.6"/>
  <path stroke="url(#f)" stroke-opacity=".2" d="M0 117.7c21.4 0 36.3-5.2 62.6-26"/>
  <path stroke="url(#g)" stroke-opacity=".2" d="M0 129.1c20.6 0 35-5.2 60.3-26"/>
  <path stroke="url(#h)" stroke-opacity=".2" d="M112.5 137.2c-25.5-4.8-43-27.6-43-45.5"/>
  <path stroke="url(#i)" stroke-opacity=".2" d="M139.2 88.5A79.6 79.6 0 0 1 97.4 77"/>
  <path stroke="url(#j)" stroke-opacity=".2" d="M139.2 95c-16 0-26.9-3-46.4-14.6"/>
  <path stroke="url(#k)" stroke-opacity=".2" d="M139.2 103.1c-16 0-26.9-3-46.4-14.6"/>
  <path stroke="url(#l)" stroke-opacity=".2" d="M139.2 109.6c-16.7 0-28.2-3-48.8-14.6"/>
  <path stroke="url(#m)" stroke-opacity=".2" d="M139.2 117.7c-21.5 0-36.3-5.2-62.7-26"/>
  <path stroke="url(#n)" stroke-opacity=".2" d="M139.2 129.1c-20.7 0-35-5.2-60.3-26"/>
  <ellipse cx="69.6" cy="94.8" fill="#1B1F27" rx="51.4" ry="27.2"/>
  <path stroke="url(#o)" d="M121 94.8c0 15-23 27.2-51.4 27.2s-51.4-12.2-51.4-27.2 23-27.1 51.4-27.1S121 79.8 121 94.8Z"/>
  <path fill="#fff" fill-opacity=".3" d="M115 99.5C115 112 94.6 122 69.6 122s-45.4-10-45.4-22.5c0-12.3 20.3-22.4 45.4-22.4 25 0 45.4 10 45.4 22.4Z"/>
  <path fill="url(#p)" d="M37.6 93c10.7 10.6 35 3.7 54.2-15.5 19.3-19.3 26.2-43.6 15.5-54.3l-3.8-3.8L33.7 89l4 3.8Z"/>
  <path fill="#C4C4C4" d="M88 73.6C68.7 92.8 44.4 99.8 33.8 89 23 78.4 30 54 49.2 34.9c19.3-19.3 43.6-26.2 54.3-15.5 10.7 10.7 3.7 35-15.5 54.2Z"/>
  <path fill="url(#q)" d="M88 73.6C68.7 92.8 44.4 99.8 33.8 89 23 78.4 30 54 49.2 34.9c19.3-19.3 43.6-26.2 54.3-15.5 10.7 10.7 3.7 35-15.5 54.2Z"/>
  <path stroke="url(#r)" stroke-opacity=".7" stroke-width=".3" d="M82.7 68.4a69.7 69.7 0 0 1-25.6 16.9C49.1 88 42 87.6 38 83.6c-4-4-4.5-11-1.7-19.2a69.7 69.7 0 0 1 16.9-25.6A69.7 69.7 0 0 1 78.8 22c8.1-2.7 15.1-2.4 19.2 1.7 4 4 4.4 11 1.6 19.2a69.7 69.7 0 0 1-16.9 25.6Z"/>
  <g filter="url(#s)">
    <path fill="url(#t)" fill-rule="evenodd" d="M72.2 39.7 85 35.4l-4.4 12.8-23 7.8-.3.7 9.5-3.2-4.4 12.8-12.8 4.3 9-26.3L71.5 40l-3.2 9.2.7-.3 3.2-9.2Zm-4.7 13.5-4.4 12.9L76 61.7l4.3-12.8-12.8 4.3Zm8.2 9.2L63 66.7l-.7.3-12.8 4.3-.7.3.3-.7 9-26.3.2-.7.7-.3 26.3-9 .7-.2-.2.7-9 26.3-.3.7-.7.3Z" clip-rule="evenodd"/>
  </g>
  <defs>
    <linearGradient id="a" x1="32.7" x2="62" y1="132" y2="129.6" gradientUnits="userSpaceOnUse">
      <stop stop-color="#13171E"/>
      <stop offset="1" stop-color="#AAA"/>
    </linearGradient>
    <linearGradient id="b" x1="0" x2="27.1" y1="87" y2="77.9" gradientUnits="userSpaceOnUse">
      <stop stop-color="#242424"/>
      <stop offset="1" stop-color="#B3B3B3"/>
    </linearGradient>
    <linearGradient id="c" x1="0" x2="30.9" y1="93" y2="84.1" gradientUnits="userSpaceOnUse">
      <stop stop-color="#242424"/>
      <stop offset="1" stop-color="#B3B3B3"/>
    </linearGradient>
    <linearGradient id="d" x1="0" x2="30.9" y1="101.2" y2="92.3" gradientUnits="userSpaceOnUse">
      <stop stop-color="#242424"/>
      <stop offset="1" stop-color="#B3B3B3"/>
    </linearGradient>
    <linearGradient id="e" x1="0" x2="32.1" y1="107.7" y2="97.9" gradientUnits="userSpaceOnUse">
      <stop stop-color="#242424"/>
      <stop offset="1" stop-color="#B3B3B3"/>
    </linearGradient>
    <linearGradient id="f" x1="0" x2="43.1" y1="114.3" y2="104.8" gradientUnits="userSpaceOnUse">
      <stop stop-color="#242424"/>
      <stop offset="1" stop-color="#B3B3B3"/>
    </linearGradient>
    <linearGradient id="g" x1="0" x2="41.6" y1="125.7" y2="116.9" gradientUnits="userSpaceOnUse">
      <stop stop-color="#242424"/>
      <stop offset="1" stop-color="#B3B3B3"/>
    </linearGradient>
    <linearGradient id="h" x1="106.4" x2="77.1" y1="132" y2="129.6" gradientUnits="userSpaceOnUse">
      <stop stop-color="#13171E"/>
      <stop offset="1" stop-color="#AAA"/>
    </linearGradient>
    <linearGradient id="i" x1="139.2" x2="112.1" y1="87" y2="77.9" gradientUnits="userSpaceOnUse">
      <stop stop-color="#242424"/>
      <stop offset="1" stop-color="#B3B3B3"/>
    </linearGradient>
    <linearGradient id="j" x1="139.2" x2="108.3" y1="93" y2="84.1" gradientUnits="userSpaceOnUse">
      <stop stop-color="#242424"/>
      <stop offset="1" stop-color="#B3B3B3"/>
    </linearGradient>
    <linearGradient id="k" x1="139.2" x2="108.3" y1="101.2" y2="92.3" gradientUnits="userSpaceOnUse">
      <stop stop-color="#242424"/>
      <stop offset="1" stop-color="#B3B3B3"/>
    </linearGradient>
    <linearGradient id="l" x1="139.2" x2="107" y1="107.7" y2="97.9" gradientUnits="userSpaceOnUse">
      <stop stop-color="#242424"/>
      <stop offset="1" stop-color="#B3B3B3"/>
    </linearGradient>
    <linearGradient id="m" x1="139.2" x2="96.1" y1="114.3" y2="104.8" gradientUnits="userSpaceOnUse">
      <stop stop-color="#242424"/>
      <stop offset="1" stop-color="#B3B3B3"/>
    </linearGradient>
    <linearGradient id="n" x1="139.2" x2="97.6" y1="125.7" y2="116.9" gradientUnits="userSpaceOnUse">
      <stop stop-color="#242424"/>
      <stop offset="1" stop-color="#B3B3B3"/>
    </linearGradient>
    <linearGradient id="o" x1="10.6" x2="65.6" y1="60.6" y2="131" gradientUnits="userSpaceOnUse">
      <stop stop-color="#fff"/>
      <stop offset="1" stop-opacity="0"/>
    </linearGradient>
    <linearGradient id="p" x1="175.5" x2="149" y1="-15.5" y2="89.7" gradientUnits="userSpaceOnUse">
      <stop stop-color="#fff"/>
      <stop offset=".1" stop-color="#B7B7B7"/>
      <stop offset=".2" stop-color="#fff"/>
      <stop offset=".3" stop-color="#9C9C9C"/>
      <stop offset=".5" stop-color="#181818"/>
      <stop offset=".7" stop-color="#9C9C9C"/>
      <stop offset=".9" stop-color="#fff"/>
      <stop offset="1" stop-color="#4F4F4F"/>
    </linearGradient>
    <linearGradient id="q" x1="48.4" x2="101.7" y1="1.1" y2="84.4" gradientUnits="userSpaceOnUse">
      <stop stop-color="#fff"/>
      <stop offset=".1" stop-color="#B7B7B7"/>
      <stop offset=".2" stop-color="#fff"/>
      <stop offset=".3" stop-color="#9C9C9C"/>
      <stop offset=".5" stop-color="#181818"/>
      <stop offset=".8" stop-color="#9C9C9C"/>
      <stop offset="1" stop-color="#fff"/>
    </linearGradient>
    <linearGradient id="r" x1="74.6" x2="55.5" y1="73.9" y2="19.2" gradientUnits="userSpaceOnUse">
      <stop stop-color="#fff"/>
      <stop offset="1" stop-opacity="0"/>
    </linearGradient>
    <linearGradient id="t" x1="16.6" x2="212.2" y1="13.2" y2="154.8" gradientUnits="userSpaceOnUse">
      <stop stop-color="#fff"/>
      <stop stop-color="#fff"/>
      <stop offset=".1" stop-color="#858585"/>
      <stop offset=".2" stop-color="#fff"/>
      <stop offset=".3" stop-color="#E0E0E0"/>
      <stop offset=".5" stop-color="#9F9F9F"/>
      <stop offset=".8" stop-color="#9C9C9C"/>
      <stop offset="1" stop-color="#fff"/>
    </linearGradient>
    <filter id="s" width="38.2" height="38.1" x="48.7" y="34.4" color-interpolation-filters="sRGB" filterUnits="userSpaceOnUse">
      <feFlood flood-opacity="0" result="BackgroundImageFix"/>
      <feBlend in="SourceGraphic" in2="BackgroundImageFix" result="shape"/>
      <feColorMatrix in="SourceAlpha" result="hardAlpha" values="0 0 0 0 0 0 0 0 0 0 0 0 0 0 0 0 0 0 127 0"/>
      <feOffset dx="1" dy="1"/>
      <feGaussianBlur stdDeviation=".5"/>
      <feComposite in2="hardAlpha" k2="-1" k3="1" operator="arithmetic"/>
      <feColorMatrix values="0 0 0 0 0 0 0 0 0 0 0 0 0 0 0 0 0 0 0.15 0"/>
      <feBlend in2="shape" result="effect1_innerShadow"/>
    </filter>
  </defs>
</svg>