<svg xmlns="http://www.w3.org/2000/svg" fill="none" viewBox="0 0 142 131">
  <path stroke="url(#a)" d="M57 77 30 51H8"/>
  <path stroke="url(#b)" d="M57 66 33 43H8"/>
  <path stroke="url(#c)" d="M52 82 27 59H8"/>
  <path stroke="url(#d)" d="M72 60 46 33V8"/>
  <path stroke="url(#e)" d="M61 60 38 35V8"/>
  <path stroke="url(#f)" d="M77 55 53 30V8"/>
  <g filter="url(#g)">
    <path fill="url(#h)" d="m39 51 2-2h95l2 2v69l-2 2H41l-2-2V51Z"/>
    <path fill="url(#i)" d="m39 51 2-2h95l2 2v69l-2 2H41l-2-2V51Z"/>
  </g>
  <path fill="#184A4E" d="m44 59 2-2h85l2 2v6H44v-6Z"/>
  <path fill="url(#j)" d="m44 59 2-2h85l2 2v6H44v-6Z"/>
  <path fill="#184A4E" d="m44 72 2-2h85l2 2v6H44v-6Z"/>
  <path fill="url(#k)" d="m44 72 2-2h85l2 2v6H44v-6Z"/>
  <defs>
    <linearGradient id="a" x1="4.9" x2="52.8" y1="66.3" y2="82.9" gradientUnits="userSpaceOnUse">
      <stop stop-color="#fff"/>
      <stop offset="1" stop-color="#fff" stop-opacity="0"/>
    </linearGradient>
    <linearGradient id="b" x1="4.9" x2="52.8" y1="57.1" y2="73.6" gradientUnits="userSpaceOnUse">
      <stop stop-color="#fff"/>
      <stop offset="1" stop-color="#fff" stop-opacity="0"/>
    </linearGradient>
    <linearGradient id="c" x1="-.8" x2="46" y1="67.9" y2="84.6" gradientUnits="userSpaceOnUse">
      <stop stop-color="#fff"/>
      <stop offset="1" stop-color="#fff" stop-opacity="0"/>
    </linearGradient>
    <linearGradient id="d" x1="61.1" x2="77.6" y1="7.5" y2="55.4" gradientUnits="userSpaceOnUse">
      <stop stop-color="#fff"/>
      <stop offset="1" stop-color="#fff" stop-opacity="0"/>
    </linearGradient>
    <linearGradient id="e" x1="51.9" x2="68.4" y1="7.5" y2="55.4" gradientUnits="userSpaceOnUse">
      <stop stop-color="#fff"/>
      <stop offset="1" stop-color="#fff" stop-opacity="0"/>
    </linearGradient>
    <linearGradient id="f" x1="62.7" x2="79.4" y1="1.8" y2="48.6" gradientUnits="userSpaceOnUse">
      <stop stop-color="#fff"/>
      <stop offset="1" stop-color="#fff" stop-opacity="0"/>
    </linearGradient>
    <linearGradient id="h" x1="29.2" x2="105" y1="42.2" y2="148.8" gradientUnits="userSpaceOnUse">
      <stop stop-color="#fff"/>
      <stop offset=".1" stop-color="#B7B7B7"/>
      <stop offset=".2" stop-color="#fff"/>
      <stop offset=".3" stop-color="#9C9C9C"/>
      <stop offset=".5" stop-color="#403F3A"/>
      <stop offset=".8" stop-color="#9C9C9C"/>
      <stop offset="1" stop-color="#fff"/>
    </linearGradient>
    <linearGradient id="i" x1="107.1" x2="57.5" y1="80.2" y2="160.3" gradientUnits="userSpaceOnUse">
      <stop stop-color="#fff"/>
      <stop offset="1" stop-opacity="0"/>
    </linearGradient>
    <linearGradient id="j" x1="123.7" x2="88.5" y1="36.5" y2="65.1" gradientUnits="userSpaceOnUse">
      <stop stop-color="#fff"/>
      <stop offset="1" stop-opacity="0"/>
    </linearGradient>
    <linearGradient id="k" x1="123.7" x2="88.5" y1="49.5" y2="78.1" gradientUnits="userSpaceOnUse">
      <stop stop-color="#fff"/>
      <stop offset="1" stop-opacity="0"/>
    </linearGradient>
    <filter id="g" width="106.9" height="80.9" x="35" y="50" color-interpolation-filters="sRGB" filterUnits="userSpaceOnUse">
      <feFlood flood-opacity="0" result="BackgroundImageFix"/>
      <feColorMatrix in="SourceAlpha" result="hardAlpha" values="0 0 0 0 0 0 0 0 0 0 0 0 0 0 0 0 0 0 127 0"/>
      <feOffset dy="4"/>
      <feGaussianBlur stdDeviation="2"/>
      <feColorMatrix values="0 0 0 0 0 0 0 0 0 0 0 0 0 0 0 0 0 0 0.25 0"/>
      <feBlend in2="BackgroundImageFix" result="effect1_dropShadow"/>
      <feBlend in="SourceGraphic" in2="effect1_dropShadow" result="shape"/>
    </filter>
  </defs>
</svg>