<svg xmlns="http://www.w3.org/2000/svg" fill="none" viewBox="0 0 62 62">
  <g filter="url(#a)">
    <g clip-path="url(#b)">
      <rect width="62" height="62" fill="#141821" rx="4"/>
      <g clip-path="url(#c)">
        <path fill="#000" d="M-145 914V-160h620V914z"/>
        <path fill="url(#d)" d="M-145 914H929v620H-145z" transform="rotate(-90 -145 914)"/>
      </g>
      <path stroke="url(#e)" stroke-width=".21" d="M15.31 24.28 3.81 13.33h-9.3"/>
      <path stroke="url(#f)" stroke-width=".21" d="m15.31 19.9-10.4-9.86h-10.4"/>
      <path stroke="url(#g)" stroke-width=".21" d="m13.12 26.47-10.4-9.85h-8.21"/>
      <path stroke="url(#h)" stroke-width=".21" d="M21.34 17.16 10.38 5.66v-10.4"/>
      <path stroke="url(#i)" stroke-width=".21" d="M16.96 17.16 7.1 6.76v-11.5"/>
      <path stroke="url(#j)" stroke-width=".21" d="m23.53 14.97-9.86-10.4v-9.31"/>
      <path stroke="url(#k)" stroke-width=".21" d="m45.73 24.28 11.5-10.95h9.31"/>
      <path stroke="url(#l)" stroke-width=".21" d="m45.73 19.9 10.4-9.86h10.41"/>
      <path stroke="url(#m)" stroke-width=".21" d="m47.92 26.47 10.4-9.85h8.22"/>
      <path stroke="url(#n)" stroke-width=".21" d="m39.71 17.16 10.95-11.5v-10.4"/>
      <path stroke="url(#o)" stroke-width=".21" d="m44.09 17.16 9.86-10.4v-11.5"/>
      <path stroke="url(#p)" stroke-width=".21" d="m37.52 14.97 9.85-10.4v-9.31"/>
      <path stroke="url(#q)" stroke-width=".21" d="m45.73 36.57 11.5 10.96h9.31"/>
      <path stroke="url(#r)" stroke-width=".21" d="m45.73 40.95 10.4 9.86h10.41"/>
      <path stroke="url(#s)" stroke-width=".21" d="m47.92 34.38 10.4 9.86h8.22"/>
      <path stroke="url(#t)" stroke-width=".21" d="m39.71 43.7 10.95 11.5v10.4"/>
      <path stroke="url(#u)" stroke-width=".21" d="m44.09 43.7 9.86 10.4v11.5"/>
      <path stroke="url(#v)" stroke-width=".21" d="m37.52 45.88 9.85 10.4v9.31"/>
      <path stroke="url(#w)" stroke-width=".21" d="M15.31 36.57 3.81 47.53h-9.3"/>
      <path stroke="url(#x)" stroke-width=".21" d="m15.31 40.95-10.4 9.86h-10.4"/>
      <path stroke="url(#y)" stroke-width=".21" d="m13.12 34.38-10.4 9.86H-5.5"/>
      <path stroke="url(#z)" stroke-width=".21" d="M21.33 43.7 10.38 55.2v10.4"/>
      <path stroke="url(#A)" stroke-width=".21" d="M16.96 43.7 7.1 54.1v11.5"/>
      <path stroke="url(#B)" stroke-width=".21" d="m23.53 45.88-9.86 10.4v9.31"/>
      <g filter="url(#C)">
        <path fill="#C4C4C4" d="M17.12 17.49a2.8 2.8 0 0 1 2.8-2.8H43.2a2.8 2.8 0 0 1 2.8 2.8v26.35a2.8 2.8 0 0 1-2.8 2.8H19.93a2.8 2.8 0 0 1-2.8-2.8V17.5Z"/>
        <path fill="url(#D)" d="M17.12 17.49a2.8 2.8 0 0 1 2.8-2.8H43.2a2.8 2.8 0 0 1 2.8 2.8v26.35a2.8 2.8 0 0 1-2.8 2.8H19.93a2.8 2.8 0 0 1-2.8-2.8V17.5Z"/>
      </g>
      <g filter="url(#E)">
        <path fill="#C4C4C4" d="M16 13.56c0-.3.25-.56.56-.56h24.11a2.8 2.8 0 0 1 2.8 2.8v28.04a2.8 2.8 0 0 1-2.8 2.8h-24.1a.56.56 0 0 1-.57-.56V13.56Z"/>
        <path fill="url(#F)" d="M16 13.56c0-.3.25-.56.56-.56h24.11a2.8 2.8 0 0 1 2.8 2.8v28.04a2.8 2.8 0 0 1-2.8 2.8h-24.1a.56.56 0 0 1-.57-.56V13.56Z"/>
      </g>
      <circle cx="29.74" cy="29.82" r="7.01" stroke="#498AFD" stroke-width=".56"/>
      <path stroke="#498AFD" stroke-width=".56" d="M33.83 29.82c0 1.98-.46 3.75-1.19 5.02-.73 1.27-1.7 2-2.72 2-1.01 0-1.99-.73-2.72-2a10.26 10.26 0 0 1-1.2-5.02c0-1.97.47-3.74 1.2-5.01.73-1.28 1.7-2 2.72-2 1.01 0 1.99.72 2.72 2a10.25 10.25 0 0 1 1.2 5.01Z"/>
      <path stroke="#498AFD" stroke-width=".56" d="M36.75 30c0 1.13-.73 2.2-2 2.99a9.59 9.59 0 0 1-5.01 1.29c-1.97 0-3.74-.5-5-1.3-1.28-.79-2.01-1.85-2.01-2.98 0-1.12.73-2.18 2-2.98a9.59 9.59 0 0 1 5-1.3c1.98 0 3.75.5 5.01 1.3 1.28.8 2 1.86 2 2.98Z"/>
      <path stroke="#498AFD" stroke-width=".56" d="M36.75 30.19c0 .09-.08.26-.44.46-.33.2-.84.4-1.49.55-1.29.33-3.09.53-5.08.53-2 0-3.8-.2-5.09-.53a5.82 5.82 0 0 1-1.49-.55c-.35-.2-.43-.37-.43-.46 0-.1.08-.26.43-.47.34-.2.84-.39 1.5-.55a22 22 0 0 1 5.08-.53c2 0 3.8.2 5.08.53.65.16 1.16.35 1.5.55.35.2.43.38.43.47ZM29.74 22.9v14.03"/>
    </g>
    <rect width="61" height="61" x=".5" y=".5" stroke="#13413E" rx="3.5"/>
    <rect width="61" height="61" x=".5" y=".5" stroke="url(#G)" rx="3.5"/>
  </g>
  <defs>
    <linearGradient id="d" x1="-5.16" x2="1126.73" y1="1441.78" y2="702.17" gradientUnits="userSpaceOnUse">
      <stop stop-color="#5ED070"/>
      <stop offset=".22" stop-color="#4266A0"/>
      <stop offset=".37" stop-color="#0D5868"/>
      <stop offset=".53" stop-color="#218089"/>
      <stop offset=".62" stop-color="#21818A"/>
      <stop offset=".74" stop-color="#6170FC"/>
      <stop offset=".87" stop-color="#7B64FF" stop-opacity="0"/>
      <stop offset="1" stop-color="#7C67FF" stop-opacity="0"/>
    </linearGradient>
    <linearGradient id="e" x1="-6.71" x2="13.42" y1="19.85" y2="26.82" gradientUnits="userSpaceOnUse">
      <stop stop-color="#fff"/>
      <stop offset="1" stop-color="#fff" stop-opacity="0"/>
    </linearGradient>
    <linearGradient id="f" x1="-6.71" x2="13.42" y1="15.98" y2="22.95" gradientUnits="userSpaceOnUse">
      <stop stop-color="#fff"/>
      <stop offset="1" stop-color="#fff" stop-opacity="0"/>
    </linearGradient>
    <linearGradient id="g" x1="-9.12" x2="10.59" y1="20.54" y2="27.55" gradientUnits="userSpaceOnUse">
      <stop stop-color="#fff"/>
      <stop offset="1" stop-color="#fff" stop-opacity="0"/>
    </linearGradient>
    <linearGradient id="h" x1="16.91" x2="23.88" y1="-4.87" y2="15.27" gradientUnits="userSpaceOnUse">
      <stop stop-color="#fff"/>
      <stop offset="1" stop-color="#fff" stop-opacity="0"/>
    </linearGradient>
    <linearGradient id="i" x1="13.03" x2="20" y1="-4.87" y2="15.27" gradientUnits="userSpaceOnUse">
      <stop stop-color="#fff"/>
      <stop offset="1" stop-color="#fff" stop-opacity="0"/>
    </linearGradient>
    <linearGradient id="j" x1="17.59" x2="24.61" y1="-7.28" y2="12.43" gradientUnits="userSpaceOnUse">
      <stop stop-color="#fff"/>
      <stop offset="1" stop-color="#fff" stop-opacity="0"/>
    </linearGradient>
    <linearGradient id="k" x1="67.76" x2="47.62" y1="19.85" y2="26.82" gradientUnits="userSpaceOnUse">
      <stop stop-color="#fff"/>
      <stop offset="1" stop-color="#fff" stop-opacity="0"/>
    </linearGradient>
    <linearGradient id="l" x1="67.76" x2="47.62" y1="15.98" y2="22.95" gradientUnits="userSpaceOnUse">
      <stop stop-color="#fff"/>
      <stop offset="1" stop-color="#fff" stop-opacity="0"/>
    </linearGradient>
    <linearGradient id="m" x1="70.17" x2="50.46" y1="20.54" y2="27.55" gradientUnits="userSpaceOnUse">
      <stop stop-color="#fff"/>
      <stop offset="1" stop-color="#fff" stop-opacity="0"/>
    </linearGradient>
    <linearGradient id="n" x1="44.14" x2="37.17" y1="-4.87" y2="15.27" gradientUnits="userSpaceOnUse">
      <stop stop-color="#fff"/>
      <stop offset="1" stop-color="#fff" stop-opacity="0"/>
    </linearGradient>
    <linearGradient id="o" x1="48.01" x2="41.04" y1="-4.87" y2="15.27" gradientUnits="userSpaceOnUse">
      <stop stop-color="#fff"/>
      <stop offset="1" stop-color="#fff" stop-opacity="0"/>
    </linearGradient>
    <linearGradient id="p" x1="43.45" x2="36.44" y1="-7.28" y2="12.43" gradientUnits="userSpaceOnUse">
      <stop stop-color="#fff"/>
      <stop offset="1" stop-color="#fff" stop-opacity="0"/>
    </linearGradient>
    <linearGradient id="q" x1="67.76" x2="47.62" y1="41" y2="34.03" gradientUnits="userSpaceOnUse">
      <stop stop-color="#fff"/>
      <stop offset="1" stop-color="#fff" stop-opacity="0"/>
    </linearGradient>
    <linearGradient id="r" x1="67.76" x2="47.62" y1="44.87" y2="37.9" gradientUnits="userSpaceOnUse">
      <stop stop-color="#fff"/>
      <stop offset="1" stop-color="#fff" stop-opacity="0"/>
    </linearGradient>
    <linearGradient id="s" x1="70.17" x2="50.46" y1="40.32" y2="33.3" gradientUnits="userSpaceOnUse">
      <stop stop-color="#fff"/>
      <stop offset="1" stop-color="#fff" stop-opacity="0"/>
    </linearGradient>
    <linearGradient id="t" x1="44.14" x2="37.17" y1="65.72" y2="45.58" gradientUnits="userSpaceOnUse">
      <stop stop-color="#fff"/>
      <stop offset="1" stop-color="#fff" stop-opacity="0"/>
    </linearGradient>
    <linearGradient id="u" x1="48.01" x2="41.04" y1="65.72" y2="45.58" gradientUnits="userSpaceOnUse">
      <stop stop-color="#fff"/>
      <stop offset="1" stop-color="#fff" stop-opacity="0"/>
    </linearGradient>
    <linearGradient id="v" x1="43.45" x2="36.44" y1="68.13" y2="48.42" gradientUnits="userSpaceOnUse">
      <stop stop-color="#fff"/>
      <stop offset="1" stop-color="#fff" stop-opacity="0"/>
    </linearGradient>
    <linearGradient id="w" x1="-6.71" x2="13.42" y1="41" y2="34.03" gradientUnits="userSpaceOnUse">
      <stop stop-color="#fff"/>
      <stop offset="1" stop-color="#fff" stop-opacity="0"/>
    </linearGradient>
    <linearGradient id="x" x1="-6.71" x2="13.42" y1="44.87" y2="37.9" gradientUnits="userSpaceOnUse">
      <stop stop-color="#fff"/>
      <stop offset="1" stop-color="#fff" stop-opacity="0"/>
    </linearGradient>
    <linearGradient id="y" x1="-9.13" x2="10.58" y1="40.32" y2="33.3" gradientUnits="userSpaceOnUse">
      <stop stop-color="#fff"/>
      <stop offset="1" stop-color="#fff" stop-opacity="0"/>
    </linearGradient>
    <linearGradient id="z" x1="16.91" x2="23.88" y1="65.72" y2="45.58" gradientUnits="userSpaceOnUse">
      <stop stop-color="#fff"/>
      <stop offset="1" stop-color="#fff" stop-opacity="0"/>
    </linearGradient>
    <linearGradient id="A" x1="13.03" x2="20" y1="65.72" y2="45.58" gradientUnits="userSpaceOnUse">
      <stop stop-color="#fff"/>
      <stop offset="1" stop-color="#fff" stop-opacity="0"/>
    </linearGradient>
    <linearGradient id="B" x1="17.59" x2="24.61" y1="68.13" y2="48.42" gradientUnits="userSpaceOnUse">
      <stop stop-color="#fff"/>
      <stop offset="1" stop-color="#fff" stop-opacity="0"/>
    </linearGradient>
    <linearGradient id="D" x1="19.57" x2="47.48" y1="17.63" y2="41.71" gradientUnits="userSpaceOnUse">
      <stop stop-color="#EEF0F5"/>
      <stop offset="1" stop-color="#E6E9EF"/>
    </linearGradient>
    <linearGradient id="F" x1="17.05" x2="46.93" y1="15.08" y2="38.79" gradientUnits="userSpaceOnUse">
      <stop stop-color="#EEF0F5"/>
      <stop offset="1" stop-color="#E6E9EF"/>
    </linearGradient>
    <linearGradient id="G" x1="2.07" x2="60.45" y1="0" y2="62" gradientUnits="userSpaceOnUse">
      <stop stop-color="#D2E3FF"/>
      <stop offset="1" stop-opacity="0"/>
    </linearGradient>
    <filter id="a" width="62" height="62" x="0" y="0" color-interpolation-filters="sRGB" filterUnits="userSpaceOnUse">
      <feFlood flood-opacity="0" result="BackgroundImageFix"/>
      <feBlend in="SourceGraphic" in2="BackgroundImageFix" result="shape"/>
      <feColorMatrix in="SourceAlpha" result="hardAlpha" values="0 0 0 0 0 0 0 0 0 0 0 0 0 0 0 0 0 0 127 0"/>
      <feOffset/>
      <feGaussianBlur stdDeviation="12"/>
      <feComposite in2="hardAlpha" k2="-1" k3="1" operator="arithmetic"/>
      <feColorMatrix values="0 0 0 0 0.0304167 0 0 0 0 0.264656 0 0 0 0 0.304167 0 0 0 1 0"/>
      <feBlend in2="shape" result="effect1_innerShadow"/>
    </filter>
    <filter id="C" width="60.55" height="63.64" x="1.28" y="-1.16" color-interpolation-filters="sRGB" filterUnits="userSpaceOnUse">
      <feFlood flood-opacity="0" result="BackgroundImageFix"/>
      <feColorMatrix in="SourceAlpha" result="hardAlpha" values="0 0 0 0 0 0 0 0 0 0 0 0 0 0 0 0 0 0 127 0"/>
      <feOffset dx="3.17" dy="3.17"/>
      <feGaussianBlur stdDeviation="6.34"/>
      <feColorMatrix values="0 0 0 0 0 0 0 0 0 0 0 0 0 0 0 0 0 0 0.1 0"/>
      <feBlend in2="BackgroundImageFix" result="effect1_dropShadow"/>
      <feColorMatrix in="SourceAlpha" result="hardAlpha" values="0 0 0 0 0 0 0 0 0 0 0 0 0 0 0 0 0 0 127 0"/>
      <feOffset dx="-3.17" dy="-3.17"/>
      <feGaussianBlur stdDeviation="6.34"/>
      <feColorMatrix values="0 0 0 0 1 0 0 0 0 1 0 0 0 0 1 0 0 0 0.5 0"/>
      <feBlend in2="effect1_dropShadow" result="effect2_dropShadow"/>
      <feColorMatrix in="SourceAlpha" result="hardAlpha" values="0 0 0 0 0 0 0 0 0 0 0 0 0 0 0 0 0 0 127 0"/>
      <feOffset dy="1.21"/>
      <feGaussianBlur stdDeviation="1.58"/>
      <feColorMatrix values="0 0 0 0 0 0 0 0 0 0 0 0 0 0 0 0 0 0 0.25 0"/>
      <feBlend in2="effect2_dropShadow" result="effect3_dropShadow"/>
      <feBlend in="SourceGraphic" in2="effect3_dropShadow" result="shape"/>
    </filter>
    <filter id="E" width="52.82" height="58.99" x="6.5" y="3.5" color-interpolation-filters="sRGB" filterUnits="userSpaceOnUse">
      <feFlood flood-opacity="0" result="BackgroundImageFix"/>
      <feColorMatrix in="SourceAlpha" result="hardAlpha" values="0 0 0 0 0 0 0 0 0 0 0 0 0 0 0 0 0 0 127 0"/>
      <feOffset dx="3.17" dy="3.17"/>
      <feGaussianBlur stdDeviation="6.34"/>
      <feColorMatrix values="0 0 0 0 0 0 0 0 0 0 0 0 0 0 0 0 0 0 0.1 0"/>
      <feBlend in2="BackgroundImageFix" result="effect1_dropShadow"/>
      <feColorMatrix in="SourceAlpha" result="hardAlpha" values="0 0 0 0 0 0 0 0 0 0 0 0 0 0 0 0 0 0 127 0"/>
      <feOffset dy="1.21"/>
      <feGaussianBlur stdDeviation="1.58"/>
      <feColorMatrix values="0 0 0 0 0 0 0 0 0 0 0 0 0 0 0 0 0 0 0.25 0"/>
      <feBlend in2="effect1_dropShadow" result="effect2_dropShadow"/>
      <feBlend in="SourceGraphic" in2="effect2_dropShadow" result="shape"/>
    </filter>
    <clipPath id="b">
      <rect width="62" height="62" fill="#fff" rx="4"/>
    </clipPath>
    <clipPath id="c">
      <path fill="#fff" d="M0 0h1074v620H0z" transform="rotate(-90 384.5 529.5)"/>
    </clipPath>
  </defs>
</svg>