<svg xmlns="http://www.w3.org/2000/svg" fill="none" viewBox="0 0 62 62">
  <g filter="url(#a)">
    <g clip-path="url(#b)">
      <rect width="62" height="62" fill="#141821" rx="4"/>
      <g clip-path="url(#c)">
        <path fill="#000" d="M-145 914V-160h620V914z"/>
        <path fill="url(#d)" d="M-145 914H929v620H-145z" transform="rotate(-90 -145 914)"/>
        <g filter="url(#e)">
          <path fill="url(#f)" d="M641.28 680.26C466.22 681.19.08 509.02-1.17 275.88s276.04-764.74 451.1-765.67c175.06-.94 251.52 353.11 145.1 677.16-77.52 236.07 185.46 510.25 46.25 492.89Z"/>
        </g>
        <g filter="url(#g)" style="mix-blend-mode:color-dodge">
          <path fill="url(#h)" d="M-9 414c5.62 81.77 63.3 116.36 119.62 140.1C96.37 704.97 114.9 858.25 203 1005c0 0-45.14-264.5 0-329 54.58-78-17.7-90.41-92.38-121.9C146.92 169.94 395.76-198.44 249-403 44.62-687.87-61.5-350.5-9 414Z"/>
        </g>
      </g>
      <path fill="url(#i)" d="M370 813h375v824H370z" transform="rotate(-180 370 813)"/>
      <path stroke="url(#j)" stroke-width=".21" d="M15.31 24.28 3.81 13.33h-9.3"/>
      <path stroke="url(#k)" stroke-width=".21" d="m15.31 19.9-10.4-9.86h-10.4"/>
      <path stroke="url(#l)" stroke-width=".21" d="m13.12 26.47-10.4-9.85h-8.21"/>
      <path stroke="url(#m)" stroke-width=".21" d="M21.34 17.16 10.38 5.66v-10.4"/>
      <path stroke="url(#n)" stroke-width=".21" d="M16.96 17.16 7.1 6.76v-11.5"/>
      <path stroke="url(#o)" stroke-width=".21" d="m23.53 14.97-9.86-10.4v-9.31"/>
      <path stroke="url(#p)" stroke-width=".21" d="m45.73 24.28 11.5-10.95h9.31"/>
      <path stroke="url(#q)" stroke-width=".21" d="m45.73 19.9 10.4-9.86h10.41"/>
      <path stroke="url(#r)" stroke-width=".21" d="m47.92 26.47 10.4-9.85h8.22"/>
      <path stroke="url(#s)" stroke-width=".21" d="m39.71 17.16 10.95-11.5v-10.4"/>
      <path stroke="url(#t)" stroke-width=".21" d="m44.09 17.16 9.86-10.4v-11.5"/>
      <path stroke="url(#u)" stroke-width=".21" d="m37.52 14.97 9.85-10.4v-9.31"/>
      <path stroke="url(#v)" stroke-width=".21" d="m45.73 36.57 11.5 10.96h9.31"/>
      <path stroke="url(#w)" stroke-width=".21" d="m45.73 40.95 10.4 9.86h10.41"/>
      <path stroke="url(#x)" stroke-width=".21" d="m47.92 34.38 10.4 9.86h8.22"/>
      <path stroke="url(#y)" stroke-width=".21" d="m39.71 43.7 10.95 11.5v10.4"/>
      <path stroke="url(#z)" stroke-width=".21" d="m44.09 43.7 9.86 10.4v11.5"/>
      <path stroke="url(#A)" stroke-width=".21" d="m37.52 45.88 9.85 10.4v9.31"/>
      <path stroke="url(#B)" stroke-width=".21" d="M15.31 36.57 3.81 47.53h-9.3"/>
      <path stroke="url(#C)" stroke-width=".21" d="m15.31 40.95-10.4 9.86h-10.4"/>
      <path stroke="url(#D)" stroke-width=".21" d="m13.12 34.38-10.4 9.86H-5.5"/>
      <path stroke="url(#E)" stroke-width=".21" d="M21.33 43.7 10.38 55.2v10.4"/>
      <path stroke="url(#F)" stroke-width=".21" d="M16.96 43.7 7.1 54.1v11.5"/>
      <path stroke="url(#G)" stroke-width=".21" d="m23.53 45.88-9.86 10.4v9.31"/>
      <g filter="url(#H)">
        <rect width="34.44" height="22.62" x="13.9" y="19" fill="#C4C4C4" rx="2.1"/>
        <rect width="34.44" height="22.62" x="13.9" y="19" fill="url(#I)" rx="2.1"/>
      </g>
      <g filter="url(#J)">
        <rect width="28.94" height="17.31" x="16.65" y="21.66" fill="#C4C4C4" rx="2.1"/>
        <rect width="28.94" height="17.31" x="16.65" y="21.66" fill="url(#K)" rx="2.1"/>
      </g>
      <g filter="url(#L)">
        <path fill="#C4C4C4" d="M15.73 27.24c0-1.16.94-2.1 2.1-2.1h5.2c.26 0 .51.06.74.2a14.75 14.75 0 0 0 14.7 0c.23-.14.48-.2.74-.2h5.2c1.16 0 2.1.94 2.1 2.1v10.09a2.1 2.1 0 0 1-2.1 2.1H17.83a2.1 2.1 0 0 1-2.1-2.1v-10.1Z"/>
        <path fill="url(#M)" d="M15.73 27.24c0-1.16.94-2.1 2.1-2.1h5.2c.26 0 .51.06.74.2a14.75 14.75 0 0 0 14.7 0c.23-.14.48-.2.74-.2h5.2c1.16 0 2.1.94 2.1 2.1v10.09a2.1 2.1 0 0 1-2.1 2.1H17.83a2.1 2.1 0 0 1-2.1-2.1v-10.1Z"/>
      </g>
      <path fill="#C4C4C4" fill-rule="evenodd" d="M18.75 21.66a2.1 2.1 0 0 0-2.1 2.1v1.74c.34-.23.74-.36 1.18-.36h5.2c.26 0 .51.06.74.2a14.75 14.75 0 0 0 14.7 0c.23-.14.48-.2.74-.2h5.2c.44 0 .85.13 1.18.36v-1.74a2.1 2.1 0 0 0-2.1-2.1H18.75Z" clip-rule="evenodd"/>
      <path fill="url(#N)" fill-rule="evenodd" d="M18.75 21.66a2.1 2.1 0 0 0-2.1 2.1v1.74c.34-.23.74-.36 1.18-.36h5.2c.26 0 .51.06.74.2a14.75 14.75 0 0 0 14.7 0c.23-.14.48-.2.74-.2h5.2c.44 0 .85.13 1.18.36v-1.74a2.1 2.1 0 0 0-2.1-2.1H18.75Z" clip-rule="evenodd"/>
    </g>
    <rect width="61" height="61" x=".5" y=".5" stroke="#13413E" rx="3.5"/>
    <rect width="61" height="61" x=".5" y=".5" stroke="url(#O)" rx="3.5"/>
  </g>
  <defs>
    <linearGradient id="d" x1="-5.16" x2="1126.73" y1="1441.78" y2="702.17" gradientUnits="userSpaceOnUse">
      <stop stop-color="#5E87D0"/>
      <stop offset=".22" stop-color="#4266A0"/>
      <stop offset=".37" stop-color="#4669C8"/>
      <stop offset=".53" stop-color="#3E79AF" stop-opacity=".87"/>
      <stop offset=".62" stop-color="#5472BE"/>
      <stop offset=".74" stop-color="#6170FC"/>
      <stop offset=".87" stop-color="#7B64FF" stop-opacity="0"/>
      <stop offset="1" stop-color="#7C67FF" stop-opacity="0"/>
    </linearGradient>
    <linearGradient id="j" x1="-6.71" x2="13.42" y1="19.85" y2="26.82" gradientUnits="userSpaceOnUse">
      <stop stop-color="#fff"/>
      <stop offset="1" stop-color="#fff" stop-opacity="0"/>
    </linearGradient>
    <linearGradient id="k" x1="-6.71" x2="13.42" y1="15.98" y2="22.95" gradientUnits="userSpaceOnUse">
      <stop stop-color="#fff"/>
      <stop offset="1" stop-color="#fff" stop-opacity="0"/>
    </linearGradient>
    <linearGradient id="l" x1="-9.12" x2="10.59" y1="20.54" y2="27.55" gradientUnits="userSpaceOnUse">
      <stop stop-color="#fff"/>
      <stop offset="1" stop-color="#fff" stop-opacity="0"/>
    </linearGradient>
    <linearGradient id="m" x1="16.91" x2="23.88" y1="-4.87" y2="15.27" gradientUnits="userSpaceOnUse">
      <stop stop-color="#fff"/>
      <stop offset="1" stop-color="#fff" stop-opacity="0"/>
    </linearGradient>
    <linearGradient id="n" x1="13.03" x2="20" y1="-4.87" y2="15.27" gradientUnits="userSpaceOnUse">
      <stop stop-color="#fff"/>
      <stop offset="1" stop-color="#fff" stop-opacity="0"/>
    </linearGradient>
    <linearGradient id="o" x1="17.59" x2="24.61" y1="-7.28" y2="12.43" gradientUnits="userSpaceOnUse">
      <stop stop-color="#fff"/>
      <stop offset="1" stop-color="#fff" stop-opacity="0"/>
    </linearGradient>
    <linearGradient id="p" x1="67.76" x2="47.62" y1="19.85" y2="26.82" gradientUnits="userSpaceOnUse">
      <stop stop-color="#fff"/>
      <stop offset="1" stop-color="#fff" stop-opacity="0"/>
    </linearGradient>
    <linearGradient id="q" x1="67.76" x2="47.62" y1="15.98" y2="22.95" gradientUnits="userSpaceOnUse">
      <stop stop-color="#fff"/>
      <stop offset="1" stop-color="#fff" stop-opacity="0"/>
    </linearGradient>
    <linearGradient id="r" x1="70.17" x2="50.46" y1="20.54" y2="27.55" gradientUnits="userSpaceOnUse">
      <stop stop-color="#fff"/>
      <stop offset="1" stop-color="#fff" stop-opacity="0"/>
    </linearGradient>
    <linearGradient id="s" x1="44.14" x2="37.17" y1="-4.87" y2="15.27" gradientUnits="userSpaceOnUse">
      <stop stop-color="#fff"/>
      <stop offset="1" stop-color="#fff" stop-opacity="0"/>
    </linearGradient>
    <linearGradient id="t" x1="48.01" x2="41.04" y1="-4.87" y2="15.27" gradientUnits="userSpaceOnUse">
      <stop stop-color="#fff"/>
      <stop offset="1" stop-color="#fff" stop-opacity="0"/>
    </linearGradient>
    <linearGradient id="u" x1="43.45" x2="36.44" y1="-7.28" y2="12.43" gradientUnits="userSpaceOnUse">
      <stop stop-color="#fff"/>
      <stop offset="1" stop-color="#fff" stop-opacity="0"/>
    </linearGradient>
    <linearGradient id="v" x1="67.76" x2="47.62" y1="41" y2="34.03" gradientUnits="userSpaceOnUse">
      <stop stop-color="#fff"/>
      <stop offset="1" stop-color="#fff" stop-opacity="0"/>
    </linearGradient>
    <linearGradient id="w" x1="67.76" x2="47.62" y1="44.87" y2="37.9" gradientUnits="userSpaceOnUse">
      <stop stop-color="#fff"/>
      <stop offset="1" stop-color="#fff" stop-opacity="0"/>
    </linearGradient>
    <linearGradient id="x" x1="70.17" x2="50.46" y1="40.32" y2="33.3" gradientUnits="userSpaceOnUse">
      <stop stop-color="#fff"/>
      <stop offset="1" stop-color="#fff" stop-opacity="0"/>
    </linearGradient>
    <linearGradient id="y" x1="44.14" x2="37.17" y1="65.72" y2="45.58" gradientUnits="userSpaceOnUse">
      <stop stop-color="#fff"/>
      <stop offset="1" stop-color="#fff" stop-opacity="0"/>
    </linearGradient>
    <linearGradient id="z" x1="48.01" x2="41.04" y1="65.72" y2="45.58" gradientUnits="userSpaceOnUse">
      <stop stop-color="#fff"/>
      <stop offset="1" stop-color="#fff" stop-opacity="0"/>
    </linearGradient>
    <linearGradient id="A" x1="43.45" x2="36.44" y1="68.13" y2="48.42" gradientUnits="userSpaceOnUse">
      <stop stop-color="#fff"/>
      <stop offset="1" stop-color="#fff" stop-opacity="0"/>
    </linearGradient>
    <linearGradient id="B" x1="-6.71" x2="13.42" y1="41" y2="34.03" gradientUnits="userSpaceOnUse">
      <stop stop-color="#fff"/>
      <stop offset="1" stop-color="#fff" stop-opacity="0"/>
    </linearGradient>
    <linearGradient id="C" x1="-6.71" x2="13.42" y1="44.87" y2="37.9" gradientUnits="userSpaceOnUse">
      <stop stop-color="#fff"/>
      <stop offset="1" stop-color="#fff" stop-opacity="0"/>
    </linearGradient>
    <linearGradient id="D" x1="-9.13" x2="10.58" y1="40.32" y2="33.3" gradientUnits="userSpaceOnUse">
      <stop stop-color="#fff"/>
      <stop offset="1" stop-color="#fff" stop-opacity="0"/>
    </linearGradient>
    <linearGradient id="E" x1="16.91" x2="23.88" y1="65.72" y2="45.58" gradientUnits="userSpaceOnUse">
      <stop stop-color="#fff"/>
      <stop offset="1" stop-color="#fff" stop-opacity="0"/>
    </linearGradient>
    <linearGradient id="F" x1="13.03" x2="20" y1="65.72" y2="45.58" gradientUnits="userSpaceOnUse">
      <stop stop-color="#fff"/>
      <stop offset="1" stop-color="#fff" stop-opacity="0"/>
    </linearGradient>
    <linearGradient id="G" x1="17.59" x2="24.61" y1="68.13" y2="48.42" gradientUnits="userSpaceOnUse">
      <stop stop-color="#fff"/>
      <stop offset="1" stop-color="#fff" stop-opacity="0"/>
    </linearGradient>
    <linearGradient id="I" x1="15.21" x2="34.37" y1="20.4" y2="48.72" gradientUnits="userSpaceOnUse">
      <stop stop-color="#EEF0F5"/>
      <stop offset="1" stop-color="#E6E9EF"/>
    </linearGradient>
    <linearGradient id="K" x1="17.75" x2="31.85" y1="22.73" y2="45.63" gradientUnits="userSpaceOnUse">
      <stop stop-color="#3D2A66"/>
      <stop offset="1" stop-color="#E6E9EF"/>
    </linearGradient>
    <linearGradient id="M" x1="16.9" x2="27.05" y1="26.02" y2="47.24" gradientUnits="userSpaceOnUse">
      <stop stop-color="#EEF0F5"/>
      <stop offset="1" stop-color="#E6E9EF"/>
    </linearGradient>
    <linearGradient id="N" x1="17.75" x2="29.15" y1="22.59" y2="43.91" gradientUnits="userSpaceOnUse">
      <stop stop-color="#3D2A66"/>
      <stop offset="1" stop-color="#E6E9EF"/>
    </linearGradient>
    <linearGradient id="O" x1="2.07" x2="60.45" y1="0" y2="62" gradientUnits="userSpaceOnUse">
      <stop stop-color="#D2E3FF"/>
      <stop offset="1" stop-opacity="0"/>
    </linearGradient>
    <filter id="a" width="62" height="62" x="0" y="0" color-interpolation-filters="sRGB" filterUnits="userSpaceOnUse">
      <feFlood flood-opacity="0" result="BackgroundImageFix"/>
      <feBlend in="SourceGraphic" in2="BackgroundImageFix" result="shape"/>
      <feColorMatrix in="SourceAlpha" result="hardAlpha" values="0 0 0 0 0 0 0 0 0 0 0 0 0 0 0 0 0 0 127 0"/>
      <feOffset/>
      <feGaussianBlur stdDeviation="12"/>
      <feComposite in2="hardAlpha" k2="-1" k3="1" operator="arithmetic"/>
      <feColorMatrix values="0 0 0 0 0.32 0 0 0 0 0 0 0 0 0 1 0 0 0 0.42 0"/>
      <feBlend in2="shape" result="effect1_innerShadow"/>
    </filter>
    <filter id="e" width="716.07" height="1203.52" x="-19.24" y="-505" color-interpolation-filters="sRGB" filterUnits="userSpaceOnUse">
      <feFlood flood-opacity="0" result="BackgroundImageFix"/>
      <feBlend in="SourceGraphic" in2="BackgroundImageFix" result="shape"/>
      <feGaussianBlur result="effect1_foregroundBlur" stdDeviation="7"/>
    </filter>
    <filter id="g" width="1608.67" height="1607.93" x="-640.01" y="-568.93" color-interpolation-filters="sRGB" filterUnits="userSpaceOnUse">
      <feFlood flood-opacity="0" result="BackgroundImageFix"/>
      <feBlend in="SourceGraphic" in2="BackgroundImageFix" result="shape"/>
      <feGaussianBlur result="effect1_foregroundBlur" stdDeviation="17"/>
    </filter>
    <filter id="H" width="53.42" height="41.6" x="6.78" y="11.88" color-interpolation-filters="sRGB" filterUnits="userSpaceOnUse">
      <feFlood flood-opacity="0" result="BackgroundImageFix"/>
      <feColorMatrix in="SourceAlpha" result="hardAlpha" values="0 0 0 0 0 0 0 0 0 0 0 0 0 0 0 0 0 0 127 0"/>
      <feOffset dx="2.37" dy="2.37"/>
      <feGaussianBlur stdDeviation="4.75"/>
      <feColorMatrix values="0 0 0 0 0 0 0 0 0 0 0 0 0 0 0 0 0 0 0.1 0"/>
      <feBlend in2="BackgroundImageFix" result="effect1_dropShadow"/>
      <feColorMatrix in="SourceAlpha" result="hardAlpha" values="0 0 0 0 0 0 0 0 0 0 0 0 0 0 0 0 0 0 127 0"/>
      <feOffset dy=".9"/>
      <feGaussianBlur stdDeviation="1.19"/>
      <feColorMatrix values="0 0 0 0 0 0 0 0 0 0 0 0 0 0 0 0 0 0 0.25 0"/>
      <feBlend in2="effect1_dropShadow" result="effect2_dropShadow"/>
      <feBlend in="SourceGraphic" in2="effect2_dropShadow" result="shape"/>
    </filter>
    <filter id="J" width="47.92" height="36.29" x="4.79" y="9.79" color-interpolation-filters="sRGB" filterUnits="userSpaceOnUse">
      <feFlood flood-opacity="0" result="BackgroundImageFix"/>
      <feColorMatrix in="SourceAlpha" result="hardAlpha" values="0 0 0 0 0 0 0 0 0 0 0 0 0 0 0 0 0 0 127 0"/>
      <feOffset dx="-2.37" dy="-2.37"/>
      <feGaussianBlur stdDeviation="4.75"/>
      <feColorMatrix values="0 0 0 0 1 0 0 0 0 1 0 0 0 0 1 0 0 0 0.5 0"/>
      <feBlend in2="BackgroundImageFix" result="effect1_dropShadow"/>
      <feColorMatrix in="SourceAlpha" result="hardAlpha" values="0 0 0 0 0 0 0 0 0 0 0 0 0 0 0 0 0 0 127 0"/>
      <feOffset dy=".46"/>
      <feGaussianBlur stdDeviation="1.26"/>
      <feColorMatrix values="0 0 0 0 0 0 0 0 0 0 0 0 0 0 0 0 0 0 0.25 0"/>
      <feBlend in2="effect1_dropShadow" result="effect2_dropShadow"/>
      <feBlend in="SourceGraphic" in2="effect2_dropShadow" result="shape"/>
    </filter>
    <filter id="L" width="49.76" height="33.27" x="8.61" y="18.02" color-interpolation-filters="sRGB" filterUnits="userSpaceOnUse">
      <feFlood flood-opacity="0" result="BackgroundImageFix"/>
      <feColorMatrix in="SourceAlpha" result="hardAlpha" values="0 0 0 0 0 0 0 0 0 0 0 0 0 0 0 0 0 0 127 0"/>
      <feOffset dx="2.37" dy="2.37"/>
      <feGaussianBlur stdDeviation="4.75"/>
      <feColorMatrix values="0 0 0 0 0 0 0 0 0 0 0 0 0 0 0 0 0 0 0.1 0"/>
      <feBlend in2="BackgroundImageFix" result="effect1_dropShadow"/>
      <feBlend in="SourceGraphic" in2="effect1_dropShadow" result="shape"/>
    </filter>
    <radialGradient id="f" cx="0" cy="0" r="1" gradientTransform="rotate(-173.24 390.78 -19.18) scale(679.883 1588.04)" gradientUnits="userSpaceOnUse">
      <stop stop-color="#BFD6EB"/>
      <stop offset=".16" stop-color="#68B0EF"/>
      <stop offset=".36" stop-color="#68AEEE" stop-opacity=".87"/>
      <stop offset=".52" stop-color="#818CF0"/>
      <stop offset=".87" stop-color="#9788F1" stop-opacity="0"/>
    </radialGradient>
    <radialGradient id="h" cx="0" cy="0" r="1" gradientTransform="matrix(-363.16496 -943.4676 917.22185 -353.0623 255.87 927.85)" gradientUnits="userSpaceOnUse">
      <stop stop-color="#9881F2"/>
      <stop offset=".3" stop-color="#349FFD"/>
      <stop offset=".77" stop-color="#5360CE"/>
      <stop offset="1" stop-color="#7C66FC" stop-opacity="0"/>
    </radialGradient>
    <radialGradient id="i" cx="0" cy="0" r="1" gradientTransform="rotate(90 -128 685) scale(807.5)" gradientUnits="userSpaceOnUse">
      <stop/>
      <stop offset="1" stop-opacity="0"/>
    </radialGradient>
    <clipPath id="b">
      <rect width="62" height="62" fill="#fff" rx="4"/>
    </clipPath>
    <clipPath id="c">
      <path fill="#fff" d="M0 0h1074v620H0z" transform="rotate(-90 384.5 529.5)"/>
    </clipPath>
  </defs>
</svg>